M48
; #@! TF.GenerationSoftware,LibrePCB,LibrePCB,2.1.1
; #@! TF.CreationDate,2026-07-23T09:36:25
; #@! TF.ProjectId,kbdkid4,82b26ad5-ee44-4a8a-8f43-cf6dd6902403,v1
; #@! TF.Part,Single
; #@! TF.SameCoordinates
; #@! TF.FileFunction,NonPlated,1,4,NPTH
FMAT,2
METRIC,TZ
; #@! TA.AperFunction,MechanicalDrill
T1C0.9
; #@! TA.AperFunction,MechanicalDrill
T2C1.2
; #@! TA.AperFunction,MechanicalDrill
T3C1.9
; #@! TA.AperFunction,MechanicalDrill
T4C2.4
; #@! TA.AperFunction,MechanicalDrill
T5C3.0
; #@! TA.AperFunction,MechanicalDrill
T6C3.4
%
G90
G05
M71
T1
X129.314352Y65.732722
X128.337648Y68.569278
X128.337648Y68.569278
X129.314352Y65.732722
T2
X14.269Y13.407
X99.079Y15.789
X3.829Y70.557
X71.419Y58.651
X90.469Y18.17
X33.319Y32.457
X128.569Y13.407
X3.829Y32.457
X41.929Y18.17
X99.079Y72.939
X3.829Y51.507
X60.979Y39.601
X80.029Y75.32
X22.879Y32.457
X60.979Y77.701
X99.079Y34.839
X80.029Y18.17
X118.129Y13.407
X14.269Y32.457
X22.879Y70.557
X33.319Y51.507
X60.979Y58.651
X14.269Y51.507
X71.419Y20.551
X71.419Y77.701
X33.319Y13.407
X71.419Y39.601
X41.929Y37.22
X52.369Y18.17
X14.269Y70.557
X60.979Y20.551
X52.369Y75.32
X80.029Y56.27
X109.519Y34.839
X90.469Y75.32
X22.879Y13.407
X109.519Y15.789
X90.469Y56.27
X3.829Y13.407
X99.079Y53.889
X109.519Y53.889
X80.029Y37.22
X33.319Y70.557
X52.369Y56.27
X41.929Y56.27
X41.929Y75.32
X90.469Y37.22
X109.519Y72.939
X22.879Y51.507
X52.369Y37.22
T3
X3.549Y9.207
X14.549Y9.207
X109.799Y11.589
X98.799Y11.589
X14.549Y66.357
X3.549Y66.357
X60.699Y54.451
X71.699Y54.451
X79.749Y13.97
X90.749Y13.97
X22.599Y28.257
X33.599Y28.257
X117.849Y9.207
X128.849Y9.207
X14.549Y28.257
X3.549Y28.257
X52.649Y13.97
X41.649Y13.97
X109.799Y68.739
X98.799Y68.739
X14.549Y47.307
X3.549Y47.307
X71.699Y35.401
X60.699Y35.401
X90.749Y71.12
X79.749Y71.12
X33.599Y28.257
X22.599Y28.257
X71.699Y73.501
X60.699Y73.501
X109.799Y30.639
X98.799Y30.639
X90.749Y13.97
X79.749Y13.97
X128.849Y9.207
X117.849Y9.207
X3.549Y28.257
X14.549Y28.257
X33.599Y66.357
X22.599Y66.357
X22.599Y47.307
X33.599Y47.307
X71.699Y54.451
X60.699Y54.451
X3.549Y47.307
X14.549Y47.307
X60.699Y16.351
X71.699Y16.351
X60.699Y73.501
X71.699Y73.501
X22.599Y9.207
X33.599Y9.207
X60.699Y35.401
X71.699Y35.401
X52.649Y33.02
X41.649Y33.02
X41.649Y13.97
X52.649Y13.97
X3.549Y66.357
X14.549Y66.357
X71.699Y16.351
X60.699Y16.351
X41.649Y71.12
X52.649Y71.12
X90.749Y52.07
X79.749Y52.07
X98.799Y30.639
X109.799Y30.639
X79.749Y71.12
X90.749Y71.12
X33.599Y9.207
X22.599Y9.207
X98.799Y11.589
X109.799Y11.589
X79.749Y52.07
X90.749Y52.07
X14.549Y9.207
X3.549Y9.207
X109.799Y49.689
X98.799Y49.689
X98.799Y49.689
X109.799Y49.689
X90.749Y33.02
X79.749Y33.02
X22.599Y66.357
X33.599Y66.357
X41.649Y52.07
X52.649Y52.07
X52.649Y52.07
X41.649Y52.07
X52.649Y71.12
X41.649Y71.12
X79.749Y33.02
X90.749Y33.02
X98.799Y68.739
X109.799Y68.739
X33.599Y47.307
X22.599Y47.307
X41.649Y33.02
X52.649Y33.02
T4
X94.774Y60.4045
X76.0415Y43.2595
X18.574Y18.732
X114.1415Y19.7645
X18.574Y56.832
T5
X9.049Y3.257
X4.049Y5.457
X104.299Y5.639
X109.299Y7.839
X9.049Y60.407
X14.049Y62.607
X66.199Y48.501
X61.199Y50.701
X85.249Y8.02
X80.249Y10.22
X28.099Y22.307
X23.099Y24.507
X123.349Y3.257
X118.349Y5.457
X9.049Y22.307
X14.049Y24.507
X47.149Y8.02
X52.149Y10.22
X104.299Y62.789
X109.299Y64.989
X9.049Y41.357
X14.049Y43.557
X66.199Y29.451
X71.199Y31.651
X85.249Y65.17
X90.249Y67.37
X28.099Y22.307
X33.099Y24.507
X66.199Y67.551
X71.199Y69.751
X104.299Y24.689
X109.299Y26.889
X85.249Y8.02
X90.249Y10.22
X123.349Y3.257
X128.349Y5.457
X9.049Y22.307
X4.049Y24.507
X28.099Y60.407
X33.099Y62.607
X28.099Y41.357
X23.099Y43.557
X66.199Y48.501
X71.199Y50.701
X9.049Y41.357
X4.049Y43.557
X66.199Y10.401
X61.199Y12.601
X66.199Y67.551
X61.199Y69.751
X28.099Y3.257
X23.099Y5.457
X66.199Y29.451
X61.199Y31.651
X47.149Y27.07
X52.149Y29.27
X47.149Y8.02
X42.149Y10.22
X9.049Y60.407
X4.049Y62.607
X66.199Y10.401
X71.199Y12.601
X47.149Y65.17
X42.149Y67.37
X85.249Y46.12
X90.249Y48.32
X104.299Y24.689
X99.299Y26.889
X85.249Y65.17
X80.249Y67.37
X28.099Y3.257
X33.099Y5.457
X104.299Y5.639
X99.299Y7.839
X85.249Y46.12
X80.249Y48.32
X9.049Y3.257
X14.049Y5.457
X104.299Y43.739
X109.299Y45.939
X104.299Y43.739
X99.299Y45.939
X85.249Y27.07
X90.249Y29.27
X28.099Y60.407
X23.099Y62.607
X47.149Y46.12
X42.149Y48.32
X47.149Y46.12
X52.149Y48.32
X47.149Y65.17
X52.149Y67.37
X85.249Y27.07
X80.249Y29.27
X104.299Y62.789
X99.299Y64.989
X28.099Y41.357
X33.099Y43.557
X47.149Y27.07
X42.149Y29.27
T6
X9.049Y9.207
X104.299Y11.589
X9.049Y66.357
X66.199Y54.451
X85.249Y13.97
X28.099Y28.257
X123.349Y9.207
X9.049Y28.257
X47.149Y13.97
X104.299Y68.739
X9.049Y47.307
X66.199Y35.401
X85.249Y71.12
X28.099Y28.257
X66.199Y73.501
X104.299Y30.639
X85.249Y13.97
X123.349Y9.207
X9.049Y28.257
X28.099Y66.357
X28.099Y47.307
X66.199Y54.451
X9.049Y47.307
X66.199Y16.351
X66.199Y73.501
X28.099Y9.207
X66.199Y35.401
X47.149Y33.02
X47.149Y13.97
X9.049Y66.357
X66.199Y16.351
X47.149Y71.12
X85.249Y52.07
X104.299Y30.639
X85.249Y71.12
X28.099Y9.207
X104.299Y11.589
X85.249Y52.07
X9.049Y9.207
X104.299Y49.689
X104.299Y49.689
X85.249Y33.02
X28.099Y66.357
X47.149Y52.07
X47.149Y52.07
X47.149Y71.12
X85.249Y33.02
X104.299Y68.739
X28.099Y47.307
X47.149Y33.02
T0
M30
