G04 --- HEADER BEGIN --- *
G04 #@! TF.GenerationSoftware,LibrePCB,LibrePCB,2.1.1*
G04 #@! TF.CreationDate,2026-07-23T17:52:11*
G04 #@! TF.ProjectId,kbdkid4,82b26ad5-ee44-4a8a-8f43-cf6dd6902403,v1*
G04 #@! TF.Part,Single*
G04 #@! TF.SameCoordinates*
G04 #@! TF.FileFunction,Paste,Top*
G04 #@! TF.FilePolarity,Positive*
%FSLAX66Y66*%
%MOMM*%
G01*
G75*
G04 --- HEADER END --- *
G04 --- APERTURE LIST BEGIN --- *
%ADD10R,3.08X2.08*%
%ADD11R,1.31X0.76*%
%ADD12R,1.54X0.64*%
%AMROTATEDRECT13*20,1,0.56,-0.68,0.0,0.68,0.0,19.0*%
%ADD13ROTATEDRECT13*%
%AMROTATEDRECT14*20,1,0.64,-0.42,0.0,0.42,0.0,109.0*%
%ADD14ROTATEDRECT14*%
%ADD15R,1.28X1.88*%
G04 --- APERTURE LIST END --- *
G04 --- BOARD BEGIN --- *
D10*
G04 #@! TO.C,S251*
X37174000Y43557000D03*
X24024000Y41357000D03*
D11*
G04 #@! TO.C,D132*
X64324000Y39681000D03*
X68074000Y39681000D03*
D10*
G04 #@! TO.C,S240*
X56224000Y67370000D03*
X43074000Y65170000D03*
D11*
G04 #@! TO.C,D133*
X64324000Y20631000D03*
X68074000Y20631000D03*
D10*
G04 #@! TO.C,S241*
X56224000Y48320000D03*
X43074000Y46120000D03*
D11*
G04 #@! TO.C,D113*
X26224000Y13487000D03*
X29974000Y13487000D03*
D12*
G04 #@! TO.C,S3*
X124222000Y64009000D03*
X124222000Y60609000D03*
D11*
G04 #@! TO.C,D163*
X121474000Y13487000D03*
X125224000Y13487000D03*
G04 #@! TO.C,D100*
X7174000Y70637000D03*
X10924000Y70637000D03*
G04 #@! TO.C,D120*
X45274000Y75400000D03*
X49024000Y75400000D03*
D10*
G04 #@! TO.C,S222*
X94324000Y29270000D03*
X81174000Y27070000D03*
D11*
G04 #@! TO.C,D143*
X83374000Y18250000D03*
X87124000Y18250000D03*
G04 #@! TO.C,D142*
X83374000Y37300000D03*
X87124000Y37300000D03*
D13*
G04 #@! TO.C,S1*
X127903871Y64453839D03*
X126927166Y67290395D03*
D14*
X128677747Y70960268D03*
X131054394Y64057982D03*
X128974253Y63341732D03*
D13*
X126438814Y68708673D03*
D14*
X126597606Y70244018D03*
D11*
G04 #@! TO.C,D140*
X83374000Y75400000D03*
X87124000Y75400000D03*
G04 #@! TO.C,D103*
X7174000Y13487000D03*
X10924000Y13487000D03*
D10*
G04 #@! TO.C,S211*
X113374000Y45939000D03*
X100224000Y43739000D03*
G04 #@! TO.C,S263*
X18124000Y5457000D03*
X4974000Y3257000D03*
D11*
G04 #@! TO.C,D121*
X45274000Y56350000D03*
X49024000Y56350000D03*
G04 #@! TO.C,D111*
X26224000Y51587000D03*
X29974000Y51587000D03*
D15*
G04 #@! TO.C,S253*
X35899000Y5507000D03*
X25299000Y3307000D03*
D10*
G04 #@! TO.C,S221*
X94324000Y48320000D03*
X81174000Y46120000D03*
G04 #@! TO.C,S233*
X75274000Y12601000D03*
X62124000Y10401000D03*
D11*
G04 #@! TO.C,D151*
X102424000Y53969000D03*
X106174000Y53969000D03*
G04 #@! TO.C,D153*
X102424000Y15869000D03*
X106174000Y15869000D03*
D10*
G04 #@! TO.C,S242*
X56224000Y29270000D03*
X43074000Y27070000D03*
D11*
G04 #@! TO.C,D112*
X26224000Y32537000D03*
X29974000Y32537000D03*
G04 #@! TO.C,D122*
X45274000Y37300000D03*
X49024000Y37300000D03*
G04 #@! TO.C,D110*
X26224000Y70637000D03*
X29974000Y70637000D03*
D10*
G04 #@! TO.C,S231*
X75274000Y50701000D03*
X62124000Y48501000D03*
G04 #@! TO.C,S250*
X37174000Y62607000D03*
X24024000Y60407000D03*
G04 #@! TO.C,S203*
X132424000Y5457000D03*
X119274000Y3257000D03*
D11*
G04 #@! TO.C,D101*
X7174000Y51587000D03*
X10924000Y51587000D03*
G04 #@! TO.C,D123*
X45274000Y18250000D03*
X49024000Y18250000D03*
D10*
G04 #@! TO.C,S223*
X94324000Y10220000D03*
X81174000Y8020000D03*
D11*
G04 #@! TO.C,D150*
X102424000Y73019000D03*
X106174000Y73019000D03*
D10*
G04 #@! TO.C,S212*
X113374000Y26889000D03*
X100224000Y24689000D03*
G04 #@! TO.C,S230*
X75274000Y69751000D03*
X62124000Y67551000D03*
D11*
G04 #@! TO.C,D130*
X64324000Y77781000D03*
X68074000Y77781000D03*
D10*
G04 #@! TO.C,S252*
X37174000Y24507000D03*
X24024000Y22307000D03*
D11*
G04 #@! TO.C,D141*
X83374000Y56350000D03*
X87124000Y56350000D03*
D10*
G04 #@! TO.C,S220*
X94324000Y67370000D03*
X81174000Y65170000D03*
G04 #@! TO.C,S232*
X75274000Y31651000D03*
X62124000Y29451000D03*
G04 #@! TO.C,S261*
X18124000Y43557000D03*
X4974000Y41357000D03*
G04 #@! TO.C,S210*
X113374000Y64989000D03*
X100224000Y62789000D03*
D11*
G04 #@! TO.C,D152*
X102424000Y34919000D03*
X106174000Y34919000D03*
G04 #@! TO.C,D102*
X7174000Y32537000D03*
X10924000Y32537000D03*
D10*
G04 #@! TO.C,S243*
X56224000Y10220000D03*
X43074000Y8020000D03*
G04 #@! TO.C,S262*
X18124000Y24507000D03*
X4974000Y22307000D03*
G04 #@! TO.C,S260*
X18124000Y62607000D03*
X4974000Y60407000D03*
G04 #@! TO.C,S213*
X113374000Y7839000D03*
X100224000Y5639000D03*
D11*
G04 #@! TO.C,D131*
X64324000Y58731000D03*
X68074000Y58731000D03*
G04 --- BOARD END --- *
G04 #@! TF.MD5,7ede5716d9e634781bf9b8ce853b731f*
M02*
