G04 --- HEADER BEGIN --- *
G04 #@! TF.GenerationSoftware,LibrePCB,LibrePCB,2.1.1*
G04 #@! TF.CreationDate,2026-07-23T10:53:03*
G04 #@! TF.ProjectId,kbdkid4,82b26ad5-ee44-4a8a-8f43-cf6dd6902403,v1*
G04 #@! TF.Part,Single*
G04 #@! TF.SameCoordinates*
G04 #@! TF.FileFunction,Copper,L2,Inr*
G04 #@! TF.FilePolarity,Positive*
%FSLAX66Y66*%
%MOMM*%
G01*
G75*
G04 --- HEADER END --- *
G04 --- APERTURE LIST BEGIN --- *
G04 #@! TA.AperFunction,ComponentPad*
%ADD10C,1.5*%
%ADD11C,1.3*%
G04 #@! TA.AperFunction,ViaPad*
%ADD12C,0.7*%
G04 #@! TA.AperFunction,Conductor*
%ADD13C,0.3*%
%ADD14C,0.5*%
G04 #@! TD*
G04 --- APERTURE LIST END --- *
G04 --- BOARD BEGIN --- *
D10*
G04 #@! TO.N,N3*
G04 #@! TO.C,DS2*
G04 #@! TO.P,DS2,VCC,VCC*
X124849000Y22543000D03*
G04 #@! TO.N,N82*
G04 #@! TO.P,DS2,GND,GND*
X122309000Y22543000D03*
G04 #@! TO.N,N89*
G04 #@! TO.P,DS2,CS,CS*
X119769000Y22543000D03*
G04 #@! TO.N,N78*
G04 #@! TO.P,DS2,SCK,SCK*
X127389000Y22543000D03*
G04 #@! TO.N,N75*
G04 #@! TO.P,DS2,MOSI,MOSI*
X129929000Y22543000D03*
G04 #@! TO.N,N95*
G04 #@! TO.C,U1*
G04 #@! TO.P,U1,031,D21/P031*
X117229000Y45403000D03*
G04 #@! TO.N,N21*
G04 #@! TO.P,U1,115,D18/P115*
X117229000Y37783000D03*
G04 #@! TO.N,N17*
G04 #@! TO.P,U1,020,D3/P020*
X132469000Y42863000D03*
G04 #@! TO.N,N/C*
G04 #@! TO.P,U1,100,D6/P100*
X132469000Y35243000D03*
G04 #@! TO.N,N6*
G04 #@! TO.P,U1,104,D8/P104*
X132469000Y30163000D03*
G04 #@! TO.N,N2*
G04 #@! TO.P,U1,VBAT,VBAT*
X117229000Y55563000D03*
G04 #@! TO.N,N92*
G04 #@! TO.P,U1,111,D14/P111*
X117229000Y32703000D03*
G04 #@! TO.N,N99*
G04 #@! TO.P,U1,006,D1/P006/TXD*
X132469000Y55563000D03*
G04 #@! TO.N,N/C*
G04 #@! TO.P,U1,008,D0/P008/RXD*
X132469000Y53023000D03*
G04 #@! TO.N,N7*
G04 #@! TO.P,U1,RESET,RESET*
X117229000Y50483000D03*
G04 #@! TO.N,N/C*
G04 #@! TO.P,U1,022,D4/P022*
X132469000Y40323000D03*
G04 #@! TO.N,N79*
G04 #@! TO.P,U1,011,D7/P011*
X132469000Y32703000D03*
G04 #@! TO.N,N97*
G04 #@! TO.P,U1,010,D16/P010*
X117229000Y30163000D03*
G04 #@! TO.N,N101*
G04 #@! TO.P,U1,GND_3,GND*
X132469000Y50483000D03*
G04 #@! TO.N,N/C*
G04 #@! TO.P,U1,024,D5/P024*
X132469000Y37783000D03*
G04 #@! TO.N,N83*
G04 #@! TO.P,U1,017,D2/P017*
X132469000Y45403000D03*
G04 #@! TO.N,N4*
G04 #@! TO.P,U1,029,D20/P029*
X117229000Y42863000D03*
G04 #@! TO.N,N10*
G04 #@! TO.P,U1,002,D19/P002*
X117229000Y40323000D03*
G04 #@! TO.N,N13*
G04 #@! TO.P,U1,106,D9/P106*
X132469000Y27623000D03*
G04 #@! TO.N,N15*
G04 #@! TO.P,U1,EXT_VCC,EXT_VCC*
X117229000Y47943000D03*
G04 #@! TO.N,N101*
G04 #@! TO.P,U1,GND_1,GND*
X117229000Y53023000D03*
G04 #@! TO.N,N77*
G04 #@! TO.P,U1,009,D10/P009*
X117229000Y27623000D03*
G04 #@! TO.N,N19*
G04 #@! TO.P,U1,113,D15/P113*
X117229000Y35243000D03*
G04 #@! TO.N,N101*
G04 #@! TO.P,U1,GND_2,GND*
X132469000Y47943000D03*
D11*
G04 #@! TO.N,N104*
G04 #@! TO.C,J1*
G04 #@! TO.P,J1,2,2*
X117824000Y63987000D03*
G04 #@! TO.N,N105*
G04 #@! TO.P,J1,1,1*
X119824000Y63987000D03*
D10*
G04 #@! TO.N,N16*
G04 #@! TO.C,U2*
G04 #@! TO.P,U2,031,D21/P031*
X132469000Y45403000D03*
G04 #@! TO.N,N9*
G04 #@! TO.P,U2,115,D18/P115*
X132469000Y37783000D03*
G04 #@! TO.N,N100*
G04 #@! TO.P,U2,020,D3/P020*
X117229000Y42863000D03*
G04 #@! TO.N,N/C*
G04 #@! TO.P,U2,100,D6/P100*
X117229000Y35243000D03*
G04 #@! TO.N,N96*
G04 #@! TO.P,U2,104,D8/P104*
X117229000Y30163000D03*
G04 #@! TO.N,N81*
G04 #@! TO.P,U2,VBAT,VBAT*
X132469000Y55563000D03*
G04 #@! TO.N,N5*
G04 #@! TO.P,U2,111,D14/P111*
X132469000Y32703000D03*
G04 #@! TO.N,N93*
G04 #@! TO.P,U2,006,D1/P006/TXD*
X117229000Y55563000D03*
G04 #@! TO.N,N/C*
G04 #@! TO.P,U2,008,D0/P008/RXD*
X117229000Y53023000D03*
G04 #@! TO.N,N1*
G04 #@! TO.P,U2,RESET,RESET*
X132469000Y50483000D03*
G04 #@! TO.N,N/C*
G04 #@! TO.P,U2,022,D4/P022*
X117229000Y40323000D03*
G04 #@! TO.N,N23*
G04 #@! TO.P,U2,011,D7/P011*
X117229000Y32703000D03*
G04 #@! TO.N,N87*
G04 #@! TO.P,U2,010,D16/P010*
X132469000Y30163000D03*
G04 #@! TO.N,N85*
G04 #@! TO.P,U2,GND_3,GND*
X117229000Y50483000D03*
G04 #@! TO.N,N/C*
G04 #@! TO.P,U2,024,D5/P024*
X117229000Y37783000D03*
G04 #@! TO.N,N103*
G04 #@! TO.P,U2,017,D2/P017*
X117229000Y45403000D03*
G04 #@! TO.N,N90*
G04 #@! TO.P,U2,029,D20/P029*
X132469000Y42863000D03*
G04 #@! TO.N,N80*
G04 #@! TO.P,U2,002,D19/P002*
X132469000Y40323000D03*
G04 #@! TO.N,N88*
G04 #@! TO.P,U2,106,D9/P106*
X117229000Y27623000D03*
G04 #@! TO.N,N94*
G04 #@! TO.P,U2,EXT_VCC,EXT_VCC*
X132469000Y47943000D03*
G04 #@! TO.N,N85*
G04 #@! TO.P,U2,GND_1,GND*
X132469000Y53023000D03*
G04 #@! TO.N,N8*
G04 #@! TO.P,U2,009,D10/P009*
X132469000Y27623000D03*
G04 #@! TO.N,N98*
G04 #@! TO.P,U2,113,D15/P113*
X132469000Y35243000D03*
G04 #@! TO.N,N85*
G04 #@! TO.P,U2,GND_2,GND*
X117229000Y47943000D03*
G04 #@! TO.N,N18*
G04 #@! TO.C,DS1*
G04 #@! TO.P,DS1,VCC,VCC*
X124849000Y22543000D03*
G04 #@! TO.N,N106*
G04 #@! TO.P,DS1,GND,GND*
X127389000Y22543000D03*
G04 #@! TO.N,N76*
G04 #@! TO.P,DS1,CS,CS*
X129929000Y22543000D03*
G04 #@! TO.N,N12*
G04 #@! TO.P,DS1,SCK,SCK*
X122309000Y22543000D03*
G04 #@! TO.N,N86*
G04 #@! TO.P,DS1,MOSI,MOSI*
X119769000Y22543000D03*
D11*
G04 #@! TO.N,N14*
G04 #@! TO.C,J2*
G04 #@! TO.P,J2,2,2*
X119824000Y63987000D03*
G04 #@! TO.N,N91*
G04 #@! TO.P,J2,1,1*
X117824000Y63987000D03*
D12*
G04 #@! TD.C*
G04 #@! TD.P*
G04 #@! TO.N,N35*
X21907500Y68580000D03*
G04 #@! TO.N,N72*
X91440000Y16510000D03*
G04 #@! TO.N,GND*
X121920000Y47942500D03*
X121920000Y53022500D03*
X118824000Y59410000D03*
G04 #@! TO.N,N70*
X39052500Y33337500D03*
G04 #@! TO.N,N51*
X97790000Y71120000D03*
G04 #@! TO.N,GND*
X124230000Y62320000D03*
G04 #@! TO.N,N11*
X122872500Y59055000D03*
X123825000Y54292500D03*
D13*
X122872500Y59055000D02*
X123825000Y58102500D01*
X123825000Y54292500D02*
X123825000Y58102500D01*
D12*
G04 #@! TO.N,GND*
X127952500Y50482500D03*
G04 #@! TO.N,N38*
X14922500Y68580000D03*
G04 #@! TO.N,R3*
X123190000Y15240000D03*
X33020000Y15240000D03*
X116522500Y22860000D03*
X89535000Y20002500D03*
X70485000Y22225000D03*
X125095000Y28257500D03*
X108585000Y17462500D03*
X13335000Y15240000D03*
X51752500Y20320000D03*
G04 #@! TO.N,GND*
X121602500Y26987500D03*
G04 #@! TO.N,CS*
X127000000Y20320000D03*
X124777500Y55562500D03*
D13*
X124777500Y55562500D02*
X126047500Y54292500D01*
X127000000Y20320000D02*
X126047500Y21272500D01*
X126047500Y21272500D02*
X126047500Y54292500D01*
D12*
G04 #@! TO.N,C4*
X84772500Y23495000D03*
X119697500Y39052500D03*
X82232500Y11430000D03*
X85090000Y61277500D03*
X85090000Y42227500D03*
X125095000Y40322500D03*
X92392500Y44132500D03*
D13*
X97155000Y44132500D02*
X100330000Y40957500D01*
X100330000Y40957500D02*
X107315000Y40957500D01*
X119697500Y39052500D02*
X109220000Y39052500D01*
X92392500Y44132500D02*
X97155000Y44132500D01*
X109220000Y39052500D02*
X107315000Y40957500D01*
D12*
G04 #@! TO.N,N45*
X78105000Y34925000D03*
G04 #@! TO.N,C5*
X119697500Y41592500D03*
X101600000Y8890000D03*
X104140000Y20637500D03*
X104457500Y39370000D03*
X110172500Y41592500D03*
X104140000Y58737500D03*
X125095000Y42545000D03*
D13*
X119697500Y41592500D02*
X110172500Y41592500D01*
D12*
G04 #@! TO.N,N43*
X33972500Y11747500D03*
G04 #@! TO.N,C6*
X123190000Y6350000D03*
X125095000Y45402500D03*
G04 #@! TO.N,SCK*
X121920000Y42227500D03*
X125730000Y19367500D03*
X122237500Y27940000D03*
X125095000Y43815000D03*
D13*
X122555000Y28257500D02*
X122555000Y41592500D01*
X121920000Y42227500D02*
X122555000Y41592500D01*
X122237500Y27940000D02*
X122555000Y28257500D01*
D12*
G04 #@! TO.N,VCC*
X123507500Y26987500D03*
X124849000Y48895000D03*
D14*
X124849000Y48895000D02*
X123507500Y47553500D01*
X123507500Y26987500D02*
X123507500Y47553500D01*
D12*
G04 #@! TO.N,C3*
X66040000Y25400000D03*
X63182500Y13970000D03*
X66040000Y63500000D03*
X66040000Y44450000D03*
X121285000Y34290000D03*
X125095000Y35242500D03*
X73025000Y27940000D03*
D13*
X112712500Y36830000D02*
X115570000Y33972500D01*
X91757500Y36830000D02*
X90805000Y35877500D01*
X90805000Y35877500D02*
X83820000Y35877500D01*
X80645000Y31432500D02*
X82232500Y33020000D01*
X91757500Y36830000D02*
X112712500Y36830000D01*
X120967500Y33972500D02*
X115570000Y33972500D01*
X82232500Y34290000D02*
X82232500Y33020000D01*
X74930000Y27940000D02*
X78422500Y31432500D01*
X73025000Y27940000D02*
X74930000Y27940000D01*
X78422500Y31432500D02*
X80645000Y31432500D01*
X121285000Y34290000D02*
X120967500Y33972500D01*
X82232500Y34290000D02*
X83820000Y35877500D01*
D12*
G04 #@! TO.N,N52*
X39370000Y72390000D03*
G04 #@! TO.N,N46*
X72072500Y37782500D03*
G04 #@! TO.N,GND*
X121920000Y50482500D03*
G04 #@! TO.N,N26*
X15557500Y11747500D03*
G04 #@! TO.N,N67*
X22225000Y11430000D03*
G04 #@! TO.N,N54*
X39052500Y14922500D03*
G04 #@! TO.N,N68*
X53022500Y54292500D03*
G04 #@! TO.N,N44*
X22225000Y49530000D03*
G04 #@! TO.N,N33*
X57785000Y74612500D03*
G04 #@! TO.N,N59*
X53022500Y16510000D03*
G04 #@! TO.N,N39*
X72072500Y75882500D03*
G04 #@! TO.N,R1*
X33337500Y54292500D03*
X105092500Y56197500D03*
X13335000Y53975000D03*
X125095000Y30797500D03*
X89535000Y57785000D03*
X70167500Y60642500D03*
X52070000Y58102500D03*
G04 #@! TO.N,N49*
X3492500Y30797500D03*
G04 #@! TO.N,N53*
X53340000Y73342500D03*
G04 #@! TO.N,C2*
X46990000Y61277500D03*
X46990000Y42227500D03*
X44132500Y11430000D03*
X125095000Y32067500D03*
X46990000Y23177500D03*
X121602500Y31750000D03*
X53975000Y26035000D03*
D13*
X81280000Y26670000D02*
X65087500Y26670000D01*
X95885000Y24765000D02*
X83185000Y24765000D01*
X114617500Y28575000D02*
X113982500Y29210000D01*
X113982500Y29210000D02*
X113982500Y31115000D01*
X114300000Y31432500D02*
X113982500Y31115000D01*
X98742500Y21907500D02*
X111125000Y21907500D01*
X95885000Y24765000D02*
X98742500Y21907500D01*
X65087500Y26670000D02*
X64452500Y26035000D01*
X81280000Y26670000D02*
X83185000Y24765000D01*
X111125000Y21907500D02*
X114617500Y25400000D01*
X114617500Y28575000D02*
X114617500Y25400000D01*
X121602500Y31750000D02*
X120967500Y31432500D01*
X53975000Y26035000D02*
X64452500Y26035000D01*
X120967500Y31432500D02*
X114300000Y31432500D01*
D12*
G04 #@! TO.N,MOSI*
X132397500Y25082500D03*
X127952500Y46355000D03*
X124460000Y18415000D03*
D13*
X127952500Y46355000D02*
X127952500Y29527500D01*
X132397500Y25082500D02*
X127952500Y29527500D01*
D12*
G04 #@! TO.N,N28*
X129222500Y11747500D03*
G04 #@! TO.N,N47*
X97790000Y33020000D03*
G04 #@! TO.N,N64*
X110172500Y52070000D03*
G04 #@! TO.N,N57*
X116522500Y11430000D03*
G04 #@! TO.N,C0*
X6032500Y6667500D03*
X125095000Y29527500D03*
X8890000Y37465000D03*
X8890000Y18415000D03*
X13017500Y20320000D03*
X8890000Y56515000D03*
X119697500Y28892500D03*
D13*
X23495000Y20002500D02*
X36195000Y20002500D01*
X115570000Y25082500D02*
X109537500Y19050000D01*
X80962500Y24130000D02*
X83502500Y21590000D01*
X115570000Y28575000D02*
X115887500Y28892500D01*
X115570000Y28575000D02*
X115570000Y25082500D01*
X98742500Y19050000D02*
X109537500Y19050000D01*
X96202500Y21590000D02*
X98742500Y19050000D01*
X15557500Y20320000D02*
X16827500Y21590000D01*
X23495000Y20002500D02*
X21907500Y21590000D01*
X119697500Y28892500D02*
X115887500Y28892500D01*
X96202500Y21590000D02*
X83502500Y21590000D01*
X36195000Y20002500D02*
X40322500Y24130000D01*
X16827500Y21590000D02*
X21907500Y21590000D01*
X40322500Y24130000D02*
X80962500Y24130000D01*
X13017500Y20320000D02*
X15557500Y20320000D01*
D12*
G04 #@! TO.N,N27*
X110172500Y13970000D03*
G04 #@! TO.N,N60*
X97155000Y13970000D03*
G04 #@! TO.N,N31*
X53022500Y35560000D03*
G04 #@! TO.N,N29*
X77787500Y15875000D03*
G04 #@! TO.N,N30*
X3492500Y68580000D03*
G04 #@! TO.N,N56*
X34290000Y68897500D03*
G04 #@! TO.N,N61*
X58102500Y36512500D03*
G04 #@! TO.N,GND*
X127952500Y53022500D03*
G04 #@! TO.N,R0*
X104140000Y74612500D03*
X125095000Y33337500D03*
X70485000Y79692500D03*
X33020000Y73342500D03*
X114617500Y49847500D03*
X13652500Y72390000D03*
X89852500Y77470000D03*
X51752500Y77152500D03*
G04 #@! TO.N,R2*
X33655000Y34607500D03*
X13335000Y34607500D03*
X51752500Y39370000D03*
X89535000Y39052500D03*
X114935000Y30162500D03*
X70485000Y41592500D03*
X105410000Y36102500D03*
X125095000Y26987500D03*
G04 #@! TO.N,N62*
X33972500Y30480000D03*
G04 #@! TO.N,N55*
X57785000Y55245000D03*
G04 #@! TO.N,N73*
X21907500Y30480000D03*
G04 #@! TO.N,N40*
X91440000Y35242500D03*
G04 #@! TO.N,N65*
X78422500Y53975000D03*
G04 #@! TO.N,N37*
X15240000Y49530000D03*
G04 #@! TO.N,N66*
X3492500Y49530000D03*
G04 #@! TO.N,N69*
X72072500Y18732500D03*
G04 #@! TO.N,N41*
X91122500Y54292500D03*
G04 #@! TO.N,N58*
X15240000Y30797500D03*
G04 #@! TO.N,N36*
X97790000Y52070000D03*
G04 #@! TO.N,N71*
X58102500Y17462500D03*
G04 #@! TO.N,N32*
X34290000Y49530000D03*
G04 #@! TO.N,N42*
X110172500Y33020000D03*
G04 #@! TO.N,N50*
X72072500Y56832500D03*
G04 #@! TO.N,GND*
X127952500Y47942500D03*
G04 #@! TO.N,C1*
X27940000Y56515000D03*
X125095000Y37782500D03*
X27940000Y37465000D03*
X35242500Y40640000D03*
X25082500Y6985000D03*
X119697500Y36512500D03*
X27940000Y18415000D03*
D13*
X115570000Y36512500D02*
X114300000Y37782500D01*
X74930000Y40322500D02*
X72072500Y43180000D01*
X35242500Y40640000D02*
X48895000Y40640000D01*
X58737500Y41275000D02*
X49530000Y41275000D01*
X59372500Y41910000D02*
X66675000Y41910000D01*
X72072500Y43180000D02*
X67945000Y43180000D01*
X87630000Y40322500D02*
X88265000Y40957500D01*
X49530000Y41275000D02*
X48895000Y40640000D01*
X97790000Y40957500D02*
X100965000Y37782500D01*
X74930000Y40322500D02*
X87630000Y40322500D01*
X58737500Y41275000D02*
X59372500Y41910000D01*
X119697500Y36512500D02*
X115570000Y36512500D01*
X67945000Y43180000D02*
X66675000Y41910000D01*
X88265000Y40957500D02*
X97790000Y40957500D01*
X114300000Y37782500D02*
X100965000Y37782500D01*
D12*
G04 #@! TO.N,N25*
X39687500Y53340000D03*
G04 #@! TO.N,N63*
X110172500Y71120000D03*
G04 #@! TO.N,GND*
X127952500Y26987500D03*
G04 #@! TO.N,N24*
X78422500Y73025000D03*
G04 #@! TO.N,N48*
X91122500Y73342500D03*
G04 #@! TO.N,N34*
X3492500Y11430000D03*
G04 --- BOARD END --- *
G04 #@! TF.MD5,b164e9e9ea9196292c6ef82e45c81ffb*
M02*
