G04 --- HEADER BEGIN --- *
G04 #@! TF.GenerationSoftware,LibrePCB,LibrePCB,2.1.1*
G04 #@! TF.CreationDate,2026-07-23T13:14:35*
G04 #@! TF.ProjectId,kbdkid4,82b26ad5-ee44-4a8a-8f43-cf6dd6902403,v1*
G04 #@! TF.Part,Single*
G04 #@! TF.SameCoordinates*
G04 #@! TF.FileFunction,Legend,Top*
G04 #@! TF.FilePolarity,Positive*
%FSLAX66Y66*%
%MOMM*%
G01*
G75*
G04 --- HEADER END --- *
G04 --- APERTURE LIST BEGIN --- *
%ADD10C,0.2*%
%ADD11C,0.01*%
%ADD12C,0.25*%
%ADD13R,0.8X1.0*%
%ADD14C,2.1*%
%ADD15C,3.2*%
%ADD16C,1.4*%
%ADD17C,3.6*%
%AMROUNDEDRECT18*20,1,2.8,-1.8,0.0,1.8,0.0,0.0*20,1,2.6,-1.9,0.0,1.9,0.0,0.0*1,1,0.2,-1.8,1.3*1,1,0.2,1.8,1.3*1,1,0.2,1.8,-1.3*1,1,0.2,-1.8,-1.3*%
%ADD18ROUNDEDRECT18*%
%AMROUNDEDRECT19*20,1,1.15,-0.75,0.0,0.75,0.0,0.0*20,1,0.95,-0.85,0.0,0.85,0.0,0.0*1,1,0.2,-0.75,0.475*1,1,0.2,0.75,0.475*1,1,0.2,0.75,-0.475*1,1,0.2,-0.75,-0.475*%
%ADD19ROUNDEDRECT19*%
%ADD20O,1.787X2.39*%
%AMROUNDEDRECT21*20,1,1.787,-1.095,0.0,1.095,0.0,90.0*20,1,1.587,-1.195,0.0,1.195,0.0,90.0*1,1,0.2,-0.7935,-1.095*1,1,0.2,-0.7935,1.095*1,1,0.2,0.7935,1.095*1,1,0.2,0.7935,-1.095*%
%ADD21ROUNDEDRECT21*%
%ADD22O,2.39X1.787*%
%AMROUNDEDRECT23*20,1,1.0,-0.85,0.0,0.85,0.0,0.0*20,1,0.8,-0.95,0.0,0.95,0.0,0.0*1,1,0.2,-0.85,0.4*1,1,0.2,0.85,0.4*1,1,0.2,0.85,-0.4*1,1,0.2,-0.85,-0.4*%
%ADD23ROUNDEDRECT23*%
%ADD24R,1.0X0.8*%
%AMROUNDEDRECT25*20,1,0.9,-0.75,0.0,0.75,0.0,19.0*20,1,0.7,-0.85,0.0,0.85,0.0,19.0*1,1,0.2,-0.823088,0.086755*1,1,0.2,0.59519,0.575108*1,1,0.2,0.823088,-0.086755*1,1,0.2,-0.59519,-0.575108*%
%ADD25ROUNDEDRECT25*%
%AMROUNDEDRECT26*20,1,1.0,-0.5,0.0,0.5,0.0,109.0*20,1,0.8,-0.6,0.0,0.6,0.0,109.0*1,1,0.2,-0.215423,-0.602987*1,1,0.2,-0.540992,0.342532*1,1,0.2,0.215423,0.602987*1,1,0.2,0.540992,-0.342532*%
%ADD26ROUNDEDRECT26*%
%ADD27C,1.1*%
%ADD28O,1.4X1.5*%
%AMROUNDEDRECT29*20,1,1.4,-0.65,0.0,0.65,0.0,90.0*20,1,1.2,-0.75,0.0,0.75,0.0,90.0*1,1,0.2,-0.6,-0.65*1,1,0.2,-0.6,0.65*1,1,0.2,0.6,0.65*1,1,0.2,0.6,-0.65*%
%ADD29ROUNDEDRECT29*%
%AMROUNDEDRECT30*20,1,1.8,-1.1,0.0,1.1,0.0,90.0*20,1,1.6,-1.2,0.0,1.2,0.0,90.0*1,1,0.2,-0.8,-1.1*1,1,0.2,-0.8,1.1*1,1,0.2,0.8,1.1*1,1,0.2,0.8,-1.1*%
%ADD30ROUNDEDRECT30*%
%ADD31C,2.6*%
G04 --- APERTURE LIST END --- *
G04 --- BOARD BEGIN --- *
D10*
G04 #@! TO.C,JP12*
X120569000Y39523000D02*
X118569000Y39523000D01*
X118569000Y41123000D01*
X120569000Y41123000D01*
G04 #@! TO.C,JP9*
X120569000Y34443000D02*
X118569000Y34443000D01*
X118569000Y36043000D01*
X120569000Y36043000D01*
G04 #@! TO.C,S122*
X40174000Y28090000D02*
X40174000Y37950000D01*
X54124000Y28090000D02*
X54124000Y37950000D01*
G04 #@! TO.C,S150*
X97324000Y63809000D02*
X97324000Y73669000D01*
X111274000Y63809000D02*
X111274000Y73669000D01*
G04 #@! TO.C,S142*
X78274000Y28090000D02*
X78274000Y37950000D01*
X92224000Y28090000D02*
X92224000Y37950000D01*
G04 #@! TO.C,D132*
X64874000Y38806000D02*
X69074000Y38806000D01*
X69074000Y40556000D01*
X64874000Y40556000D01*
G04 #@! TO.C,U1*
X115859000Y56933000D02*
X133839000Y56933000D01*
X133839000Y26253000D01*
X115859000Y26253000D01*
X115859000Y56933000D01*
G04 #@! TO.C,D133*
X64874000Y19756000D02*
X69074000Y19756000D01*
X69074000Y21506000D01*
X64874000Y21506000D01*
G04 #@! TO.C,D113*
X26774000Y12612000D02*
X30974000Y12612000D01*
X30974000Y14362000D01*
X26774000Y14362000D01*
G04 #@! TO.C,JP7*
X120569000Y26823000D02*
X118569000Y26823000D01*
X118569000Y28423000D01*
X120569000Y28423000D01*
G04 #@! TO.C,D163*
X122024000Y12612000D02*
X126224000Y12612000D01*
X126224000Y14362000D01*
X122024000Y14362000D01*
G04 #@! TO.C,JP47*
X119294000Y60557000D02*
X119294000Y62557000D01*
X120894000Y62557000D01*
X120894000Y60557000D01*
G04 #@! TO.C,S121*
X40174000Y47140000D02*
X40174000Y57000000D01*
X54124000Y47140000D02*
X54124000Y57000000D01*
G04 #@! TO.C,S110*
X21124000Y61427000D02*
X21124000Y71287000D01*
X35074000Y61427000D02*
X35074000Y71287000D01*
G04 #@! TO.C,JP6*
X129129001Y28423000D02*
X131129001Y28423000D01*
X131129001Y26823000D01*
X129129001Y26823000D01*
G04 #@! TO.C,D100*
X7724000Y69762000D02*
X11924000Y69762000D01*
X11924000Y71512000D01*
X7724000Y71512000D01*
G04 #@! TO.C,D120*
X45824000Y74525000D02*
X50024000Y74525000D01*
X50024000Y76275000D01*
X45824000Y76275000D01*
G04 #@! TO.C,JP2*
X129129001Y46203000D02*
X131129001Y46203000D01*
X131129001Y44603000D01*
X129129001Y44603000D01*
G04 #@! TO.C,S151*
X97324000Y44759000D02*
X97324000Y54619000D01*
X111274000Y44759000D02*
X111274000Y54619000D01*
G04 #@! TO.C,D143*
X83924000Y17375000D02*
X88124000Y17375000D01*
X88124000Y19125000D01*
X83924000Y19125000D01*
G04 #@! TO.C,JP51*
X129129001Y51283000D02*
X131129001Y51283000D01*
X131129001Y49683000D01*
X129129001Y49683000D01*
G04 #@! TO.C,D142*
X83924000Y36425000D02*
X88124000Y36425000D01*
X88124000Y38175000D01*
X83924000Y38175000D01*
G04 #@! TO.C,JP22*
X123108700Y25882500D02*
X123108700Y23882500D01*
X121508700Y23882500D01*
X121508700Y25882500D01*
G04 #@! TO.C,S1*
X127228471Y70408361D02*
X128079438Y70701373D01*
X129572562Y63600627D02*
X130423529Y63893639D01*
G04 #@! TO.C,D140*
X83924000Y74525000D02*
X88124000Y74525000D01*
X88124000Y76275000D01*
X83924000Y76275000D01*
G04 #@! TO.C,D103*
X7724000Y12612000D02*
X11924000Y12612000D01*
X11924000Y14362000D01*
X7724000Y14362000D01*
G04 #@! TO.C,J1*
X118974000Y64387000D02*
X118574000Y64387000D01*
X120674000Y64387000D02*
X121224000Y64387000D01*
X121224000Y62787000D01*
X121624000Y62787000D01*
X121624000Y70087000D01*
X116024000Y70087000D01*
X116024000Y62787000D01*
X116424000Y62787000D01*
X116424000Y64387000D01*
X117074000Y64387000D01*
D11*
G36*
X120674000Y62837000D02*
G02*
X120174000Y62837000I-250000J0D01*
G01*
G02*
X120674000Y62837000I250000J0D01*
G01*
G37*
D10*
G04 #@! TO.C,JP11*
X120569000Y36983000D02*
X118569000Y36983000D01*
X118569000Y38583000D01*
X120569000Y38583000D01*
G04 #@! TO.C,JP48*
X116754000Y60557000D02*
X116754000Y62557000D01*
X118354000Y62557000D01*
X118354000Y60557000D01*
G04 #@! TO.C,JP5*
X129129001Y30963000D02*
X131129001Y30963000D01*
X131129001Y29363000D01*
X129129001Y29363000D01*
G04 #@! TO.C,S141*
X78274000Y47140000D02*
X78274000Y57000000D01*
X92224000Y47140000D02*
X92224000Y57000000D01*
G04 #@! TO.C,D121*
X45824000Y55475000D02*
X50024000Y55475000D01*
X50024000Y57225000D01*
X45824000Y57225000D01*
G04 #@! TO.C,S153*
X97324000Y6659000D02*
X97324000Y16519000D01*
X111274000Y6659000D02*
X111274000Y16519000D01*
G04 #@! TO.C,JP1*
X129129001Y56363000D02*
X131129001Y56363000D01*
X131129001Y54763000D01*
X129129001Y54763000D01*
G04 #@! TO.C,D111*
X26774000Y50712000D02*
X30974000Y50712000D01*
X30974000Y52462000D01*
X26774000Y52462000D01*
G04 #@! TO.C,JP10*
X120569000Y29363000D02*
X118569000Y29363000D01*
X118569000Y30963000D01*
X120569000Y30963000D01*
G04 #@! TO.C,JP16*
X120569000Y52223000D02*
X118569000Y52223000D01*
X118569000Y53823000D01*
X120569000Y53823000D01*
G04 #@! TO.C,S140*
X78274000Y66190000D02*
X78274000Y76050000D01*
X92224000Y66190000D02*
X92224000Y76050000D01*
G04 #@! TO.C,S152*
X97324000Y25709000D02*
X97324000Y35569000D01*
X111274000Y25709000D02*
X111274000Y35569000D01*
G04 #@! TO.C,JP3*
X129129001Y43663000D02*
X131129001Y43663000D01*
X131129001Y42063000D01*
X129129001Y42063000D01*
G04 #@! TO.C,S120*
X40174000Y66190000D02*
X40174000Y76050000D01*
X54124000Y66190000D02*
X54124000Y76050000D01*
G04 #@! TO.C,D151*
X102974000Y53094000D02*
X107174000Y53094000D01*
X107174000Y54844000D01*
X102974000Y54844000D01*
G04 #@! TO.C,S100*
X2074000Y61427000D02*
X2074000Y71287000D01*
X16024000Y61427000D02*
X16024000Y71287000D01*
G04 #@! TO.C,S123*
X40174000Y9040000D02*
X40174000Y18900000D01*
X54124000Y9040000D02*
X54124000Y18900000D01*
G04 #@! TO.C,D153*
X102974000Y14994000D02*
X107174000Y14994000D01*
X107174000Y16744000D01*
X102974000Y16744000D01*
G04 #@! TO.C,S132*
X59224000Y30471000D02*
X59224000Y40331000D01*
X73174000Y30471000D02*
X73174000Y40331000D01*
G04 #@! TO.C,D112*
X26774000Y31662000D02*
X30974000Y31662000D01*
X30974000Y33412000D01*
X26774000Y33412000D01*
G04 #@! TO.C,JP52*
X129129001Y48743000D02*
X131129001Y48743000D01*
X131129001Y47143000D01*
X129129001Y47143000D01*
G04 #@! TO.C,S113*
X21124000Y4277000D02*
X21124000Y14137000D01*
X35074000Y4277000D02*
X35074000Y14137000D01*
G04 #@! TO.C,S130*
X59224000Y68571000D02*
X59224000Y78431000D01*
X73174000Y68571000D02*
X73174000Y78431000D01*
G04 #@! TO.C,S133*
X59224000Y11421000D02*
X59224000Y21281000D01*
X73174000Y11421000D02*
X73174000Y21281000D01*
G04 #@! TO.C,S101*
X2074000Y42377000D02*
X2074000Y52237000D01*
X16024000Y42377000D02*
X16024000Y52237000D01*
G04 #@! TO.C,D122*
X45824000Y36425000D02*
X50024000Y36425000D01*
X50024000Y38175000D01*
X45824000Y38175000D01*
G04 #@! TO.C,D110*
X26774000Y69762000D02*
X30974000Y69762000D01*
X30974000Y71512000D01*
X26774000Y71512000D01*
G04 #@! TO.C,S111*
X21124000Y42377000D02*
X21124000Y52237000D01*
X35074000Y42377000D02*
X35074000Y52237000D01*
G04 #@! TO.C,S102*
X2074000Y23327000D02*
X2074000Y33187000D01*
X16024000Y23327000D02*
X16024000Y33187000D01*
G04 #@! TO.C,D101*
X7724000Y50712000D02*
X11924000Y50712000D01*
X11924000Y52462000D01*
X7724000Y52462000D01*
G04 #@! TO.C,D123*
X45824000Y17375000D02*
X50024000Y17375000D01*
X50024000Y19125000D01*
X45824000Y19125000D01*
G04 #@! TO.C,JP19*
X125648700Y25882500D02*
X125648700Y23882500D01*
X124048700Y23882500D01*
X124048700Y25882500D01*
D12*
G04 #@! TO.C,DS1*
X118374000Y21148000D02*
X118374000Y23938000D01*
X131324000Y23938000D01*
X131324000Y21148000D01*
X118374000Y21148000D01*
D10*
G04 #@! TO.C,JP20*
X128188700Y25882500D02*
X128188700Y23882500D01*
X126588700Y23882500D01*
X126588700Y25882500D01*
G04 #@! TO.C,D150*
X102974000Y72144000D02*
X107174000Y72144000D01*
X107174000Y73894000D01*
X102974000Y73894000D01*
G04 #@! TO.C,JP23*
X130728700Y25882500D02*
X130728700Y23882500D01*
X129128700Y23882500D01*
X129128700Y25882500D01*
G04 #@! TO.C,D130*
X64874000Y76906000D02*
X69074000Y76906000D01*
X69074000Y78656000D01*
X64874000Y78656000D01*
G04 #@! TO.C,JP4*
X129129001Y33503000D02*
X131129001Y33503000D01*
X131129001Y31903000D01*
X129129001Y31903000D01*
G04 #@! TO.C,D141*
X83924000Y55475000D02*
X88124000Y55475000D01*
X88124000Y57225000D01*
X83924000Y57225000D01*
G04 #@! TO.C,JP13*
X120569000Y42063000D02*
X118569000Y42063000D01*
X118569000Y43663000D01*
X120569000Y43663000D01*
D11*
G04 #@! TO.C,LOGO1*
G36*
X125395000Y45510000D02*
X125395000Y45930000D01*
X125595000Y45930000D01*
X125595000Y45510000D01*
X125395000Y45510000D01*
G37*
G36*
X124035000Y44350000D02*
X124035000Y44550000D01*
X123615000Y44550000D01*
X123615000Y44350000D01*
X124035000Y44350000D01*
G37*
G36*
X124035000Y43950000D02*
X124035000Y44150000D01*
X123615000Y44150000D01*
X123615000Y43950000D01*
X124035000Y43950000D01*
G37*
G36*
X124595000Y43390000D02*
X124595000Y42970000D01*
X124795000Y42970000D01*
X124795000Y43390000D01*
X124595000Y43390000D01*
G37*
G36*
X126155000Y44350000D02*
X126155000Y44550000D01*
X126575000Y44550000D01*
X126575000Y44350000D01*
X126155000Y44350000D01*
G37*
G36*
X124248000Y43815000D02*
X124248000Y45085000D01*
G02*
X124460000Y45297000I212000J0D01*
G01*
X125730000Y45297000D01*
G02*
X125942000Y45085000I0J-212000D01*
G01*
X125942000Y43815000D01*
G02*
X125730000Y43603000I-212000J0D01*
G01*
X124630000Y43603000D01*
X124630000Y43818000D01*
G03*
X124797000Y43985000I0J167000D01*
G01*
G03*
X124630000Y44152000I-167000J0D01*
G01*
G03*
X124463000Y43985000I0J-167000D01*
G01*
G03*
X124630000Y43818000I167000J0D01*
G01*
X124630000Y43603000D01*
X124460000Y43603000D01*
G02*
X124248000Y43815000I0J212000D01*
G01*
G37*
G36*
X124595000Y45510000D02*
X124595000Y45930000D01*
X124795000Y45930000D01*
X124795000Y45510000D01*
X124595000Y45510000D01*
G37*
G36*
X124035000Y44750000D02*
X124035000Y44950000D01*
X123615000Y44950000D01*
X123615000Y44750000D01*
X124035000Y44750000D01*
G37*
G36*
X124995000Y43390000D02*
X124995000Y42970000D01*
X125195000Y42970000D01*
X125195000Y43390000D01*
X124995000Y43390000D01*
G37*
G36*
X126155000Y43950000D02*
X126155000Y44150000D01*
X126575000Y44150000D01*
X126575000Y43950000D01*
X126155000Y43950000D01*
G37*
G36*
X125395000Y43390000D02*
X125395000Y42970000D01*
X125595000Y42970000D01*
X125595000Y43390000D01*
X125395000Y43390000D01*
G37*
G36*
X126155000Y44750000D02*
X126155000Y44950000D01*
X126575000Y44950000D01*
X126575000Y44750000D01*
X126155000Y44750000D01*
G37*
G36*
X124995000Y45510000D02*
X124995000Y45930000D01*
X125195000Y45930000D01*
X125195000Y45510000D01*
X124995000Y45510000D01*
G37*
D10*
X124855000Y46550000D02*
X123855000Y46550000D01*
X124569444Y46883333D01*
X123855000Y47216667D01*
X124855000Y47216667D01*
X124855000Y48093334D02*
X124331667Y48093334D01*
X124236111Y48045556D01*
X124188333Y47950000D01*
X124188333Y47760000D01*
X124236111Y47664445D01*
X124807222Y48093334D02*
X124855000Y47997778D01*
X124855000Y47760000D01*
X124807222Y47664445D01*
X124711667Y47616667D01*
X124617222Y47616667D01*
X124521667Y47664445D01*
X124473889Y47760000D01*
X124473889Y47997778D01*
X124426111Y48093334D01*
X124855000Y48970001D02*
X123855000Y48970001D01*
X124807222Y48970001D02*
X124855000Y48874445D01*
X124855000Y48683334D01*
X124807222Y48588890D01*
X124759444Y48541112D01*
X124665000Y48493334D01*
X124378333Y48493334D01*
X124283889Y48541112D01*
X124236111Y48588890D01*
X124188333Y48683334D01*
X124188333Y48874445D01*
X124236111Y48970001D01*
X124807222Y49798890D02*
X124855000Y49703334D01*
X124855000Y49513334D01*
X124807222Y49417779D01*
X124711667Y49370001D01*
X124331667Y49370001D01*
X124236111Y49417779D01*
X124188333Y49513334D01*
X124188333Y49703334D01*
X124236111Y49798890D01*
X124331667Y49846668D01*
X124426111Y49846668D01*
X124521667Y49370001D01*
X123855000Y51046667D02*
X124855000Y51284445D01*
X124140556Y51475556D01*
X124855000Y51665556D01*
X123855000Y51903334D01*
X124855000Y52351112D02*
X124188333Y52351112D01*
X123855000Y52351112D02*
X123902778Y52303334D01*
X123950556Y52351112D01*
X123902778Y52398890D01*
X123855000Y52351112D01*
X123950556Y52351112D01*
X124188333Y52798890D02*
X124188333Y53180001D01*
X123855000Y52942223D02*
X124711667Y52942223D01*
X124807222Y52988890D01*
X124855000Y53084446D01*
X124855000Y53180001D01*
X124855000Y53580001D02*
X123855000Y53580001D01*
X124855000Y54008890D02*
X124331667Y54008890D01*
X124236111Y53961112D01*
X124188333Y53865557D01*
X124188333Y53723334D01*
X124236111Y53627779D01*
X124283889Y53580001D01*
X126335000Y47026667D02*
X126335000Y46550000D01*
X125335000Y46550000D01*
X126335000Y47474445D02*
X125668333Y47474445D01*
X125335000Y47474445D02*
X125382778Y47426667D01*
X125430556Y47474445D01*
X125382778Y47522223D01*
X125335000Y47474445D01*
X125430556Y47474445D01*
X126335000Y47922223D02*
X125335000Y47922223D01*
X125716111Y47922223D02*
X125668333Y48017779D01*
X125668333Y48207779D01*
X125716111Y48303334D01*
X125763889Y48351112D01*
X125858333Y48398890D01*
X126145000Y48398890D01*
X126239444Y48351112D01*
X126287222Y48303334D01*
X126335000Y48207779D01*
X126335000Y48017779D01*
X126287222Y47922223D01*
X126335000Y48798890D02*
X125668333Y48798890D01*
X125858333Y48798890D02*
X125763889Y48846668D01*
X125716111Y48894446D01*
X125668333Y48988890D01*
X125668333Y49084446D01*
X126287222Y49913335D02*
X126335000Y49817779D01*
X126335000Y49627779D01*
X126287222Y49532224D01*
X126191667Y49484446D01*
X125811667Y49484446D01*
X125716111Y49532224D01*
X125668333Y49627779D01*
X125668333Y49817779D01*
X125716111Y49913335D01*
X125811667Y49961113D01*
X125906111Y49961113D01*
X126001667Y49484446D01*
X126335000Y50361113D02*
X125335000Y50361113D01*
X125335000Y50742224D01*
X125382778Y50837780D01*
X125430556Y50884446D01*
X125525000Y50932224D01*
X125668333Y50932224D01*
X125763889Y50884446D01*
X125811667Y50837780D01*
X125858333Y50742224D01*
X125858333Y50361113D01*
X126239444Y51951113D02*
X126287222Y51903335D01*
X126335000Y51761113D01*
X126335000Y51665557D01*
X126287222Y51522224D01*
X126191667Y51427780D01*
X126097222Y51380002D01*
X125906111Y51332224D01*
X125763889Y51332224D01*
X125572778Y51380002D01*
X125478333Y51427780D01*
X125382778Y51522224D01*
X125335000Y51665557D01*
X125335000Y51761113D01*
X125382778Y51903335D01*
X125430556Y51951113D01*
X125811667Y52684446D02*
X125858333Y52827780D01*
X125906111Y52874446D01*
X126001667Y52922224D01*
X126145000Y52922224D01*
X126239444Y52874446D01*
X126287222Y52827780D01*
X126335000Y52732224D01*
X126335000Y52351113D01*
X125335000Y52351113D01*
X125335000Y52684446D01*
X125382778Y52780002D01*
X125430556Y52827780D01*
X125525000Y52874446D01*
X125620556Y52874446D01*
X125716111Y52827780D01*
X125763889Y52780002D01*
X125811667Y52684446D01*
X125811667Y52351113D01*
G04 #@! TO.C,JP14*
X120569000Y44603000D02*
X118569000Y44603000D01*
X118569000Y46203000D01*
X120569000Y46203000D01*
G04 #@! TO.C,JP17*
X120569000Y49683000D02*
X118569000Y49683000D01*
X118569000Y51283000D01*
X120569000Y51283000D01*
G04 #@! TO.C,D152*
X102974000Y34044000D02*
X107174000Y34044000D01*
X107174000Y35794000D01*
X102974000Y35794000D01*
G04 #@! TO.C,D102*
X7724000Y31662000D02*
X11924000Y31662000D01*
X11924000Y33412000D01*
X7724000Y33412000D01*
G04 #@! TO.C,JP18*
X120569000Y47143000D02*
X118569000Y47143000D01*
X118569000Y48743000D01*
X120569000Y48743000D01*
G04 #@! TO.C,S163*
X116374000Y4277000D02*
X116374000Y14137000D01*
X130324000Y4277000D02*
X130324000Y14137000D01*
G04 #@! TO.C,S112*
X21124000Y23327000D02*
X21124000Y33187000D01*
X35074000Y23327000D02*
X35074000Y33187000D01*
G04 #@! TO.C,S143*
X78274000Y9040000D02*
X78274000Y18900000D01*
X92224000Y9040000D02*
X92224000Y18900000D01*
G04 #@! TO.C,S131*
X59224000Y49521000D02*
X59224000Y59381000D01*
X73174000Y49521000D02*
X73174000Y59381000D01*
G04 #@! TO.C,JP21*
X120568700Y25882500D02*
X120568700Y23882500D01*
X118968700Y23882500D01*
X118968700Y25882500D01*
G04 #@! TO.C,JP15*
X120569000Y54763000D02*
X118569000Y54763000D01*
X118569000Y56363000D01*
X120569000Y56363000D01*
G04 #@! TO.C,D131*
X64874000Y57856000D02*
X69074000Y57856000D01*
X69074000Y59606000D01*
X64874000Y59606000D01*
G04 #@! TO.C,JP8*
X120569000Y31903000D02*
X118569000Y31903000D01*
X118569000Y33503000D01*
X120569000Y33503000D01*
G04 #@! TO.C,S103*
X2074000Y4277000D02*
X2074000Y14137000D01*
X16024000Y4277000D02*
X16024000Y14137000D01*
G04 #@! TD*
X117000000Y65821667D02*
X118143333Y65821667D01*
X119743332Y65821667D02*
X120886665Y65821667D01*
X120314999Y65250000D02*
X120314999Y66393333D01*
X124411667Y28575000D02*
X122911667Y28575000D01*
X123840000Y28718333D02*
X124411667Y29146667D01*
X123411667Y29146667D02*
X123983334Y28575000D01*
X124411667Y29646667D02*
X122911667Y29646667D01*
X123483334Y29646667D02*
X123411667Y29790000D01*
X123411667Y30075000D01*
X123483334Y30218334D01*
X123555000Y30290000D01*
X123696667Y30361667D01*
X124126667Y30361667D01*
X124268334Y30290000D01*
X124340000Y30218334D01*
X124411667Y30075000D01*
X124411667Y29790000D01*
X124340000Y29646667D01*
X124411667Y31576667D02*
X122911667Y31576667D01*
X124340000Y31576667D02*
X124411667Y31433334D01*
X124411667Y31146667D01*
X124340000Y31005000D01*
X124268334Y30933334D01*
X124126667Y30861667D01*
X123696667Y30861667D01*
X123555000Y30933334D01*
X123483334Y31005000D01*
X123411667Y31146667D01*
X123411667Y31433334D01*
X123483334Y31576667D01*
X124411667Y32076667D02*
X122911667Y32076667D01*
X123840000Y32220000D02*
X124411667Y32648334D01*
X123411667Y32648334D02*
X123983334Y32076667D01*
X124411667Y33220001D02*
X123411667Y33220001D01*
X122911667Y33220001D02*
X122983334Y33148334D01*
X123055000Y33220001D01*
X122983334Y33291667D01*
X122911667Y33220001D01*
X123055000Y33220001D01*
X124411667Y34506667D02*
X122911667Y34506667D01*
X124340000Y34506667D02*
X124411667Y34363334D01*
X124411667Y34076667D01*
X124340000Y33935000D01*
X124268334Y33863334D01*
X124126667Y33791667D01*
X123696667Y33791667D01*
X123555000Y33863334D01*
X123483334Y33935000D01*
X123411667Y34076667D01*
X123411667Y34363334D01*
X123483334Y34506667D01*
X123411667Y35721667D02*
X124411667Y35721667D01*
X122840000Y35363334D02*
X123911667Y35006667D01*
X123911667Y35935000D01*
X123411667Y37534999D02*
X124411667Y37891666D01*
X123411667Y38249999D01*
X124411667Y39606666D02*
X124411667Y38749999D01*
X124411667Y39178332D02*
X122911667Y39178332D01*
X123126667Y39034999D01*
X123268334Y38893332D01*
X123340000Y38749999D01*
X124268334Y40178333D02*
X124340000Y40249999D01*
X124411667Y40178333D01*
X124340000Y40106666D01*
X124268334Y40178333D01*
X124411667Y40178333D01*
X122911667Y41106666D02*
X122911667Y41249999D01*
X122983334Y41393332D01*
X123055000Y41464999D01*
X123196667Y41534999D01*
X123483334Y41606666D01*
X123840000Y41606666D01*
X124126667Y41534999D01*
X124268334Y41464999D01*
X124340000Y41393332D01*
X124411667Y41249999D01*
X124411667Y41106666D01*
X124340000Y40964999D01*
X124268334Y40893332D01*
X124126667Y40821666D01*
X123840000Y40749999D01*
X123483334Y40749999D01*
X123196667Y40821666D01*
X123055000Y40893332D01*
X122983334Y40964999D01*
X122911667Y41106666D01*
X127278332Y28575000D02*
X125778332Y28575000D01*
X126349999Y28575000D02*
X126278332Y28718333D01*
X126278332Y29003333D01*
X126349999Y29146667D01*
X126421665Y29218333D01*
X126563332Y29290000D01*
X126993332Y29290000D01*
X127134999Y29218333D01*
X127206665Y29146667D01*
X127278332Y29003333D01*
X127278332Y28718333D01*
X127206665Y28575000D01*
X126278332Y29790000D02*
X127278332Y30146667D01*
X126278332Y30505000D02*
X127278332Y30146667D01*
X127634999Y30005000D01*
X127706665Y29933333D01*
X127778332Y29790000D01*
X125778332Y32104999D02*
X125778332Y32961666D01*
X127278332Y32533332D02*
X125778332Y32533332D01*
X126278332Y34104999D02*
X127278332Y34104999D01*
X126278332Y33461666D02*
X127063332Y33461666D01*
X127206665Y33533333D01*
X127278332Y33676666D01*
X127278332Y33889999D01*
X127206665Y34033333D01*
X127134999Y34104999D01*
X127278332Y34604999D02*
X125778332Y34604999D01*
X126349999Y34604999D02*
X126278332Y34748332D01*
X126278332Y35033332D01*
X126349999Y35176666D01*
X126421665Y35248332D01*
X126563332Y35319999D01*
X126993332Y35319999D01*
X127134999Y35248332D01*
X127206665Y35176666D01*
X127278332Y35033332D01*
X127278332Y34748332D01*
X127206665Y34604999D01*
X127278332Y35819999D02*
X125778332Y35819999D01*
X126349999Y35819999D02*
X126278332Y35963332D01*
X126278332Y36248332D01*
X126349999Y36391666D01*
X126421665Y36463332D01*
X126563332Y36534999D01*
X126993332Y36534999D01*
X127134999Y36463332D01*
X127206665Y36391666D01*
X127278332Y36248332D01*
X127278332Y35963332D01*
X127206665Y35819999D01*
X127278332Y37249999D02*
X127206665Y37106666D01*
X127063332Y37034999D01*
X125778332Y37034999D01*
X127206665Y38393332D02*
X127278332Y38249999D01*
X127278332Y37964999D01*
X127206665Y37821666D01*
X127063332Y37749999D01*
X126493332Y37749999D01*
X126349999Y37821666D01*
X126278332Y37964999D01*
X126278332Y38249999D01*
X126349999Y38393332D01*
X126493332Y38464999D01*
X126634999Y38464999D01*
X126778332Y37749999D01*
X127206665Y38964999D02*
X127278332Y39108332D01*
X127278332Y39393332D01*
X127206665Y39536666D01*
X127063332Y39608332D01*
X126993332Y39608332D01*
X126849999Y39536666D01*
X126778332Y39393332D01*
X126778332Y39179999D01*
X126706665Y39036666D01*
X126563332Y38964999D01*
X126493332Y38964999D01*
X126349999Y39036666D01*
X126278332Y39179999D01*
X126278332Y39393332D01*
X126349999Y39536666D01*
%LPC*%
D13*
G04 #@! TO.C,JP12*
X119269000Y40323000D03*
X120269000Y40323000D03*
D11*
G36*
X118869000Y40823000D02*
X120669000Y40823000D01*
X120669000Y39823000D01*
X118869000Y39823000D01*
X118869000Y40823000D01*
G37*
D13*
G04 #@! TO.C,JP9*
X119269000Y35243000D03*
X120269000Y35243000D03*
D11*
G36*
X118869000Y35743000D02*
X120669000Y35743000D01*
X120669000Y34743000D01*
X118869000Y34743000D01*
X118869000Y35743000D01*
G37*
D14*
G04 #@! TD*
X52649000Y33020000D03*
X41649000Y33020000D03*
D15*
X47149000Y27070000D03*
X42149000Y29270000D03*
D16*
X52369000Y37220000D03*
D17*
X47149000Y33020000D03*
D18*
G04 #@! TO.C,S251*
X37174000Y43557000D03*
X24024000Y41357000D03*
D14*
G04 #@! TD*
X22599000Y47307000D03*
X33599000Y47307000D03*
D15*
X28099000Y41357000D03*
X33099000Y43557000D03*
D16*
X22879000Y51507000D03*
D17*
X28099000Y47307000D03*
D14*
X109799000Y68739000D03*
X98799000Y68739000D03*
D15*
X104299000Y62789000D03*
X99299000Y64989000D03*
D16*
X109519000Y72939000D03*
D17*
X104299000Y68739000D03*
D14*
X90749000Y33020000D03*
X79749000Y33020000D03*
D15*
X85249000Y27070000D03*
X80249000Y29270000D03*
D16*
X90469000Y37220000D03*
D17*
X85249000Y33020000D03*
D19*
G04 #@! TO.C,D132*
X64324000Y39681000D03*
X68074000Y39681000D03*
D18*
G04 #@! TO.C,S240*
X56224000Y67370000D03*
X43074000Y65170000D03*
D14*
G04 #@! TD*
X41649000Y71120000D03*
X52649000Y71120000D03*
D15*
X47149000Y65170000D03*
X52149000Y67370000D03*
D16*
X41929000Y75320000D03*
D17*
X47149000Y71120000D03*
D20*
G04 #@! TO.C,DS2*
X124849000Y22543000D03*
X122309000Y22543000D03*
X119769000Y22543000D03*
X127389000Y22543000D03*
D21*
X129929000Y22543000D03*
D22*
G04 #@! TO.C,U1*
X117229000Y45403000D03*
X117229000Y37783000D03*
X132469000Y42863000D03*
X132469000Y35243000D03*
X132469000Y30163000D03*
X117229000Y55563000D03*
X117229000Y32703000D03*
X132469000Y55563000D03*
X132469000Y53023000D03*
X117229000Y50483000D03*
X132469000Y40323000D03*
X132469000Y32703000D03*
X117229000Y30163000D03*
X132469000Y50483000D03*
X132469000Y37783000D03*
X132469000Y45403000D03*
X117229000Y42863000D03*
X117229000Y40323000D03*
X132469000Y27623000D03*
X117229000Y47943000D03*
X117229000Y53023000D03*
X117229000Y27623000D03*
X117229000Y35243000D03*
X132469000Y47943000D03*
D19*
G04 #@! TO.C,D133*
X64324000Y20631000D03*
X68074000Y20631000D03*
D18*
G04 #@! TO.C,S241*
X56224000Y48320000D03*
X43074000Y46120000D03*
D14*
G04 #@! TD*
X41649000Y52070000D03*
X52649000Y52070000D03*
D15*
X47149000Y46120000D03*
X52149000Y48320000D03*
D16*
X41929000Y56270000D03*
D17*
X47149000Y52070000D03*
D19*
G04 #@! TO.C,D113*
X26224000Y13487000D03*
X29974000Y13487000D03*
D13*
G04 #@! TO.C,JP7*
X119269000Y27623000D03*
X120269000Y27623000D03*
D11*
G36*
X118869000Y28123000D02*
X120669000Y28123000D01*
X120669000Y27123000D01*
X118869000Y27123000D01*
X118869000Y28123000D01*
G37*
D23*
G04 #@! TO.C,S3*
X124222000Y64009000D03*
X124222000Y60609000D03*
D19*
G04 #@! TO.C,D163*
X121474000Y13487000D03*
X125224000Y13487000D03*
D24*
G04 #@! TO.C,JP47*
X120094000Y61857000D03*
X120094000Y60857000D03*
D11*
G36*
X120594000Y62257000D02*
X120594000Y60457000D01*
X119594000Y60457000D01*
X119594000Y62257000D01*
X120594000Y62257000D01*
G37*
D14*
G04 #@! TD*
X52649000Y52070000D03*
X41649000Y52070000D03*
D15*
X47149000Y46120000D03*
X42149000Y48320000D03*
D16*
X52369000Y56270000D03*
D17*
X47149000Y52070000D03*
D14*
X33599000Y66357000D03*
X22599000Y66357000D03*
D15*
X28099000Y60407000D03*
X23099000Y62607000D03*
D16*
X33319000Y70557000D03*
D17*
X28099000Y66357000D03*
D13*
G04 #@! TO.C,JP6*
X130429001Y27623000D03*
X129429001Y27623000D03*
D11*
G36*
X130829001Y27123000D02*
X129029001Y27123000D01*
X129029001Y28123000D01*
X130829001Y28123000D01*
X130829001Y27123000D01*
G37*
D19*
G04 #@! TO.C,D100*
X7174000Y70637000D03*
X10924000Y70637000D03*
G04 #@! TO.C,D120*
X45274000Y75400000D03*
X49024000Y75400000D03*
D13*
G04 #@! TO.C,JP2*
X130429001Y45403000D03*
X129429001Y45403000D03*
D11*
G36*
X130829001Y44903000D02*
X129029001Y44903000D01*
X129029001Y45903000D01*
X130829001Y45903000D01*
X130829001Y44903000D01*
G37*
D18*
G04 #@! TO.C,S222*
X94324000Y29270000D03*
X81174000Y27070000D03*
D14*
G04 #@! TD*
X79749000Y33020000D03*
X90749000Y33020000D03*
D15*
X85249000Y27070000D03*
X90249000Y29270000D03*
D16*
X80029000Y37220000D03*
D17*
X85249000Y33020000D03*
D14*
X109799000Y49689000D03*
X98799000Y49689000D03*
D15*
X104299000Y43739000D03*
X99299000Y45939000D03*
D16*
X109519000Y53889000D03*
D17*
X104299000Y49689000D03*
D19*
G04 #@! TO.C,D143*
X83374000Y18250000D03*
X87124000Y18250000D03*
D13*
G04 #@! TO.C,JP51*
X130429001Y50483000D03*
X129429001Y50483000D03*
D11*
G36*
X130829001Y49983000D02*
X129029001Y49983000D01*
X129029001Y50983000D01*
X130829001Y50983000D01*
X130829001Y49983000D01*
G37*
D19*
G04 #@! TO.C,D142*
X83374000Y37300000D03*
X87124000Y37300000D03*
D24*
G04 #@! TO.C,JP22*
X122308700Y24582500D03*
X122308700Y25582500D03*
D11*
G36*
X121808700Y24182500D02*
X121808700Y25982500D01*
X122808700Y25982500D01*
X122808700Y24182500D01*
X121808700Y24182500D01*
G37*
D25*
G04 #@! TO.C,S1*
X127903871Y64453839D03*
X126927166Y67290395D03*
D26*
X128677747Y70960268D03*
X131054394Y64057982D03*
X128974253Y63341732D03*
D25*
X126438814Y68708673D03*
D26*
X126597606Y70244018D03*
D27*
G04 #@! TD*
X129314352Y65732722D03*
X128337648Y68569278D03*
D19*
G04 #@! TO.C,D140*
X83374000Y75400000D03*
X87124000Y75400000D03*
G04 #@! TO.C,D103*
X7174000Y13487000D03*
X10924000Y13487000D03*
D28*
G04 #@! TO.C,J1*
X117824000Y63987000D03*
D29*
X119824000Y63987000D03*
D13*
G04 #@! TO.C,JP11*
X119269000Y37783000D03*
X120269000Y37783000D03*
D11*
G36*
X118869000Y38283000D02*
X120669000Y38283000D01*
X120669000Y37283000D01*
X118869000Y37283000D01*
X118869000Y38283000D01*
G37*
D18*
G04 #@! TO.C,S211*
X113374000Y45939000D03*
X100224000Y43739000D03*
D14*
G04 #@! TD*
X98799000Y49689000D03*
X109799000Y49689000D03*
D15*
X104299000Y43739000D03*
X109299000Y45939000D03*
D16*
X99079000Y53889000D03*
D17*
X104299000Y49689000D03*
D24*
G04 #@! TO.C,JP48*
X117554000Y61857000D03*
X117554000Y60857000D03*
D11*
G36*
X118054000Y62257000D02*
X118054000Y60457000D01*
X117054000Y60457000D01*
X117054000Y62257000D01*
X118054000Y62257000D01*
G37*
D13*
G04 #@! TO.C,JP5*
X130429001Y30163000D03*
X129429001Y30163000D03*
D11*
G36*
X130829001Y29663000D02*
X129029001Y29663000D01*
X129029001Y30663000D01*
X130829001Y30663000D01*
X130829001Y29663000D01*
G37*
D18*
G04 #@! TO.C,S263*
X18124000Y5457000D03*
X4974000Y3257000D03*
D14*
G04 #@! TD*
X3549000Y9207000D03*
X14549000Y9207000D03*
D15*
X9049000Y3257000D03*
X14049000Y5457000D03*
D16*
X3829000Y13407000D03*
D17*
X9049000Y9207000D03*
D14*
X90749000Y52070000D03*
X79749000Y52070000D03*
D15*
X85249000Y46120000D03*
X80249000Y48320000D03*
D16*
X90469000Y56270000D03*
D17*
X85249000Y52070000D03*
D19*
G04 #@! TO.C,D121*
X45274000Y56350000D03*
X49024000Y56350000D03*
D14*
G04 #@! TD*
X109799000Y11589000D03*
X98799000Y11589000D03*
D15*
X104299000Y5639000D03*
X99299000Y7839000D03*
D16*
X109519000Y15789000D03*
D17*
X104299000Y11589000D03*
D13*
G04 #@! TO.C,JP1*
X130429001Y55563000D03*
X129429001Y55563000D03*
D11*
G36*
X130829001Y55063000D02*
X129029001Y55063000D01*
X129029001Y56063000D01*
X130829001Y56063000D01*
X130829001Y55063000D01*
G37*
D19*
G04 #@! TO.C,D111*
X26224000Y51587000D03*
X29974000Y51587000D03*
D30*
G04 #@! TO.C,S253*
X35899000Y5507000D03*
X25299000Y3307000D03*
D14*
G04 #@! TD*
X22599000Y9207000D03*
X33599000Y9207000D03*
D15*
X28099000Y3257000D03*
X33099000Y5457000D03*
D16*
X22879000Y13407000D03*
D17*
X28099000Y9207000D03*
D13*
G04 #@! TO.C,JP10*
X119269000Y30163000D03*
X120269000Y30163000D03*
D11*
G36*
X118869000Y30663000D02*
X120669000Y30663000D01*
X120669000Y29663000D01*
X118869000Y29663000D01*
X118869000Y30663000D01*
G37*
D13*
G04 #@! TO.C,JP16*
X119269000Y53023000D03*
X120269000Y53023000D03*
D11*
G36*
X118869000Y53523000D02*
X120669000Y53523000D01*
X120669000Y52523000D01*
X118869000Y52523000D01*
X118869000Y53523000D01*
G37*
D14*
G04 #@! TD*
X90749000Y71120000D03*
X79749000Y71120000D03*
D15*
X85249000Y65170000D03*
X80249000Y67370000D03*
D16*
X90469000Y75320000D03*
D17*
X85249000Y71120000D03*
D14*
X109799000Y30639000D03*
X98799000Y30639000D03*
D15*
X104299000Y24689000D03*
X99299000Y26889000D03*
D16*
X109519000Y34839000D03*
D17*
X104299000Y30639000D03*
D13*
G04 #@! TO.C,JP3*
X130429001Y42863000D03*
X129429001Y42863000D03*
D11*
G36*
X130829001Y42363000D02*
X129029001Y42363000D01*
X129029001Y43363000D01*
X130829001Y43363000D01*
X130829001Y42363000D01*
G37*
D18*
G04 #@! TO.C,S221*
X94324000Y48320000D03*
X81174000Y46120000D03*
D14*
G04 #@! TD*
X79749000Y52070000D03*
X90749000Y52070000D03*
D15*
X85249000Y46120000D03*
X90249000Y48320000D03*
D16*
X80029000Y56270000D03*
D17*
X85249000Y52070000D03*
D14*
X52649000Y71120000D03*
X41649000Y71120000D03*
D15*
X47149000Y65170000D03*
X42149000Y67370000D03*
D16*
X52369000Y75320000D03*
D17*
X47149000Y71120000D03*
D18*
G04 #@! TO.C,S233*
X75274000Y12601000D03*
X62124000Y10401000D03*
D14*
G04 #@! TD*
X60699000Y16351000D03*
X71699000Y16351000D03*
D15*
X66199000Y10401000D03*
X71199000Y12601000D03*
D16*
X60979000Y20551000D03*
D17*
X66199000Y16351000D03*
D19*
G04 #@! TO.C,D151*
X102424000Y53969000D03*
X106174000Y53969000D03*
D14*
G04 #@! TD*
X14549000Y66357000D03*
X3549000Y66357000D03*
D15*
X9049000Y60407000D03*
X4049000Y62607000D03*
D16*
X14269000Y70557000D03*
D17*
X9049000Y66357000D03*
D14*
X52649000Y13970000D03*
X41649000Y13970000D03*
D15*
X47149000Y8020000D03*
X42149000Y10220000D03*
D16*
X52369000Y18170000D03*
D17*
X47149000Y13970000D03*
D19*
G04 #@! TO.C,D153*
X102424000Y15869000D03*
X106174000Y15869000D03*
D22*
G04 #@! TO.C,U2*
X132469000Y45403000D03*
X132469000Y37783000D03*
X117229000Y42863000D03*
X117229000Y35243000D03*
X117229000Y30163000D03*
X132469000Y55563000D03*
X132469000Y32703000D03*
X117229000Y55563000D03*
X117229000Y53023000D03*
X132469000Y50483000D03*
X117229000Y40323000D03*
X117229000Y32703000D03*
X132469000Y30163000D03*
X117229000Y50483000D03*
X117229000Y37783000D03*
X117229000Y45403000D03*
X132469000Y42863000D03*
X132469000Y40323000D03*
X117229000Y27623000D03*
X132469000Y47943000D03*
X132469000Y53023000D03*
X132469000Y27623000D03*
X132469000Y35243000D03*
X117229000Y47943000D03*
D18*
G04 #@! TO.C,S242*
X56224000Y29270000D03*
X43074000Y27070000D03*
D14*
G04 #@! TD*
X41649000Y33020000D03*
X52649000Y33020000D03*
D15*
X47149000Y27070000D03*
X52149000Y29270000D03*
D16*
X41929000Y37220000D03*
D17*
X47149000Y33020000D03*
D14*
X71699000Y35401000D03*
X60699000Y35401000D03*
D15*
X66199000Y29451000D03*
X61199000Y31651000D03*
D16*
X71419000Y39601000D03*
D17*
X66199000Y35401000D03*
D19*
G04 #@! TO.C,D112*
X26224000Y32537000D03*
X29974000Y32537000D03*
D13*
G04 #@! TO.C,JP52*
X130429001Y47943000D03*
X129429001Y47943000D03*
D11*
G36*
X130829001Y47443000D02*
X129029001Y47443000D01*
X129029001Y48443000D01*
X130829001Y48443000D01*
X130829001Y47443000D01*
G37*
D14*
G04 #@! TD*
X33599000Y9207000D03*
X22599000Y9207000D03*
D15*
X28099000Y3257000D03*
X23099000Y5457000D03*
D16*
X33319000Y13407000D03*
D17*
X28099000Y9207000D03*
D14*
X71699000Y73501000D03*
X60699000Y73501000D03*
D15*
X66199000Y67551000D03*
X61199000Y69751000D03*
D16*
X71419000Y77701000D03*
D17*
X66199000Y73501000D03*
D14*
X71699000Y16351000D03*
X60699000Y16351000D03*
D15*
X66199000Y10401000D03*
X61199000Y12601000D03*
D16*
X71419000Y20551000D03*
D17*
X66199000Y16351000D03*
D14*
X14549000Y47307000D03*
X3549000Y47307000D03*
D15*
X9049000Y41357000D03*
X4049000Y43557000D03*
D16*
X14269000Y51507000D03*
D17*
X9049000Y47307000D03*
D19*
G04 #@! TO.C,D122*
X45274000Y37300000D03*
X49024000Y37300000D03*
G04 #@! TO.C,D110*
X26224000Y70637000D03*
X29974000Y70637000D03*
D18*
G04 #@! TO.C,S231*
X75274000Y50701000D03*
X62124000Y48501000D03*
D14*
G04 #@! TD*
X60699000Y54451000D03*
X71699000Y54451000D03*
D15*
X66199000Y48501000D03*
X71199000Y50701000D03*
D16*
X60979000Y58651000D03*
D17*
X66199000Y54451000D03*
D14*
X33599000Y47307000D03*
X22599000Y47307000D03*
D15*
X28099000Y41357000D03*
X23099000Y43557000D03*
D16*
X33319000Y51507000D03*
D17*
X28099000Y47307000D03*
D18*
G04 #@! TO.C,S250*
X37174000Y62607000D03*
X24024000Y60407000D03*
D14*
G04 #@! TD*
X22599000Y66357000D03*
X33599000Y66357000D03*
D15*
X28099000Y60407000D03*
X33099000Y62607000D03*
D16*
X22879000Y70557000D03*
D17*
X28099000Y66357000D03*
D14*
X14549000Y28257000D03*
X3549000Y28257000D03*
D15*
X9049000Y22307000D03*
X4049000Y24507000D03*
D16*
X14269000Y32457000D03*
D17*
X9049000Y28257000D03*
D18*
G04 #@! TO.C,S203*
X132424000Y5457000D03*
X119274000Y3257000D03*
D14*
G04 #@! TD*
X117849000Y9207000D03*
X128849000Y9207000D03*
D15*
X123349000Y3257000D03*
X128349000Y5457000D03*
D16*
X118129000Y13407000D03*
D17*
X123349000Y9207000D03*
D19*
G04 #@! TO.C,D101*
X7174000Y51587000D03*
X10924000Y51587000D03*
G04 #@! TO.C,D123*
X45274000Y18250000D03*
X49024000Y18250000D03*
D24*
G04 #@! TO.C,JP19*
X124848700Y24582500D03*
X124848700Y25582500D03*
D11*
G36*
X124348700Y24182500D02*
X124348700Y25982500D01*
X125348700Y25982500D01*
X125348700Y24182500D01*
X124348700Y24182500D01*
G37*
D18*
G04 #@! TO.C,S223*
X94324000Y10220000D03*
X81174000Y8020000D03*
D14*
G04 #@! TD*
X79749000Y13970000D03*
X90749000Y13970000D03*
D15*
X85249000Y8020000D03*
X90249000Y10220000D03*
D16*
X80029000Y18170000D03*
D17*
X85249000Y13970000D03*
D20*
G04 #@! TO.C,DS1*
X124849000Y22543000D03*
X127389000Y22543000D03*
X129929000Y22543000D03*
X122309000Y22543000D03*
D21*
X119769000Y22543000D03*
D24*
G04 #@! TO.C,JP20*
X127388700Y24582500D03*
X127388700Y25582500D03*
D11*
G36*
X126888700Y24182500D02*
X126888700Y25982500D01*
X127888700Y25982500D01*
X127888700Y24182500D01*
X126888700Y24182500D01*
G37*
D19*
G04 #@! TO.C,D150*
X102424000Y73019000D03*
X106174000Y73019000D03*
D18*
G04 #@! TO.C,S212*
X113374000Y26889000D03*
X100224000Y24689000D03*
D14*
G04 #@! TD*
X98799000Y30639000D03*
X109799000Y30639000D03*
D15*
X104299000Y24689000D03*
X109299000Y26889000D03*
D16*
X99079000Y34839000D03*
D17*
X104299000Y30639000D03*
D18*
G04 #@! TO.C,S230*
X75274000Y69751000D03*
X62124000Y67551000D03*
D14*
G04 #@! TD*
X60699000Y73501000D03*
X71699000Y73501000D03*
D15*
X66199000Y67551000D03*
X71199000Y69751000D03*
D16*
X60979000Y77701000D03*
D17*
X66199000Y73501000D03*
D24*
G04 #@! TO.C,JP23*
X129928700Y24582500D03*
X129928700Y25582500D03*
D11*
G36*
X129428700Y24182500D02*
X129428700Y25982500D01*
X130428700Y25982500D01*
X130428700Y24182500D01*
X129428700Y24182500D01*
G37*
D19*
G04 #@! TO.C,D130*
X64324000Y77781000D03*
X68074000Y77781000D03*
D18*
G04 #@! TO.C,S252*
X37174000Y24507000D03*
X24024000Y22307000D03*
D14*
G04 #@! TD*
X22599000Y28257000D03*
X33599000Y28257000D03*
D15*
X28099000Y22307000D03*
X33099000Y24507000D03*
D16*
X22879000Y32457000D03*
D17*
X28099000Y28257000D03*
D13*
G04 #@! TO.C,JP4*
X130429001Y32703000D03*
X129429001Y32703000D03*
D11*
G36*
X130829001Y32203000D02*
X129029001Y32203000D01*
X129029001Y33203000D01*
X130829001Y33203000D01*
X130829001Y32203000D01*
G37*
D19*
G04 #@! TO.C,D141*
X83374000Y56350000D03*
X87124000Y56350000D03*
D13*
G04 #@! TO.C,JP13*
X119269000Y42863000D03*
X120269000Y42863000D03*
D11*
G36*
X118869000Y43363000D02*
X120669000Y43363000D01*
X120669000Y42363000D01*
X118869000Y42363000D01*
X118869000Y43363000D01*
G37*
D18*
G04 #@! TO.C,S220*
X94324000Y67370000D03*
X81174000Y65170000D03*
D14*
G04 #@! TD*
X79749000Y71120000D03*
X90749000Y71120000D03*
D15*
X85249000Y65170000D03*
X90249000Y67370000D03*
D16*
X80029000Y75320000D03*
D17*
X85249000Y71120000D03*
D18*
G04 #@! TO.C,S232*
X75274000Y31651000D03*
X62124000Y29451000D03*
D14*
G04 #@! TD*
X60699000Y35401000D03*
X71699000Y35401000D03*
D15*
X66199000Y29451000D03*
X71199000Y31651000D03*
D16*
X60979000Y39601000D03*
D17*
X66199000Y35401000D03*
D18*
G04 #@! TO.C,S261*
X18124000Y43557000D03*
X4974000Y41357000D03*
D14*
G04 #@! TD*
X3549000Y47307000D03*
X14549000Y47307000D03*
D15*
X9049000Y41357000D03*
X14049000Y43557000D03*
D16*
X3829000Y51507000D03*
D17*
X9049000Y47307000D03*
D27*
X128337648Y68569278D03*
X129314352Y65732722D03*
D18*
G04 #@! TO.C,S210*
X113374000Y64989000D03*
X100224000Y62789000D03*
D14*
G04 #@! TD*
X98799000Y68739000D03*
X109799000Y68739000D03*
D15*
X104299000Y62789000D03*
X109299000Y64989000D03*
D16*
X99079000Y72939000D03*
D17*
X104299000Y68739000D03*
D13*
G04 #@! TO.C,JP14*
X119269000Y45403000D03*
X120269000Y45403000D03*
D11*
G36*
X118869000Y45903000D02*
X120669000Y45903000D01*
X120669000Y44903000D01*
X118869000Y44903000D01*
X118869000Y45903000D01*
G37*
D13*
G04 #@! TO.C,JP17*
X119269000Y50483000D03*
X120269000Y50483000D03*
D11*
G36*
X118869000Y50983000D02*
X120669000Y50983000D01*
X120669000Y49983000D01*
X118869000Y49983000D01*
X118869000Y50983000D01*
G37*
D28*
G04 #@! TO.C,J2*
X119824000Y63987000D03*
D29*
X117824000Y63987000D03*
D19*
G04 #@! TO.C,D152*
X102424000Y34919000D03*
X106174000Y34919000D03*
G04 #@! TO.C,D102*
X7174000Y32537000D03*
X10924000Y32537000D03*
D13*
G04 #@! TO.C,JP18*
X119269000Y47943000D03*
X120269000Y47943000D03*
D11*
G36*
X118869000Y48443000D02*
X120669000Y48443000D01*
X120669000Y47443000D01*
X118869000Y47443000D01*
X118869000Y48443000D01*
G37*
D18*
G04 #@! TO.C,S243*
X56224000Y10220000D03*
X43074000Y8020000D03*
D14*
G04 #@! TD*
X41649000Y13970000D03*
X52649000Y13970000D03*
D15*
X47149000Y8020000D03*
X52149000Y10220000D03*
D16*
X41929000Y18170000D03*
D17*
X47149000Y13970000D03*
D18*
G04 #@! TO.C,S262*
X18124000Y24507000D03*
X4974000Y22307000D03*
D14*
G04 #@! TD*
X3549000Y28257000D03*
X14549000Y28257000D03*
D15*
X9049000Y22307000D03*
X14049000Y24507000D03*
D16*
X3829000Y32457000D03*
D17*
X9049000Y28257000D03*
D14*
X128849000Y9207000D03*
X117849000Y9207000D03*
D15*
X123349000Y3257000D03*
X118349000Y5457000D03*
D16*
X128569000Y13407000D03*
D17*
X123349000Y9207000D03*
D14*
X33599000Y28257000D03*
X22599000Y28257000D03*
D15*
X28099000Y22307000D03*
X23099000Y24507000D03*
D16*
X33319000Y32457000D03*
D17*
X28099000Y28257000D03*
D14*
X90749000Y13970000D03*
X79749000Y13970000D03*
D15*
X85249000Y8020000D03*
X80249000Y10220000D03*
D16*
X90469000Y18170000D03*
D17*
X85249000Y13970000D03*
D14*
X71699000Y54451000D03*
X60699000Y54451000D03*
D15*
X66199000Y48501000D03*
X61199000Y50701000D03*
D16*
X71419000Y58651000D03*
D17*
X66199000Y54451000D03*
D24*
G04 #@! TO.C,JP21*
X119768700Y24582500D03*
X119768700Y25582500D03*
D11*
G36*
X119268700Y24182500D02*
X119268700Y25982500D01*
X120268700Y25982500D01*
X120268700Y24182500D01*
X119268700Y24182500D01*
G37*
D18*
G04 #@! TO.C,S260*
X18124000Y62607000D03*
X4974000Y60407000D03*
D14*
G04 #@! TD*
X3549000Y66357000D03*
X14549000Y66357000D03*
D15*
X9049000Y60407000D03*
X14049000Y62607000D03*
D16*
X3829000Y70557000D03*
D17*
X9049000Y66357000D03*
D13*
G04 #@! TO.C,JP15*
X119269000Y55563000D03*
X120269000Y55563000D03*
D11*
G36*
X118869000Y56063000D02*
X120669000Y56063000D01*
X120669000Y55063000D01*
X118869000Y55063000D01*
X118869000Y56063000D01*
G37*
D18*
G04 #@! TO.C,S213*
X113374000Y7839000D03*
X100224000Y5639000D03*
D14*
G04 #@! TD*
X98799000Y11589000D03*
X109799000Y11589000D03*
D15*
X104299000Y5639000D03*
X109299000Y7839000D03*
D16*
X99079000Y15789000D03*
D17*
X104299000Y11589000D03*
D19*
G04 #@! TO.C,D131*
X64324000Y58731000D03*
X68074000Y58731000D03*
D13*
G04 #@! TO.C,JP8*
X119269000Y32703000D03*
X120269000Y32703000D03*
D11*
G36*
X118869000Y33203000D02*
X120669000Y33203000D01*
X120669000Y32203000D01*
X118869000Y32203000D01*
X118869000Y33203000D01*
G37*
D14*
G04 #@! TD*
X14549000Y9207000D03*
X3549000Y9207000D03*
D15*
X9049000Y3257000D03*
X4049000Y5457000D03*
D16*
X14269000Y13407000D03*
D17*
X9049000Y9207000D03*
D31*
X18574000Y56832000D03*
X114141500Y19764500D03*
X18574000Y18732000D03*
X76041500Y43259500D03*
X94774000Y60404500D03*
G04 --- BOARD END --- *
G04 #@! TF.MD5,5fd457a3c2cc3a6e28c3b3b0ec1429cd*
M02*
