G04 --- HEADER BEGIN --- *
G04 #@! TF.GenerationSoftware,LibrePCB,LibrePCB,2.1.1*
G04 #@! TF.CreationDate,2026-09-09T15:29:56*
G04 #@! TF.ProjectId,kbdkid4,063e517a-3ded-4943-b2aa-4f8854622f53,v1*
G04 #@! TF.Part,Single*
G04 #@! TF.SameCoordinates*
G04 #@! TF.FileFunction,Legend,Bot*
G04 #@! TF.FilePolarity,Positive*
%FSLAX66Y66*%
%MOMM*%
G01*
G75*
G04 --- HEADER END --- *
G04 --- APERTURE LIST BEGIN --- *
%ADD10C,0.2*%
%ADD11C,0.25*%
%ADD12C,0.01*%
%ADD13R,0.8X1.0*%
%AMROUNDEDRECT14*20,1,2.8,-1.8,0.0,1.8,0.0,0.0*20,1,2.6,-1.9,0.0,1.9,0.0,0.0*1,1,0.2,-1.8,1.3*1,1,0.2,1.8,1.3*1,1,0.2,1.8,-1.3*1,1,0.2,-1.8,-1.3*%
%ADD14ROUNDEDRECT14*%
%ADD15C,2.1*%
%ADD16C,3.2*%
%ADD17C,1.4*%
%ADD18C,3.6*%
%AMROUNDEDRECT19*20,1,1.15,-0.75,0.0,0.75,0.0,0.0*20,1,0.95,-0.85,0.0,0.85,0.0,0.0*1,1,0.2,-0.75,0.475*1,1,0.2,0.75,0.475*1,1,0.2,0.75,-0.475*1,1,0.2,-0.75,-0.475*%
%ADD19ROUNDEDRECT19*%
%ADD20O,1.787X2.39*%
%AMROUNDEDRECT21*20,1,1.787,-1.095,0.0,1.095,0.0,90.0*20,1,1.587,-1.195,0.0,1.195,0.0,90.0*1,1,0.2,-0.7935,-1.095*1,1,0.2,-0.7935,1.095*1,1,0.2,0.7935,1.095*1,1,0.2,0.7935,-1.095*%
%ADD21ROUNDEDRECT21*%
%ADD22O,2.39X1.787*%
%ADD23R,1.0X0.8*%
%AMROUNDEDRECT24*20,1,0.9,-0.75,0.0,0.75,0.0,90.0*20,1,0.7,-0.85,0.0,0.85,0.0,90.0*1,1,0.2,-0.35,-0.75*1,1,0.2,-0.35,0.75*1,1,0.2,0.35,0.75*1,1,0.2,0.35,-0.75*%
%ADD24ROUNDEDRECT24*%
%AMROUNDEDRECT25*20,1,1.0,-0.5,0.0,0.5,0.0,0.0*20,1,0.8,-0.6,0.0,0.6,0.0,0.0*1,1,0.2,-0.5,0.4*1,1,0.2,0.5,0.4*1,1,0.2,0.5,-0.4*1,1,0.2,-0.5,-0.4*%
%ADD25ROUNDEDRECT25*%
%ADD26C,1.1*%
%AMROTATEDOBROUND27*1,1,1.4,0.043301,-0.025*1,1,1.4,-0.043301,0.025*20,1,1.4,0.043301,-0.025,-0.043301,0.025,0*%
%ADD27ROTATEDOBROUND27*%
%AMROUNDEDRECT28*20,1,1.4,-0.65,0.0,0.65,0.0,150.0*20,1,1.2,-0.75,0.0,0.75,0.0,150.0*1,1,0.2,0.262917,-0.844615*1,1,0.2,-0.862917,-0.194615*1,1,0.2,-0.262917,0.844615*1,1,0.2,0.862917,0.194615*%
%ADD28ROUNDEDRECT28*%
%AMROUNDEDRECT29*20,1,0.9,-0.445,0.0,0.445,0.0,90.0*20,1,0.49,-0.65,0.0,0.65,0.0,90.0*1,1,0.41,-0.245,-0.445*1,1,0.41,-0.245,0.445*1,1,0.41,0.245,0.445*1,1,0.41,0.245,-0.445*%
%ADD29ROUNDEDRECT29*%
%AMROUNDEDRECT30*20,1,1.8,-1.1,0.0,1.1,0.0,90.0*20,1,1.6,-1.2,0.0,1.2,0.0,90.0*1,1,0.2,-0.8,-1.1*1,1,0.2,-0.8,1.1*1,1,0.2,0.8,1.1*1,1,0.2,0.8,-1.1*%
%ADD30ROUNDEDRECT30*%
%ADD31C,3.9*%
G04 --- APERTURE LIST END --- *
G04 --- BOARD BEGIN --- *
D10*
G04 #@! TO.C,JP12*
X129129000Y57417000D02*
X131129000Y57417000D01*
X131129000Y59017000D01*
X129129000Y59017000D01*
G04 #@! TO.C,JP9*
X129129000Y52337000D02*
X131129000Y52337000D01*
X131129000Y53937000D01*
X129129000Y53937000D01*
G04 #@! TO.C,S251*
X35074000Y42377000D02*
X35074000Y52237000D01*
X21124000Y42377000D02*
X21124000Y52237000D01*
G04 #@! TO.C,D252*
X29424000Y31662000D02*
X25224000Y31662000D01*
X25224000Y33412000D01*
X29424000Y33412000D01*
G04 #@! TO.C,S240*
X54124000Y66190000D02*
X54124000Y76050000D01*
X40174000Y66190000D02*
X40174000Y76050000D01*
D11*
G04 #@! TO.C,DS2*
X131324000Y39330000D02*
X131324000Y42120000D01*
X118374000Y42120000D01*
X118374000Y39330000D01*
X131324000Y39330000D01*
D10*
G04 #@! TO.C,U1*
X133839000Y74827000D02*
X115859000Y74827000D01*
X115859000Y44147000D01*
X133839000Y44147000D01*
X133839000Y74827000D01*
G04 #@! TO.C,S241*
X54124000Y47140000D02*
X54124000Y57000000D01*
X40174000Y47140000D02*
X40174000Y57000000D01*
G04 #@! TO.C,D253*
X29424000Y12612000D02*
X25224000Y12612000D01*
X25224000Y14362000D01*
X29424000Y14362000D01*
G04 #@! TO.C,JP7*
X129129000Y44717000D02*
X131129000Y44717000D01*
X131129000Y46317000D01*
X129129000Y46317000D01*
G04 #@! TO.C,D213*
X105624000Y14994000D02*
X101424000Y14994000D01*
X101424000Y16744000D01*
X105624000Y16744000D01*
G04 #@! TO.C,JP47*
X128800000Y20800000D02*
X126800000Y20800000D01*
X126800000Y19200000D01*
X128800000Y19200000D01*
G04 #@! TO.C,D211*
X105624000Y53094000D02*
X101424000Y53094000D01*
X101424000Y54844000D01*
X105624000Y54844000D01*
G04 #@! TO.C,JP6*
X120569000Y46317000D02*
X118569000Y46317000D01*
X118569000Y44717000D01*
X120569000Y44717000D01*
G04 #@! TO.C,JP2*
X120569000Y64097000D02*
X118569000Y64097000D01*
X118569000Y62497000D01*
X120569000Y62497000D01*
G04 #@! TO.C,S222*
X92224000Y28090000D02*
X92224000Y37950000D01*
X78274000Y28090000D02*
X78274000Y37950000D01*
G04 #@! TO.C,JP51*
X120569000Y69177000D02*
X118569000Y69177000D01*
X118569000Y67577000D01*
X120569000Y67577000D01*
G04 #@! TO.C,JP22*
X123109000Y36960000D02*
X123109000Y38960000D01*
X121509000Y38960000D01*
X121509000Y36960000D01*
G04 #@! TO.C,S1*
X107899000Y75928000D02*
X107899000Y76828000D01*
X100699000Y75928000D02*
X100699000Y76828000D01*
G04 #@! TO.C,D263*
X10374000Y12612000D02*
X6174000Y12612000D01*
X6174000Y14362000D01*
X10374000Y14362000D01*
G04 #@! TO.C,J1*
X122984352Y22035096D02*
X123184352Y22381506D01*
X122134352Y20562853D02*
X121859352Y20086539D01*
X123244993Y19286539D01*
X123044993Y18940129D01*
X116723007Y22590129D01*
X119523007Y27439871D01*
X125844993Y23789871D01*
X125644993Y23443461D01*
X124259352Y24243461D01*
X123934352Y23680544D01*
D12*
G36*
X123851691Y20004359D02*
G02*
X123351691Y20004359I-250000J0D01*
G01*
G02*
X123851691Y20004359I250000J0D01*
G01*
G37*
D10*
G04 #@! TO.C,JP11*
X129129000Y54877000D02*
X131129000Y54877000D01*
X131129000Y56477000D01*
X129129000Y56477000D01*
G04 #@! TO.C,S211*
X111274000Y44759000D02*
X111274000Y54619000D01*
X97324000Y44759000D02*
X97324000Y54619000D01*
G04 #@! TO.C,JP48*
X128800000Y22800000D02*
X126800000Y22800000D01*
X126800000Y21200000D01*
X128800000Y21200000D01*
G04 #@! TO.C,JP5*
X120569000Y48857000D02*
X118569000Y48857000D01*
X118569000Y47257000D01*
X120569000Y47257000D01*
G04 #@! TO.C,S263*
X16024000Y4277000D02*
X16024000Y14137000D01*
X2074000Y4277000D02*
X2074000Y14137000D01*
G04 #@! TO.C,D223*
X86574000Y17375000D02*
X82374000Y17375000D01*
X82374000Y19125000D01*
X86574000Y19125000D01*
G04 #@! TO.C,JP1*
X120569000Y74257000D02*
X118569000Y74257000D01*
X118569000Y72657000D01*
X120569000Y72657000D01*
G04 #@! TO.C,D220*
X86574000Y74525000D02*
X82374000Y74525000D01*
X82374000Y76275000D01*
X86574000Y76275000D01*
G04 #@! TO.C,S253*
X35074000Y4277000D02*
X35074000Y14137000D01*
X21124000Y4277000D02*
X21124000Y14137000D01*
G04 #@! TO.C,JP10*
X129129000Y47257000D02*
X131129000Y47257000D01*
X131129000Y48857000D01*
X129129000Y48857000D01*
G04 #@! TO.C,JP16*
X129129000Y70117000D02*
X131129000Y70117000D01*
X131129000Y71717000D01*
X129129000Y71717000D01*
G04 #@! TO.C,D251*
X29424000Y50712000D02*
X25224000Y50712000D01*
X25224000Y52462000D01*
X29424000Y52462000D01*
G04 #@! TO.C,D230*
X67524000Y76906000D02*
X63324000Y76906000D01*
X63324000Y78656000D01*
X67524000Y78656000D01*
G04 #@! TO.C,JP3*
X120569000Y61557000D02*
X118569000Y61557000D01*
X118569000Y59957000D01*
X120569000Y59957000D01*
G04 #@! TO.C,S221*
X92224000Y47140000D02*
X92224000Y57000000D01*
X78274000Y47140000D02*
X78274000Y57000000D01*
G04 #@! TO.C,S233*
X73174000Y11421000D02*
X73174000Y21281000D01*
X59224000Y11421000D02*
X59224000Y21281000D01*
G04 #@! TO.C,D260*
X10374000Y69762000D02*
X6174000Y69762000D01*
X6174000Y71512000D01*
X10374000Y71512000D01*
G04 #@! TO.C,S242*
X54124000Y28090000D02*
X54124000Y37950000D01*
X40174000Y28090000D02*
X40174000Y37950000D01*
G04 #@! TO.C,JP52*
X120569000Y66637000D02*
X118569000Y66637000D01*
X118569000Y65037000D01*
X120569000Y65037000D01*
G04 #@! TO.C,D210*
X105624000Y72144000D02*
X101424000Y72144000D01*
X101424000Y73894000D01*
X105624000Y73894000D01*
G04 #@! TO.C,D203*
X124674000Y12612000D02*
X120474000Y12612000D01*
X120474000Y14362000D01*
X124674000Y14362000D01*
G04 #@! TO.C,S231*
X73174000Y49521000D02*
X73174000Y59381000D01*
X59224000Y49521000D02*
X59224000Y59381000D01*
G04 #@! TO.C,S250*
X35074000Y61427000D02*
X35074000Y71287000D01*
X21124000Y61427000D02*
X21124000Y71287000D01*
G04 #@! TO.C,S203*
X130324000Y4277000D02*
X130324000Y14137000D01*
X116374000Y4277000D02*
X116374000Y14137000D01*
G04 #@! TO.C,JP19*
X125649000Y36960000D02*
X125649000Y38960000D01*
X124049000Y38960000D01*
X124049000Y36960000D01*
G04 #@! TO.C,S223*
X92224000Y9040000D02*
X92224000Y18900000D01*
X78274000Y9040000D02*
X78274000Y18900000D01*
G04 #@! TO.C,D250*
X29424000Y69762000D02*
X25224000Y69762000D01*
X25224000Y71512000D01*
X29424000Y71512000D01*
G04 #@! TO.C,D242*
X48474000Y36425000D02*
X44274000Y36425000D01*
X44274000Y38175000D01*
X48474000Y38175000D01*
G04 #@! TO.C,D233*
X67524000Y19756000D02*
X63324000Y19756000D01*
X63324000Y21506000D01*
X67524000Y21506000D01*
G04 #@! TO.C,JP20*
X128189000Y36960000D02*
X128189000Y38960000D01*
X126589000Y38960000D01*
X126589000Y36960000D01*
G04 #@! TO.C,S212*
X111274000Y25709000D02*
X111274000Y35569000D01*
X97324000Y25709000D02*
X97324000Y35569000D01*
G04 #@! TO.C,S230*
X73174000Y68571000D02*
X73174000Y78431000D01*
X59224000Y68571000D02*
X59224000Y78431000D01*
G04 #@! TO.C,D240*
X48474000Y74525000D02*
X44274000Y74525000D01*
X44274000Y76275000D01*
X48474000Y76275000D01*
G04 #@! TO.C,JP23*
X130729000Y36960000D02*
X130729000Y38960000D01*
X129129000Y38960000D01*
X129129000Y36960000D01*
G04 #@! TO.C,S252*
X35074000Y23327000D02*
X35074000Y33187000D01*
X21124000Y23327000D02*
X21124000Y33187000D01*
G04 #@! TO.C,JP4*
X120569000Y51397000D02*
X118569000Y51397000D01*
X118569000Y49797000D01*
X120569000Y49797000D01*
G04 #@! TO.C,D222*
X86574000Y36425000D02*
X82374000Y36425000D01*
X82374000Y38175000D01*
X86574000Y38175000D01*
G04 #@! TO.C,JP13*
X129129000Y59957000D02*
X131129000Y59957000D01*
X131129000Y61557000D01*
X129129000Y61557000D01*
G04 #@! TO.C,D231*
X67524000Y57856000D02*
X63324000Y57856000D01*
X63324000Y59606000D01*
X67524000Y59606000D01*
G04 #@! TO.C,S220*
X92224000Y66190000D02*
X92224000Y76050000D01*
X78274000Y66190000D02*
X78274000Y76050000D01*
G04 #@! TO.C,S232*
X73174000Y30471000D02*
X73174000Y40331000D01*
X59224000Y30471000D02*
X59224000Y40331000D01*
G04 #@! TO.C,S261*
X16024000Y42377000D02*
X16024000Y52237000D01*
X2074000Y42377000D02*
X2074000Y52237000D01*
G04 #@! TO.C,D221*
X86574000Y55475000D02*
X82374000Y55475000D01*
X82374000Y57225000D01*
X86574000Y57225000D01*
G04 #@! TO.C,D243*
X48474000Y17375000D02*
X44274000Y17375000D01*
X44274000Y19125000D01*
X48474000Y19125000D01*
D12*
G04 #@! TO.C,LOGO1*
G36*
X125149000Y54740000D02*
X125149000Y54320000D01*
X125349000Y54320000D01*
X125349000Y54740000D01*
X125149000Y54740000D01*
G37*
G36*
X123789000Y55900000D02*
X123789000Y55700000D01*
X123369000Y55700000D01*
X123369000Y55900000D01*
X123789000Y55900000D01*
G37*
G36*
X123789000Y56300000D02*
X123789000Y56100000D01*
X123369000Y56100000D01*
X123369000Y56300000D01*
X123789000Y56300000D01*
G37*
G36*
X124349000Y56860000D02*
X124349000Y57280000D01*
X124549000Y57280000D01*
X124549000Y56860000D01*
X124349000Y56860000D01*
G37*
G36*
X125909000Y55900000D02*
X125909000Y55700000D01*
X126329000Y55700000D01*
X126329000Y55900000D01*
X125909000Y55900000D01*
G37*
G36*
X124002000Y56435000D02*
X124002000Y55165000D01*
G03*
X124214000Y54953000I212000J0D01*
G01*
X125484000Y54953000D01*
G03*
X125696000Y55165000I0J212000D01*
G01*
X125696000Y56435000D01*
G03*
X125484000Y56647000I-212000J0D01*
G01*
X124384000Y56647000D01*
X124384000Y56432000D01*
G02*
X124551000Y56265000I0J-167000D01*
G01*
G02*
X124384000Y56098000I-167000J0D01*
G01*
G02*
X124217000Y56265000I0J167000D01*
G01*
G02*
X124384000Y56432000I167000J0D01*
G01*
X124384000Y56647000D01*
X124214000Y56647000D01*
G03*
X124002000Y56435000I0J-212000D01*
G01*
G37*
G36*
X124349000Y54740000D02*
X124349000Y54320000D01*
X124549000Y54320000D01*
X124549000Y54740000D01*
X124349000Y54740000D01*
G37*
G36*
X123789000Y55500000D02*
X123789000Y55300000D01*
X123369000Y55300000D01*
X123369000Y55500000D01*
X123789000Y55500000D01*
G37*
G36*
X124749000Y56860000D02*
X124749000Y57280000D01*
X124949000Y57280000D01*
X124949000Y56860000D01*
X124749000Y56860000D01*
G37*
G36*
X125909000Y56300000D02*
X125909000Y56100000D01*
X126329000Y56100000D01*
X126329000Y56300000D01*
X125909000Y56300000D01*
G37*
G36*
X125149000Y56860000D02*
X125149000Y57280000D01*
X125349000Y57280000D01*
X125349000Y56860000D01*
X125149000Y56860000D01*
G37*
G36*
X125909000Y55500000D02*
X125909000Y55300000D01*
X126329000Y55300000D01*
X126329000Y55500000D01*
X125909000Y55500000D01*
G37*
G36*
X124749000Y54740000D02*
X124749000Y54320000D01*
X124949000Y54320000D01*
X124949000Y54740000D01*
X124749000Y54740000D01*
G37*
D10*
X124609000Y53700000D02*
X123609000Y53700000D01*
X124323444Y53366667D01*
X123609000Y53033333D01*
X124609000Y53033333D01*
X124609000Y52156666D02*
X124085667Y52156666D01*
X123990111Y52204444D01*
X123942333Y52300000D01*
X123942333Y52490000D01*
X123990111Y52585555D01*
X124561222Y52156666D02*
X124609000Y52252222D01*
X124609000Y52490000D01*
X124561222Y52585555D01*
X124465667Y52633333D01*
X124371222Y52633333D01*
X124275667Y52585555D01*
X124227889Y52490000D01*
X124227889Y52252222D01*
X124180111Y52156666D01*
X124609000Y51279999D02*
X123609000Y51279999D01*
X124561222Y51279999D02*
X124609000Y51375555D01*
X124609000Y51566666D01*
X124561222Y51661110D01*
X124513444Y51708888D01*
X124419000Y51756666D01*
X124132333Y51756666D01*
X124037889Y51708888D01*
X123990111Y51661110D01*
X123942333Y51566666D01*
X123942333Y51375555D01*
X123990111Y51279999D01*
X124561222Y50451110D02*
X124609000Y50546666D01*
X124609000Y50736666D01*
X124561222Y50832221D01*
X124465667Y50879999D01*
X124085667Y50879999D01*
X123990111Y50832221D01*
X123942333Y50736666D01*
X123942333Y50546666D01*
X123990111Y50451110D01*
X124085667Y50403332D01*
X124180111Y50403332D01*
X124275667Y50879999D01*
X123609000Y49203333D02*
X124609000Y48965555D01*
X123894556Y48774444D01*
X124609000Y48584444D01*
X123609000Y48346666D01*
X124609000Y47898888D02*
X123942333Y47898888D01*
X123609000Y47898888D02*
X123656778Y47946666D01*
X123704556Y47898888D01*
X123656778Y47851110D01*
X123609000Y47898888D01*
X123704556Y47898888D01*
X123942333Y47451110D02*
X123942333Y47069999D01*
X123609000Y47307777D02*
X124465667Y47307777D01*
X124561222Y47261110D01*
X124609000Y47165554D01*
X124609000Y47069999D01*
X124609000Y46669999D02*
X123609000Y46669999D01*
X124609000Y46241110D02*
X124085667Y46241110D01*
X123990111Y46288888D01*
X123942333Y46384443D01*
X123942333Y46526666D01*
X123990111Y46622221D01*
X124037889Y46669999D01*
X126089000Y53223333D02*
X126089000Y53700000D01*
X125089000Y53700000D01*
X126089000Y52775555D02*
X125422333Y52775555D01*
X125089000Y52775555D02*
X125136778Y52823333D01*
X125184556Y52775555D01*
X125136778Y52727777D01*
X125089000Y52775555D01*
X125184556Y52775555D01*
X126089000Y52327777D02*
X125089000Y52327777D01*
X125470111Y52327777D02*
X125422333Y52232221D01*
X125422333Y52042221D01*
X125470111Y51946666D01*
X125517889Y51898888D01*
X125612333Y51851110D01*
X125899000Y51851110D01*
X125993444Y51898888D01*
X126041222Y51946666D01*
X126089000Y52042221D01*
X126089000Y52232221D01*
X126041222Y52327777D01*
X126089000Y51451110D02*
X125422333Y51451110D01*
X125612333Y51451110D02*
X125517889Y51403332D01*
X125470111Y51355554D01*
X125422333Y51261110D01*
X125422333Y51165554D01*
X126041222Y50336665D02*
X126089000Y50432221D01*
X126089000Y50622221D01*
X126041222Y50717776D01*
X125945667Y50765554D01*
X125565667Y50765554D01*
X125470111Y50717776D01*
X125422333Y50622221D01*
X125422333Y50432221D01*
X125470111Y50336665D01*
X125565667Y50288887D01*
X125660111Y50288887D01*
X125755667Y50765554D01*
X126089000Y49888887D02*
X125089000Y49888887D01*
X125089000Y49507776D01*
X125136778Y49412220D01*
X125184556Y49365554D01*
X125279000Y49317776D01*
X125422333Y49317776D01*
X125517889Y49365554D01*
X125565667Y49412220D01*
X125612333Y49507776D01*
X125612333Y49888887D01*
X125993444Y48298887D02*
X126041222Y48346665D01*
X126089000Y48488887D01*
X126089000Y48584443D01*
X126041222Y48727776D01*
X125945667Y48822220D01*
X125851222Y48869998D01*
X125660111Y48917776D01*
X125517889Y48917776D01*
X125326778Y48869998D01*
X125232333Y48822220D01*
X125136778Y48727776D01*
X125089000Y48584443D01*
X125089000Y48488887D01*
X125136778Y48346665D01*
X125184556Y48298887D01*
X125565667Y47565554D02*
X125612333Y47422220D01*
X125660111Y47375554D01*
X125755667Y47327776D01*
X125899000Y47327776D01*
X125993444Y47375554D01*
X126041222Y47422220D01*
X126089000Y47517776D01*
X126089000Y47898887D01*
X125089000Y47898887D01*
X125089000Y47565554D01*
X125136778Y47469998D01*
X125184556Y47422220D01*
X125279000Y47375554D01*
X125374556Y47375554D01*
X125470111Y47422220D01*
X125517889Y47469998D01*
X125565667Y47565554D01*
X125565667Y47898887D01*
G04 #@! TO.C,D241*
X48474000Y55475000D02*
X44274000Y55475000D01*
X44274000Y57225000D01*
X48474000Y57225000D01*
G04 #@! TO.C,D261*
X10374000Y50712000D02*
X6174000Y50712000D01*
X6174000Y52462000D01*
X10374000Y52462000D01*
G04 #@! TO.C,S210*
X111274000Y63809000D02*
X111274000Y73669000D01*
X97324000Y63809000D02*
X97324000Y73669000D01*
G04 #@! TO.C,JP14*
X129129000Y62497000D02*
X131129000Y62497000D01*
X131129000Y64097000D01*
X129129000Y64097000D01*
G04 #@! TO.C,JP17*
X129129000Y67577000D02*
X131129000Y67577000D01*
X131129000Y69177000D01*
X129129000Y69177000D01*
G04 #@! TO.C,D262*
X10374000Y31662000D02*
X6174000Y31662000D01*
X6174000Y33412000D01*
X10374000Y33412000D01*
G04 #@! TO.C,JP18*
X129129000Y65037000D02*
X131129000Y65037000D01*
X131129000Y66637000D01*
X129129000Y66637000D01*
G04 #@! TO.C,S243*
X54124000Y9040000D02*
X54124000Y18900000D01*
X40174000Y9040000D02*
X40174000Y18900000D01*
G04 #@! TO.C,S262*
X16024000Y23327000D02*
X16024000Y33187000D01*
X2074000Y23327000D02*
X2074000Y33187000D01*
G04 #@! TO.C,D232*
X67524000Y38806000D02*
X63324000Y38806000D01*
X63324000Y40556000D01*
X67524000Y40556000D01*
G04 #@! TO.C,D212*
X105624000Y34044000D02*
X101424000Y34044000D01*
X101424000Y35794000D01*
X105624000Y35794000D01*
G04 #@! TO.C,JP21*
X120569000Y36960000D02*
X120569000Y38960000D01*
X118969000Y38960000D01*
X118969000Y36960000D01*
G04 #@! TO.C,S260*
X16024000Y61427000D02*
X16024000Y71287000D01*
X2074000Y61427000D02*
X2074000Y71287000D01*
G04 #@! TO.C,JP15*
X129129000Y72657000D02*
X131129000Y72657000D01*
X131129000Y74257000D01*
X129129000Y74257000D01*
G04 #@! TO.C,S213*
X111274000Y6659000D02*
X111274000Y16519000D01*
X97324000Y6659000D02*
X97324000Y16519000D01*
G04 #@! TO.C,JP8*
X129129000Y49797000D02*
X131129000Y49797000D01*
X131129000Y51397000D01*
X129129000Y51397000D01*
G04 #@! TD*
X126236960Y22514834D02*
X125665294Y21524679D01*
X124865294Y20139039D02*
X124293628Y19148884D01*
X125074539Y19358128D02*
X124084384Y19929794D01*
X124165667Y73410000D02*
X122665667Y73410000D01*
X123594000Y73266667D02*
X124165667Y72838333D01*
X123165667Y72838333D02*
X123737334Y73410000D01*
X124165667Y72338333D02*
X122665667Y72338333D01*
X123237334Y72338333D02*
X123165667Y72195000D01*
X123165667Y71910000D01*
X123237334Y71766666D01*
X123309000Y71695000D01*
X123450667Y71623333D01*
X123880667Y71623333D01*
X124022334Y71695000D01*
X124094000Y71766666D01*
X124165667Y71910000D01*
X124165667Y72195000D01*
X124094000Y72338333D01*
X124165667Y70408333D02*
X122665667Y70408333D01*
X124094000Y70408333D02*
X124165667Y70551666D01*
X124165667Y70838333D01*
X124094000Y70980000D01*
X124022334Y71051666D01*
X123880667Y71123333D01*
X123450667Y71123333D01*
X123309000Y71051666D01*
X123237334Y70980000D01*
X123165667Y70838333D01*
X123165667Y70551666D01*
X123237334Y70408333D01*
X124165667Y69908333D02*
X122665667Y69908333D01*
X123594000Y69765000D02*
X124165667Y69336666D01*
X123165667Y69336666D02*
X123737334Y69908333D01*
X124165667Y68764999D02*
X123165667Y68764999D01*
X122665667Y68764999D02*
X122737334Y68836666D01*
X122809000Y68764999D01*
X122737334Y68693333D01*
X122665667Y68764999D01*
X122809000Y68764999D01*
X124165667Y67478333D02*
X122665667Y67478333D01*
X124094000Y67478333D02*
X124165667Y67621666D01*
X124165667Y67908333D01*
X124094000Y68050000D01*
X124022334Y68121666D01*
X123880667Y68193333D01*
X123450667Y68193333D01*
X123309000Y68121666D01*
X123237334Y68050000D01*
X123165667Y67908333D01*
X123165667Y67621666D01*
X123237334Y67478333D01*
X123165667Y66263333D02*
X124165667Y66263333D01*
X122594000Y66621666D02*
X123665667Y66978333D01*
X123665667Y66050000D01*
X123165667Y64450001D02*
X124165667Y64093334D01*
X123165667Y63735001D01*
X124165667Y62378334D02*
X124165667Y63235001D01*
X124165667Y62806668D02*
X122665667Y62806668D01*
X122880667Y62950001D01*
X123022334Y63091668D01*
X123094000Y63235001D01*
X124022334Y61806667D02*
X124094000Y61735001D01*
X124165667Y61806667D01*
X124094000Y61878334D01*
X124022334Y61806667D01*
X124165667Y61806667D01*
X124165667Y60378334D02*
X124165667Y61235001D01*
X124165667Y60806668D02*
X122665667Y60806668D01*
X122880667Y60950001D01*
X123022334Y61091668D01*
X123094000Y61235001D01*
X127032332Y73410000D02*
X125532332Y73410000D01*
X126103999Y73410000D02*
X126032332Y73266667D01*
X126032332Y72981667D01*
X126103999Y72838333D01*
X126175665Y72766667D01*
X126317332Y72695000D01*
X126747332Y72695000D01*
X126888999Y72766667D01*
X126960665Y72838333D01*
X127032332Y72981667D01*
X127032332Y73266667D01*
X126960665Y73410000D01*
X126032332Y72195000D02*
X127032332Y71838333D01*
X126032332Y71480000D02*
X127032332Y71838333D01*
X127388999Y71980000D01*
X127460665Y72051667D01*
X127532332Y72195000D01*
X125532332Y69880001D02*
X125532332Y69023334D01*
X127032332Y69451668D02*
X125532332Y69451668D01*
X126032332Y67880001D02*
X127032332Y67880001D01*
X126032332Y68523334D02*
X126817332Y68523334D01*
X126960665Y68451667D01*
X127032332Y68308334D01*
X127032332Y68095001D01*
X126960665Y67951667D01*
X126888999Y67880001D01*
X127032332Y67380001D02*
X125532332Y67380001D01*
X126103999Y67380001D02*
X126032332Y67236668D01*
X126032332Y66951668D01*
X126103999Y66808334D01*
X126175665Y66736668D01*
X126317332Y66665001D01*
X126747332Y66665001D01*
X126888999Y66736668D01*
X126960665Y66808334D01*
X127032332Y66951668D01*
X127032332Y67236668D01*
X126960665Y67380001D01*
X127032332Y66165001D02*
X125532332Y66165001D01*
X126103999Y66165001D02*
X126032332Y66021668D01*
X126032332Y65736668D01*
X126103999Y65593334D01*
X126175665Y65521668D01*
X126317332Y65450001D01*
X126747332Y65450001D01*
X126888999Y65521668D01*
X126960665Y65593334D01*
X127032332Y65736668D01*
X127032332Y66021668D01*
X126960665Y66165001D01*
X127032332Y64735001D02*
X126960665Y64878334D01*
X126817332Y64950001D01*
X125532332Y64950001D01*
X126960665Y63591668D02*
X127032332Y63735001D01*
X127032332Y64020001D01*
X126960665Y64163334D01*
X126817332Y64235001D01*
X126247332Y64235001D01*
X126103999Y64163334D01*
X126032332Y64020001D01*
X126032332Y63735001D01*
X126103999Y63591668D01*
X126247332Y63520001D01*
X126388999Y63520001D01*
X126532332Y64235001D01*
X126960665Y63020001D02*
X127032332Y62876668D01*
X127032332Y62591668D01*
X126960665Y62448334D01*
X126817332Y62376668D01*
X126747332Y62376668D01*
X126603999Y62448334D01*
X126532332Y62591668D01*
X126532332Y62805001D01*
X126460665Y62948334D01*
X126317332Y63020001D01*
X126247332Y63020001D01*
X126103999Y62948334D01*
X126032332Y62805001D01*
X126032332Y62591668D01*
X126103999Y62448334D01*
%LPC*%
D13*
G04 #@! TO.C,JP12*
X130429000Y58217000D03*
X129429000Y58217000D03*
D12*
G36*
X130829000Y58717000D02*
X129029000Y58717000D01*
X129029000Y57717000D01*
X130829000Y57717000D01*
X130829000Y58717000D01*
G37*
D13*
G04 #@! TO.C,JP9*
X130429000Y53137000D03*
X129429000Y53137000D03*
D12*
G36*
X130829000Y53637000D02*
X129029000Y53637000D01*
X129029000Y52637000D01*
X130829000Y52637000D01*
X130829000Y53637000D01*
G37*
D14*
G04 #@! TO.C,S122*
X38074000Y29270000D03*
X51224000Y27070000D03*
D15*
G04 #@! TD*
X52649000Y33020000D03*
X41649000Y33020000D03*
D16*
X47149000Y27070000D03*
X42149000Y29270000D03*
D17*
X52369000Y37220000D03*
D18*
X47149000Y33020000D03*
D15*
X22599000Y47307000D03*
X33599000Y47307000D03*
D16*
X28099000Y41357000D03*
X33099000Y43557000D03*
D17*
X22879000Y51507000D03*
D18*
X28099000Y47307000D03*
D14*
G04 #@! TO.C,S150*
X95224000Y64989000D03*
X108374000Y62789000D03*
D15*
G04 #@! TD*
X109799000Y68739000D03*
X98799000Y68739000D03*
D16*
X104299000Y62789000D03*
X99299000Y64989000D03*
D17*
X109519000Y72939000D03*
D18*
X104299000Y68739000D03*
D14*
G04 #@! TO.C,S142*
X76174000Y29270000D03*
X89324000Y27070000D03*
D15*
G04 #@! TD*
X90749000Y33020000D03*
X79749000Y33020000D03*
D16*
X85249000Y27070000D03*
X80249000Y29270000D03*
D17*
X90469000Y37220000D03*
D18*
X85249000Y33020000D03*
D19*
G04 #@! TO.C,D252*
X29974000Y32537000D03*
X26224000Y32537000D03*
D15*
G04 #@! TD*
X41649000Y71120000D03*
X52649000Y71120000D03*
D16*
X47149000Y65170000D03*
X52149000Y67370000D03*
D17*
X41929000Y75320000D03*
D18*
X47149000Y71120000D03*
D20*
G04 #@! TO.C,DS2*
X124849000Y40725000D03*
X122309000Y40725000D03*
X119769000Y40725000D03*
X127389000Y40725000D03*
D21*
X129929000Y40725000D03*
D22*
G04 #@! TO.C,U1*
X132469000Y63297000D03*
X132469000Y55677000D03*
X117229000Y60757000D03*
X117229000Y53137000D03*
X117229000Y48057000D03*
X132469000Y73457000D03*
X132469000Y50597000D03*
X117229000Y73457000D03*
X117229000Y70917000D03*
X132469000Y68377000D03*
X117229000Y58217000D03*
X117229000Y50597000D03*
X132469000Y48057000D03*
X117229000Y68377000D03*
X117229000Y55677000D03*
X117229000Y63297000D03*
X132469000Y60757000D03*
X132469000Y58217000D03*
X117229000Y45517000D03*
X132469000Y65837000D03*
X132469000Y70917000D03*
X132469000Y45517000D03*
X132469000Y53137000D03*
X117229000Y65837000D03*
D15*
G04 #@! TD*
X41649000Y52070000D03*
X52649000Y52070000D03*
D16*
X47149000Y46120000D03*
X52149000Y48320000D03*
D17*
X41929000Y56270000D03*
D18*
X47149000Y52070000D03*
D19*
G04 #@! TO.C,D253*
X29974000Y13487000D03*
X26224000Y13487000D03*
D13*
G04 #@! TO.C,JP7*
X130429000Y45517000D03*
X129429000Y45517000D03*
D12*
G36*
X130829000Y46017000D02*
X129029000Y46017000D01*
X129029000Y45017000D01*
X130829000Y45017000D01*
X130829000Y46017000D01*
G37*
D19*
G04 #@! TO.C,D213*
X106174000Y15869000D03*
X102424000Y15869000D03*
D13*
G04 #@! TO.C,JP47*
X127500000Y20000000D03*
X128500000Y20000000D03*
D12*
G36*
X127100000Y19500000D02*
X128900000Y19500000D01*
X128900000Y20500000D01*
X127100000Y20500000D01*
X127100000Y19500000D01*
G37*
D19*
G04 #@! TO.C,D211*
X106174000Y53969000D03*
X102424000Y53969000D03*
D14*
G04 #@! TO.C,S121*
X38074000Y48320000D03*
X51224000Y46120000D03*
D15*
G04 #@! TD*
X52649000Y52070000D03*
X41649000Y52070000D03*
D16*
X47149000Y46120000D03*
X42149000Y48320000D03*
D17*
X52369000Y56270000D03*
D18*
X47149000Y52070000D03*
D14*
G04 #@! TO.C,S110*
X19024000Y62607000D03*
X32174000Y60407000D03*
D15*
G04 #@! TD*
X33599000Y66357000D03*
X22599000Y66357000D03*
D16*
X28099000Y60407000D03*
X23099000Y62607000D03*
D17*
X33319000Y70557000D03*
D18*
X28099000Y66357000D03*
D13*
G04 #@! TO.C,JP6*
X119269000Y45517000D03*
X120269000Y45517000D03*
D12*
G36*
X118869000Y45017000D02*
X120669000Y45017000D01*
X120669000Y46017000D01*
X118869000Y46017000D01*
X118869000Y45017000D01*
G37*
D13*
G04 #@! TO.C,JP2*
X119269000Y63297000D03*
X120269000Y63297000D03*
D12*
G36*
X118869000Y62797000D02*
X120669000Y62797000D01*
X120669000Y63797000D01*
X118869000Y63797000D01*
X118869000Y62797000D01*
G37*
D15*
G04 #@! TD*
X79749000Y33020000D03*
X90749000Y33020000D03*
D16*
X85249000Y27070000D03*
X90249000Y29270000D03*
D17*
X80029000Y37220000D03*
D18*
X85249000Y33020000D03*
D14*
G04 #@! TO.C,S151*
X95224000Y45939000D03*
X108374000Y43739000D03*
D15*
G04 #@! TD*
X109799000Y49689000D03*
X98799000Y49689000D03*
D16*
X104299000Y43739000D03*
X99299000Y45939000D03*
D17*
X109519000Y53889000D03*
D18*
X104299000Y49689000D03*
D13*
G04 #@! TO.C,JP51*
X119269000Y68377000D03*
X120269000Y68377000D03*
D12*
G36*
X118869000Y67877000D02*
X120669000Y67877000D01*
X120669000Y68877000D01*
X118869000Y68877000D01*
X118869000Y67877000D01*
G37*
D23*
G04 #@! TO.C,JP22*
X122309000Y38260000D03*
X122309000Y37260000D03*
D12*
G36*
X121809000Y38660000D02*
X121809000Y36860000D01*
X122809000Y36860000D01*
X122809000Y38660000D01*
X121809000Y38660000D01*
G37*
D24*
G04 #@! TO.C,S1*
X102049000Y74628000D03*
X105049000Y74628000D03*
D25*
X107949000Y77478000D03*
X100649000Y77478000D03*
X100649000Y75278000D03*
D24*
X106549000Y74628000D03*
D25*
X107949000Y75278000D03*
D26*
G04 #@! TD*
X102799000Y76378000D03*
X105799000Y76378000D03*
D19*
G04 #@! TO.C,D263*
X10924000Y13487000D03*
X7174000Y13487000D03*
D27*
G04 #@! TO.C,J1*
X123905762Y22831025D03*
D28*
X122905762Y21098975D03*
D13*
G04 #@! TO.C,JP11*
X130429000Y55677000D03*
X129429000Y55677000D03*
D12*
G36*
X130829000Y56177000D02*
X129029000Y56177000D01*
X129029000Y55177000D01*
X130829000Y55177000D01*
X130829000Y56177000D01*
G37*
D15*
G04 #@! TD*
X98799000Y49689000D03*
X109799000Y49689000D03*
D16*
X104299000Y43739000D03*
X109299000Y45939000D03*
D17*
X99079000Y53889000D03*
D18*
X104299000Y49689000D03*
D13*
G04 #@! TO.C,JP48*
X127500000Y22000000D03*
X128500000Y22000000D03*
D12*
G36*
X127100000Y21500000D02*
X128900000Y21500000D01*
X128900000Y22500000D01*
X127100000Y22500000D01*
X127100000Y21500000D01*
G37*
D13*
G04 #@! TO.C,JP5*
X119269000Y48057000D03*
X120269000Y48057000D03*
D12*
G36*
X118869000Y47557000D02*
X120669000Y47557000D01*
X120669000Y48557000D01*
X118869000Y48557000D01*
X118869000Y47557000D01*
G37*
D15*
G04 #@! TD*
X3549000Y9207000D03*
X14549000Y9207000D03*
D16*
X9049000Y3257000D03*
X14049000Y5457000D03*
D17*
X3829000Y13407000D03*
D18*
X9049000Y9207000D03*
D14*
G04 #@! TO.C,S141*
X76174000Y48320000D03*
X89324000Y46120000D03*
D15*
G04 #@! TD*
X90749000Y52070000D03*
X79749000Y52070000D03*
D16*
X85249000Y46120000D03*
X80249000Y48320000D03*
D17*
X90469000Y56270000D03*
D18*
X85249000Y52070000D03*
D19*
G04 #@! TO.C,D223*
X87124000Y18250000D03*
X83374000Y18250000D03*
D14*
G04 #@! TO.C,S153*
X95224000Y7839000D03*
X108374000Y5639000D03*
D15*
G04 #@! TD*
X109799000Y11589000D03*
X98799000Y11589000D03*
D16*
X104299000Y5639000D03*
X99299000Y7839000D03*
D17*
X109519000Y15789000D03*
D18*
X104299000Y11589000D03*
D13*
G04 #@! TO.C,JP1*
X119269000Y73457000D03*
X120269000Y73457000D03*
D12*
G36*
X118869000Y72957000D02*
X120669000Y72957000D01*
X120669000Y73957000D01*
X118869000Y73957000D01*
X118869000Y72957000D01*
G37*
D19*
G04 #@! TO.C,D220*
X87124000Y75400000D03*
X83374000Y75400000D03*
D15*
G04 #@! TD*
X22599000Y9207000D03*
X33599000Y9207000D03*
D16*
X28099000Y3257000D03*
X33099000Y5457000D03*
D17*
X22879000Y13407000D03*
D18*
X28099000Y9207000D03*
D13*
G04 #@! TO.C,JP10*
X130429000Y48057000D03*
X129429000Y48057000D03*
D12*
G36*
X130829000Y48557000D02*
X129029000Y48557000D01*
X129029000Y47557000D01*
X130829000Y47557000D01*
X130829000Y48557000D01*
G37*
D13*
G04 #@! TO.C,JP16*
X130429000Y70917000D03*
X129429000Y70917000D03*
D12*
G36*
X130829000Y71417000D02*
X129029000Y71417000D01*
X129029000Y70417000D01*
X130829000Y70417000D01*
X130829000Y71417000D01*
G37*
D14*
G04 #@! TO.C,S140*
X76174000Y67370000D03*
X89324000Y65170000D03*
D15*
G04 #@! TD*
X90749000Y71120000D03*
X79749000Y71120000D03*
D16*
X85249000Y65170000D03*
X80249000Y67370000D03*
D17*
X90469000Y75320000D03*
D18*
X85249000Y71120000D03*
D14*
G04 #@! TO.C,S152*
X95224000Y26889000D03*
X108374000Y24689000D03*
D15*
G04 #@! TD*
X109799000Y30639000D03*
X98799000Y30639000D03*
D16*
X104299000Y24689000D03*
X99299000Y26889000D03*
D17*
X109519000Y34839000D03*
D18*
X104299000Y30639000D03*
D19*
G04 #@! TO.C,D251*
X29974000Y51587000D03*
X26224000Y51587000D03*
D29*
G04 #@! TO.C,S4*
X122775000Y28250000D03*
X127225000Y31750000D03*
X122775000Y31750000D03*
X127225000Y28250000D03*
D19*
G04 #@! TO.C,D230*
X68074000Y77781000D03*
X64324000Y77781000D03*
D13*
G04 #@! TO.C,JP3*
X119269000Y60757000D03*
X120269000Y60757000D03*
D12*
G36*
X118869000Y60257000D02*
X120669000Y60257000D01*
X120669000Y61257000D01*
X118869000Y61257000D01*
X118869000Y60257000D01*
G37*
D15*
G04 #@! TD*
X79749000Y52070000D03*
X90749000Y52070000D03*
D16*
X85249000Y46120000D03*
X90249000Y48320000D03*
D17*
X80029000Y56270000D03*
D18*
X85249000Y52070000D03*
D14*
G04 #@! TO.C,S120*
X38074000Y67370000D03*
X51224000Y65170000D03*
D15*
G04 #@! TD*
X52649000Y71120000D03*
X41649000Y71120000D03*
D16*
X47149000Y65170000D03*
X42149000Y67370000D03*
D17*
X52369000Y75320000D03*
D18*
X47149000Y71120000D03*
D15*
X60699000Y16351000D03*
X71699000Y16351000D03*
D16*
X66199000Y10401000D03*
X71199000Y12601000D03*
D17*
X60979000Y20551000D03*
D18*
X66199000Y16351000D03*
D19*
G04 #@! TO.C,D260*
X10924000Y70637000D03*
X7174000Y70637000D03*
D30*
G04 #@! TO.C,S100*
X1249000Y62657000D03*
X11849000Y60457000D03*
D15*
G04 #@! TD*
X14549000Y66357000D03*
X3549000Y66357000D03*
D16*
X9049000Y60407000D03*
X4049000Y62607000D03*
D17*
X14269000Y70557000D03*
D18*
X9049000Y66357000D03*
D14*
G04 #@! TO.C,S123*
X38074000Y10220000D03*
X51224000Y8020000D03*
D15*
G04 #@! TD*
X52649000Y13970000D03*
X41649000Y13970000D03*
D16*
X47149000Y8020000D03*
X42149000Y10220000D03*
D17*
X52369000Y18170000D03*
D18*
X47149000Y13970000D03*
D22*
G04 #@! TO.C,U2*
X117229000Y63297000D03*
X117229000Y55677000D03*
X132469000Y60757000D03*
X132469000Y53137000D03*
X132469000Y48057000D03*
X117229000Y73457000D03*
X117229000Y50597000D03*
X132469000Y73457000D03*
X132469000Y70917000D03*
X117229000Y68377000D03*
X132469000Y58217000D03*
X132469000Y50597000D03*
X117229000Y48057000D03*
X132469000Y68377000D03*
X132469000Y55677000D03*
X132469000Y63297000D03*
X117229000Y60757000D03*
X117229000Y58217000D03*
X132469000Y45517000D03*
X117229000Y65837000D03*
X117229000Y70917000D03*
X117229000Y45517000D03*
X117229000Y53137000D03*
X132469000Y65837000D03*
D15*
G04 #@! TD*
X41649000Y33020000D03*
X52649000Y33020000D03*
D16*
X47149000Y27070000D03*
X52149000Y29270000D03*
D17*
X41929000Y37220000D03*
D18*
X47149000Y33020000D03*
D14*
G04 #@! TO.C,S132*
X57124000Y31651000D03*
X70274000Y29451000D03*
D15*
G04 #@! TD*
X71699000Y35401000D03*
X60699000Y35401000D03*
D16*
X66199000Y29451000D03*
X61199000Y31651000D03*
D17*
X71419000Y39601000D03*
D18*
X66199000Y35401000D03*
D13*
G04 #@! TO.C,JP52*
X119269000Y65837000D03*
X120269000Y65837000D03*
D12*
G36*
X118869000Y65337000D02*
X120669000Y65337000D01*
X120669000Y66337000D01*
X118869000Y66337000D01*
X118869000Y65337000D01*
G37*
D19*
G04 #@! TO.C,D210*
X106174000Y73019000D03*
X102424000Y73019000D03*
D14*
G04 #@! TO.C,S113*
X19024000Y5457000D03*
X32174000Y3257000D03*
D15*
G04 #@! TD*
X33599000Y9207000D03*
X22599000Y9207000D03*
D16*
X28099000Y3257000D03*
X23099000Y5457000D03*
D17*
X33319000Y13407000D03*
D18*
X28099000Y9207000D03*
D14*
G04 #@! TO.C,S130*
X57124000Y69751000D03*
X70274000Y67551000D03*
D15*
G04 #@! TD*
X71699000Y73501000D03*
X60699000Y73501000D03*
D16*
X66199000Y67551000D03*
X61199000Y69751000D03*
D17*
X71419000Y77701000D03*
D18*
X66199000Y73501000D03*
D14*
G04 #@! TO.C,S133*
X57124000Y12601000D03*
X70274000Y10401000D03*
D15*
G04 #@! TD*
X71699000Y16351000D03*
X60699000Y16351000D03*
D16*
X66199000Y10401000D03*
X61199000Y12601000D03*
D17*
X71419000Y20551000D03*
D18*
X66199000Y16351000D03*
D19*
G04 #@! TO.C,D203*
X125224000Y13487000D03*
X121474000Y13487000D03*
D30*
G04 #@! TO.C,S101*
X1249000Y43607000D03*
X11849000Y41407000D03*
D15*
G04 #@! TD*
X14549000Y47307000D03*
X3549000Y47307000D03*
D16*
X9049000Y41357000D03*
X4049000Y43557000D03*
D17*
X14269000Y51507000D03*
D18*
X9049000Y47307000D03*
D15*
X60699000Y54451000D03*
X71699000Y54451000D03*
D16*
X66199000Y48501000D03*
X71199000Y50701000D03*
D17*
X60979000Y58651000D03*
D18*
X66199000Y54451000D03*
D14*
G04 #@! TO.C,S111*
X19024000Y43557000D03*
X32174000Y41357000D03*
D15*
G04 #@! TD*
X33599000Y47307000D03*
X22599000Y47307000D03*
D16*
X28099000Y41357000D03*
X23099000Y43557000D03*
D17*
X33319000Y51507000D03*
D18*
X28099000Y47307000D03*
D15*
X22599000Y66357000D03*
X33599000Y66357000D03*
D16*
X28099000Y60407000D03*
X33099000Y62607000D03*
D17*
X22879000Y70557000D03*
D18*
X28099000Y66357000D03*
D30*
G04 #@! TO.C,S102*
X1249000Y24557000D03*
X11849000Y22357000D03*
D15*
G04 #@! TD*
X14549000Y28257000D03*
X3549000Y28257000D03*
D16*
X9049000Y22307000D03*
X4049000Y24507000D03*
D17*
X14269000Y32457000D03*
D18*
X9049000Y28257000D03*
D15*
X117849000Y9207000D03*
X128849000Y9207000D03*
D16*
X123349000Y3257000D03*
X128349000Y5457000D03*
D17*
X118129000Y13407000D03*
D18*
X123349000Y9207000D03*
D23*
G04 #@! TO.C,JP19*
X124849000Y38260000D03*
X124849000Y37260000D03*
D12*
G36*
X124349000Y38660000D02*
X124349000Y36860000D01*
X125349000Y36860000D01*
X125349000Y38660000D01*
X124349000Y38660000D01*
G37*
D15*
G04 #@! TD*
X79749000Y13970000D03*
X90749000Y13970000D03*
D16*
X85249000Y8020000D03*
X90249000Y10220000D03*
D17*
X80029000Y18170000D03*
D18*
X85249000Y13970000D03*
D20*
G04 #@! TO.C,DS1*
X124849000Y40725000D03*
X127389000Y40725000D03*
X129929000Y40725000D03*
X122309000Y40725000D03*
D21*
X119769000Y40725000D03*
D19*
G04 #@! TO.C,D250*
X29974000Y70637000D03*
X26224000Y70637000D03*
G04 #@! TO.C,D242*
X49024000Y37300000D03*
X45274000Y37300000D03*
G04 #@! TO.C,D233*
X68074000Y20631000D03*
X64324000Y20631000D03*
D23*
G04 #@! TO.C,JP20*
X127389000Y38260000D03*
X127389000Y37260000D03*
D12*
G36*
X126889000Y38660000D02*
X126889000Y36860000D01*
X127889000Y36860000D01*
X127889000Y38660000D01*
X126889000Y38660000D01*
G37*
D15*
G04 #@! TD*
X98799000Y30639000D03*
X109799000Y30639000D03*
D16*
X104299000Y24689000D03*
X109299000Y26889000D03*
D17*
X99079000Y34839000D03*
D18*
X104299000Y30639000D03*
D15*
X60699000Y73501000D03*
X71699000Y73501000D03*
D16*
X66199000Y67551000D03*
X71199000Y69751000D03*
D17*
X60979000Y77701000D03*
D18*
X66199000Y73501000D03*
D19*
G04 #@! TO.C,D240*
X49024000Y75400000D03*
X45274000Y75400000D03*
D23*
G04 #@! TO.C,JP23*
X129929000Y38260000D03*
X129929000Y37260000D03*
D12*
G36*
X129429000Y38660000D02*
X129429000Y36860000D01*
X130429000Y36860000D01*
X130429000Y38660000D01*
X129429000Y38660000D01*
G37*
D15*
G04 #@! TD*
X22599000Y28257000D03*
X33599000Y28257000D03*
D16*
X28099000Y22307000D03*
X33099000Y24507000D03*
D17*
X22879000Y32457000D03*
D18*
X28099000Y28257000D03*
D13*
G04 #@! TO.C,JP4*
X119269000Y50597000D03*
X120269000Y50597000D03*
D12*
G36*
X118869000Y50097000D02*
X120669000Y50097000D01*
X120669000Y51097000D01*
X118869000Y51097000D01*
X118869000Y50097000D01*
G37*
D19*
G04 #@! TO.C,D222*
X87124000Y37300000D03*
X83374000Y37300000D03*
D13*
G04 #@! TO.C,JP13*
X130429000Y60757000D03*
X129429000Y60757000D03*
D12*
G36*
X130829000Y61257000D02*
X129029000Y61257000D01*
X129029000Y60257000D01*
X130829000Y60257000D01*
X130829000Y61257000D01*
G37*
D19*
G04 #@! TO.C,D231*
X68074000Y58731000D03*
X64324000Y58731000D03*
D15*
G04 #@! TD*
X79749000Y71120000D03*
X90749000Y71120000D03*
D16*
X85249000Y65170000D03*
X90249000Y67370000D03*
D17*
X80029000Y75320000D03*
D18*
X85249000Y71120000D03*
D15*
X60699000Y35401000D03*
X71699000Y35401000D03*
D16*
X66199000Y29451000D03*
X71199000Y31651000D03*
D17*
X60979000Y39601000D03*
D18*
X66199000Y35401000D03*
D15*
X3549000Y47307000D03*
X14549000Y47307000D03*
D16*
X9049000Y41357000D03*
X14049000Y43557000D03*
D17*
X3829000Y51507000D03*
D18*
X9049000Y47307000D03*
D19*
G04 #@! TO.C,D221*
X87124000Y56350000D03*
X83374000Y56350000D03*
G04 #@! TO.C,D243*
X49024000Y18250000D03*
X45274000Y18250000D03*
D26*
G04 #@! TD*
X105799000Y76378000D03*
X102799000Y76378000D03*
D19*
G04 #@! TO.C,D241*
X49024000Y56350000D03*
X45274000Y56350000D03*
G04 #@! TO.C,D261*
X10924000Y51587000D03*
X7174000Y51587000D03*
D15*
G04 #@! TD*
X98799000Y68739000D03*
X109799000Y68739000D03*
D16*
X104299000Y62789000D03*
X109299000Y64989000D03*
D17*
X99079000Y72939000D03*
D18*
X104299000Y68739000D03*
D13*
G04 #@! TO.C,JP14*
X130429000Y63297000D03*
X129429000Y63297000D03*
D12*
G36*
X130829000Y63797000D02*
X129029000Y63797000D01*
X129029000Y62797000D01*
X130829000Y62797000D01*
X130829000Y63797000D01*
G37*
D13*
G04 #@! TO.C,JP17*
X130429000Y68377000D03*
X129429000Y68377000D03*
D12*
G36*
X130829000Y68877000D02*
X129029000Y68877000D01*
X129029000Y67877000D01*
X130829000Y67877000D01*
X130829000Y68877000D01*
G37*
D27*
G04 #@! TO.C,J2*
X122905762Y21098975D03*
D28*
X123905762Y22831025D03*
D19*
G04 #@! TO.C,D262*
X10924000Y32537000D03*
X7174000Y32537000D03*
D13*
G04 #@! TO.C,JP18*
X130429000Y65837000D03*
X129429000Y65837000D03*
D12*
G36*
X130829000Y66337000D02*
X129029000Y66337000D01*
X129029000Y65337000D01*
X130829000Y65337000D01*
X130829000Y66337000D01*
G37*
D15*
G04 #@! TD*
X41649000Y13970000D03*
X52649000Y13970000D03*
D16*
X47149000Y8020000D03*
X52149000Y10220000D03*
D17*
X41929000Y18170000D03*
D18*
X47149000Y13970000D03*
D15*
X3549000Y28257000D03*
X14549000Y28257000D03*
D16*
X9049000Y22307000D03*
X14049000Y24507000D03*
D17*
X3829000Y32457000D03*
D18*
X9049000Y28257000D03*
D19*
G04 #@! TO.C,D232*
X68074000Y39681000D03*
X64324000Y39681000D03*
D14*
G04 #@! TO.C,S163*
X114274000Y5457000D03*
X127424000Y3257000D03*
D15*
G04 #@! TD*
X128849000Y9207000D03*
X117849000Y9207000D03*
D16*
X123349000Y3257000D03*
X118349000Y5457000D03*
D17*
X128569000Y13407000D03*
D18*
X123349000Y9207000D03*
D14*
G04 #@! TO.C,S112*
X19024000Y24507000D03*
X32174000Y22307000D03*
D15*
G04 #@! TD*
X33599000Y28257000D03*
X22599000Y28257000D03*
D16*
X28099000Y22307000D03*
X23099000Y24507000D03*
D17*
X33319000Y32457000D03*
D18*
X28099000Y28257000D03*
D19*
G04 #@! TO.C,D212*
X106174000Y34919000D03*
X102424000Y34919000D03*
D14*
G04 #@! TO.C,S143*
X76174000Y10220000D03*
X89324000Y8020000D03*
D15*
G04 #@! TD*
X90749000Y13970000D03*
X79749000Y13970000D03*
D16*
X85249000Y8020000D03*
X80249000Y10220000D03*
D17*
X90469000Y18170000D03*
D18*
X85249000Y13970000D03*
D14*
G04 #@! TO.C,S131*
X57124000Y50701000D03*
X70274000Y48501000D03*
D15*
G04 #@! TD*
X71699000Y54451000D03*
X60699000Y54451000D03*
D16*
X66199000Y48501000D03*
X61199000Y50701000D03*
D17*
X71419000Y58651000D03*
D18*
X66199000Y54451000D03*
D23*
G04 #@! TO.C,JP21*
X119769000Y38260000D03*
X119769000Y37260000D03*
D12*
G36*
X119269000Y38660000D02*
X119269000Y36860000D01*
X120269000Y36860000D01*
X120269000Y38660000D01*
X119269000Y38660000D01*
G37*
D15*
G04 #@! TD*
X3549000Y66357000D03*
X14549000Y66357000D03*
D16*
X9049000Y60407000D03*
X14049000Y62607000D03*
D17*
X3829000Y70557000D03*
D18*
X9049000Y66357000D03*
D13*
G04 #@! TO.C,JP15*
X130429000Y73457000D03*
X129429000Y73457000D03*
D12*
G36*
X130829000Y73957000D02*
X129029000Y73957000D01*
X129029000Y72957000D01*
X130829000Y72957000D01*
X130829000Y73957000D01*
G37*
D15*
G04 #@! TD*
X98799000Y11589000D03*
X109799000Y11589000D03*
D16*
X104299000Y5639000D03*
X109299000Y7839000D03*
D17*
X99079000Y15789000D03*
D18*
X104299000Y11589000D03*
D13*
G04 #@! TO.C,JP8*
X130429000Y50597000D03*
X129429000Y50597000D03*
D12*
G36*
X130829000Y51097000D02*
X129029000Y51097000D01*
X129029000Y50097000D01*
X130829000Y50097000D01*
X130829000Y51097000D01*
G37*
D30*
G04 #@! TO.C,S103*
X1249000Y5507000D03*
X11849000Y3307000D03*
D15*
G04 #@! TD*
X14549000Y9207000D03*
X3549000Y9207000D03*
D16*
X9049000Y3257000D03*
X4049000Y5457000D03*
D17*
X14269000Y13407000D03*
D18*
X9049000Y9207000D03*
D31*
X76041000Y43260000D03*
X18574000Y18732000D03*
X18574000Y56832000D03*
X94774000Y60404000D03*
X114141000Y19765000D03*
G04 --- BOARD END --- *
G04 #@! TF.MD5,130225a7609d2565b9a4897bb3b4cc23*
M02*
