M48
; #@! TF.GenerationSoftware,LibrePCB,LibrePCB,2.1.1
; #@! TF.CreationDate,2026-07-24T14:35:49
; #@! TF.ProjectId,kbdkid4,82b26ad5-ee44-4a8a-8f43-cf6dd6902403,v1
; #@! TF.Part,Single
; #@! TF.SameCoordinates
; #@! TF.FileFunction,Plated,1,4,PTH
FMAT,2
METRIC,TZ
; #@! TA.AperFunction,ViaDrill
T1C0.3
; #@! TA.AperFunction,ComponentDrill
T2C0.8
; #@! TA.AperFunction,ComponentDrill
T3C1.0
%
G90
G05
M71
T1
X3.4925Y11.43
X91.1225Y73.3425
X78.4225Y73.025
X127.9525Y26.9875
X110.1725Y71.12
X39.6875Y53.34
X27.94Y18.415
X119.6975Y36.5125
X25.0825Y6.985
X35.2425Y40.64
X27.94Y37.465
X125.095Y37.7825
X27.94Y56.515
X127.9525Y47.9425
X72.0725Y56.8325
X110.1725Y33.02
X34.29Y49.53
X58.1025Y17.4625
X97.79Y52.07
X15.24Y30.7975
X91.1225Y54.2925
X72.0725Y18.7325
X3.4925Y49.53
X15.24Y49.53
X78.4225Y53.975
X91.44Y35.2425
X21.9075Y30.48
X57.785Y55.245
X33.9725Y30.48
X125.095Y26.9875
X105.41Y36.1025
X70.485Y41.5925
X114.935Y30.1625
X89.535Y39.0525
X51.7525Y39.37
X13.335Y34.6075
X33.655Y34.6075
X51.7525Y77.1525
X89.8525Y77.47
X13.6525Y72.39
X114.6175Y49.8475
X33.02Y73.3425
X70.485Y79.6925
X125.095Y33.3375
X104.14Y74.6125
X127.9525Y53.0225
X58.1025Y36.5125
X34.29Y68.8975
X3.4925Y68.58
X77.7875Y15.875
X53.0225Y35.56
X97.155Y13.97
X110.1725Y13.97
X119.6975Y28.8925
X8.89Y56.515
X13.0175Y20.32
X8.89Y18.415
X8.89Y37.465
X125.095Y29.5275
X6.0325Y6.6675
X116.5225Y11.43
X110.1725Y52.07
X97.79Y33.02
X129.2225Y11.7475
X124.46Y18.415
X127.9525Y46.355
X132.3975Y25.0825
X53.975Y26.035
X121.6025Y31.75
X46.99Y23.1775
X125.095Y32.0675
X44.1325Y11.43
X46.99Y42.2275
X46.99Y61.2775
X53.34Y73.3425
X3.4925Y30.7975
X52.07Y58.1025
X70.1675Y60.6425
X89.535Y57.785
X125.095Y30.7975
X13.335Y53.975
X105.0925Y56.1975
X33.3375Y54.2925
X72.0725Y75.8825
X53.0225Y16.51
X57.785Y74.6125
X22.225Y49.53
X53.0225Y54.2925
X39.0525Y14.9225
X22.225Y11.43
X15.5575Y11.7475
X121.92Y50.4825
X72.0725Y37.7825
X39.37Y72.39
X73.025Y27.94
X125.095Y35.2425
X121.285Y34.29
X66.04Y44.45
X66.04Y63.5
X63.1825Y13.97
X66.04Y25.4
X124.849Y48.895
X123.5075Y26.9875
X125.095Y43.815
X122.2375Y27.94
X125.73Y19.3675
X121.92Y42.2275
X125.095Y45.4025
X123.19Y6.35
X33.9725Y11.7475
X125.095Y42.545
X104.14Y58.7375
X110.1725Y41.5925
X104.4575Y39.37
X104.14Y20.6375
X101.6Y8.89
X119.6975Y41.5925
X78.105Y34.925
X92.3925Y44.1325
X125.095Y40.3225
X85.09Y42.2275
X85.09Y61.2775
X82.2325Y11.43
X119.6975Y39.0525
X84.7725Y23.495
X124.7775Y55.5625
X127.0Y20.32
X121.6025Y26.9875
X51.7525Y20.32
X13.335Y15.24
X108.585Y17.4625
X125.095Y28.2575
X70.485Y22.225
X89.535Y20.0025
X116.5225Y22.86
X33.02Y15.24
X123.19Y15.24
X14.9225Y68.58
X127.9525Y50.4825
X123.825Y54.2925
X122.8725Y59.055
X124.23Y62.32
X97.79Y71.12
X39.0525Y33.3375
X118.824Y59.41
X121.92Y53.0225
X121.92Y47.9425
X91.44Y16.51
X21.9075Y68.58
T2
X117.824Y63.987
X119.824Y63.987
X119.824Y63.987
X117.824Y63.987
T3
X119.769Y22.543
X122.309Y22.543
X129.929Y22.543
X127.389Y22.543
X124.849Y22.543
X117.229Y47.943
X132.469Y35.243
X132.469Y27.623
X132.469Y53.023
X132.469Y47.943
X117.229Y27.623
X132.469Y40.323
X132.469Y42.863
X117.229Y45.403
X117.229Y37.783
X117.229Y50.483
X132.469Y30.163
X117.229Y32.703
X117.229Y40.323
X132.469Y50.483
X117.229Y53.023
X117.229Y55.563
X132.469Y32.703
X132.469Y55.563
X117.229Y30.163
X117.229Y35.243
X117.229Y42.863
X132.469Y37.783
X132.469Y45.403
X132.469Y47.943
X117.229Y35.243
X117.229Y27.623
X117.229Y53.023
X117.229Y47.943
X132.469Y27.623
X117.229Y40.323
X117.229Y42.863
X132.469Y45.403
X132.469Y37.783
X132.469Y50.483
X117.229Y30.163
X132.469Y32.703
X132.469Y40.323
X117.229Y50.483
X132.469Y53.023
X132.469Y55.563
X117.229Y32.703
X117.229Y55.563
X132.469Y30.163
X132.469Y35.243
X132.469Y42.863
X117.229Y37.783
X117.229Y45.403
X129.929Y22.543
X127.389Y22.543
X119.769Y22.543
X122.309Y22.543
X124.849Y22.543
T0
M30
