G04 --- HEADER BEGIN --- *
G04 #@! TF.GenerationSoftware,LibrePCB,LibrePCB,2.1.1*
G04 #@! TF.CreationDate,2026-07-22T21:08:44*
G04 #@! TF.ProjectId,kbdkid4,82b26ad5-ee44-4a8a-8f43-cf6dd6902403,v1*
G04 #@! TF.Part,Single*
G04 #@! TF.SameCoordinates*
G04 #@! TF.FileFunction,Soldermask,Bot*
G04 #@! TF.FilePolarity,Negative*
%FSLAX66Y66*%
%MOMM*%
G01*
G75*
G04 --- HEADER END --- *
G04 --- APERTURE LIST BEGIN --- *
%AMROUNDEDRECT10*20,1,2.8,-1.8,0.0,1.8,0.0,0.0*20,1,2.6,-1.9,0.0,1.9,0.0,0.0*1,1,0.2,-1.8,1.3*1,1,0.2,1.8,1.3*1,1,0.2,1.8,-1.3*1,1,0.2,-1.8,-1.3*%
%ADD10ROUNDEDRECT10*%
%ADD11C,2.1*%
%ADD12C,3.2*%
%ADD13C,1.4*%
%ADD14C,3.6*%
%AMROUNDEDRECT15*20,1,1.0,-0.85,0.0,0.85,0.0,0.0*20,1,0.8,-0.95,0.0,0.95,0.0,0.0*1,1,0.2,-0.85,0.4*1,1,0.2,0.85,0.4*1,1,0.2,0.85,-0.4*1,1,0.2,-0.85,-0.4*%
%ADD15ROUNDEDRECT15*%
%AMROUNDEDRECT16*20,1,1.15,-0.75,0.0,0.75,0.0,0.0*20,1,0.95,-0.85,0.0,0.85,0.0,0.0*1,1,0.2,-0.75,0.475*1,1,0.2,0.75,0.475*1,1,0.2,0.75,-0.475*1,1,0.2,-0.75,-0.475*%
%ADD16ROUNDEDRECT16*%
%ADD17O,1.787X2.39*%
%AMROUNDEDRECT18*20,1,1.787,-1.095,0.0,1.095,0.0,90.0*20,1,1.587,-1.195,0.0,1.195,0.0,90.0*1,1,0.2,-0.7935,-1.095*1,1,0.2,-0.7935,1.095*1,1,0.2,0.7935,1.095*1,1,0.2,0.7935,-1.095*%
%ADD18ROUNDEDRECT18*%
%ADD19O,2.39X1.787*%
%ADD20R,0.8X1.0*%
%ADD21C,0.01*%
%ADD22C,1.1*%
%ADD23O,1.4X1.5*%
%AMROUNDEDRECT24*20,1,1.4,-0.65,0.0,0.65,0.0,90.0*20,1,1.2,-0.75,0.0,0.75,0.0,90.0*1,1,0.2,-0.6,-0.65*1,1,0.2,-0.6,0.65*1,1,0.2,0.6,0.65*1,1,0.2,0.6,-0.65*%
%ADD24ROUNDEDRECT24*%
%ADD25R,1.0X0.8*%
%AMROUNDEDRECT26*20,1,1.8,-1.1,0.0,1.1,0.0,90.0*20,1,1.6,-1.2,0.0,1.2,0.0,90.0*1,1,0.2,-0.8,-1.1*1,1,0.2,-0.8,1.1*1,1,0.2,0.8,1.1*1,1,0.2,0.8,-1.1*%
%ADD26ROUNDEDRECT26*%
%AMROUNDEDRECT27*20,1,0.9,-0.75,0.0,0.75,0.0,19.0*20,1,0.7,-0.85,0.0,0.85,0.0,19.0*1,1,0.2,-0.823088,0.086755*1,1,0.2,0.59519,0.575108*1,1,0.2,0.823088,-0.086755*1,1,0.2,-0.59519,-0.575108*%
%ADD27ROUNDEDRECT27*%
%AMROUNDEDRECT28*20,1,1.0,-0.5,0.0,0.5,0.0,109.0*20,1,0.8,-0.6,0.0,0.6,0.0,109.0*1,1,0.2,-0.215423,-0.602987*1,1,0.2,-0.540992,0.342532*1,1,0.2,0.215423,0.602987*1,1,0.2,0.540992,-0.342532*%
%ADD28ROUNDEDRECT28*%
%ADD29C,2.6*%
G04 --- APERTURE LIST END --- *
G04 --- BOARD BEGIN --- *
D10*
G04 #@! TO.C,S122*
X38074000Y29270000D03*
X51224000Y27070000D03*
D11*
G04 #@! TD*
X52649000Y33020000D03*
X41649000Y33020000D03*
D12*
X47149000Y27070000D03*
X42149000Y29270000D03*
D13*
X52369000Y37220000D03*
D14*
X47149000Y33020000D03*
D11*
X22599000Y47307000D03*
X33599000Y47307000D03*
D12*
X28099000Y41357000D03*
X33099000Y43557000D03*
D13*
X22879000Y51507000D03*
D14*
X28099000Y47307000D03*
D10*
G04 #@! TO.C,S150*
X95224000Y64989000D03*
X108374000Y62789000D03*
D11*
G04 #@! TD*
X109799000Y68739000D03*
X98799000Y68739000D03*
D12*
X104299000Y62789000D03*
X99299000Y64989000D03*
D13*
X109519000Y72939000D03*
D14*
X104299000Y68739000D03*
D10*
G04 #@! TO.C,S142*
X76174000Y29270000D03*
X89324000Y27070000D03*
D11*
G04 #@! TD*
X90749000Y33020000D03*
X79749000Y33020000D03*
D12*
X85249000Y27070000D03*
X80249000Y29270000D03*
D13*
X90469000Y37220000D03*
D14*
X85249000Y33020000D03*
D15*
G04 #@! TO.C,S4*
X124222000Y64009000D03*
X124222000Y60609000D03*
D16*
G04 #@! TO.C,D252*
X29974000Y32537000D03*
X26224000Y32537000D03*
D11*
G04 #@! TD*
X41649000Y71120000D03*
X52649000Y71120000D03*
D12*
X47149000Y65170000D03*
X52149000Y67370000D03*
D13*
X41929000Y75320000D03*
D14*
X47149000Y71120000D03*
D17*
G04 #@! TO.C,DS2*
X124849000Y22543000D03*
X122309000Y22543000D03*
X119769000Y22543000D03*
X127389000Y22543000D03*
D18*
X129929000Y22543000D03*
D19*
G04 #@! TO.C,U1*
X117229000Y45403000D03*
X117229000Y37783000D03*
X132469000Y42863000D03*
X132469000Y35243000D03*
X132469000Y30163000D03*
X117229000Y55563000D03*
X117229000Y32703000D03*
X132469000Y55563000D03*
X132469000Y53023000D03*
X117229000Y50483000D03*
X132469000Y40323000D03*
X132469000Y32703000D03*
X117229000Y30163000D03*
X132469000Y50483000D03*
X132469000Y37783000D03*
X132469000Y45403000D03*
X117229000Y42863000D03*
X117229000Y40323000D03*
X132469000Y27623000D03*
X117229000Y47943000D03*
X117229000Y53023000D03*
X117229000Y27623000D03*
X117229000Y35243000D03*
X132469000Y47943000D03*
D11*
G04 #@! TD*
X41649000Y52070000D03*
X52649000Y52070000D03*
D12*
X47149000Y46120000D03*
X52149000Y48320000D03*
D13*
X41929000Y56270000D03*
D14*
X47149000Y52070000D03*
D16*
G04 #@! TO.C,D253*
X29974000Y13487000D03*
X26224000Y13487000D03*
D20*
G04 #@! TO.C,JP40*
X130429000Y50483000D03*
X129429000Y50483000D03*
D21*
G36*
X130829000Y50983000D02*
X129029000Y50983000D01*
X129029000Y49983000D01*
X130829000Y49983000D01*
X130829000Y50983000D01*
G37*
D16*
G04 #@! TO.C,D213*
X106174000Y15869000D03*
X102424000Y15869000D03*
G04 #@! TO.C,D211*
X106174000Y53969000D03*
X102424000Y53969000D03*
D10*
G04 #@! TO.C,S121*
X38074000Y48320000D03*
X51224000Y46120000D03*
D11*
G04 #@! TD*
X52649000Y52070000D03*
X41649000Y52070000D03*
D12*
X47149000Y46120000D03*
X42149000Y48320000D03*
D13*
X52369000Y56270000D03*
D14*
X47149000Y52070000D03*
D10*
G04 #@! TO.C,S110*
X19024000Y62607000D03*
X32174000Y60407000D03*
D11*
G04 #@! TD*
X33599000Y66357000D03*
X22599000Y66357000D03*
D12*
X28099000Y60407000D03*
X23099000Y62607000D03*
D13*
X33319000Y70557000D03*
D14*
X28099000Y66357000D03*
D20*
G04 #@! TO.C,JP36*
X119269000Y42863000D03*
X120269000Y42863000D03*
D21*
G36*
X118869000Y42363000D02*
X120669000Y42363000D01*
X120669000Y43363000D01*
X118869000Y43363000D01*
X118869000Y42363000D01*
G37*
D20*
G04 #@! TO.C,JP25*
X119269000Y30163000D03*
X120269000Y30163000D03*
D21*
G36*
X118869000Y29663000D02*
X120669000Y29663000D01*
X120669000Y30663000D01*
X118869000Y30663000D01*
X118869000Y29663000D01*
G37*
D11*
G04 #@! TD*
X79749000Y33020000D03*
X90749000Y33020000D03*
D12*
X85249000Y27070000D03*
X90249000Y29270000D03*
D13*
X80029000Y37220000D03*
D14*
X85249000Y33020000D03*
D10*
G04 #@! TO.C,S151*
X95224000Y45939000D03*
X108374000Y43739000D03*
D11*
G04 #@! TD*
X109799000Y49689000D03*
X98799000Y49689000D03*
D12*
X104299000Y43739000D03*
X99299000Y45939000D03*
D13*
X109519000Y53889000D03*
D14*
X104299000Y49689000D03*
D20*
G04 #@! TO.C,JP31*
X119269000Y27623000D03*
X120269000Y27623000D03*
D21*
G36*
X118869000Y27123000D02*
X120669000Y27123000D01*
X120669000Y28123000D01*
X118869000Y28123000D01*
X118869000Y27123000D01*
G37*
D22*
G04 #@! TD*
X129314352Y65732722D03*
X128337648Y68569278D03*
D16*
G04 #@! TO.C,D263*
X10924000Y13487000D03*
X7174000Y13487000D03*
D20*
G04 #@! TO.C,JP44*
X130429000Y55563000D03*
X129429000Y55563000D03*
D21*
G36*
X130829000Y56063000D02*
X129029000Y56063000D01*
X129029000Y55063000D01*
X130829000Y55063000D01*
X130829000Y56063000D01*
G37*
D23*
G04 #@! TO.C,J1*
X117824000Y63987000D03*
D24*
X119824000Y63987000D03*
D20*
G04 #@! TO.C,JP29*
X130429000Y40323000D03*
X129429000Y40323000D03*
D21*
G36*
X130829000Y40823000D02*
X129029000Y40823000D01*
X129029000Y39823000D01*
X130829000Y39823000D01*
X130829000Y40823000D01*
G37*
D11*
G04 #@! TD*
X98799000Y49689000D03*
X109799000Y49689000D03*
D12*
X104299000Y43739000D03*
X109299000Y45939000D03*
D13*
X99079000Y53889000D03*
D14*
X104299000Y49689000D03*
D11*
X3549000Y9207000D03*
X14549000Y9207000D03*
D12*
X9049000Y3257000D03*
X14049000Y5457000D03*
D13*
X3829000Y13407000D03*
D14*
X9049000Y9207000D03*
D25*
G04 #@! TO.C,JP50*
X120094000Y61857000D03*
X120094000Y60857000D03*
D21*
G36*
X119594000Y62257000D02*
X119594000Y60457000D01*
X120594000Y60457000D01*
X120594000Y62257000D01*
X119594000Y62257000D01*
G37*
D10*
G04 #@! TO.C,S141*
X76174000Y48320000D03*
X89324000Y46120000D03*
D11*
G04 #@! TD*
X90749000Y52070000D03*
X79749000Y52070000D03*
D12*
X85249000Y46120000D03*
X80249000Y48320000D03*
D13*
X90469000Y56270000D03*
D14*
X85249000Y52070000D03*
D16*
G04 #@! TO.C,D223*
X87124000Y18250000D03*
X83374000Y18250000D03*
D25*
G04 #@! TO.C,JP41*
X119768700Y24582500D03*
X119768700Y25582500D03*
D21*
G36*
X120268700Y24182500D02*
X120268700Y25982500D01*
X119268700Y25982500D01*
X119268700Y24182500D01*
X120268700Y24182500D01*
G37*
D20*
G04 #@! TO.C,JP46*
X119269000Y45403000D03*
X120269000Y45403000D03*
D21*
G36*
X118869000Y44903000D02*
X120669000Y44903000D01*
X120669000Y45903000D01*
X118869000Y45903000D01*
X118869000Y44903000D01*
G37*
D10*
G04 #@! TO.C,S153*
X95224000Y7839000D03*
X108374000Y5639000D03*
D11*
G04 #@! TD*
X109799000Y11589000D03*
X98799000Y11589000D03*
D12*
X104299000Y5639000D03*
X99299000Y7839000D03*
D13*
X109519000Y15789000D03*
D14*
X104299000Y11589000D03*
D16*
G04 #@! TO.C,D220*
X87124000Y75400000D03*
X83374000Y75400000D03*
D11*
G04 #@! TD*
X22599000Y9207000D03*
X33599000Y9207000D03*
D12*
X28099000Y3257000D03*
X33099000Y5457000D03*
D13*
X22879000Y13407000D03*
D14*
X28099000Y9207000D03*
D10*
G04 #@! TO.C,S140*
X76174000Y67370000D03*
X89324000Y65170000D03*
D11*
G04 #@! TD*
X90749000Y71120000D03*
X79749000Y71120000D03*
D12*
X85249000Y65170000D03*
X80249000Y67370000D03*
D13*
X90469000Y75320000D03*
D14*
X85249000Y71120000D03*
D10*
G04 #@! TO.C,S152*
X95224000Y26889000D03*
X108374000Y24689000D03*
D11*
G04 #@! TD*
X109799000Y30639000D03*
X98799000Y30639000D03*
D12*
X104299000Y24689000D03*
X99299000Y26889000D03*
D13*
X109519000Y34839000D03*
D14*
X104299000Y30639000D03*
D16*
G04 #@! TO.C,D251*
X29974000Y51587000D03*
X26224000Y51587000D03*
G04 #@! TO.C,D230*
X68074000Y77781000D03*
X64324000Y77781000D03*
D20*
G04 #@! TO.C,JP26*
X130429000Y45403000D03*
X129429000Y45403000D03*
D21*
G36*
X130829000Y45903000D02*
X129029000Y45903000D01*
X129029000Y44903000D01*
X130829000Y44903000D01*
X130829000Y45903000D01*
G37*
D11*
G04 #@! TD*
X79749000Y52070000D03*
X90749000Y52070000D03*
D12*
X85249000Y46120000D03*
X90249000Y48320000D03*
D13*
X80029000Y56270000D03*
D14*
X85249000Y52070000D03*
D20*
G04 #@! TO.C,JP38*
X119269000Y47943000D03*
X120269000Y47943000D03*
D21*
G36*
X118869000Y47443000D02*
X120669000Y47443000D01*
X120669000Y48443000D01*
X118869000Y48443000D01*
X118869000Y47443000D01*
G37*
D10*
G04 #@! TO.C,S120*
X38074000Y67370000D03*
X51224000Y65170000D03*
D11*
G04 #@! TD*
X52649000Y71120000D03*
X41649000Y71120000D03*
D12*
X47149000Y65170000D03*
X42149000Y67370000D03*
D13*
X52369000Y75320000D03*
D14*
X47149000Y71120000D03*
D20*
G04 #@! TO.C,JP39*
X119269000Y32703000D03*
X120269000Y32703000D03*
D21*
G36*
X118869000Y32203000D02*
X120669000Y32203000D01*
X120669000Y33203000D01*
X118869000Y33203000D01*
X118869000Y32203000D01*
G37*
D11*
G04 #@! TD*
X60699000Y16351000D03*
X71699000Y16351000D03*
D12*
X66199000Y10401000D03*
X71199000Y12601000D03*
D13*
X60979000Y20551000D03*
D14*
X66199000Y16351000D03*
D16*
G04 #@! TO.C,D260*
X10924000Y70637000D03*
X7174000Y70637000D03*
D25*
G04 #@! TO.C,JP45*
X122308700Y24582500D03*
X122308700Y25582500D03*
D21*
G36*
X122808700Y24182500D02*
X122808700Y25982500D01*
X121808700Y25982500D01*
X121808700Y24182500D01*
X122808700Y24182500D01*
G37*
D26*
G04 #@! TO.C,S100*
X1249000Y62657000D03*
X11849000Y60457000D03*
D11*
G04 #@! TD*
X14549000Y66357000D03*
X3549000Y66357000D03*
D12*
X9049000Y60407000D03*
X4049000Y62607000D03*
D13*
X14269000Y70557000D03*
D14*
X9049000Y66357000D03*
D10*
G04 #@! TO.C,S123*
X38074000Y10220000D03*
X51224000Y8020000D03*
D11*
G04 #@! TD*
X52649000Y13970000D03*
X41649000Y13970000D03*
D12*
X47149000Y8020000D03*
X42149000Y10220000D03*
D13*
X52369000Y18170000D03*
D14*
X47149000Y13970000D03*
D20*
G04 #@! TO.C,JP24*
X130429000Y32703000D03*
X129429000Y32703000D03*
D21*
G36*
X130829000Y33203000D02*
X129029000Y33203000D01*
X129029000Y32203000D01*
X130829000Y32203000D01*
X130829000Y33203000D01*
G37*
D19*
G04 #@! TO.C,U2*
X132469000Y45403000D03*
X132469000Y37783000D03*
X117229000Y42863000D03*
X117229000Y35243000D03*
X117229000Y30163000D03*
X132469000Y55563000D03*
X132469000Y32703000D03*
X117229000Y55563000D03*
X117229000Y53023000D03*
X132469000Y50483000D03*
X117229000Y40323000D03*
X117229000Y32703000D03*
X132469000Y30163000D03*
X117229000Y50483000D03*
X117229000Y37783000D03*
X117229000Y45403000D03*
X132469000Y42863000D03*
X132469000Y40323000D03*
X117229000Y27623000D03*
X132469000Y47943000D03*
X132469000Y53023000D03*
X132469000Y27623000D03*
X132469000Y35243000D03*
X117229000Y47943000D03*
D11*
G04 #@! TD*
X41649000Y33020000D03*
X52649000Y33020000D03*
D12*
X47149000Y27070000D03*
X52149000Y29270000D03*
D13*
X41929000Y37220000D03*
D14*
X47149000Y33020000D03*
D10*
G04 #@! TO.C,S132*
X57124000Y31651000D03*
X70274000Y29451000D03*
D11*
G04 #@! TD*
X71699000Y35401000D03*
X60699000Y35401000D03*
D12*
X66199000Y29451000D03*
X61199000Y31651000D03*
D13*
X71419000Y39601000D03*
D14*
X66199000Y35401000D03*
D16*
G04 #@! TO.C,D210*
X106174000Y73019000D03*
X102424000Y73019000D03*
D10*
G04 #@! TO.C,S113*
X19024000Y5457000D03*
X32174000Y3257000D03*
D11*
G04 #@! TD*
X33599000Y9207000D03*
X22599000Y9207000D03*
D12*
X28099000Y3257000D03*
X23099000Y5457000D03*
D13*
X33319000Y13407000D03*
D14*
X28099000Y9207000D03*
D20*
G04 #@! TO.C,JP32*
X130429000Y37783000D03*
X129429000Y37783000D03*
D21*
G36*
X130829000Y38283000D02*
X129029000Y38283000D01*
X129029000Y37283000D01*
X130829000Y37283000D01*
X130829000Y38283000D01*
G37*
D10*
G04 #@! TO.C,S130*
X57124000Y69751000D03*
X70274000Y67551000D03*
D11*
G04 #@! TD*
X71699000Y73501000D03*
X60699000Y73501000D03*
D12*
X66199000Y67551000D03*
X61199000Y69751000D03*
D13*
X71419000Y77701000D03*
D14*
X66199000Y73501000D03*
D10*
G04 #@! TO.C,S133*
X57124000Y12601000D03*
X70274000Y10401000D03*
D11*
G04 #@! TD*
X71699000Y16351000D03*
X60699000Y16351000D03*
D12*
X66199000Y10401000D03*
X61199000Y12601000D03*
D13*
X71419000Y20551000D03*
D14*
X66199000Y16351000D03*
D16*
G04 #@! TO.C,D203*
X125224000Y13487000D03*
X121474000Y13487000D03*
D26*
G04 #@! TO.C,S101*
X1249000Y43607000D03*
X11849000Y41407000D03*
D11*
G04 #@! TD*
X14549000Y47307000D03*
X3549000Y47307000D03*
D12*
X9049000Y41357000D03*
X4049000Y43557000D03*
D13*
X14269000Y51507000D03*
D14*
X9049000Y47307000D03*
D20*
G04 #@! TO.C,JP34*
X130429000Y42863000D03*
X129429000Y42863000D03*
D21*
G36*
X130829000Y43363000D02*
X129029000Y43363000D01*
X129029000Y42363000D01*
X130829000Y42363000D01*
X130829000Y43363000D01*
G37*
D11*
G04 #@! TD*
X60699000Y54451000D03*
X71699000Y54451000D03*
D12*
X66199000Y48501000D03*
X71199000Y50701000D03*
D13*
X60979000Y58651000D03*
D14*
X66199000Y54451000D03*
D20*
G04 #@! TO.C,JP33*
X130429000Y30163000D03*
X129429000Y30163000D03*
D21*
G36*
X130829000Y30663000D02*
X129029000Y30663000D01*
X129029000Y29663000D01*
X130829000Y29663000D01*
X130829000Y30663000D01*
G37*
D10*
G04 #@! TO.C,S111*
X19024000Y43557000D03*
X32174000Y41357000D03*
D11*
G04 #@! TD*
X33599000Y47307000D03*
X22599000Y47307000D03*
D12*
X28099000Y41357000D03*
X23099000Y43557000D03*
D13*
X33319000Y51507000D03*
D14*
X28099000Y47307000D03*
D20*
G04 #@! TO.C,JP42*
X130429000Y47943000D03*
X129429000Y47943000D03*
D21*
G36*
X130829000Y48443000D02*
X129029000Y48443000D01*
X129029000Y47443000D01*
X130829000Y47443000D01*
X130829000Y48443000D01*
G37*
D11*
G04 #@! TD*
X22599000Y66357000D03*
X33599000Y66357000D03*
D12*
X28099000Y60407000D03*
X33099000Y62607000D03*
D13*
X22879000Y70557000D03*
D14*
X28099000Y66357000D03*
D26*
G04 #@! TO.C,S102*
X1249000Y24557000D03*
X11849000Y22357000D03*
D11*
G04 #@! TD*
X14549000Y28257000D03*
X3549000Y28257000D03*
D12*
X9049000Y22307000D03*
X4049000Y24507000D03*
D13*
X14269000Y32457000D03*
D14*
X9049000Y28257000D03*
D11*
X117849000Y9207000D03*
X128849000Y9207000D03*
D12*
X123349000Y3257000D03*
X128349000Y5457000D03*
D13*
X118129000Y13407000D03*
D14*
X123349000Y9207000D03*
D25*
G04 #@! TO.C,JP49*
X117554000Y61857000D03*
X117554000Y60857000D03*
D21*
G36*
X117054000Y62257000D02*
X117054000Y60457000D01*
X118054000Y60457000D01*
X118054000Y62257000D01*
X117054000Y62257000D01*
G37*
D11*
G04 #@! TD*
X79749000Y13970000D03*
X90749000Y13970000D03*
D12*
X85249000Y8020000D03*
X90249000Y10220000D03*
D13*
X80029000Y18170000D03*
D14*
X85249000Y13970000D03*
D17*
G04 #@! TO.C,DS1*
X124849000Y22543000D03*
X127389000Y22543000D03*
X129929000Y22543000D03*
X122309000Y22543000D03*
D18*
X119769000Y22543000D03*
D16*
G04 #@! TO.C,D250*
X29974000Y70637000D03*
X26224000Y70637000D03*
G04 #@! TO.C,D242*
X49024000Y37300000D03*
X45274000Y37300000D03*
G04 #@! TO.C,D233*
X68074000Y20631000D03*
X64324000Y20631000D03*
D11*
G04 #@! TD*
X98799000Y30639000D03*
X109799000Y30639000D03*
D12*
X104299000Y24689000D03*
X109299000Y26889000D03*
D13*
X99079000Y34839000D03*
D14*
X104299000Y30639000D03*
D11*
X60699000Y73501000D03*
X71699000Y73501000D03*
D12*
X66199000Y67551000D03*
X71199000Y69751000D03*
D13*
X60979000Y77701000D03*
D14*
X66199000Y73501000D03*
D16*
G04 #@! TO.C,D240*
X49024000Y75400000D03*
X45274000Y75400000D03*
D20*
G04 #@! TO.C,JP43*
X130429000Y35243000D03*
X129429000Y35243000D03*
D21*
G36*
X130829000Y35743000D02*
X129029000Y35743000D01*
X129029000Y34743000D01*
X130829000Y34743000D01*
X130829000Y35743000D01*
G37*
D11*
G04 #@! TD*
X22599000Y28257000D03*
X33599000Y28257000D03*
D12*
X28099000Y22307000D03*
X33099000Y24507000D03*
D13*
X22879000Y32457000D03*
D14*
X28099000Y28257000D03*
D25*
G04 #@! TO.C,JP28*
X127388700Y24582500D03*
X127388700Y25582500D03*
D21*
G36*
X127888700Y24182500D02*
X127888700Y25982500D01*
X126888700Y25982500D01*
X126888700Y24182500D01*
X127888700Y24182500D01*
G37*
D16*
G04 #@! TO.C,D222*
X87124000Y37300000D03*
X83374000Y37300000D03*
G04 #@! TO.C,D231*
X68074000Y58731000D03*
X64324000Y58731000D03*
D11*
G04 #@! TD*
X79749000Y71120000D03*
X90749000Y71120000D03*
D12*
X85249000Y65170000D03*
X90249000Y67370000D03*
D13*
X80029000Y75320000D03*
D14*
X85249000Y71120000D03*
D11*
X60699000Y35401000D03*
X71699000Y35401000D03*
D12*
X66199000Y29451000D03*
X71199000Y31651000D03*
D13*
X60979000Y39601000D03*
D14*
X66199000Y35401000D03*
D11*
X3549000Y47307000D03*
X14549000Y47307000D03*
D12*
X9049000Y41357000D03*
X14049000Y43557000D03*
D13*
X3829000Y51507000D03*
D14*
X9049000Y47307000D03*
D16*
G04 #@! TO.C,D221*
X87124000Y56350000D03*
X83374000Y56350000D03*
G04 #@! TO.C,D243*
X49024000Y18250000D03*
X45274000Y18250000D03*
D27*
G04 #@! TO.C,S2*
X126438814Y68708673D03*
X127415519Y65872117D03*
D28*
X131054394Y64057982D03*
X128677747Y70960268D03*
X126597606Y70244018D03*
D27*
X127903871Y64453839D03*
D28*
X128974253Y63341732D03*
D22*
G04 #@! TD*
X128337648Y68569278D03*
X129314352Y65732722D03*
D20*
G04 #@! TO.C,JP53*
X130429000Y53023000D03*
X129429000Y53023000D03*
D21*
G36*
X130829000Y53523000D02*
X129029000Y53523000D01*
X129029000Y52523000D01*
X130829000Y52523000D01*
X130829000Y53523000D01*
G37*
D16*
G04 #@! TO.C,D241*
X49024000Y56350000D03*
X45274000Y56350000D03*
D25*
G04 #@! TO.C,JP27*
X129928700Y24582500D03*
X129928700Y25582500D03*
D21*
G36*
X130428700Y24182500D02*
X130428700Y25982500D01*
X129428700Y25982500D01*
X129428700Y24182500D01*
X130428700Y24182500D01*
G37*
D16*
G04 #@! TO.C,D261*
X10924000Y51587000D03*
X7174000Y51587000D03*
D11*
G04 #@! TD*
X98799000Y68739000D03*
X109799000Y68739000D03*
D12*
X104299000Y62789000D03*
X109299000Y64989000D03*
D13*
X99079000Y72939000D03*
D14*
X104299000Y68739000D03*
D23*
G04 #@! TO.C,J2*
X119824000Y63987000D03*
D24*
X117824000Y63987000D03*
D16*
G04 #@! TO.C,D262*
X10924000Y32537000D03*
X7174000Y32537000D03*
D11*
G04 #@! TD*
X41649000Y13970000D03*
X52649000Y13970000D03*
D12*
X47149000Y8020000D03*
X52149000Y10220000D03*
D13*
X41929000Y18170000D03*
D14*
X47149000Y13970000D03*
D11*
X3549000Y28257000D03*
X14549000Y28257000D03*
D12*
X9049000Y22307000D03*
X14049000Y24507000D03*
D13*
X3829000Y32457000D03*
D14*
X9049000Y28257000D03*
D16*
G04 #@! TO.C,D232*
X68074000Y39681000D03*
X64324000Y39681000D03*
D10*
G04 #@! TO.C,S163*
X114274000Y5457000D03*
X127424000Y3257000D03*
D11*
G04 #@! TD*
X128849000Y9207000D03*
X117849000Y9207000D03*
D12*
X123349000Y3257000D03*
X118349000Y5457000D03*
D13*
X128569000Y13407000D03*
D14*
X123349000Y9207000D03*
D10*
G04 #@! TO.C,S112*
X19024000Y24507000D03*
X32174000Y22307000D03*
D11*
G04 #@! TD*
X33599000Y28257000D03*
X22599000Y28257000D03*
D12*
X28099000Y22307000D03*
X23099000Y24507000D03*
D13*
X33319000Y32457000D03*
D14*
X28099000Y28257000D03*
D16*
G04 #@! TO.C,D212*
X106174000Y34919000D03*
X102424000Y34919000D03*
D25*
G04 #@! TO.C,JP35*
X124848700Y24582500D03*
X124848700Y25582500D03*
D21*
G36*
X125348700Y24182500D02*
X125348700Y25982500D01*
X124348700Y25982500D01*
X124348700Y24182500D01*
X125348700Y24182500D01*
G37*
D10*
G04 #@! TO.C,S143*
X76174000Y10220000D03*
X89324000Y8020000D03*
D11*
G04 #@! TD*
X90749000Y13970000D03*
X79749000Y13970000D03*
D12*
X85249000Y8020000D03*
X80249000Y10220000D03*
D13*
X90469000Y18170000D03*
D14*
X85249000Y13970000D03*
D10*
G04 #@! TO.C,S131*
X57124000Y50701000D03*
X70274000Y48501000D03*
D11*
G04 #@! TD*
X71699000Y54451000D03*
X60699000Y54451000D03*
D12*
X66199000Y48501000D03*
X61199000Y50701000D03*
D13*
X71419000Y58651000D03*
D14*
X66199000Y54451000D03*
D11*
X3549000Y66357000D03*
X14549000Y66357000D03*
D12*
X9049000Y60407000D03*
X14049000Y62607000D03*
D13*
X3829000Y70557000D03*
D14*
X9049000Y66357000D03*
D20*
G04 #@! TO.C,JP54*
X119269000Y50483000D03*
X120269000Y50483000D03*
D21*
G36*
X118869000Y49983000D02*
X120669000Y49983000D01*
X120669000Y50983000D01*
X118869000Y50983000D01*
X118869000Y49983000D01*
G37*
D11*
G04 #@! TD*
X98799000Y11589000D03*
X109799000Y11589000D03*
D12*
X104299000Y5639000D03*
X109299000Y7839000D03*
D13*
X99079000Y15789000D03*
D14*
X104299000Y11589000D03*
D20*
G04 #@! TO.C,JP30*
X119269000Y55563000D03*
X120269000Y55563000D03*
D21*
G36*
X118869000Y55063000D02*
X120669000Y55063000D01*
X120669000Y56063000D01*
X118869000Y56063000D01*
X118869000Y55063000D01*
G37*
D26*
G04 #@! TO.C,S103*
X1249000Y5507000D03*
X11849000Y3307000D03*
D11*
G04 #@! TD*
X14549000Y9207000D03*
X3549000Y9207000D03*
D12*
X9049000Y3257000D03*
X4049000Y5457000D03*
D13*
X14269000Y13407000D03*
D14*
X9049000Y9207000D03*
D20*
G04 #@! TO.C,JP37*
X130429000Y27623000D03*
X129429000Y27623000D03*
D21*
G36*
X130829000Y28123000D02*
X129029000Y28123000D01*
X129029000Y27123000D01*
X130829000Y27123000D01*
X130829000Y28123000D01*
G37*
D29*
G04 #@! TD*
X18574000Y56832000D03*
X114141500Y19764500D03*
X18574000Y18732000D03*
X76041500Y43259500D03*
X94774000Y60404500D03*
G04 --- BOARD END --- *
G04 #@! TF.MD5,97f46b8eefdbd21121c3310e34f6b5e1*
M02*
