M48
; #@! TF.GenerationSoftware,LibrePCB,LibrePCB,2.1.1
; #@! TF.CreationDate,2026-09-09T15:29:56
; #@! TF.ProjectId,kbdkid4,063e517a-3ded-4943-b2aa-4f8854622f53,v1
; #@! TF.Part,Single
; #@! TF.SameCoordinates
; #@! TF.FileFunction,Plated,1,4,PTH
FMAT,2
METRIC,TZ
; #@! TA.AperFunction,ViaDrill
T1C0.3
; #@! TA.AperFunction,ComponentDrill
T2C0.8
; #@! TA.AperFunction,ComponentDrill
T3C1.0
; #@! TA.AperFunction,ComponentDrill
T4C2.4
%
G90
G05
M71
T1
X110.1725Y33.02
X77.7875Y15.875
X121.75Y50.5
X51.7525Y77.1525
X33.02Y73.3425
X89.8525Y77.47
X128.25Y50.5
X70.485Y79.6925
X13.6525Y72.39
X104.14Y71.3625
X15.5575Y11.7475
X124.75Y35.75
X128.25Y67.0
X121.25Y67.0
X91.44Y35.2425
X72.0725Y75.8825
X3.4925Y11.43
X39.0525Y33.3375
X34.29Y49.53
X78.4225Y73.025
X121.285Y68.58
X121.285Y71.12
X39.37Y72.39
X58.1025Y17.4625
X53.0225Y16.51
X33.9725Y11.7475
X21.9075Y68.58
X78.105Y34.925
X121.75Y64.5
X130.5Y11.625
X25.0825Y6.985
X128.0Y57.0
X27.94Y37.465
X27.94Y18.415
X121.75Y57.0
X27.94Y56.515
X85.09Y61.2775
X121.75Y59.5
X82.2325Y11.43
X128.25Y59.5
X85.09Y42.2275
X84.7725Y23.495
X104.4575Y39.37
X128.25Y62.0
X101.6Y8.89
X104.14Y20.6375
X121.75Y62.0
X104.14Y58.7375
X63.1825Y13.97
X66.04Y63.5
X66.04Y25.4
X66.04Y44.45
X128.0Y54.5
X121.75Y54.5
X15.24Y30.7975
X14.9225Y68.58
X120.9375Y20.75
X72.0725Y18.7325
X97.155Y13.97
X72.0725Y56.8325
X100.5Y73.25
X102.5Y70.5
X13.335Y15.24
X128.25Y46.75
X70.485Y22.225
X108.585Y17.4625
X123.19Y15.24
X33.02Y15.24
X89.535Y20.0025
X121.75Y46.75
X51.7525Y20.32
X128.27Y66.04
X91.1225Y54.2925
X22.225Y49.53
X39.6875Y53.34
X116.5225Y11.43
X126.657Y35.841
X78.4225Y53.975
X128.0Y74.5
X124.75Y74.5
X57.785Y55.245
X122.3125Y69.4375
X123.125Y66.0
X119.0625Y30.8125
X129.9375Y35.875
X124.75Y63.25
X127.9375Y63.25
X53.0225Y35.56
X8.89Y37.465
X8.89Y18.415
X121.75Y49.25
X128.25Y49.25
X6.042Y6.678
X8.89Y56.515
X131.0Y21.0
X15.24Y49.53
X110.1725Y13.97
X97.79Y71.12
X123.0Y36.0
X121.285Y66.04
X33.9725Y30.48
X39.0525Y14.9225
X130.0Y62.0625
X127.0Y13.9375
X128.25Y64.5
X123.19Y6.35
X128.25Y51.75
X121.75Y51.75
X46.99Y42.2275
X46.99Y61.2775
X44.1325Y11.43
X46.99Y23.1775
X34.29Y68.8975
X125.0Y30.0
X128.27Y71.12
X58.1025Y36.5125
X127.75Y60.8125
X124.8125Y43.125
X124.0Y60.8125
X123.5625Y44.5625
X128.4375Y35.875
X3.4925Y30.7975
X121.75Y48.0
X89.535Y57.785
X105.0925Y56.1975
X13.335Y53.975
X52.07Y58.1025
X70.1675Y60.6425
X33.3375Y54.2925
X128.25Y48.0
X91.1225Y73.3425
X3.4925Y49.53
X110.1725Y71.12
X128.25Y45.5
X89.535Y39.0525
X105.41Y36.1025
X121.75Y45.5
X70.485Y41.5925
X51.7525Y39.37
X33.655Y34.6075
X13.335Y34.6075
X91.44Y16.51
X22.225Y11.43
X21.9075Y30.48
X3.4925Y68.58
X72.0725Y37.7825
X128.27Y68.58
X53.34Y73.3425
X97.79Y33.02
X53.0225Y54.2925
X125.1875Y73.375
X119.4375Y35.5625
X127.6875Y73.375
X97.79Y52.07
X57.785Y74.6125
X110.1725Y52.07
T2
X123.905762Y22.831025
X122.905762Y21.098975
X122.905762Y21.098975
X123.905762Y22.831025
T3
X119.769Y40.725
X122.309Y40.725
X129.929Y40.725
X127.389Y40.725
X124.849Y40.725
X132.469Y65.837
X117.229Y53.137
X117.229Y45.517
X117.229Y70.917
X117.229Y65.837
X132.469Y45.517
X117.229Y58.217
X117.229Y60.757
X132.469Y63.297
X132.469Y55.677
X132.469Y68.377
X117.229Y48.057
X132.469Y50.597
X132.469Y58.217
X117.229Y68.377
X132.469Y70.917
X132.469Y73.457
X117.229Y50.597
X117.229Y73.457
X132.469Y48.057
X132.469Y53.137
X132.469Y60.757
X117.229Y55.677
X117.229Y63.297
X117.229Y65.837
X132.469Y53.137
X132.469Y45.517
X132.469Y70.917
X132.469Y65.837
X117.229Y45.517
X132.469Y58.217
X132.469Y60.757
X117.229Y63.297
X117.229Y55.677
X117.229Y68.377
X132.469Y48.057
X117.229Y50.597
X117.229Y58.217
X132.469Y68.377
X117.229Y70.917
X117.229Y73.457
X132.469Y50.597
X132.469Y73.457
X117.229Y48.057
X117.229Y53.137
X117.229Y60.757
X132.469Y55.677
X132.469Y63.297
X129.929Y40.725
X127.389Y40.725
X119.769Y40.725
X122.309Y40.725
X124.849Y40.725
T4
X114.141Y19.765
X94.774Y60.404
X18.574Y56.832
X18.574Y18.732
X76.041Y43.26
T0
M30
