G04 --- HEADER BEGIN --- *
G04 #@! TF.GenerationSoftware,LibrePCB,LibrePCB,2.1.1*
G04 #@! TF.CreationDate,2026-07-22T14:57:41*
G04 #@! TF.ProjectId,kbdkid4,82b26ad5-ee44-4a8a-8f43-cf6dd6902403,v1*
G04 #@! TF.Part,Single*
G04 #@! TF.SameCoordinates*
G04 #@! TF.FileFunction,Paste,Bot*
G04 #@! TF.FilePolarity,Positive*
%FSLAX66Y66*%
%MOMM*%
G01*
G75*
G04 --- HEADER END --- *
G04 --- APERTURE LIST BEGIN --- *
%ADD10R,3.08X2.08*%
%ADD11R,1.54X0.64*%
%ADD12R,1.31X0.76*%
%ADD13R,1.28X1.88*%
%AMROTATEDRECT14*20,1,0.56,-0.68,0.0,0.68,0.0,19.0*%
%ADD14ROTATEDRECT14*%
%AMROTATEDRECT15*20,1,0.64,-0.42,0.0,0.42,0.0,109.0*%
%ADD15ROTATEDRECT15*%
G04 --- APERTURE LIST END --- *
G04 --- BOARD BEGIN --- *
D10*
G04 #@! TO.C,S122*
X38074000Y29270000D03*
X51224000Y27070000D03*
G04 #@! TO.C,S150*
X95224000Y64989000D03*
X108374000Y62789000D03*
G04 #@! TO.C,S142*
X76174000Y29270000D03*
X89324000Y27070000D03*
D11*
G04 #@! TO.C,S4*
X124222000Y64009000D03*
X124222000Y60609000D03*
D12*
G04 #@! TO.C,D252*
X29974000Y32537000D03*
X26224000Y32537000D03*
G04 #@! TO.C,D253*
X29974000Y13487000D03*
X26224000Y13487000D03*
G04 #@! TO.C,D213*
X106174000Y15869000D03*
X102424000Y15869000D03*
G04 #@! TO.C,D211*
X106174000Y53969000D03*
X102424000Y53969000D03*
D10*
G04 #@! TO.C,S121*
X38074000Y48320000D03*
X51224000Y46120000D03*
G04 #@! TO.C,S110*
X19024000Y62607000D03*
X32174000Y60407000D03*
G04 #@! TO.C,S151*
X95224000Y45939000D03*
X108374000Y43739000D03*
D12*
G04 #@! TO.C,D263*
X10924000Y13487000D03*
X7174000Y13487000D03*
D10*
G04 #@! TO.C,S141*
X76174000Y48320000D03*
X89324000Y46120000D03*
D12*
G04 #@! TO.C,D223*
X87124000Y18250000D03*
X83374000Y18250000D03*
D10*
G04 #@! TO.C,S153*
X95224000Y7839000D03*
X108374000Y5639000D03*
D12*
G04 #@! TO.C,D220*
X87124000Y75400000D03*
X83374000Y75400000D03*
D10*
G04 #@! TO.C,S140*
X76174000Y67370000D03*
X89324000Y65170000D03*
G04 #@! TO.C,S152*
X95224000Y26889000D03*
X108374000Y24689000D03*
D12*
G04 #@! TO.C,D251*
X29974000Y51587000D03*
X26224000Y51587000D03*
G04 #@! TO.C,D230*
X68074000Y77781000D03*
X64324000Y77781000D03*
D10*
G04 #@! TO.C,S120*
X38074000Y67370000D03*
X51224000Y65170000D03*
D12*
G04 #@! TO.C,D260*
X10924000Y70637000D03*
X7174000Y70637000D03*
D13*
G04 #@! TO.C,S100*
X1249000Y62657000D03*
X11849000Y60457000D03*
D10*
G04 #@! TO.C,S123*
X38074000Y10220000D03*
X51224000Y8020000D03*
G04 #@! TO.C,S132*
X57124000Y31651000D03*
X70274000Y29451000D03*
D12*
G04 #@! TO.C,D210*
X106174000Y73019000D03*
X102424000Y73019000D03*
D10*
G04 #@! TO.C,S113*
X19024000Y5457000D03*
X32174000Y3257000D03*
G04 #@! TO.C,S130*
X57124000Y69751000D03*
X70274000Y67551000D03*
G04 #@! TO.C,S133*
X57124000Y12601000D03*
X70274000Y10401000D03*
D12*
G04 #@! TO.C,D203*
X125224000Y13487000D03*
X121474000Y13487000D03*
D13*
G04 #@! TO.C,S101*
X1249000Y43607000D03*
X11849000Y41407000D03*
D10*
G04 #@! TO.C,S111*
X19024000Y43557000D03*
X32174000Y41357000D03*
D13*
G04 #@! TO.C,S102*
X1249000Y24557000D03*
X11849000Y22357000D03*
D12*
G04 #@! TO.C,D250*
X29974000Y70637000D03*
X26224000Y70637000D03*
G04 #@! TO.C,D242*
X49024000Y37300000D03*
X45274000Y37300000D03*
G04 #@! TO.C,D233*
X68074000Y20631000D03*
X64324000Y20631000D03*
G04 #@! TO.C,D240*
X49024000Y75400000D03*
X45274000Y75400000D03*
G04 #@! TO.C,D222*
X87124000Y37300000D03*
X83374000Y37300000D03*
G04 #@! TO.C,D231*
X68074000Y58731000D03*
X64324000Y58731000D03*
G04 #@! TO.C,D221*
X87124000Y56350000D03*
X83374000Y56350000D03*
G04 #@! TO.C,D243*
X49024000Y18250000D03*
X45274000Y18250000D03*
D14*
G04 #@! TO.C,S2*
X126438814Y68708673D03*
X127415519Y65872117D03*
D15*
X131054394Y64057982D03*
X128677747Y70960268D03*
X126597606Y70244018D03*
D14*
X127903871Y64453839D03*
D15*
X128974253Y63341732D03*
D12*
G04 #@! TO.C,D241*
X49024000Y56350000D03*
X45274000Y56350000D03*
G04 #@! TO.C,D261*
X10924000Y51587000D03*
X7174000Y51587000D03*
G04 #@! TO.C,D262*
X10924000Y32537000D03*
X7174000Y32537000D03*
G04 #@! TO.C,D232*
X68074000Y39681000D03*
X64324000Y39681000D03*
D10*
G04 #@! TO.C,S163*
X114274000Y5457000D03*
X127424000Y3257000D03*
G04 #@! TO.C,S112*
X19024000Y24507000D03*
X32174000Y22307000D03*
D12*
G04 #@! TO.C,D212*
X106174000Y34919000D03*
X102424000Y34919000D03*
D10*
G04 #@! TO.C,S143*
X76174000Y10220000D03*
X89324000Y8020000D03*
G04 #@! TO.C,S131*
X57124000Y50701000D03*
X70274000Y48501000D03*
D13*
G04 #@! TO.C,S103*
X1249000Y5507000D03*
X11849000Y3307000D03*
G04 --- BOARD END --- *
G04 #@! TF.MD5,c5700ebce8a2b3ca70d96fa1183b978c*
M02*
