G04 --- HEADER BEGIN --- *
G04 #@! TF.GenerationSoftware,LibrePCB,LibrePCB,2.1.1*
G04 #@! TF.CreationDate,2026-09-06T22:58:03*
G04 #@! TF.ProjectId,kbdkid4,063e517a-3ded-4943-b2aa-4f8854622f53,v1*
G04 #@! TF.Part,Single*
G04 #@! TF.SameCoordinates*
G04 #@! TF.FileFunction,Copper,L2,Inr*
G04 #@! TF.FilePolarity,Positive*
%FSLAX66Y66*%
%MOMM*%
G01*
G75*
G04 --- HEADER END --- *
G04 --- APERTURE LIST BEGIN --- *
G04 #@! TA.AperFunction,ComponentPad*
%ADD10C,1.5*%
%ADD11C,1.3*%
G04 #@! TA.AperFunction,ViaPad*
%ADD12C,0.7*%
G04 #@! TA.AperFunction,ComponentPad*
%ADD13C,2.9*%
G04 #@! TA.AperFunction,Conductor*
%ADD14C,0.3*%
%ADD15C,0.5*%
G04 #@! TD*
G04 --- APERTURE LIST END --- *
G04 --- BOARD BEGIN --- *
D10*
G04 #@! TO.N,N3*
G04 #@! TO.C,DS2*
G04 #@! TO.P,DS2,VCC,VCC*
X124849000Y40725000D03*
G04 #@! TO.N,N82*
G04 #@! TO.P,DS2,GND,GND*
X122309000Y40725000D03*
G04 #@! TO.N,N89*
G04 #@! TO.P,DS2,CS,CS*
X119769000Y40725000D03*
G04 #@! TO.N,N78*
G04 #@! TO.P,DS2,SCK,SCK*
X127389000Y40725000D03*
G04 #@! TO.N,N75*
G04 #@! TO.P,DS2,MOSI,MOSI*
X129929000Y40725000D03*
G04 #@! TO.N,N95*
G04 #@! TO.C,U1*
G04 #@! TO.P,U1,031,D21/P031*
X132469000Y63297000D03*
G04 #@! TO.N,N21*
G04 #@! TO.P,U1,115,D18/P115*
X132469000Y55677000D03*
G04 #@! TO.N,N17*
G04 #@! TO.P,U1,020,D3/P020*
X117229000Y60757000D03*
G04 #@! TO.N,N/C*
G04 #@! TO.P,U1,100,D6/P100*
X117229000Y53137000D03*
G04 #@! TO.N,N6*
G04 #@! TO.P,U1,104,D8/P104*
X117229000Y48057000D03*
G04 #@! TO.N,N2*
G04 #@! TO.P,U1,VBAT,VBAT*
X132469000Y73457000D03*
G04 #@! TO.N,N92*
G04 #@! TO.P,U1,111,D14/P111*
X132469000Y50597000D03*
G04 #@! TO.N,N99*
G04 #@! TO.P,U1,006,D1/P006/TXD*
X117229000Y73457000D03*
G04 #@! TO.N,N/C*
G04 #@! TO.P,U1,008,D0/P008/RXD*
X117229000Y70917000D03*
G04 #@! TO.N,N7*
G04 #@! TO.P,U1,RESET,RESET*
X132469000Y68377000D03*
G04 #@! TO.N,N/C*
G04 #@! TO.P,U1,022,D4/P022*
X117229000Y58217000D03*
G04 #@! TO.N,N79*
G04 #@! TO.P,U1,011,D7/P011*
X117229000Y50597000D03*
G04 #@! TO.N,N97*
G04 #@! TO.P,U1,010,D16/P010*
X132469000Y48057000D03*
G04 #@! TO.N,N101*
G04 #@! TO.P,U1,GND_3,GND*
X117229000Y68377000D03*
G04 #@! TO.N,N/C*
G04 #@! TO.P,U1,024,D5/P024*
X117229000Y55677000D03*
G04 #@! TO.N,N83*
G04 #@! TO.P,U1,017,D2/P017*
X117229000Y63297000D03*
G04 #@! TO.N,N4*
G04 #@! TO.P,U1,029,D20/P029*
X132469000Y60757000D03*
G04 #@! TO.N,N10*
G04 #@! TO.P,U1,002,D19/P002*
X132469000Y58217000D03*
G04 #@! TO.N,N13*
G04 #@! TO.P,U1,106,D9/P106*
X117229000Y45517000D03*
G04 #@! TO.N,N15*
G04 #@! TO.P,U1,EXT_VCC,EXT_VCC*
X132469000Y65837000D03*
G04 #@! TO.N,N101*
G04 #@! TO.P,U1,GND_1,GND*
X132469000Y70917000D03*
G04 #@! TO.N,N77*
G04 #@! TO.P,U1,009,D10/P009*
X132469000Y45517000D03*
G04 #@! TO.N,N19*
G04 #@! TO.P,U1,113,D15/P113*
X132469000Y53137000D03*
G04 #@! TO.N,N101*
G04 #@! TO.P,U1,GND_2,GND*
X117229000Y65837000D03*
D11*
G04 #@! TO.N,N104*
G04 #@! TO.C,J1*
G04 #@! TO.P,J1,2,2*
X123905762Y22831025D03*
G04 #@! TO.N,N105*
G04 #@! TO.P,J1,1,1*
X122905762Y21098975D03*
D10*
G04 #@! TO.N,N16*
G04 #@! TO.C,U2*
G04 #@! TO.P,U2,031,D21/P031*
X117229000Y63297000D03*
G04 #@! TO.N,N9*
G04 #@! TO.P,U2,115,D18/P115*
X117229000Y55677000D03*
G04 #@! TO.N,N100*
G04 #@! TO.P,U2,020,D3/P020*
X132469000Y60757000D03*
G04 #@! TO.N,N/C*
G04 #@! TO.P,U2,100,D6/P100*
X132469000Y53137000D03*
G04 #@! TO.N,N96*
G04 #@! TO.P,U2,104,D8/P104*
X132469000Y48057000D03*
G04 #@! TO.N,N81*
G04 #@! TO.P,U2,VBAT,VBAT*
X117229000Y73457000D03*
G04 #@! TO.N,N5*
G04 #@! TO.P,U2,111,D14/P111*
X117229000Y50597000D03*
G04 #@! TO.N,N93*
G04 #@! TO.P,U2,006,D1/P006/TXD*
X132469000Y73457000D03*
G04 #@! TO.N,N/C*
G04 #@! TO.P,U2,008,D0/P008/RXD*
X132469000Y70917000D03*
G04 #@! TO.N,N1*
G04 #@! TO.P,U2,RESET,RESET*
X117229000Y68377000D03*
G04 #@! TO.N,N/C*
G04 #@! TO.P,U2,022,D4/P022*
X132469000Y58217000D03*
G04 #@! TO.N,N23*
G04 #@! TO.P,U2,011,D7/P011*
X132469000Y50597000D03*
G04 #@! TO.N,N87*
G04 #@! TO.P,U2,010,D16/P010*
X117229000Y48057000D03*
G04 #@! TO.N,N85*
G04 #@! TO.P,U2,GND_3,GND*
X132469000Y68377000D03*
G04 #@! TO.N,N/C*
G04 #@! TO.P,U2,024,D5/P024*
X132469000Y55677000D03*
G04 #@! TO.N,N103*
G04 #@! TO.P,U2,017,D2/P017*
X132469000Y63297000D03*
G04 #@! TO.N,N90*
G04 #@! TO.P,U2,029,D20/P029*
X117229000Y60757000D03*
G04 #@! TO.N,N80*
G04 #@! TO.P,U2,002,D19/P002*
X117229000Y58217000D03*
G04 #@! TO.N,N88*
G04 #@! TO.P,U2,106,D9/P106*
X132469000Y45517000D03*
G04 #@! TO.N,N94*
G04 #@! TO.P,U2,EXT_VCC,EXT_VCC*
X117229000Y65837000D03*
G04 #@! TO.N,N85*
G04 #@! TO.P,U2,GND_1,GND*
X117229000Y70917000D03*
G04 #@! TO.N,N8*
G04 #@! TO.P,U2,009,D10/P009*
X117229000Y45517000D03*
G04 #@! TO.N,N98*
G04 #@! TO.P,U2,113,D15/P113*
X117229000Y53137000D03*
G04 #@! TO.N,N85*
G04 #@! TO.P,U2,GND_2,GND*
X132469000Y65837000D03*
G04 #@! TO.N,N18*
G04 #@! TO.C,DS1*
G04 #@! TO.P,DS1,VCC,VCC*
X124849000Y40725000D03*
G04 #@! TO.N,N106*
G04 #@! TO.P,DS1,GND,GND*
X127389000Y40725000D03*
G04 #@! TO.N,N76*
G04 #@! TO.P,DS1,CS,CS*
X129929000Y40725000D03*
G04 #@! TO.N,N12*
G04 #@! TO.P,DS1,SCK,SCK*
X122309000Y40725000D03*
G04 #@! TO.N,N86*
G04 #@! TO.P,DS1,MOSI,MOSI*
X119769000Y40725000D03*
D11*
G04 #@! TO.N,N14*
G04 #@! TO.C,J2*
G04 #@! TO.P,J2,2,2*
X122905762Y21098975D03*
G04 #@! TO.N,N91*
G04 #@! TO.P,J2,1,1*
X123905762Y22831025D03*
D12*
G04 #@! TD.C*
G04 #@! TD.P*
G04 #@! TO.N,N64*
X110172500Y52070000D03*
G04 #@! TO.N,N33*
X57785000Y74612500D03*
G04 #@! TO.N,N36*
X97790000Y52070000D03*
G04 #@! TO.N,N68*
X53022500Y54292500D03*
G04 #@! TO.N,N47*
X97790000Y33020000D03*
G04 #@! TO.N,N53*
X53340000Y73342500D03*
D13*
G04 #@! TO.N,N/C*
X76041000Y43260000D03*
D12*
G04 #@! TO.N,GND*
X128270000Y68580000D03*
G04 #@! TO.N,N46*
X72072500Y37782500D03*
G04 #@! TO.N,N30*
X3492500Y68580000D03*
G04 #@! TO.N,N73*
X21907500Y30480000D03*
G04 #@! TO.N,N67*
X22225000Y11430000D03*
G04 #@! TO.N,N72*
X91440000Y16510000D03*
G04 #@! TO.N,R2*
X13335000Y34607500D03*
X33655000Y34607500D03*
X51752500Y39370000D03*
X70485000Y41592500D03*
X121750000Y45500000D03*
X105410000Y36102500D03*
X89535000Y39052500D03*
X128250000Y45500000D03*
D14*
X121750000Y45500000D02*
X128250000Y45500000D01*
D12*
G04 #@! TO.N,N63*
X110172500Y71120000D03*
G04 #@! TO.N,N66*
X3492500Y49530000D03*
G04 #@! TO.N,N48*
X91122500Y73342500D03*
G04 #@! TO.N,R1*
X128250000Y48000000D03*
X33337500Y54292500D03*
X70167500Y60642500D03*
X52070000Y58102500D03*
X13335000Y53975000D03*
X105092500Y56197500D03*
X89535000Y57785000D03*
X121750000Y48000000D03*
D14*
X128250000Y48000000D02*
X121750000Y48000000D01*
D12*
G04 #@! TO.N,N49*
X3492500Y30797500D03*
G04 #@! TO.N,SCK*
X128437500Y35875000D03*
X123562500Y44562500D03*
X124000000Y60812500D03*
X124812500Y43125000D03*
X127750000Y60812500D03*
D14*
X124000000Y60812500D02*
X127750000Y60812500D01*
X123562500Y44562500D02*
X124812500Y43312500D01*
X124812500Y43125000D02*
X124812500Y43312500D01*
D13*
G04 #@! TO.N,N/C*
X18574000Y18732000D03*
D12*
G04 #@! TO.N,N61*
X58102500Y36512500D03*
G04 #@! TO.N,GND*
X128270000Y71120000D03*
X125000000Y30000000D03*
G04 #@! TO.N,N56*
X34290000Y68897500D03*
G04 #@! TO.N,C2*
X46990000Y23177500D03*
X44132500Y11430000D03*
X46990000Y61277500D03*
X46990000Y42227500D03*
X121750000Y51750000D03*
X128250000Y51750000D03*
D14*
X108250000Y33000000D02*
X108250000Y36000000D01*
X46990000Y23177500D02*
X48562500Y24750000D01*
X96875000Y22125000D02*
X97000000Y22000000D01*
X108750000Y36500000D02*
X110250000Y36500000D01*
X114500000Y40750000D02*
X110250000Y36500000D01*
X121750000Y51750000D02*
X128250000Y51750000D01*
X75250000Y24750000D02*
X73250000Y26750000D01*
X48562500Y24750000D02*
X55500000Y24750000D01*
X107000000Y31750000D02*
X108250000Y33000000D01*
X55500000Y24750000D02*
X57500000Y26750000D01*
X107000000Y31750000D02*
X107000000Y23500000D01*
X105625000Y22125000D02*
X107000000Y23500000D01*
X121750000Y51750000D02*
X115750000Y51750000D01*
X108750000Y36500000D02*
X108250000Y36000000D01*
X73250000Y26750000D02*
X57500000Y26750000D01*
X75250000Y24750000D02*
X94250000Y24750000D01*
X94250000Y24750000D02*
X96875000Y22125000D01*
X96875000Y22125000D02*
X105625000Y22125000D01*
X114500000Y40750000D02*
X114500000Y50500000D01*
X114500000Y50500000D02*
X115750000Y51750000D01*
D13*
G04 #@! TO.N,N/C*
X18574000Y56832000D03*
D12*
G04 #@! TO.N,C6*
X123190000Y6350000D03*
X128250000Y64500000D03*
X127000000Y13937500D03*
X130000000Y62062500D03*
D14*
X134062500Y61500000D02*
X134062500Y19062500D01*
X134062500Y61500000D02*
X133500000Y62062500D01*
X130062500Y15062500D02*
X128125000Y15062500D01*
X127000000Y13937500D02*
X128125000Y15062500D01*
X130000000Y62062500D02*
X133500000Y62062500D01*
X130062500Y15062500D02*
X134062500Y19062500D01*
D12*
G04 #@! TO.N,N54*
X39052500Y14922500D03*
G04 #@! TO.N,N62*
X33972500Y30480000D03*
G04 #@! TO.N,GND*
X121285000Y66040000D03*
X123000000Y36000000D03*
G04 #@! TO.N,N51*
X97790000Y71120000D03*
G04 #@! TO.N,N27*
X110172500Y13970000D03*
G04 #@! TO.N,N37*
X15240000Y49530000D03*
G04 #@! TO.N,GND*
X131000000Y21000000D03*
G04 #@! TO.N,C0*
X8890000Y56515000D03*
X6042000Y6678000D03*
X128250000Y49250000D03*
X121750000Y49250000D03*
X8890000Y18415000D03*
X8890000Y37465000D03*
D14*
X8890000Y18415000D02*
X14085000Y18415000D01*
X74500000Y22500000D02*
X93500000Y22500000D01*
X74500000Y22500000D02*
X72500000Y24500000D01*
X115500000Y39500000D02*
X115500000Y48500000D01*
X110000000Y19500000D02*
X96500000Y19500000D01*
X128250000Y49250000D02*
X121750000Y49250000D01*
X20250000Y15750000D02*
X16750000Y15750000D01*
X96500000Y19500000D02*
X93500000Y22500000D01*
X56750000Y22000000D02*
X59250000Y24500000D01*
X115500000Y48500000D02*
X116250000Y49250000D01*
X33750000Y17250000D02*
X38500000Y22000000D01*
X59250000Y24500000D02*
X72500000Y24500000D01*
X110000000Y19500000D02*
X112250000Y21750000D01*
X112250000Y21750000D02*
X112250000Y36250000D01*
X33750000Y17250000D02*
X21750000Y17250000D01*
X121750000Y49250000D02*
X116250000Y49250000D01*
X14085000Y18415000D02*
X16750000Y15750000D01*
X56750000Y22000000D02*
X38500000Y22000000D01*
X20250000Y15750000D02*
X21750000Y17250000D01*
X112250000Y36250000D02*
X115500000Y39500000D01*
X128250000Y49250000D02*
X128250000Y49250000D01*
D12*
G04 #@! TO.N,N31*
X53022500Y35560000D03*
G04 #@! TO.N,MOSI*
X127937500Y63250000D03*
X124750000Y63250000D03*
X129937500Y35875000D03*
D14*
X127937500Y63250000D02*
X124750000Y63250000D01*
D12*
G04 #@! TO.N,N11*
X119062500Y30812500D03*
X123125000Y66000000D03*
X122312500Y69437500D03*
D14*
X122312500Y69437500D02*
X123125000Y68625000D01*
X123125000Y66000000D02*
X123125000Y68625000D01*
D12*
G04 #@! TO.N,N55*
X57785000Y55245000D03*
G04 #@! TO.N,N102*
X124750000Y74500000D03*
X128000000Y74500000D03*
D15*
X124750000Y74500000D02*
X128000000Y74500000D01*
D12*
G04 #@! TO.N,N65*
X78422500Y53975000D03*
G04 #@! TO.N,GND*
X126657000Y35841000D03*
G04 #@! TO.N,N57*
X116522500Y11430000D03*
G04 #@! TO.N,N25*
X39687500Y53340000D03*
G04 #@! TO.N,N44*
X22225000Y49530000D03*
G04 #@! TO.N,N41*
X91122500Y54292500D03*
G04 #@! TO.N,GND*
X128270000Y66040000D03*
G04 #@! TO.N,R3*
X51752500Y20320000D03*
X121750000Y46750000D03*
X89535000Y20002500D03*
X33020000Y15240000D03*
X123190000Y15240000D03*
X108585000Y17462500D03*
X70485000Y22225000D03*
X128250000Y46750000D03*
X13335000Y15240000D03*
D14*
X121750000Y46750000D02*
X128250000Y46750000D01*
D12*
G04 #@! TO.N,N74*
X102500000Y70500000D03*
X100500000Y73250000D03*
D15*
X102500000Y70500000D02*
X100500000Y72500000D01*
X100500000Y73250000D02*
X100500000Y72500000D01*
D12*
G04 #@! TO.N,N50*
X72072500Y56832500D03*
G04 #@! TO.N,N60*
X97155000Y13970000D03*
G04 #@! TO.N,N69*
X72072500Y18732500D03*
G04 #@! TO.N,N107*
X120937500Y20750000D03*
G04 #@! TO.N,N38*
X14922500Y68580000D03*
G04 #@! TO.N,N58*
X15240000Y30797500D03*
G04 #@! TO.N,C3*
X121750000Y54500000D03*
X128000000Y54500000D03*
X66040000Y44450000D03*
X66040000Y25400000D03*
X66040000Y63500000D03*
X63182500Y13970000D03*
D14*
X71750000Y43250000D02*
X67240000Y43250000D01*
X121750000Y54500000D02*
X128000000Y54500000D01*
X74500000Y40500000D02*
X71750000Y43250000D01*
X121750000Y54500000D02*
X114500000Y54500000D01*
X95000000Y38500000D02*
X110000000Y38500000D01*
X92500000Y41000000D02*
X77500000Y41000000D01*
X74500000Y40500000D02*
X77000000Y40500000D01*
X112250000Y40750000D02*
X110000000Y38500000D01*
X112250000Y52250000D02*
X114500000Y54500000D01*
X77500000Y41000000D02*
X77000000Y40500000D01*
X112250000Y40750000D02*
X112250000Y52250000D01*
X92500000Y41000000D02*
X95000000Y38500000D01*
X66040000Y44450000D02*
X67240000Y43250000D01*
D12*
G04 #@! TO.N,C5*
X104140000Y58737500D03*
X121750000Y62000000D03*
X104140000Y20637500D03*
X101600000Y8890000D03*
X128250000Y62000000D03*
X104457500Y39370000D03*
D14*
X121750000Y62000000D02*
X115000000Y62000000D01*
X121750000Y62000000D02*
X128250000Y62000000D01*
X104737500Y58737500D02*
X106500000Y60500000D01*
X113500000Y60500000D02*
X106500000Y60500000D01*
X115000000Y62000000D02*
X113500000Y60500000D01*
X104140000Y58737500D02*
X104737500Y58737500D01*
D12*
G04 #@! TO.N,C4*
X84772500Y23495000D03*
X85090000Y42227500D03*
X128250000Y59500000D03*
X82232500Y11430000D03*
X121750000Y59500000D03*
X85090000Y61277500D03*
D14*
X115000000Y59500000D02*
X113000000Y57500000D01*
X89472500Y61277500D02*
X93250000Y57500000D01*
X85090000Y61277500D02*
X89472500Y61277500D01*
X121750000Y59500000D02*
X115000000Y59500000D01*
X128250000Y59500000D02*
X121750000Y59500000D01*
X113000000Y57500000D02*
X93250000Y57500000D01*
X128250000Y59500000D02*
X128250000Y59500000D01*
D12*
G04 #@! TO.N,C1*
X27940000Y56515000D03*
X121750000Y57000000D03*
X27940000Y18415000D03*
X27940000Y37465000D03*
X128000000Y57000000D03*
X25082500Y6985000D03*
D14*
X74250000Y46250000D02*
X77000000Y46250000D01*
X113250000Y55500000D02*
X109250000Y55500000D01*
X108250000Y54500000D02*
X108250000Y51500000D01*
X30500000Y38750000D02*
X35250000Y38750000D01*
X108250000Y54500000D02*
X109250000Y55500000D01*
X35250000Y38750000D02*
X37250000Y40750000D01*
X94500000Y43750000D02*
X97250000Y41000000D01*
X74250000Y46250000D02*
X73500000Y45500000D01*
X30500000Y38750000D02*
X29215000Y37465000D01*
X79500000Y43750000D02*
X77000000Y46250000D01*
X121750000Y57000000D02*
X128000000Y57000000D01*
X121750000Y57000000D02*
X114750000Y57000000D01*
X114750000Y57000000D02*
X113250000Y55500000D01*
X54000000Y43250000D02*
X56250000Y45500000D01*
X108250000Y51500000D02*
X107250000Y50500000D01*
X38750000Y40750000D02*
X37250000Y40750000D01*
X56250000Y45500000D02*
X73500000Y45500000D01*
X107250000Y42500000D02*
X107250000Y50500000D01*
X41250000Y43250000D02*
X54000000Y43250000D01*
X27940000Y37465000D02*
X29215000Y37465000D01*
X94500000Y43750000D02*
X79500000Y43750000D01*
X41250000Y43250000D02*
X38750000Y40750000D01*
X128000000Y57000000D02*
X128000000Y57000000D01*
X97250000Y41000000D02*
X105750000Y41000000D01*
X105750000Y41000000D02*
X107250000Y42500000D01*
D12*
G04 #@! TO.N,N28*
X130500000Y11625000D03*
G04 #@! TO.N,C6*
X121750000Y64500000D03*
D14*
X121750000Y64500000D02*
X128250000Y64500000D01*
D12*
G04 #@! TO.N,N45*
X78105000Y34925000D03*
D13*
G04 #@! TO.N,N/C*
X94774000Y60404000D03*
D12*
G04 #@! TO.N,N35*
X21907500Y68580000D03*
G04 #@! TO.N,N43*
X33972500Y11747500D03*
G04 #@! TO.N,N59*
X53022500Y16510000D03*
G04 #@! TO.N,N71*
X58102500Y17462500D03*
G04 #@! TO.N,N52*
X39370000Y72390000D03*
G04 #@! TO.N,GND*
X121285000Y71120000D03*
X121285000Y68580000D03*
G04 #@! TO.N,N24*
X78422500Y73025000D03*
G04 #@! TO.N,N32*
X34290000Y49530000D03*
G04 #@! TO.N,N70*
X39052500Y33337500D03*
D13*
G04 #@! TO.N,N/C*
X114141000Y19765000D03*
D12*
G04 #@! TO.N,N34*
X3492500Y11430000D03*
G04 #@! TO.N,N39*
X72072500Y75882500D03*
G04 #@! TO.N,N40*
X91440000Y35242500D03*
G04 #@! TO.N,VCC*
X121250000Y67000000D03*
X128250000Y67000000D03*
X124750000Y35750000D03*
D15*
X121250000Y67000000D02*
X128250000Y67000000D01*
D12*
G04 #@! TO.N,N26*
X15557500Y11747500D03*
G04 #@! TO.N,R0*
X104140000Y71362500D03*
X13652500Y72390000D03*
X70485000Y79692500D03*
X128250000Y50500000D03*
X89852500Y77470000D03*
X33020000Y73342500D03*
X51752500Y77152500D03*
X121750000Y50500000D03*
D14*
X128250000Y50500000D02*
X121750000Y50500000D01*
D12*
G04 #@! TO.N,CS*
X125187500Y73375000D03*
X127687500Y73375000D03*
X119437500Y35562500D03*
D14*
X125187500Y73375000D02*
X127687500Y73375000D01*
D12*
G04 #@! TO.N,N29*
X77787500Y15875000D03*
G04 #@! TO.N,N42*
X110172500Y33020000D03*
G04 --- BOARD END --- *
G04 #@! TF.MD5,dee5aac3239de5d2890e27962c282c76*
M02*
