G04 --- HEADER BEGIN --- *
G04 #@! TF.GenerationSoftware,LibrePCB,LibrePCB,2.1.2-unstable*
G04 #@! TF.CreationDate,2026-09-09T17:25:34*
G04 #@! TF.ProjectId,kbdkid4,063e517a-3ded-4943-b2aa-4f8854622f53,v1*
G04 #@! TF.Part,Single*
G04 #@! TF.SameCoordinates*
G04 #@! TF.FileFunction,Soldermask,Bot*
G04 #@! TF.FilePolarity,Negative*
%FSLAX66Y66*%
%MOMM*%
G01*
G75*
G04 --- HEADER END --- *
G04 --- APERTURE LIST BEGIN --- *
%ADD10R,0.8X1.0*%
%ADD11C,0.01*%
%AMROUNDEDRECT12*20,1,2.8,-1.8,0.0,1.8,0.0,0.0*20,1,2.6,-1.9,0.0,1.9,0.0,0.0*1,1,0.2,-1.8,1.3*1,1,0.2,1.8,1.3*1,1,0.2,1.8,-1.3*1,1,0.2,-1.8,-1.3*%
%ADD12ROUNDEDRECT12*%
%ADD13C,2.1*%
%ADD14C,3.2*%
%ADD15C,1.4*%
%ADD16C,3.6*%
%AMROUNDEDRECT17*20,1,1.15,-0.75,0.0,0.75,0.0,0.0*20,1,0.95,-0.85,0.0,0.85,0.0,0.0*1,1,0.2,-0.75,0.475*1,1,0.2,0.75,0.475*1,1,0.2,0.75,-0.475*1,1,0.2,-0.75,-0.475*%
%ADD17ROUNDEDRECT17*%
%ADD18O,1.787X2.39*%
%AMROUNDEDRECT19*20,1,1.787,-1.095,0.0,1.095,0.0,90.0*20,1,1.587,-1.195,0.0,1.195,0.0,90.0*1,1,0.2,-0.7935,-1.095*1,1,0.2,-0.7935,1.095*1,1,0.2,0.7935,1.095*1,1,0.2,0.7935,-1.095*%
%ADD19ROUNDEDRECT19*%
%ADD20O,2.39X1.787*%
%ADD21R,1.0X0.8*%
%AMROUNDEDRECT22*20,1,0.9,-0.75,0.0,0.75,0.0,90.0*20,1,0.7,-0.85,0.0,0.85,0.0,90.0*1,1,0.2,-0.35,-0.75*1,1,0.2,-0.35,0.75*1,1,0.2,0.35,0.75*1,1,0.2,0.35,-0.75*%
%ADD22ROUNDEDRECT22*%
%AMROUNDEDRECT23*20,1,1.0,-0.5,0.0,0.5,0.0,0.0*20,1,0.8,-0.6,0.0,0.6,0.0,0.0*1,1,0.2,-0.5,0.4*1,1,0.2,0.5,0.4*1,1,0.2,0.5,-0.4*1,1,0.2,-0.5,-0.4*%
%ADD23ROUNDEDRECT23*%
%ADD24C,1.1*%
%AMROTATEDOBROUND25*1,1,1.4,0.043301,-0.025*1,1,1.4,-0.043301,0.025*20,1,1.4,0.043301,-0.025,-0.043301,0.025,0*%
%ADD25ROTATEDOBROUND25*%
%AMROUNDEDRECT26*20,1,1.4,-0.65,0.0,0.65,0.0,150.0*20,1,1.2,-0.75,0.0,0.75,0.0,150.0*1,1,0.2,0.262917,-0.844615*1,1,0.2,-0.862917,-0.194615*1,1,0.2,-0.262917,0.844615*1,1,0.2,0.862917,0.194615*%
%ADD26ROUNDEDRECT26*%
%AMROUNDEDRECT27*20,1,0.9,-0.445,0.0,0.445,0.0,90.0*20,1,0.49,-0.65,0.0,0.65,0.0,90.0*1,1,0.41,-0.245,-0.445*1,1,0.41,-0.245,0.445*1,1,0.41,0.245,0.445*1,1,0.41,0.245,-0.445*%
%ADD27ROUNDEDRECT27*%
%AMROUNDEDRECT28*20,1,1.8,-1.1,0.0,1.1,0.0,90.0*20,1,1.6,-1.2,0.0,1.2,0.0,90.0*1,1,0.2,-0.8,-1.1*1,1,0.2,-0.8,1.1*1,1,0.2,0.8,1.1*1,1,0.2,0.8,-1.1*%
%ADD28ROUNDEDRECT28*%
%ADD29C,3.9*%
G04 --- APERTURE LIST END --- *
G04 --- BOARD BEGIN --- *
D10*
G04 #@! TO.C,JP12*
X130429000Y58217000D03*
X129429000Y58217000D03*
D11*
G36*
X130829000Y58717000D02*
X129029000Y58717000D01*
X129029000Y57717000D01*
X130829000Y57717000D01*
X130829000Y58717000D01*
G37*
D10*
G04 #@! TO.C,JP9*
X130429000Y53137000D03*
X129429000Y53137000D03*
D11*
G36*
X130829000Y53637000D02*
X129029000Y53637000D01*
X129029000Y52637000D01*
X130829000Y52637000D01*
X130829000Y53637000D01*
G37*
D12*
G04 #@! TO.C,S122*
X38074000Y29270000D03*
X51224000Y27070000D03*
D13*
G04 #@! TD*
X52649000Y33020000D03*
X41649000Y33020000D03*
D14*
X47149000Y27070000D03*
X42149000Y29270000D03*
D15*
X52369000Y37220000D03*
D16*
X47149000Y33020000D03*
D13*
X22599000Y47307000D03*
X33599000Y47307000D03*
D14*
X28099000Y41357000D03*
X33099000Y43557000D03*
D15*
X22879000Y51507000D03*
D16*
X28099000Y47307000D03*
D12*
G04 #@! TO.C,S150*
X95224000Y64989000D03*
X108374000Y62789000D03*
D13*
G04 #@! TD*
X109799000Y68739000D03*
X98799000Y68739000D03*
D14*
X104299000Y62789000D03*
X99299000Y64989000D03*
D15*
X109519000Y72939000D03*
D16*
X104299000Y68739000D03*
D12*
G04 #@! TO.C,S142*
X76174000Y29270000D03*
X89324000Y27070000D03*
D13*
G04 #@! TD*
X90749000Y33020000D03*
X79749000Y33020000D03*
D14*
X85249000Y27070000D03*
X80249000Y29270000D03*
D15*
X90469000Y37220000D03*
D16*
X85249000Y33020000D03*
D17*
G04 #@! TO.C,D252*
X29974000Y32537000D03*
X26224000Y32537000D03*
D13*
G04 #@! TD*
X41649000Y71120000D03*
X52649000Y71120000D03*
D14*
X47149000Y65170000D03*
X52149000Y67370000D03*
D15*
X41929000Y75320000D03*
D16*
X47149000Y71120000D03*
D18*
G04 #@! TO.C,DS2*
X124849000Y40725000D03*
X122309000Y40725000D03*
X119769000Y40725000D03*
X127389000Y40725000D03*
D19*
X129929000Y40725000D03*
D20*
G04 #@! TO.C,U1*
X132469000Y63297000D03*
X132469000Y55677000D03*
X117229000Y60757000D03*
X117229000Y53137000D03*
X117229000Y48057000D03*
X132469000Y73457000D03*
X132469000Y50597000D03*
X117229000Y73457000D03*
X117229000Y70917000D03*
X132469000Y68377000D03*
X117229000Y58217000D03*
X117229000Y50597000D03*
X132469000Y48057000D03*
X117229000Y68377000D03*
X117229000Y55677000D03*
X117229000Y63297000D03*
X132469000Y60757000D03*
X132469000Y58217000D03*
X117229000Y45517000D03*
X132469000Y65837000D03*
X132469000Y70917000D03*
X132469000Y45517000D03*
X132469000Y53137000D03*
X117229000Y65837000D03*
D13*
G04 #@! TD*
X41649000Y52070000D03*
X52649000Y52070000D03*
D14*
X47149000Y46120000D03*
X52149000Y48320000D03*
D15*
X41929000Y56270000D03*
D16*
X47149000Y52070000D03*
D17*
G04 #@! TO.C,D253*
X29974000Y13487000D03*
X26224000Y13487000D03*
D10*
G04 #@! TO.C,JP7*
X130429000Y45517000D03*
X129429000Y45517000D03*
D11*
G36*
X130829000Y46017000D02*
X129029000Y46017000D01*
X129029000Y45017000D01*
X130829000Y45017000D01*
X130829000Y46017000D01*
G37*
D17*
G04 #@! TO.C,D213*
X106174000Y15869000D03*
X102424000Y15869000D03*
D10*
G04 #@! TO.C,JP47*
X127500000Y20000000D03*
X128500000Y20000000D03*
D11*
G36*
X127100000Y19500000D02*
X128900000Y19500000D01*
X128900000Y20500000D01*
X127100000Y20500000D01*
X127100000Y19500000D01*
G37*
D17*
G04 #@! TO.C,D211*
X106174000Y53969000D03*
X102424000Y53969000D03*
D12*
G04 #@! TO.C,S121*
X38074000Y48320000D03*
X51224000Y46120000D03*
D13*
G04 #@! TD*
X52649000Y52070000D03*
X41649000Y52070000D03*
D14*
X47149000Y46120000D03*
X42149000Y48320000D03*
D15*
X52369000Y56270000D03*
D16*
X47149000Y52070000D03*
D12*
G04 #@! TO.C,S110*
X19024000Y62607000D03*
X32174000Y60407000D03*
D13*
G04 #@! TD*
X33599000Y66357000D03*
X22599000Y66357000D03*
D14*
X28099000Y60407000D03*
X23099000Y62607000D03*
D15*
X33319000Y70557000D03*
D16*
X28099000Y66357000D03*
D10*
G04 #@! TO.C,JP6*
X119269000Y45517000D03*
X120269000Y45517000D03*
D11*
G36*
X118869000Y45017000D02*
X120669000Y45017000D01*
X120669000Y46017000D01*
X118869000Y46017000D01*
X118869000Y45017000D01*
G37*
D10*
G04 #@! TO.C,JP2*
X119269000Y63297000D03*
X120269000Y63297000D03*
D11*
G36*
X118869000Y62797000D02*
X120669000Y62797000D01*
X120669000Y63797000D01*
X118869000Y63797000D01*
X118869000Y62797000D01*
G37*
D13*
G04 #@! TD*
X79749000Y33020000D03*
X90749000Y33020000D03*
D14*
X85249000Y27070000D03*
X90249000Y29270000D03*
D15*
X80029000Y37220000D03*
D16*
X85249000Y33020000D03*
D12*
G04 #@! TO.C,S151*
X95224000Y45939000D03*
X108374000Y43739000D03*
D13*
G04 #@! TD*
X109799000Y49689000D03*
X98799000Y49689000D03*
D14*
X104299000Y43739000D03*
X99299000Y45939000D03*
D15*
X109519000Y53889000D03*
D16*
X104299000Y49689000D03*
D10*
G04 #@! TO.C,JP51*
X119269000Y68377000D03*
X120269000Y68377000D03*
D11*
G36*
X118869000Y67877000D02*
X120669000Y67877000D01*
X120669000Y68877000D01*
X118869000Y68877000D01*
X118869000Y67877000D01*
G37*
D21*
G04 #@! TO.C,JP22*
X122309000Y38260000D03*
X122309000Y37260000D03*
D11*
G36*
X121809000Y38660000D02*
X121809000Y36860000D01*
X122809000Y36860000D01*
X122809000Y38660000D01*
X121809000Y38660000D01*
G37*
D22*
G04 #@! TO.C,S1*
X102049000Y74628000D03*
X105049000Y74628000D03*
D23*
X107949000Y77478000D03*
X100649000Y77478000D03*
X100649000Y75278000D03*
D22*
X106549000Y74628000D03*
D23*
X107949000Y75278000D03*
D24*
G04 #@! TD*
X102799000Y76378000D03*
X105799000Y76378000D03*
D17*
G04 #@! TO.C,D263*
X10924000Y13487000D03*
X7174000Y13487000D03*
D25*
G04 #@! TO.C,J1*
X123905762Y22831025D03*
D26*
X122905762Y21098975D03*
D10*
G04 #@! TO.C,JP11*
X130429000Y55677000D03*
X129429000Y55677000D03*
D11*
G36*
X130829000Y56177000D02*
X129029000Y56177000D01*
X129029000Y55177000D01*
X130829000Y55177000D01*
X130829000Y56177000D01*
G37*
D13*
G04 #@! TD*
X98799000Y49689000D03*
X109799000Y49689000D03*
D14*
X104299000Y43739000D03*
X109299000Y45939000D03*
D15*
X99079000Y53889000D03*
D16*
X104299000Y49689000D03*
D10*
G04 #@! TO.C,JP48*
X127500000Y22000000D03*
X128500000Y22000000D03*
D11*
G36*
X127100000Y21500000D02*
X128900000Y21500000D01*
X128900000Y22500000D01*
X127100000Y22500000D01*
X127100000Y21500000D01*
G37*
D10*
G04 #@! TO.C,JP5*
X119269000Y48057000D03*
X120269000Y48057000D03*
D11*
G36*
X118869000Y47557000D02*
X120669000Y47557000D01*
X120669000Y48557000D01*
X118869000Y48557000D01*
X118869000Y47557000D01*
G37*
D13*
G04 #@! TD*
X3549000Y9207000D03*
X14549000Y9207000D03*
D14*
X9049000Y3257000D03*
X14049000Y5457000D03*
D15*
X3829000Y13407000D03*
D16*
X9049000Y9207000D03*
D12*
G04 #@! TO.C,S141*
X76174000Y48320000D03*
X89324000Y46120000D03*
D13*
G04 #@! TD*
X90749000Y52070000D03*
X79749000Y52070000D03*
D14*
X85249000Y46120000D03*
X80249000Y48320000D03*
D15*
X90469000Y56270000D03*
D16*
X85249000Y52070000D03*
D17*
G04 #@! TO.C,D223*
X87124000Y18250000D03*
X83374000Y18250000D03*
D12*
G04 #@! TO.C,S153*
X95224000Y7839000D03*
X108374000Y5639000D03*
D13*
G04 #@! TD*
X109799000Y11589000D03*
X98799000Y11589000D03*
D14*
X104299000Y5639000D03*
X99299000Y7839000D03*
D15*
X109519000Y15789000D03*
D16*
X104299000Y11589000D03*
D10*
G04 #@! TO.C,JP1*
X119269000Y73457000D03*
X120269000Y73457000D03*
D11*
G36*
X118869000Y72957000D02*
X120669000Y72957000D01*
X120669000Y73957000D01*
X118869000Y73957000D01*
X118869000Y72957000D01*
G37*
D17*
G04 #@! TO.C,D220*
X87124000Y75400000D03*
X83374000Y75400000D03*
D13*
G04 #@! TD*
X22599000Y9207000D03*
X33599000Y9207000D03*
D14*
X28099000Y3257000D03*
X33099000Y5457000D03*
D15*
X22879000Y13407000D03*
D16*
X28099000Y9207000D03*
D10*
G04 #@! TO.C,JP10*
X130429000Y48057000D03*
X129429000Y48057000D03*
D11*
G36*
X130829000Y48557000D02*
X129029000Y48557000D01*
X129029000Y47557000D01*
X130829000Y47557000D01*
X130829000Y48557000D01*
G37*
D10*
G04 #@! TO.C,JP16*
X130429000Y70917000D03*
X129429000Y70917000D03*
D11*
G36*
X130829000Y71417000D02*
X129029000Y71417000D01*
X129029000Y70417000D01*
X130829000Y70417000D01*
X130829000Y71417000D01*
G37*
D12*
G04 #@! TO.C,S140*
X76174000Y67370000D03*
X89324000Y65170000D03*
D13*
G04 #@! TD*
X90749000Y71120000D03*
X79749000Y71120000D03*
D14*
X85249000Y65170000D03*
X80249000Y67370000D03*
D15*
X90469000Y75320000D03*
D16*
X85249000Y71120000D03*
D12*
G04 #@! TO.C,S152*
X95224000Y26889000D03*
X108374000Y24689000D03*
D13*
G04 #@! TD*
X109799000Y30639000D03*
X98799000Y30639000D03*
D14*
X104299000Y24689000D03*
X99299000Y26889000D03*
D15*
X109519000Y34839000D03*
D16*
X104299000Y30639000D03*
D17*
G04 #@! TO.C,D251*
X29974000Y51587000D03*
X26224000Y51587000D03*
D27*
G04 #@! TO.C,S4*
X122775000Y28250000D03*
X127225000Y31750000D03*
X122775000Y31750000D03*
X127225000Y28250000D03*
D17*
G04 #@! TO.C,D230*
X68074000Y77781000D03*
X64324000Y77781000D03*
D10*
G04 #@! TO.C,JP3*
X119269000Y60757000D03*
X120269000Y60757000D03*
D11*
G36*
X118869000Y60257000D02*
X120669000Y60257000D01*
X120669000Y61257000D01*
X118869000Y61257000D01*
X118869000Y60257000D01*
G37*
D13*
G04 #@! TD*
X79749000Y52070000D03*
X90749000Y52070000D03*
D14*
X85249000Y46120000D03*
X90249000Y48320000D03*
D15*
X80029000Y56270000D03*
D16*
X85249000Y52070000D03*
D12*
G04 #@! TO.C,S120*
X38074000Y67370000D03*
X51224000Y65170000D03*
D13*
G04 #@! TD*
X52649000Y71120000D03*
X41649000Y71120000D03*
D14*
X47149000Y65170000D03*
X42149000Y67370000D03*
D15*
X52369000Y75320000D03*
D16*
X47149000Y71120000D03*
D13*
X60699000Y16351000D03*
X71699000Y16351000D03*
D14*
X66199000Y10401000D03*
X71199000Y12601000D03*
D15*
X60979000Y20551000D03*
D16*
X66199000Y16351000D03*
D17*
G04 #@! TO.C,D260*
X10924000Y70637000D03*
X7174000Y70637000D03*
D28*
G04 #@! TO.C,S100*
X1249000Y62657000D03*
X11849000Y60457000D03*
D13*
G04 #@! TD*
X14549000Y66357000D03*
X3549000Y66357000D03*
D14*
X9049000Y60407000D03*
X4049000Y62607000D03*
D15*
X14269000Y70557000D03*
D16*
X9049000Y66357000D03*
D12*
G04 #@! TO.C,S123*
X38074000Y10220000D03*
X51224000Y8020000D03*
D13*
G04 #@! TD*
X52649000Y13970000D03*
X41649000Y13970000D03*
D14*
X47149000Y8020000D03*
X42149000Y10220000D03*
D15*
X52369000Y18170000D03*
D16*
X47149000Y13970000D03*
D20*
G04 #@! TO.C,U2*
X117229000Y63297000D03*
X117229000Y55677000D03*
X132469000Y60757000D03*
X132469000Y53137000D03*
X132469000Y48057000D03*
X117229000Y73457000D03*
X117229000Y50597000D03*
X132469000Y73457000D03*
X132469000Y70917000D03*
X117229000Y68377000D03*
X132469000Y58217000D03*
X132469000Y50597000D03*
X117229000Y48057000D03*
X132469000Y68377000D03*
X132469000Y55677000D03*
X132469000Y63297000D03*
X117229000Y60757000D03*
X117229000Y58217000D03*
X132469000Y45517000D03*
X117229000Y65837000D03*
X117229000Y70917000D03*
X117229000Y45517000D03*
X117229000Y53137000D03*
X132469000Y65837000D03*
D13*
G04 #@! TD*
X41649000Y33020000D03*
X52649000Y33020000D03*
D14*
X47149000Y27070000D03*
X52149000Y29270000D03*
D15*
X41929000Y37220000D03*
D16*
X47149000Y33020000D03*
D12*
G04 #@! TO.C,S132*
X57124000Y31651000D03*
X70274000Y29451000D03*
D13*
G04 #@! TD*
X71699000Y35401000D03*
X60699000Y35401000D03*
D14*
X66199000Y29451000D03*
X61199000Y31651000D03*
D15*
X71419000Y39601000D03*
D16*
X66199000Y35401000D03*
D10*
G04 #@! TO.C,JP52*
X119269000Y65837000D03*
X120269000Y65837000D03*
D11*
G36*
X118869000Y65337000D02*
X120669000Y65337000D01*
X120669000Y66337000D01*
X118869000Y66337000D01*
X118869000Y65337000D01*
G37*
D17*
G04 #@! TO.C,D210*
X106174000Y73019000D03*
X102424000Y73019000D03*
D12*
G04 #@! TO.C,S113*
X19024000Y5457000D03*
X32174000Y3257000D03*
D13*
G04 #@! TD*
X33599000Y9207000D03*
X22599000Y9207000D03*
D14*
X28099000Y3257000D03*
X23099000Y5457000D03*
D15*
X33319000Y13407000D03*
D16*
X28099000Y9207000D03*
D12*
G04 #@! TO.C,S130*
X57124000Y69751000D03*
X70274000Y67551000D03*
D13*
G04 #@! TD*
X71699000Y73501000D03*
X60699000Y73501000D03*
D14*
X66199000Y67551000D03*
X61199000Y69751000D03*
D15*
X71419000Y77701000D03*
D16*
X66199000Y73501000D03*
D12*
G04 #@! TO.C,S133*
X57124000Y12601000D03*
X70274000Y10401000D03*
D13*
G04 #@! TD*
X71699000Y16351000D03*
X60699000Y16351000D03*
D14*
X66199000Y10401000D03*
X61199000Y12601000D03*
D15*
X71419000Y20551000D03*
D16*
X66199000Y16351000D03*
D17*
G04 #@! TO.C,D203*
X125224000Y13487000D03*
X121474000Y13487000D03*
D28*
G04 #@! TO.C,S101*
X1249000Y43607000D03*
X11849000Y41407000D03*
D13*
G04 #@! TD*
X14549000Y47307000D03*
X3549000Y47307000D03*
D14*
X9049000Y41357000D03*
X4049000Y43557000D03*
D15*
X14269000Y51507000D03*
D16*
X9049000Y47307000D03*
D13*
X60699000Y54451000D03*
X71699000Y54451000D03*
D14*
X66199000Y48501000D03*
X71199000Y50701000D03*
D15*
X60979000Y58651000D03*
D16*
X66199000Y54451000D03*
D12*
G04 #@! TO.C,S111*
X19024000Y43557000D03*
X32174000Y41357000D03*
D13*
G04 #@! TD*
X33599000Y47307000D03*
X22599000Y47307000D03*
D14*
X28099000Y41357000D03*
X23099000Y43557000D03*
D15*
X33319000Y51507000D03*
D16*
X28099000Y47307000D03*
D13*
X22599000Y66357000D03*
X33599000Y66357000D03*
D14*
X28099000Y60407000D03*
X33099000Y62607000D03*
D15*
X22879000Y70557000D03*
D16*
X28099000Y66357000D03*
D28*
G04 #@! TO.C,S102*
X1249000Y24557000D03*
X11849000Y22357000D03*
D13*
G04 #@! TD*
X14549000Y28257000D03*
X3549000Y28257000D03*
D14*
X9049000Y22307000D03*
X4049000Y24507000D03*
D15*
X14269000Y32457000D03*
D16*
X9049000Y28257000D03*
D13*
X117849000Y9207000D03*
X128849000Y9207000D03*
D14*
X123349000Y3257000D03*
X128349000Y5457000D03*
D15*
X118129000Y13407000D03*
D16*
X123349000Y9207000D03*
D21*
G04 #@! TO.C,JP19*
X124849000Y38260000D03*
X124849000Y37260000D03*
D11*
G36*
X124349000Y38660000D02*
X124349000Y36860000D01*
X125349000Y36860000D01*
X125349000Y38660000D01*
X124349000Y38660000D01*
G37*
D13*
G04 #@! TD*
X79749000Y13970000D03*
X90749000Y13970000D03*
D14*
X85249000Y8020000D03*
X90249000Y10220000D03*
D15*
X80029000Y18170000D03*
D16*
X85249000Y13970000D03*
D18*
G04 #@! TO.C,DS1*
X124849000Y40725000D03*
X127389000Y40725000D03*
X129929000Y40725000D03*
X122309000Y40725000D03*
D19*
X119769000Y40725000D03*
D17*
G04 #@! TO.C,D250*
X29974000Y70637000D03*
X26224000Y70637000D03*
G04 #@! TO.C,D242*
X49024000Y37300000D03*
X45274000Y37300000D03*
G04 #@! TO.C,D233*
X68074000Y20631000D03*
X64324000Y20631000D03*
D21*
G04 #@! TO.C,JP20*
X127389000Y38260000D03*
X127389000Y37260000D03*
D11*
G36*
X126889000Y38660000D02*
X126889000Y36860000D01*
X127889000Y36860000D01*
X127889000Y38660000D01*
X126889000Y38660000D01*
G37*
D13*
G04 #@! TD*
X98799000Y30639000D03*
X109799000Y30639000D03*
D14*
X104299000Y24689000D03*
X109299000Y26889000D03*
D15*
X99079000Y34839000D03*
D16*
X104299000Y30639000D03*
D13*
X60699000Y73501000D03*
X71699000Y73501000D03*
D14*
X66199000Y67551000D03*
X71199000Y69751000D03*
D15*
X60979000Y77701000D03*
D16*
X66199000Y73501000D03*
D17*
G04 #@! TO.C,D240*
X49024000Y75400000D03*
X45274000Y75400000D03*
D21*
G04 #@! TO.C,JP23*
X129929000Y38260000D03*
X129929000Y37260000D03*
D11*
G36*
X129429000Y38660000D02*
X129429000Y36860000D01*
X130429000Y36860000D01*
X130429000Y38660000D01*
X129429000Y38660000D01*
G37*
D13*
G04 #@! TD*
X22599000Y28257000D03*
X33599000Y28257000D03*
D14*
X28099000Y22307000D03*
X33099000Y24507000D03*
D15*
X22879000Y32457000D03*
D16*
X28099000Y28257000D03*
D10*
G04 #@! TO.C,JP4*
X119269000Y50597000D03*
X120269000Y50597000D03*
D11*
G36*
X118869000Y50097000D02*
X120669000Y50097000D01*
X120669000Y51097000D01*
X118869000Y51097000D01*
X118869000Y50097000D01*
G37*
D17*
G04 #@! TO.C,D222*
X87124000Y37300000D03*
X83374000Y37300000D03*
D10*
G04 #@! TO.C,JP13*
X130429000Y60757000D03*
X129429000Y60757000D03*
D11*
G36*
X130829000Y61257000D02*
X129029000Y61257000D01*
X129029000Y60257000D01*
X130829000Y60257000D01*
X130829000Y61257000D01*
G37*
D17*
G04 #@! TO.C,D231*
X68074000Y58731000D03*
X64324000Y58731000D03*
D13*
G04 #@! TD*
X79749000Y71120000D03*
X90749000Y71120000D03*
D14*
X85249000Y65170000D03*
X90249000Y67370000D03*
D15*
X80029000Y75320000D03*
D16*
X85249000Y71120000D03*
D13*
X60699000Y35401000D03*
X71699000Y35401000D03*
D14*
X66199000Y29451000D03*
X71199000Y31651000D03*
D15*
X60979000Y39601000D03*
D16*
X66199000Y35401000D03*
D13*
X3549000Y47307000D03*
X14549000Y47307000D03*
D14*
X9049000Y41357000D03*
X14049000Y43557000D03*
D15*
X3829000Y51507000D03*
D16*
X9049000Y47307000D03*
D17*
G04 #@! TO.C,D221*
X87124000Y56350000D03*
X83374000Y56350000D03*
G04 #@! TO.C,D243*
X49024000Y18250000D03*
X45274000Y18250000D03*
D24*
G04 #@! TD*
X105799000Y76378000D03*
X102799000Y76378000D03*
D17*
G04 #@! TO.C,D241*
X49024000Y56350000D03*
X45274000Y56350000D03*
G04 #@! TO.C,D261*
X10924000Y51587000D03*
X7174000Y51587000D03*
D13*
G04 #@! TD*
X98799000Y68739000D03*
X109799000Y68739000D03*
D14*
X104299000Y62789000D03*
X109299000Y64989000D03*
D15*
X99079000Y72939000D03*
D16*
X104299000Y68739000D03*
D10*
G04 #@! TO.C,JP14*
X130429000Y63297000D03*
X129429000Y63297000D03*
D11*
G36*
X130829000Y63797000D02*
X129029000Y63797000D01*
X129029000Y62797000D01*
X130829000Y62797000D01*
X130829000Y63797000D01*
G37*
D10*
G04 #@! TO.C,JP17*
X130429000Y68377000D03*
X129429000Y68377000D03*
D11*
G36*
X130829000Y68877000D02*
X129029000Y68877000D01*
X129029000Y67877000D01*
X130829000Y67877000D01*
X130829000Y68877000D01*
G37*
D25*
G04 #@! TO.C,J2*
X122905762Y21098975D03*
D26*
X123905762Y22831025D03*
D17*
G04 #@! TO.C,D262*
X10924000Y32537000D03*
X7174000Y32537000D03*
D10*
G04 #@! TO.C,JP18*
X130429000Y65837000D03*
X129429000Y65837000D03*
D11*
G36*
X130829000Y66337000D02*
X129029000Y66337000D01*
X129029000Y65337000D01*
X130829000Y65337000D01*
X130829000Y66337000D01*
G37*
D13*
G04 #@! TD*
X41649000Y13970000D03*
X52649000Y13970000D03*
D14*
X47149000Y8020000D03*
X52149000Y10220000D03*
D15*
X41929000Y18170000D03*
D16*
X47149000Y13970000D03*
D13*
X3549000Y28257000D03*
X14549000Y28257000D03*
D14*
X9049000Y22307000D03*
X14049000Y24507000D03*
D15*
X3829000Y32457000D03*
D16*
X9049000Y28257000D03*
D17*
G04 #@! TO.C,D232*
X68074000Y39681000D03*
X64324000Y39681000D03*
D12*
G04 #@! TO.C,S163*
X114274000Y5457000D03*
X127424000Y3257000D03*
D13*
G04 #@! TD*
X128849000Y9207000D03*
X117849000Y9207000D03*
D14*
X123349000Y3257000D03*
X118349000Y5457000D03*
D15*
X128569000Y13407000D03*
D16*
X123349000Y9207000D03*
D12*
G04 #@! TO.C,S112*
X19024000Y24507000D03*
X32174000Y22307000D03*
D13*
G04 #@! TD*
X33599000Y28257000D03*
X22599000Y28257000D03*
D14*
X28099000Y22307000D03*
X23099000Y24507000D03*
D15*
X33319000Y32457000D03*
D16*
X28099000Y28257000D03*
D17*
G04 #@! TO.C,D212*
X106174000Y34919000D03*
X102424000Y34919000D03*
D12*
G04 #@! TO.C,S143*
X76174000Y10220000D03*
X89324000Y8020000D03*
D13*
G04 #@! TD*
X90749000Y13970000D03*
X79749000Y13970000D03*
D14*
X85249000Y8020000D03*
X80249000Y10220000D03*
D15*
X90469000Y18170000D03*
D16*
X85249000Y13970000D03*
D12*
G04 #@! TO.C,S131*
X57124000Y50701000D03*
X70274000Y48501000D03*
D13*
G04 #@! TD*
X71699000Y54451000D03*
X60699000Y54451000D03*
D14*
X66199000Y48501000D03*
X61199000Y50701000D03*
D15*
X71419000Y58651000D03*
D16*
X66199000Y54451000D03*
D21*
G04 #@! TO.C,JP21*
X119769000Y38260000D03*
X119769000Y37260000D03*
D11*
G36*
X119269000Y38660000D02*
X119269000Y36860000D01*
X120269000Y36860000D01*
X120269000Y38660000D01*
X119269000Y38660000D01*
G37*
D13*
G04 #@! TD*
X3549000Y66357000D03*
X14549000Y66357000D03*
D14*
X9049000Y60407000D03*
X14049000Y62607000D03*
D15*
X3829000Y70557000D03*
D16*
X9049000Y66357000D03*
D10*
G04 #@! TO.C,JP15*
X130429000Y73457000D03*
X129429000Y73457000D03*
D11*
G36*
X130829000Y73957000D02*
X129029000Y73957000D01*
X129029000Y72957000D01*
X130829000Y72957000D01*
X130829000Y73957000D01*
G37*
D13*
G04 #@! TD*
X98799000Y11589000D03*
X109799000Y11589000D03*
D14*
X104299000Y5639000D03*
X109299000Y7839000D03*
D15*
X99079000Y15789000D03*
D16*
X104299000Y11589000D03*
D10*
G04 #@! TO.C,JP8*
X130429000Y50597000D03*
X129429000Y50597000D03*
D11*
G36*
X130829000Y51097000D02*
X129029000Y51097000D01*
X129029000Y50097000D01*
X130829000Y50097000D01*
X130829000Y51097000D01*
G37*
D28*
G04 #@! TO.C,S103*
X1249000Y5507000D03*
X11849000Y3307000D03*
D13*
G04 #@! TD*
X14549000Y9207000D03*
X3549000Y9207000D03*
D14*
X9049000Y3257000D03*
X4049000Y5457000D03*
D15*
X14269000Y13407000D03*
D16*
X9049000Y9207000D03*
D29*
X76041000Y43260000D03*
X18574000Y18732000D03*
X18574000Y56832000D03*
X94774000Y60404000D03*
X114141000Y19765000D03*
G04 --- BOARD END --- *
G04 #@! TF.MD5,831a0fa30896b6007b3bc215bfda4e3d*
M02*
