G04 --- HEADER BEGIN --- *
G04 #@! TF.GenerationSoftware,LibrePCB,LibrePCB,2.1.2-unstable*
G04 #@! TF.CreationDate,2026-09-09T17:25:34*
G04 #@! TF.ProjectId,kbdkid4,063e517a-3ded-4943-b2aa-4f8854622f53,v1*
G04 #@! TF.Part,Single*
G04 #@! TF.SameCoordinates*
G04 #@! TF.FileFunction,Copper,L4,Bot*
G04 #@! TF.FilePolarity,Positive*
%FSLAX66Y66*%
%MOMM*%
G01*
G75*
G04 --- HEADER END --- *
G04 --- APERTURE LIST BEGIN --- *
G04 #@! TA.AperFunction,TestPad*
%ADD10R,0.8X1.0*%
G04 #@! TA.AperFunction,SMDPad,CuDef*
%ADD11R,3.6X2.6*%
%ADD12R,1.5X0.95*%
G04 #@! TA.AperFunction,ComponentPad*
%ADD13O,1.587X2.19*%
%ADD14R,1.587X2.19*%
%ADD15O,2.19X1.587*%
G04 #@! TA.AperFunction,TestPad*
%ADD16R,1.0X0.8*%
G04 #@! TA.AperFunction,SMDPad,CuDef*
%ADD17R,0.7X1.5*%
%ADD18R,1.0X0.8*%
G04 #@! TA.AperFunction,ComponentPad*
%AMROTATEDOBROUND19*1,1,1.2,0.043301,-0.025*1,1,1.2,-0.043301,0.025*20,1,1.2,0.043301,-0.025,-0.043301,0.025,0*%
%ADD19ROTATEDOBROUND19*%
%AMROTATEDRECT20*20,1,1.2,-0.65,0.0,0.65,0.0,150.0*%
%ADD20ROTATEDRECT20*%
G04 #@! TA.AperFunction,SMDPad,CuDef*
%AMROUNDEDRECT21*20,1,0.7,-0.445,0.0,0.445,0.0,90.0*20,1,0.49,-0.55,0.0,0.55,0.0,90.0*1,1,0.21,-0.245,-0.445*1,1,0.21,-0.245,0.445*1,1,0.21,0.245,0.445*1,1,0.21,0.245,-0.445*%
%ADD21ROUNDEDRECT21*%
%ADD22R,1.6X2.2*%
G04 #@! TA.AperFunction,ViaPad*
%ADD23C,0.7*%
G04 #@! TA.AperFunction,Conductor*
%ADD24C,0.3*%
%ADD25C,0.5*%
G04 #@! TA.AperFunction,ComponentPad*
%ADD26C,3.7*%
G04 #@! TD*
G04 --- APERTURE LIST END --- *
G04 --- BOARD BEGIN --- *
D10*
G04 #@! TO.N,N10*
G04 #@! TO.C,JP12*
G04 #@! TO.P,JP12,1,1*
X130429000Y58217000D03*
G04 #@! TO.N,C4*
G04 #@! TO.P,JP12,2,2*
X129429000Y58217000D03*
G04 #@! TO.N,N19*
G04 #@! TO.C,JP9*
G04 #@! TO.P,JP9,1,1*
X130429000Y53137000D03*
G04 #@! TO.N,C3*
G04 #@! TO.P,JP9,2,2*
X129429000Y53137000D03*
D11*
G04 #@! TO.N,N70*
G04 #@! TO.C,S122*
G04 #@! TO.P,S122,1,1*
X38074000Y29270000D03*
G04 #@! TO.N,C2*
G04 #@! TO.P,S122,2,2*
X51224000Y27070000D03*
G04 #@! TO.N,N51*
G04 #@! TO.C,S150*
G04 #@! TO.P,S150,1,1*
X95224000Y64989000D03*
G04 #@! TO.N,C5*
G04 #@! TO.P,S150,2,2*
X108374000Y62789000D03*
G04 #@! TO.N,N45*
G04 #@! TO.C,S142*
G04 #@! TO.P,S142,1,1*
X76174000Y29270000D03*
G04 #@! TO.N,C4*
G04 #@! TO.P,S142,2,2*
X89324000Y27070000D03*
D12*
G04 #@! TO.N,N62*
G04 #@! TO.C,D252*
G04 #@! TO.P,D252,A,A*
X29974000Y32537000D03*
G04 #@! TO.N,R2*
G04 #@! TO.P,D252,C,C*
X26224000Y32537000D03*
D13*
G04 #@! TO.N,N3*
G04 #@! TO.C,DS2*
G04 #@! TO.P,DS2,VCC,VCC*
X124849000Y40725000D03*
G04 #@! TO.N,N82*
G04 #@! TO.P,DS2,GND,GND*
X122309000Y40725000D03*
G04 #@! TO.N,N89*
G04 #@! TO.P,DS2,CS,CS*
X119769000Y40725000D03*
G04 #@! TO.N,N78*
G04 #@! TO.P,DS2,SCK,SCK*
X127389000Y40725000D03*
D14*
G04 #@! TO.N,N75*
G04 #@! TO.P,DS2,MOSI,MOSI*
X129929000Y40725000D03*
D15*
G04 #@! TO.N,N95*
G04 #@! TO.C,U1*
G04 #@! TO.P,U1,031,D21/P031*
X132469000Y63297000D03*
G04 #@! TO.N,N21*
G04 #@! TO.P,U1,115,D18/P115*
X132469000Y55677000D03*
G04 #@! TO.N,N17*
G04 #@! TO.P,U1,020,D3/P020*
X117229000Y60757000D03*
G04 #@! TO.N,N/C*
G04 #@! TO.P,U1,100,D6/P100*
X117229000Y53137000D03*
G04 #@! TO.N,N6*
G04 #@! TO.P,U1,104,D8/P104*
X117229000Y48057000D03*
G04 #@! TO.N,N2*
G04 #@! TO.P,U1,VBAT,VBAT*
X132469000Y73457000D03*
G04 #@! TO.N,N92*
G04 #@! TO.P,U1,111,D14/P111*
X132469000Y50597000D03*
G04 #@! TO.N,N99*
G04 #@! TO.P,U1,006,D1/P006/TXD*
X117229000Y73457000D03*
G04 #@! TO.N,N/C*
G04 #@! TO.P,U1,008,D0/P008/RXD*
X117229000Y70917000D03*
G04 #@! TO.N,N7*
G04 #@! TO.P,U1,RESET,RESET*
X132469000Y68377000D03*
G04 #@! TO.N,N/C*
G04 #@! TO.P,U1,022,D4/P022*
X117229000Y58217000D03*
G04 #@! TO.N,N79*
G04 #@! TO.P,U1,011,D7/P011*
X117229000Y50597000D03*
G04 #@! TO.N,N97*
G04 #@! TO.P,U1,010,D16/P010*
X132469000Y48057000D03*
G04 #@! TO.N,N101*
G04 #@! TO.P,U1,GND_3,GND*
X117229000Y68377000D03*
G04 #@! TO.N,N/C*
G04 #@! TO.P,U1,024,D5/P024*
X117229000Y55677000D03*
G04 #@! TO.N,N83*
G04 #@! TO.P,U1,017,D2/P017*
X117229000Y63297000D03*
G04 #@! TO.N,N4*
G04 #@! TO.P,U1,029,D20/P029*
X132469000Y60757000D03*
G04 #@! TO.N,N10*
G04 #@! TO.P,U1,002,D19/P002*
X132469000Y58217000D03*
G04 #@! TO.N,N13*
G04 #@! TO.P,U1,106,D9/P106*
X117229000Y45517000D03*
G04 #@! TO.N,N15*
G04 #@! TO.P,U1,EXT_VCC,EXT_VCC*
X132469000Y65837000D03*
G04 #@! TO.N,N101*
G04 #@! TO.P,U1,GND_1,GND*
X132469000Y70917000D03*
G04 #@! TO.N,N77*
G04 #@! TO.P,U1,009,D10/P009*
X132469000Y45517000D03*
G04 #@! TO.N,N19*
G04 #@! TO.P,U1,113,D15/P113*
X132469000Y53137000D03*
G04 #@! TO.N,N101*
G04 #@! TO.P,U1,GND_2,GND*
X117229000Y65837000D03*
D12*
G04 #@! TO.N,N43*
G04 #@! TO.C,D253*
G04 #@! TO.P,D253,A,A*
X29974000Y13487000D03*
G04 #@! TO.N,R3*
G04 #@! TO.P,D253,C,C*
X26224000Y13487000D03*
D10*
G04 #@! TO.N,N77*
G04 #@! TO.C,JP7*
G04 #@! TO.P,JP7,1,1*
X130429000Y45517000D03*
G04 #@! TO.N,R3*
G04 #@! TO.P,JP7,2,2*
X129429000Y45517000D03*
D12*
G04 #@! TO.N,N27*
G04 #@! TO.C,D213*
G04 #@! TO.P,D213,A,A*
X106174000Y15869000D03*
G04 #@! TO.N,R3*
G04 #@! TO.P,D213,C,C*
X102424000Y15869000D03*
D10*
G04 #@! TO.N,N105*
G04 #@! TO.C,JP47*
G04 #@! TO.P,JP47,1,1*
X127500000Y20000000D03*
G04 #@! TO.N,N20*
G04 #@! TO.P,JP47,2,2*
X128500000Y20000000D03*
D12*
G04 #@! TO.N,N64*
G04 #@! TO.C,D211*
G04 #@! TO.P,D211,A,A*
X106174000Y53969000D03*
G04 #@! TO.N,R1*
G04 #@! TO.P,D211,C,C*
X102424000Y53969000D03*
D11*
G04 #@! TO.N,N25*
G04 #@! TO.C,S121*
G04 #@! TO.P,S121,1,1*
X38074000Y48320000D03*
G04 #@! TO.N,C2*
G04 #@! TO.P,S121,2,2*
X51224000Y46120000D03*
G04 #@! TO.N,N35*
G04 #@! TO.C,S110*
G04 #@! TO.P,S110,1,1*
X19024000Y62607000D03*
G04 #@! TO.N,C1*
G04 #@! TO.P,S110,2,2*
X32174000Y60407000D03*
D10*
G04 #@! TO.N,N13*
G04 #@! TO.C,JP6*
G04 #@! TO.P,JP6,1,1*
X119269000Y45517000D03*
G04 #@! TO.N,R2*
G04 #@! TO.P,JP6,2,2*
X120269000Y45517000D03*
G04 #@! TO.N,N83*
G04 #@! TO.C,JP2*
G04 #@! TO.P,JP2,1,1*
X119269000Y63297000D03*
G04 #@! TO.N,MOSI*
G04 #@! TO.P,JP2,2,2*
X120269000Y63297000D03*
D11*
G04 #@! TO.N,N36*
G04 #@! TO.C,S151*
G04 #@! TO.P,S151,1,1*
X95224000Y45939000D03*
G04 #@! TO.N,C5*
G04 #@! TO.P,S151,2,2*
X108374000Y43739000D03*
D10*
G04 #@! TO.N,N101*
G04 #@! TO.C,JP51*
G04 #@! TO.P,JP51,1,1*
X119269000Y68377000D03*
G04 #@! TO.N,GND*
G04 #@! TO.P,JP51,2,2*
X120269000Y68377000D03*
D16*
G04 #@! TO.N,N12*
G04 #@! TO.C,JP22*
G04 #@! TO.P,JP22,1,1*
X122309000Y38260000D03*
G04 #@! TO.N,SCK*
G04 #@! TO.P,JP22,2,2*
X122309000Y37260000D03*
D17*
G04 #@! TO.N,N102*
G04 #@! TO.C,S1*
G04 #@! TO.P,S1,1,B*
X102049000Y74628000D03*
G04 #@! TO.N,N20*
G04 #@! TO.P,S1,2,COM*
X105049000Y74628000D03*
D18*
G04 #@! TO.N,N/C*
G04 #@! TO.P,S1,CASE_3*
X107949000Y77478000D03*
G04 #@! TO.P,S1,CASE_2*
X100649000Y77478000D03*
G04 #@! TO.P,S1,CASE_1*
X100649000Y75278000D03*
D17*
G04 #@! TO.P,S1,3,A*
X106549000Y74628000D03*
D18*
G04 #@! TO.P,S1,CASE_4*
X107949000Y75278000D03*
D12*
G04 #@! TO.N,N26*
G04 #@! TO.C,D263*
G04 #@! TO.P,D263,A,A*
X10924000Y13487000D03*
G04 #@! TO.N,R3*
G04 #@! TO.P,D263,C,C*
X7174000Y13487000D03*
D19*
G04 #@! TO.N,N104*
G04 #@! TO.C,J1*
G04 #@! TO.P,J1,2,2*
X123905762Y22831025D03*
D20*
G04 #@! TO.N,N105*
G04 #@! TO.P,J1,1,1*
X122905762Y21098975D03*
D10*
G04 #@! TO.N,N21*
G04 #@! TO.C,JP11*
G04 #@! TO.P,JP11,1,1*
X130429000Y55677000D03*
G04 #@! TO.N,C1*
G04 #@! TO.P,JP11,2,2*
X129429000Y55677000D03*
G04 #@! TO.N,N104*
G04 #@! TO.C,JP48*
G04 #@! TO.P,JP48,1,1*
X127500000Y22000000D03*
G04 #@! TO.N,GND*
G04 #@! TO.P,JP48,2,2*
X128500000Y22000000D03*
G04 #@! TO.N,N6*
G04 #@! TO.C,JP5*
G04 #@! TO.P,JP5,1,1*
X119269000Y48057000D03*
G04 #@! TO.N,R1*
G04 #@! TO.P,JP5,2,2*
X120269000Y48057000D03*
D11*
G04 #@! TO.N,N65*
G04 #@! TO.C,S141*
G04 #@! TO.P,S141,1,1*
X76174000Y48320000D03*
G04 #@! TO.N,C4*
G04 #@! TO.P,S141,2,2*
X89324000Y46120000D03*
D12*
G04 #@! TO.N,N72*
G04 #@! TO.C,D223*
G04 #@! TO.P,D223,A,A*
X87124000Y18250000D03*
G04 #@! TO.N,R3*
G04 #@! TO.P,D223,C,C*
X83374000Y18250000D03*
D11*
G04 #@! TO.N,N60*
G04 #@! TO.C,S153*
G04 #@! TO.P,S153,1,1*
X95224000Y7839000D03*
G04 #@! TO.N,C5*
G04 #@! TO.P,S153,2,2*
X108374000Y5639000D03*
D10*
G04 #@! TO.N,N99*
G04 #@! TO.C,JP1*
G04 #@! TO.P,JP1,1,1*
X119269000Y73457000D03*
G04 #@! TO.N,CS*
G04 #@! TO.P,JP1,2,2*
X120269000Y73457000D03*
D12*
G04 #@! TO.N,N48*
G04 #@! TO.C,D220*
G04 #@! TO.P,D220,A,A*
X87124000Y75400000D03*
G04 #@! TO.N,R0*
G04 #@! TO.P,D220,C,C*
X83374000Y75400000D03*
D10*
G04 #@! TO.N,N97*
G04 #@! TO.C,JP10*
G04 #@! TO.P,JP10,1,1*
X130429000Y48057000D03*
G04 #@! TO.N,C0*
G04 #@! TO.P,JP10,2,2*
X129429000Y48057000D03*
G04 #@! TO.N,N101*
G04 #@! TO.C,JP16*
G04 #@! TO.P,JP16,1,1*
X130429000Y70917000D03*
G04 #@! TO.N,GND*
G04 #@! TO.P,JP16,2,2*
X129429000Y70917000D03*
D11*
G04 #@! TO.N,N24*
G04 #@! TO.C,S140*
G04 #@! TO.P,S140,1,1*
X76174000Y67370000D03*
G04 #@! TO.N,C4*
G04 #@! TO.P,S140,2,2*
X89324000Y65170000D03*
G04 #@! TO.N,N47*
G04 #@! TO.C,S152*
G04 #@! TO.P,S152,1,1*
X95224000Y26889000D03*
G04 #@! TO.N,C5*
G04 #@! TO.P,S152,2,2*
X108374000Y24689000D03*
D12*
G04 #@! TO.N,N32*
G04 #@! TO.C,D251*
G04 #@! TO.P,D251,A,A*
X29974000Y51587000D03*
G04 #@! TO.N,R1*
G04 #@! TO.P,D251,C,C*
X26224000Y51587000D03*
D21*
G04 #@! TO.N,N11*
G04 #@! TO.C,S4*
G04 #@! TO.P,S4,2,2*
X122775000Y28250000D03*
G04 #@! TO.N,GND*
G04 #@! TO.P,S4,1,1*
X127225000Y31750000D03*
X122775000Y31750000D03*
G04 #@! TO.N,N11*
G04 #@! TO.P,S4,2,2*
X127225000Y28250000D03*
D12*
G04 #@! TO.N,N39*
G04 #@! TO.C,D230*
G04 #@! TO.P,D230,A,A*
X68074000Y77781000D03*
G04 #@! TO.N,R0*
G04 #@! TO.P,D230,C,C*
X64324000Y77781000D03*
D10*
G04 #@! TO.N,N17*
G04 #@! TO.C,JP3*
G04 #@! TO.P,JP3,1,1*
X119269000Y60757000D03*
G04 #@! TO.N,SCK*
G04 #@! TO.P,JP3,2,2*
X120269000Y60757000D03*
D11*
G04 #@! TO.N,N52*
G04 #@! TO.C,S120*
G04 #@! TO.P,S120,1,1*
X38074000Y67370000D03*
G04 #@! TO.N,C2*
G04 #@! TO.P,S120,2,2*
X51224000Y65170000D03*
D12*
G04 #@! TO.N,N38*
G04 #@! TO.C,D260*
G04 #@! TO.P,D260,A,A*
X10924000Y70637000D03*
G04 #@! TO.N,R0*
G04 #@! TO.P,D260,C,C*
X7174000Y70637000D03*
D22*
G04 #@! TO.N,N30*
G04 #@! TO.C,S100*
G04 #@! TO.P,S100,1,1*
X1249000Y62657000D03*
G04 #@! TO.N,C0*
G04 #@! TO.P,S100,2,2*
X11849000Y60457000D03*
D11*
G04 #@! TO.N,N54*
G04 #@! TO.C,S123*
G04 #@! TO.P,S123,1,1*
X38074000Y10220000D03*
G04 #@! TO.N,C2*
G04 #@! TO.P,S123,2,2*
X51224000Y8020000D03*
D15*
G04 #@! TO.N,N16*
G04 #@! TO.C,U2*
G04 #@! TO.P,U2,031,D21/P031*
X117229000Y63297000D03*
G04 #@! TO.N,N9*
G04 #@! TO.P,U2,115,D18/P115*
X117229000Y55677000D03*
G04 #@! TO.N,N100*
G04 #@! TO.P,U2,020,D3/P020*
X132469000Y60757000D03*
G04 #@! TO.N,N/C*
G04 #@! TO.P,U2,100,D6/P100*
X132469000Y53137000D03*
G04 #@! TO.N,N96*
G04 #@! TO.P,U2,104,D8/P104*
X132469000Y48057000D03*
G04 #@! TO.N,N81*
G04 #@! TO.P,U2,VBAT,VBAT*
X117229000Y73457000D03*
G04 #@! TO.N,N5*
G04 #@! TO.P,U2,111,D14/P111*
X117229000Y50597000D03*
G04 #@! TO.N,N93*
G04 #@! TO.P,U2,006,D1/P006/TXD*
X132469000Y73457000D03*
G04 #@! TO.N,N/C*
G04 #@! TO.P,U2,008,D0/P008/RXD*
X132469000Y70917000D03*
G04 #@! TO.N,N1*
G04 #@! TO.P,U2,RESET,RESET*
X117229000Y68377000D03*
G04 #@! TO.N,N/C*
G04 #@! TO.P,U2,022,D4/P022*
X132469000Y58217000D03*
G04 #@! TO.N,N23*
G04 #@! TO.P,U2,011,D7/P011*
X132469000Y50597000D03*
G04 #@! TO.N,N87*
G04 #@! TO.P,U2,010,D16/P010*
X117229000Y48057000D03*
G04 #@! TO.N,N85*
G04 #@! TO.P,U2,GND_3,GND*
X132469000Y68377000D03*
G04 #@! TO.N,N/C*
G04 #@! TO.P,U2,024,D5/P024*
X132469000Y55677000D03*
G04 #@! TO.N,N103*
G04 #@! TO.P,U2,017,D2/P017*
X132469000Y63297000D03*
G04 #@! TO.N,N90*
G04 #@! TO.P,U2,029,D20/P029*
X117229000Y60757000D03*
G04 #@! TO.N,N80*
G04 #@! TO.P,U2,002,D19/P002*
X117229000Y58217000D03*
G04 #@! TO.N,N88*
G04 #@! TO.P,U2,106,D9/P106*
X132469000Y45517000D03*
G04 #@! TO.N,N94*
G04 #@! TO.P,U2,EXT_VCC,EXT_VCC*
X117229000Y65837000D03*
G04 #@! TO.N,N85*
G04 #@! TO.P,U2,GND_1,GND*
X117229000Y70917000D03*
G04 #@! TO.N,N8*
G04 #@! TO.P,U2,009,D10/P009*
X117229000Y45517000D03*
G04 #@! TO.N,N98*
G04 #@! TO.P,U2,113,D15/P113*
X117229000Y53137000D03*
G04 #@! TO.N,N85*
G04 #@! TO.P,U2,GND_2,GND*
X132469000Y65837000D03*
D11*
G04 #@! TO.N,N61*
G04 #@! TO.C,S132*
G04 #@! TO.P,S132,1,1*
X57124000Y31651000D03*
G04 #@! TO.N,C3*
G04 #@! TO.P,S132,2,2*
X70274000Y29451000D03*
D10*
G04 #@! TO.N,N101*
G04 #@! TO.C,JP52*
G04 #@! TO.P,JP52,1,1*
X119269000Y65837000D03*
G04 #@! TO.N,GND*
G04 #@! TO.P,JP52,2,2*
X120269000Y65837000D03*
D12*
G04 #@! TO.N,N63*
G04 #@! TO.C,D210*
G04 #@! TO.P,D210,A,A*
X106174000Y73019000D03*
G04 #@! TO.N,R0*
G04 #@! TO.P,D210,C,C*
X102424000Y73019000D03*
D11*
G04 #@! TO.N,N67*
G04 #@! TO.C,S113*
G04 #@! TO.P,S113,1,1*
X19024000Y5457000D03*
G04 #@! TO.N,C1*
G04 #@! TO.P,S113,2,2*
X32174000Y3257000D03*
G04 #@! TO.N,N33*
G04 #@! TO.C,S130*
G04 #@! TO.P,S130,1,1*
X57124000Y69751000D03*
G04 #@! TO.N,C3*
G04 #@! TO.P,S130,2,2*
X70274000Y67551000D03*
G04 #@! TO.N,N71*
G04 #@! TO.C,S133*
G04 #@! TO.P,S133,1,1*
X57124000Y12601000D03*
G04 #@! TO.N,C3*
G04 #@! TO.P,S133,2,2*
X70274000Y10401000D03*
D12*
G04 #@! TO.N,N28*
G04 #@! TO.C,D203*
G04 #@! TO.P,D203,A,A*
X125224000Y13487000D03*
G04 #@! TO.N,R3*
G04 #@! TO.P,D203,C,C*
X121474000Y13487000D03*
D22*
G04 #@! TO.N,N66*
G04 #@! TO.C,S101*
G04 #@! TO.P,S101,1,1*
X1249000Y43607000D03*
G04 #@! TO.N,C0*
G04 #@! TO.P,S101,2,2*
X11849000Y41407000D03*
D11*
G04 #@! TO.N,N44*
G04 #@! TO.C,S111*
G04 #@! TO.P,S111,1,1*
X19024000Y43557000D03*
G04 #@! TO.N,C1*
G04 #@! TO.P,S111,2,2*
X32174000Y41357000D03*
D22*
G04 #@! TO.N,N49*
G04 #@! TO.C,S102*
G04 #@! TO.P,S102,1,1*
X1249000Y24557000D03*
G04 #@! TO.N,C0*
G04 #@! TO.P,S102,2,2*
X11849000Y22357000D03*
D16*
G04 #@! TO.N,N18*
G04 #@! TO.C,JP19*
G04 #@! TO.P,JP19,1,1*
X124849000Y38260000D03*
G04 #@! TO.N,VCC*
G04 #@! TO.P,JP19,2,2*
X124849000Y37260000D03*
D13*
G04 #@! TO.N,N18*
G04 #@! TO.C,DS1*
G04 #@! TO.P,DS1,VCC,VCC*
X124849000Y40725000D03*
G04 #@! TO.N,N106*
G04 #@! TO.P,DS1,GND,GND*
X127389000Y40725000D03*
G04 #@! TO.N,N76*
G04 #@! TO.P,DS1,CS,CS*
X129929000Y40725000D03*
G04 #@! TO.N,N12*
G04 #@! TO.P,DS1,SCK,SCK*
X122309000Y40725000D03*
D14*
G04 #@! TO.N,N86*
G04 #@! TO.P,DS1,MOSI,MOSI*
X119769000Y40725000D03*
D12*
G04 #@! TO.N,N56*
G04 #@! TO.C,D250*
G04 #@! TO.P,D250,A,A*
X29974000Y70637000D03*
G04 #@! TO.N,R0*
G04 #@! TO.P,D250,C,C*
X26224000Y70637000D03*
G04 #@! TO.N,N31*
G04 #@! TO.C,D242*
G04 #@! TO.P,D242,A,A*
X49024000Y37300000D03*
G04 #@! TO.N,R2*
G04 #@! TO.P,D242,C,C*
X45274000Y37300000D03*
G04 #@! TO.N,N69*
G04 #@! TO.C,D233*
G04 #@! TO.P,D233,A,A*
X68074000Y20631000D03*
G04 #@! TO.N,R3*
G04 #@! TO.P,D233,C,C*
X64324000Y20631000D03*
D16*
G04 #@! TO.N,N106*
G04 #@! TO.C,JP20*
G04 #@! TO.P,JP20,1,1*
X127389000Y38260000D03*
G04 #@! TO.N,GND*
G04 #@! TO.P,JP20,2,2*
X127389000Y37260000D03*
D12*
G04 #@! TO.N,N53*
G04 #@! TO.C,D240*
G04 #@! TO.P,D240,A,A*
X49024000Y75400000D03*
G04 #@! TO.N,R0*
G04 #@! TO.P,D240,C,C*
X45274000Y75400000D03*
D16*
G04 #@! TO.N,N76*
G04 #@! TO.C,JP23*
G04 #@! TO.P,JP23,1,1*
X129929000Y38260000D03*
G04 #@! TO.N,CS*
G04 #@! TO.P,JP23,2,2*
X129929000Y37260000D03*
D10*
G04 #@! TO.N,N79*
G04 #@! TO.C,JP4*
G04 #@! TO.P,JP4,1,1*
X119269000Y50597000D03*
G04 #@! TO.N,R0*
G04 #@! TO.P,JP4,2,2*
X120269000Y50597000D03*
D12*
G04 #@! TO.N,N40*
G04 #@! TO.C,D222*
G04 #@! TO.P,D222,A,A*
X87124000Y37300000D03*
G04 #@! TO.N,R2*
G04 #@! TO.P,D222,C,C*
X83374000Y37300000D03*
D10*
G04 #@! TO.N,N4*
G04 #@! TO.C,JP13*
G04 #@! TO.P,JP13,1,1*
X130429000Y60757000D03*
G04 #@! TO.N,C5*
G04 #@! TO.P,JP13,2,2*
X129429000Y60757000D03*
D12*
G04 #@! TO.N,N50*
G04 #@! TO.C,D231*
G04 #@! TO.P,D231,A,A*
X68074000Y58731000D03*
G04 #@! TO.N,R1*
G04 #@! TO.P,D231,C,C*
X64324000Y58731000D03*
G04 #@! TO.N,N41*
G04 #@! TO.C,D221*
G04 #@! TO.P,D221,A,A*
X87124000Y56350000D03*
G04 #@! TO.N,R1*
G04 #@! TO.P,D221,C,C*
X83374000Y56350000D03*
G04 #@! TO.N,N59*
G04 #@! TO.C,D243*
G04 #@! TO.P,D243,A,A*
X49024000Y18250000D03*
G04 #@! TO.N,R3*
G04 #@! TO.P,D243,C,C*
X45274000Y18250000D03*
G04 #@! TO.N,N68*
G04 #@! TO.C,D241*
G04 #@! TO.P,D241,A,A*
X49024000Y56350000D03*
G04 #@! TO.N,R1*
G04 #@! TO.P,D241,C,C*
X45274000Y56350000D03*
G04 #@! TO.N,N37*
G04 #@! TO.C,D261*
G04 #@! TO.P,D261,A,A*
X10924000Y51587000D03*
G04 #@! TO.N,R1*
G04 #@! TO.P,D261,C,C*
X7174000Y51587000D03*
D10*
G04 #@! TO.N,N95*
G04 #@! TO.C,JP14*
G04 #@! TO.P,JP14,1,1*
X130429000Y63297000D03*
G04 #@! TO.N,C6*
G04 #@! TO.P,JP14,2,2*
X129429000Y63297000D03*
G04 #@! TO.N,N7*
G04 #@! TO.C,JP17*
G04 #@! TO.P,JP17,1,1*
X130429000Y68377000D03*
G04 #@! TO.N,N107*
G04 #@! TO.P,JP17,2,2*
X129429000Y68377000D03*
D19*
G04 #@! TO.N,N14*
G04 #@! TO.C,J2*
G04 #@! TO.P,J2,2,2*
X122905762Y21098975D03*
D20*
G04 #@! TO.N,N91*
G04 #@! TO.P,J2,1,1*
X123905762Y22831025D03*
D12*
G04 #@! TO.N,N58*
G04 #@! TO.C,D262*
G04 #@! TO.P,D262,A,A*
X10924000Y32537000D03*
G04 #@! TO.N,R2*
G04 #@! TO.P,D262,C,C*
X7174000Y32537000D03*
D10*
G04 #@! TO.N,N15*
G04 #@! TO.C,JP18*
G04 #@! TO.P,JP18,1,1*
X130429000Y65837000D03*
G04 #@! TO.N,VCC*
G04 #@! TO.P,JP18,2,2*
X129429000Y65837000D03*
D12*
G04 #@! TO.N,N46*
G04 #@! TO.C,D232*
G04 #@! TO.P,D232,A,A*
X68074000Y39681000D03*
G04 #@! TO.N,R2*
G04 #@! TO.P,D232,C,C*
X64324000Y39681000D03*
D11*
G04 #@! TO.N,N57*
G04 #@! TO.C,S163*
G04 #@! TO.P,S163,1,1*
X114274000Y5457000D03*
G04 #@! TO.N,C6*
G04 #@! TO.P,S163,2,2*
X127424000Y3257000D03*
G04 #@! TO.N,N73*
G04 #@! TO.C,S112*
G04 #@! TO.P,S112,1,1*
X19024000Y24507000D03*
G04 #@! TO.N,C1*
G04 #@! TO.P,S112,2,2*
X32174000Y22307000D03*
D12*
G04 #@! TO.N,N42*
G04 #@! TO.C,D212*
G04 #@! TO.P,D212,A,A*
X106174000Y34919000D03*
G04 #@! TO.N,R2*
G04 #@! TO.P,D212,C,C*
X102424000Y34919000D03*
D11*
G04 #@! TO.N,N29*
G04 #@! TO.C,S143*
G04 #@! TO.P,S143,1,1*
X76174000Y10220000D03*
G04 #@! TO.N,C4*
G04 #@! TO.P,S143,2,2*
X89324000Y8020000D03*
G04 #@! TO.N,N55*
G04 #@! TO.C,S131*
G04 #@! TO.P,S131,1,1*
X57124000Y50701000D03*
G04 #@! TO.N,C3*
G04 #@! TO.P,S131,2,2*
X70274000Y48501000D03*
D16*
G04 #@! TO.N,N86*
G04 #@! TO.C,JP21*
G04 #@! TO.P,JP21,1,1*
X119769000Y38260000D03*
G04 #@! TO.N,MOSI*
G04 #@! TO.P,JP21,2,2*
X119769000Y37260000D03*
D10*
G04 #@! TO.N,N2*
G04 #@! TO.C,JP15*
G04 #@! TO.P,JP15,1,1*
X130429000Y73457000D03*
G04 #@! TO.N,N102*
G04 #@! TO.P,JP15,2,2*
X129429000Y73457000D03*
G04 #@! TO.N,N92*
G04 #@! TO.C,JP8*
G04 #@! TO.P,JP8,1,1*
X130429000Y50597000D03*
G04 #@! TO.N,C2*
G04 #@! TO.P,JP8,2,2*
X129429000Y50597000D03*
D22*
G04 #@! TO.N,N34*
G04 #@! TO.C,S103*
G04 #@! TO.P,S103,1,1*
X1249000Y5507000D03*
G04 #@! TO.N,C0*
G04 #@! TO.P,S103,2,2*
X11849000Y3307000D03*
D23*
G04 #@! TD.C*
G04 #@! TD.P*
G04 #@! TO.N,N64*
X110172500Y52070000D03*
D24*
X106174000Y53969000D02*
X108073000Y52070000D01*
X110172500Y52070000D02*
X108073000Y52070000D01*
D25*
G04 #@! TO.N,N92*
X132469000Y50597000D02*
X130429000Y50597000D01*
D23*
G04 #@! TO.N,N33*
X57785000Y74612500D03*
D24*
X57785000Y74612500D02*
X57124000Y73951500D01*
X57124000Y69751000D02*
X57124000Y73951500D01*
D23*
G04 #@! TO.N,N36*
X97790000Y52070000D03*
D24*
X97790000Y52070000D02*
X95224000Y49504000D01*
X95224000Y45939000D02*
X95224000Y49504000D01*
G04 #@! TO.N,C4*
X128000000Y59500000D02*
X128146000Y59500000D01*
X129429000Y58217000D02*
X128146000Y59500000D01*
D23*
G04 #@! TO.N,CS*
X127687500Y73375000D03*
X119437500Y35562500D03*
X125187500Y73375000D03*
D24*
X130662500Y35574695D02*
X130662500Y36526500D01*
X125187500Y73375000D02*
X120351000Y73375000D01*
X126000000Y44562500D02*
X127625000Y42937500D01*
X127625000Y42937500D02*
X127875000Y42937500D01*
X128687500Y37812500D02*
X129280500Y37219500D01*
X128875305Y33787500D02*
X121212500Y33787500D01*
X120269000Y73457000D02*
X120351000Y73375000D01*
X119437500Y35562500D02*
X121212500Y33787500D01*
X128687500Y42125000D02*
X127875000Y42937500D01*
X126000000Y72562500D02*
X126000000Y44562500D01*
X128687500Y42125000D02*
X128687500Y37812500D01*
X129929000Y37260000D02*
X129969500Y37219500D01*
X129969500Y37219500D02*
X129280500Y37219500D01*
X125187500Y73375000D02*
X126000000Y72562500D01*
X129969500Y37219500D02*
X130662500Y36526500D01*
X128875305Y33787500D02*
X130662500Y35574695D01*
D23*
G04 #@! TO.N,N68*
X53022500Y54292500D03*
D24*
X53022500Y54292500D02*
X51081500Y54292500D01*
X49024000Y56350000D02*
X51081500Y54292500D01*
D23*
G04 #@! TO.N,N47*
X97790000Y33020000D03*
D24*
X95224000Y26889000D02*
X95224000Y30454000D01*
X97790000Y33020000D02*
X95224000Y30454000D01*
D23*
G04 #@! TO.N,N53*
X53340000Y73342500D03*
D24*
X49024000Y75400000D02*
X51081500Y73342500D01*
X53340000Y73342500D02*
X51081500Y73342500D01*
D25*
G04 #@! TO.N,N4*
X132469000Y60757000D02*
X130429000Y60757000D01*
G04 #@! TO.N,N2*
X132469000Y73457000D02*
X130429000Y73457000D01*
D26*
G04 #@! TO.N,N/C*
X76041000Y43260000D03*
D25*
G04 #@! TO.N,N101*
X117229000Y65837000D02*
X119269000Y65837000D01*
G04 #@! TO.N,N99*
X117229000Y73457000D02*
X119269000Y73457000D01*
D23*
G04 #@! TO.N,GND*
X128270000Y68580000D03*
G04 #@! TO.N,N46*
X72072500Y37782500D03*
D24*
X68074000Y39681000D02*
X69972500Y37782500D01*
X72072500Y37782500D02*
X69972500Y37782500D01*
D23*
G04 #@! TO.N,N30*
X3492500Y68580000D03*
D24*
X3492500Y68580000D02*
X1249000Y66336500D01*
X1249000Y62657000D02*
X1249000Y66336500D01*
D23*
G04 #@! TO.N,N73*
X21907500Y30480000D03*
D24*
X21907500Y30480000D02*
X19024000Y27596500D01*
X19024000Y24507000D02*
X19024000Y27596500D01*
D23*
G04 #@! TO.N,N67*
X22225000Y11430000D03*
D24*
X22225000Y11430000D02*
X19024000Y8229000D01*
X19024000Y5457000D02*
X19024000Y8229000D01*
G04 #@! TO.N,C1*
X128106000Y57000000D02*
X128000000Y57000000D01*
X129429000Y55677000D02*
X128106000Y57000000D01*
D25*
G04 #@! TO.N,N105*
X127500000Y20000000D02*
X122905762Y21098975D01*
D23*
G04 #@! TO.N,N72*
X91440000Y16510000D03*
D24*
X91440000Y16510000D02*
X88864000Y16510000D01*
X87124000Y18250000D02*
X88864000Y16510000D01*
D23*
G04 #@! TO.N,R2*
X13335000Y34607500D03*
X33655000Y34607500D03*
X51752500Y39370000D03*
X70485000Y41592500D03*
X121750000Y45500000D03*
X105410000Y36102500D03*
X89535000Y39052500D03*
X128250000Y45500000D03*
D24*
X13335000Y34607500D02*
X24153500Y34607500D01*
X120269000Y45517000D02*
X120286000Y45500000D01*
X64324000Y39681000D02*
X66235500Y41592500D01*
X105410000Y36102500D02*
X105477500Y36102500D01*
X105477500Y36102500D02*
X111437500Y42062500D01*
X70485000Y41592500D02*
X66235500Y41592500D01*
X45274000Y37300000D02*
X42581500Y34607500D01*
X33655000Y34607500D02*
X28294500Y34607500D01*
X94297500Y36830000D02*
X92075000Y39052500D01*
X55245000Y37782500D02*
X53657500Y39370000D01*
X121750000Y45500000D02*
X120286000Y45500000D01*
X94297500Y36830000D02*
X100513000Y36830000D01*
X120286000Y46339000D02*
X120286000Y45500000D01*
X13335000Y34607500D02*
X9244500Y34607500D01*
X102424000Y34919000D02*
X105410000Y36102500D01*
X62425500Y37782500D02*
X55245000Y37782500D01*
X45274000Y37300000D02*
X47344000Y39370000D01*
X89535000Y39052500D02*
X92075000Y39052500D01*
X64324000Y39681000D02*
X62425500Y37782500D01*
X7174000Y32537000D02*
X9244500Y34607500D01*
X70485000Y41592500D02*
X72072500Y41592500D01*
X111437500Y42062500D02*
X111437500Y45500000D01*
X33655000Y34607500D02*
X42581500Y34607500D01*
X83374000Y37300000D02*
X85126500Y39052500D01*
X26224000Y32537000D02*
X28294500Y34607500D01*
X51752500Y39370000D02*
X53657500Y39370000D01*
X112750000Y46812500D02*
X111437500Y45500000D01*
X74612500Y39052500D02*
X81621500Y39052500D01*
X102424000Y34919000D02*
X100513000Y36830000D01*
X112750000Y46812500D02*
X119812500Y46812500D01*
X51752500Y39370000D02*
X47344000Y39370000D01*
X74612500Y39052500D02*
X72072500Y41592500D01*
X89535000Y39052500D02*
X85126500Y39052500D01*
X83374000Y37300000D02*
X81621500Y39052500D01*
X26224000Y32537000D02*
X24153500Y34607500D01*
X119812500Y46812500D02*
X120286000Y46339000D01*
D23*
G04 #@! TO.N,N63*
X110172500Y71120000D03*
D24*
X110172500Y71120000D02*
X108073000Y71120000D01*
X106174000Y73019000D02*
X108073000Y71120000D01*
D23*
G04 #@! TO.N,N66*
X3492500Y49530000D03*
D24*
X3492500Y49530000D02*
X1249000Y47286500D01*
X1249000Y43607000D02*
X1249000Y47286500D01*
D23*
G04 #@! TO.N,N48*
X91122500Y73342500D03*
D24*
X87124000Y75400000D02*
X89181500Y73342500D01*
X91122500Y73342500D02*
X89181500Y73342500D01*
D23*
G04 #@! TO.N,R1*
X128250000Y48000000D03*
X33337500Y54292500D03*
X70167500Y60642500D03*
X52070000Y58102500D03*
X13335000Y53975000D03*
X105092500Y56197500D03*
X89535000Y57785000D03*
X121750000Y48000000D03*
D24*
X62425500Y56832500D02*
X57150000Y56832500D01*
X75882500Y58102500D02*
X81621500Y58102500D01*
X83374000Y56350000D02*
X83197000Y56527000D01*
X102424000Y53969000D02*
X100830500Y55562500D01*
X120269000Y48057000D02*
X120326000Y48000000D01*
X120269000Y48057000D02*
X120269000Y48731000D01*
X105092500Y56197500D02*
X105165000Y56125000D01*
X70167500Y60642500D02*
X73342500Y60642500D01*
X13335000Y53975000D02*
X23836000Y53975000D01*
X7174000Y51587000D02*
X9562000Y53975000D01*
X13335000Y53975000D02*
X9562000Y53975000D01*
X57150000Y56832500D02*
X55880000Y58102500D01*
X64324000Y58731000D02*
X62425500Y56832500D01*
X83197000Y56527000D02*
X84455000Y57785000D01*
X116187500Y49250000D02*
X114437500Y51000000D01*
X52070000Y58102500D02*
X55880000Y58102500D01*
X93662500Y55562500D02*
X100830500Y55562500D01*
X121750000Y48000000D02*
X120326000Y48000000D01*
X26224000Y51587000D02*
X23836000Y53975000D01*
X52070000Y58102500D02*
X47026500Y58102500D01*
X89535000Y57785000D02*
X91440000Y57785000D01*
X70167500Y60642500D02*
X66235500Y60642500D01*
X33337500Y54292500D02*
X28929500Y54292500D01*
X119750000Y49250000D02*
X120269000Y48731000D01*
X89535000Y57785000D02*
X84455000Y57785000D01*
X102424000Y53969000D02*
X105092500Y56197500D01*
X93662500Y55562500D02*
X91440000Y57785000D01*
X45274000Y56350000D02*
X43216500Y54292500D01*
X75882500Y58102500D02*
X73342500Y60642500D01*
X114437500Y54812500D02*
X113125000Y56125000D01*
X105165000Y56125000D02*
X113125000Y56125000D01*
X26224000Y51587000D02*
X28929500Y54292500D01*
X83197000Y56527000D02*
X81621500Y58102500D01*
X64324000Y58731000D02*
X66235500Y60642500D01*
X33337500Y54292500D02*
X43216500Y54292500D01*
X119750000Y49250000D02*
X116187500Y49250000D01*
X114437500Y54812500D02*
X114437500Y51000000D01*
X45274000Y56350000D02*
X47026500Y58102500D01*
D23*
G04 #@! TO.N,N49*
X3492500Y30797500D03*
D24*
X3492500Y30797500D02*
X1249000Y28554000D01*
X1249000Y24557000D02*
X1249000Y28554000D01*
D23*
G04 #@! TO.N,SCK*
X128437500Y35875000D03*
X123562500Y44562500D03*
X124000000Y60812500D03*
X124812500Y43125000D03*
X127750000Y60812500D03*
D24*
X120269000Y60757000D02*
X120324500Y60812500D01*
X122437500Y35000000D02*
X121687500Y35750000D01*
X123562500Y44562500D02*
X124500000Y45500000D01*
X123625000Y38576000D02*
X123625000Y41937500D01*
X122309000Y37260000D02*
X123625000Y38576000D01*
X122437500Y35000000D02*
X127562500Y35000000D01*
X124000000Y60812500D02*
X120324500Y60812500D01*
X124500000Y60312500D02*
X124500000Y45500000D01*
X124812500Y43125000D02*
X123625000Y41937500D01*
X128437500Y35875000D02*
X127562500Y35000000D01*
X121687500Y36638500D02*
X121687500Y35750000D01*
X124000000Y60812500D02*
X124500000Y60312500D01*
X122309000Y37260000D02*
X121687500Y36638500D01*
D26*
G04 #@! TO.N,N/C*
X18574000Y18732000D03*
D23*
G04 #@! TO.N,N61*
X58102500Y36512500D03*
D24*
X57124000Y31651000D02*
X57124000Y35534000D01*
X58102500Y36512500D02*
X57124000Y35534000D01*
D23*
G04 #@! TO.N,GND*
X128270000Y71120000D03*
D25*
X128270000Y71120000D02*
X129226000Y71120000D01*
X129429000Y70917000D02*
X129226000Y71120000D01*
G04 #@! TO.N,N6*
X117229000Y48057000D02*
X119269000Y48057000D01*
D23*
G04 #@! TO.N,GND*
X125000000Y30000000D03*
D24*
X125000000Y30000000D02*
X123250000Y31750000D01*
X122775000Y31750000D02*
X123250000Y31750000D01*
X127225000Y31750000D02*
X126750000Y31750000D01*
X125000000Y30000000D02*
X126750000Y31750000D01*
D23*
G04 #@! TO.N,N56*
X34290000Y68897500D03*
D24*
X29974000Y70637000D02*
X31713500Y68897500D01*
X34290000Y68897500D02*
X31713500Y68897500D01*
D25*
G04 #@! TO.N,N21*
X132469000Y55677000D02*
X130429000Y55677000D01*
D23*
G04 #@! TO.N,C2*
X46990000Y23177500D03*
X44132500Y11430000D03*
X46990000Y61277500D03*
X46990000Y42227500D03*
X121750000Y51750000D03*
X128250000Y51750000D03*
D24*
X51224000Y8020000D02*
X47814000Y11430000D01*
X51224000Y65170000D02*
X50882500Y65170000D01*
X46990000Y42227500D02*
X50882500Y46120000D01*
X129429000Y50597000D02*
X129403000Y50597000D01*
X128250000Y51750000D02*
X128276000Y51750000D01*
X128250000Y51750000D02*
X129403000Y50597000D01*
X46990000Y23177500D02*
X50882500Y27070000D01*
X44132500Y11430000D02*
X47814000Y11430000D01*
X51224000Y27070000D02*
X50882500Y27070000D01*
X51224000Y46120000D02*
X50882500Y46120000D01*
X46990000Y61277500D02*
X50882500Y65170000D01*
D25*
G04 #@! TO.N,N20*
X105125000Y77312500D02*
X105125000Y77375000D01*
X133000000Y20000000D02*
X132250000Y19250000D01*
X105049000Y74628000D02*
X104364500Y75312500D01*
X126750000Y44750000D02*
X127750000Y43750000D01*
X132000000Y43750000D02*
X127750000Y43750000D01*
X126750000Y74750000D02*
X125000000Y76500000D01*
X104250000Y75312500D02*
X104250000Y76437500D01*
X126750000Y74750000D02*
X126750000Y44750000D01*
X128500000Y20000000D02*
X129250000Y19250000D01*
X133000000Y20000000D02*
X133000000Y42750000D01*
X132000000Y43750000D02*
X133000000Y42750000D01*
X104364500Y75312500D02*
X104250000Y75312500D01*
X105125000Y77312500D02*
X104250000Y76437500D01*
X107062500Y76500000D02*
X106187500Y77375000D01*
X107062500Y76500000D02*
X125000000Y76500000D01*
X105125000Y77375000D02*
X106187500Y77375000D01*
X129250000Y19250000D02*
X132250000Y19250000D01*
G04 #@! TO.N,N13*
X117229000Y45517000D02*
X119269000Y45517000D01*
D26*
G04 #@! TO.N,N/C*
X18574000Y56832000D03*
D25*
G04 #@! TO.N,N17*
X117229000Y60757000D02*
X119269000Y60757000D01*
D23*
G04 #@! TO.N,C6*
X123190000Y6350000D03*
X128250000Y64500000D03*
X127000000Y13937500D03*
X130000000Y62062500D03*
D24*
X128250000Y64500000D02*
X129429000Y63321000D01*
X123190000Y6350000D02*
X124142500Y6350000D01*
X127424000Y3257000D02*
X127235500Y3257000D01*
X127235500Y3257000D02*
X124142500Y6350000D01*
X129429000Y63297000D02*
X129429000Y63321000D01*
X129429000Y63297000D02*
X129429000Y62633500D01*
X130000000Y62062500D02*
X129429000Y62633500D01*
D23*
G04 #@! TO.N,N54*
X39052500Y14922500D03*
D24*
X39052500Y14922500D02*
X38074000Y13944000D01*
X38074000Y10220000D02*
X38074000Y13944000D01*
D25*
G04 #@! TO.N,N104*
X123905762Y22831025D02*
X127500000Y22000000D01*
D23*
G04 #@! TO.N,N62*
X33972500Y30480000D03*
D24*
X29974000Y32537000D02*
X32031000Y30480000D01*
X33972500Y30480000D02*
X32031000Y30480000D01*
D23*
G04 #@! TO.N,GND*
X121285000Y66040000D03*
D25*
X121285000Y66040000D02*
X120472000Y66040000D01*
X120269000Y65837000D02*
X120472000Y66040000D01*
G04 #@! TO.N,N77*
X132469000Y45517000D02*
X130429000Y45517000D01*
D23*
G04 #@! TO.N,GND*
X123000000Y36000000D03*
G04 #@! TO.N,N51*
X97790000Y71120000D03*
D24*
X97790000Y71120000D02*
X95224000Y68554000D01*
X95224000Y64989000D02*
X95224000Y68554000D01*
D25*
G04 #@! TO.N,N83*
X117229000Y63297000D02*
X119269000Y63297000D01*
D23*
G04 #@! TO.N,N27*
X110172500Y13970000D03*
D24*
X110172500Y13970000D02*
X108073000Y13970000D01*
X106174000Y15869000D02*
X108073000Y13970000D01*
D23*
G04 #@! TO.N,N37*
X15240000Y49530000D03*
D24*
X15240000Y49530000D02*
X12981000Y49530000D01*
X10924000Y51587000D02*
X12981000Y49530000D01*
D25*
G04 #@! TO.N,N18*
X124849000Y38260000D02*
X124849000Y40725000D01*
G04 #@! TO.N,N79*
X117229000Y50597000D02*
X119269000Y50597000D01*
D23*
G04 #@! TO.N,GND*
X131000000Y21000000D03*
D25*
X131000000Y21000000D02*
X130000000Y22000000D01*
X128500000Y22000000D02*
X130000000Y22000000D01*
D23*
G04 #@! TO.N,C0*
X8890000Y56515000D03*
X6042000Y6678000D03*
X128250000Y49250000D03*
X121750000Y49250000D03*
X8890000Y18415000D03*
X8890000Y37465000D03*
D24*
X11849000Y41407000D02*
X11849000Y40424000D01*
X11849000Y21374000D02*
X11849000Y21488500D01*
X11849000Y3307000D02*
X11849000Y5296000D01*
X8890000Y56515000D02*
X11849000Y59474000D01*
X6042000Y6678000D02*
X10477500Y6667500D01*
X8890000Y18415000D02*
X11849000Y21374000D01*
X10477500Y6667500D02*
X11849000Y5296000D01*
X11849000Y60457000D02*
X11849000Y59474000D01*
X8890000Y37465000D02*
X11849000Y40424000D01*
X13017500Y20320000D02*
X11849000Y21488500D01*
X11849000Y22357000D02*
X11849000Y21488500D01*
D25*
G04 #@! TO.N,N106*
X127389000Y40725000D02*
X127389000Y38260000D01*
D23*
G04 #@! TO.N,N31*
X53022500Y35560000D03*
D24*
X49024000Y37300000D02*
X50764000Y35560000D01*
X53022500Y35560000D02*
X50764000Y35560000D01*
D23*
G04 #@! TO.N,MOSI*
X127937500Y63250000D03*
X124750000Y63250000D03*
X129937500Y35875000D03*
D24*
X125312500Y45000000D02*
X125312500Y62687500D01*
X119769000Y37260000D02*
X120447500Y37260000D01*
X120269000Y63297000D02*
X120316000Y63250000D01*
X121875000Y42687500D02*
X121062500Y41875000D01*
X124750000Y63250000D02*
X125312500Y62687500D01*
X125312500Y45000000D02*
X123000000Y42687500D01*
X128375000Y34312500D02*
X122062500Y34312500D01*
X124750000Y63250000D02*
X120316000Y63250000D01*
X129937500Y35875000D02*
X128375000Y34312500D01*
X122062500Y34312500D02*
X119769000Y36606000D01*
X120447500Y37260000D02*
X121062500Y37875000D01*
X119769000Y37260000D02*
X119769000Y36606000D01*
X121875000Y42687500D02*
X123000000Y42687500D01*
X121062500Y41875000D02*
X121062500Y37875000D01*
D23*
G04 #@! TO.N,N11*
X119062500Y30812500D03*
X123125000Y66000000D03*
X122312500Y69437500D03*
D24*
X119062500Y30812500D02*
X121625000Y28250000D01*
X122775000Y28250000D02*
X121625000Y28250000D01*
X122775000Y28250000D02*
X127225000Y28250000D01*
D23*
G04 #@! TO.N,N55*
X57785000Y55245000D03*
D24*
X57785000Y55245000D02*
X57124000Y54584000D01*
X57124000Y50701000D02*
X57124000Y54584000D01*
D23*
G04 #@! TO.N,N102*
X124750000Y74500000D03*
X128000000Y74500000D03*
D25*
X112250000Y70750000D02*
X112250000Y73000000D01*
X123750000Y75500000D02*
X114750000Y75500000D01*
X102049000Y74628000D02*
X102872000Y74628000D01*
X112250000Y70750000D02*
X111000000Y69500000D01*
X107500000Y69500000D02*
X111000000Y69500000D01*
X114750000Y75500000D02*
X112250000Y73000000D01*
X104500000Y73000000D02*
X104500000Y72500000D01*
X129429000Y73457000D02*
X129043000Y73457000D01*
X107500000Y69500000D02*
X104500000Y72500000D01*
X102872000Y74628000D02*
X104500000Y73000000D01*
X124750000Y74500000D02*
X123750000Y75500000D01*
X128000000Y74500000D02*
X129043000Y73457000D01*
D23*
G04 #@! TO.N,N65*
X78422500Y53975000D03*
D24*
X78422500Y53975000D02*
X76174000Y51726500D01*
X76174000Y48320000D02*
X76174000Y51726500D01*
D23*
G04 #@! TO.N,GND*
X126657000Y35841000D03*
D25*
X126657000Y35841000D02*
X126657000Y36528000D01*
X127389000Y37260000D02*
X126657000Y36528000D01*
D23*
G04 #@! TO.N,N57*
X116522500Y11430000D03*
D24*
X114274000Y5457000D02*
X114274000Y9181500D01*
X116522500Y11430000D02*
X114274000Y9181500D01*
D23*
G04 #@! TO.N,N25*
X39687500Y53340000D03*
D24*
X39687500Y53340000D02*
X38074000Y51726500D01*
X38074000Y48320000D02*
X38074000Y51726500D01*
D23*
G04 #@! TO.N,N44*
X22225000Y49530000D03*
D24*
X22225000Y49530000D02*
X19024000Y46329000D01*
X19024000Y43557000D02*
X19024000Y46329000D01*
D23*
G04 #@! TO.N,N41*
X91122500Y54292500D03*
D24*
X91122500Y54292500D02*
X89181500Y54292500D01*
X87124000Y56350000D02*
X89181500Y54292500D01*
D25*
G04 #@! TO.N,N76*
X129929000Y40725000D02*
X129929000Y38260000D01*
D23*
G04 #@! TO.N,GND*
X128270000Y66040000D03*
D25*
G04 #@! TO.N,N101*
X132469000Y70917000D02*
X130429000Y70917000D01*
D23*
G04 #@! TO.N,R3*
X51752500Y20320000D03*
X121750000Y46750000D03*
X89535000Y20002500D03*
X33020000Y15240000D03*
X123190000Y15240000D03*
X108585000Y17462500D03*
X70485000Y22225000D03*
X128250000Y46750000D03*
X13335000Y15240000D03*
D24*
X121750000Y46750000D02*
X122625000Y45875000D01*
X83374000Y18250000D02*
X85126500Y20002500D01*
X51752500Y20320000D02*
X47344000Y20320000D01*
X70485000Y22225000D02*
X65918000Y22225000D01*
X13335000Y15240000D02*
X24471000Y15240000D01*
X121474000Y13487000D02*
X120038500Y14922500D01*
X112187500Y43750000D02*
X112187500Y23437500D01*
X108585000Y17462500D02*
X110490000Y17462500D01*
X112625000Y44187500D02*
X122250000Y44187500D01*
X27940000Y15240000D02*
X26205500Y13505500D01*
X34290000Y15240000D02*
X35242500Y16192500D01*
X75247500Y19685000D02*
X81939000Y19685000D01*
X26224000Y13487000D02*
X26205500Y13505500D01*
X45274000Y18250000D02*
X43216500Y16192500D01*
X64324000Y20631000D02*
X65918000Y22225000D01*
X53657500Y20320000D02*
X55245000Y18732500D01*
X102424000Y15869000D02*
X102326500Y15966500D01*
X110490000Y17462500D02*
X113030000Y14922500D01*
X64324000Y20631000D02*
X62425500Y18732500D01*
X33020000Y15240000D02*
X27940000Y15240000D01*
X7174000Y13487000D02*
X8927000Y15240000D01*
X89535000Y20002500D02*
X85126500Y20002500D01*
X33020000Y15240000D02*
X34290000Y15240000D01*
X83374000Y18250000D02*
X81939000Y19685000D01*
X113030000Y14922500D02*
X120038500Y14922500D01*
X110490000Y17462500D02*
X110490000Y21740000D01*
X121474000Y13487000D02*
X123190000Y15203000D01*
X51752500Y20320000D02*
X53657500Y20320000D01*
X45274000Y18250000D02*
X47344000Y20320000D01*
X123190000Y15240000D02*
X123190000Y15203000D01*
X26205500Y13505500D02*
X24471000Y15240000D01*
X122625000Y44562500D02*
X122250000Y44187500D01*
X55245000Y18732500D02*
X62425500Y18732500D01*
X75247500Y19685000D02*
X72707500Y22225000D01*
X112187500Y23437500D02*
X110490000Y21740000D01*
X128250000Y46750000D02*
X129429000Y45571000D01*
X129429000Y45517000D02*
X129429000Y45571000D01*
X13335000Y15240000D02*
X8927000Y15240000D01*
X102326500Y15966500D02*
X101148000Y17145000D01*
X93980000Y17145000D02*
X91122500Y20002500D01*
X101148000Y17145000D02*
X93980000Y17145000D01*
X102326500Y15966500D02*
X103822500Y17462500D01*
X112187500Y43750000D02*
X112625000Y44187500D01*
X70485000Y22225000D02*
X72707500Y22225000D01*
X43216500Y16192500D02*
X35242500Y16192500D01*
X122625000Y44562500D02*
X122625000Y45875000D01*
X108585000Y17462500D02*
X103822500Y17462500D01*
X89535000Y20002500D02*
X91122500Y20002500D01*
D23*
G04 #@! TO.N,N74*
X102500000Y70500000D03*
X100500000Y73250000D03*
G04 #@! TO.N,N50*
X72072500Y56832500D03*
D24*
X72072500Y56832500D02*
X69972500Y56832500D01*
X68074000Y58731000D02*
X69972500Y56832500D01*
D23*
G04 #@! TO.N,N60*
X97155000Y13970000D03*
D24*
X95224000Y7839000D02*
X95224000Y12039000D01*
X97155000Y13970000D02*
X95224000Y12039000D01*
D23*
G04 #@! TO.N,N69*
X72072500Y18732500D03*
D24*
X68074000Y20631000D02*
X69972500Y18732500D01*
X72072500Y18732500D02*
X69972500Y18732500D01*
D23*
G04 #@! TO.N,N107*
X120937500Y20750000D03*
D24*
X134062500Y66187500D02*
X133125000Y67125000D01*
X130250000Y67125000D02*
X129429000Y67946000D01*
X134062500Y66187500D02*
X134062500Y19500000D01*
X132437500Y17875000D02*
X134062500Y19500000D01*
X129429000Y68377000D02*
X129429000Y67946000D01*
X124937500Y19437500D02*
X126500000Y17875000D01*
X132437500Y17875000D02*
X126500000Y17875000D01*
X130250000Y67125000D02*
X133125000Y67125000D01*
X124937500Y19437500D02*
X122250000Y19437500D01*
X120937500Y20750000D02*
X122250000Y19437500D01*
D23*
G04 #@! TO.N,N38*
X14922500Y68580000D03*
D24*
X14922500Y68580000D02*
X12981000Y68580000D01*
X10924000Y70637000D02*
X12981000Y68580000D01*
D23*
G04 #@! TO.N,N58*
X15240000Y30797500D03*
D24*
X15240000Y30797500D02*
X12663500Y30797500D01*
X10924000Y32537000D02*
X12663500Y30797500D01*
D25*
G04 #@! TO.N,N15*
X132469000Y65837000D02*
X130429000Y65837000D01*
G04 #@! TO.N,N86*
X119769000Y40725000D02*
X119769000Y38260000D01*
D23*
G04 #@! TO.N,C3*
X121750000Y54500000D03*
X128000000Y54500000D03*
X66040000Y44450000D03*
X66040000Y25400000D03*
X66040000Y63500000D03*
X63182500Y13970000D03*
D24*
X70274000Y10401000D02*
X66705000Y13970000D01*
X63182500Y13970000D02*
X66705000Y13970000D01*
X128000000Y54500000D02*
X128066000Y54500000D01*
X70274000Y48501000D02*
X70091000Y48501000D01*
X70274000Y67551000D02*
X70091000Y67551000D01*
X70274000Y29451000D02*
X70091000Y29451000D01*
X129429000Y53137000D02*
X129363000Y53137000D01*
X128000000Y54500000D02*
X129363000Y53137000D01*
X66040000Y63500000D02*
X70091000Y67551000D01*
X66040000Y44450000D02*
X70091000Y48501000D01*
X66040000Y25400000D02*
X70091000Y29451000D01*
D23*
G04 #@! TO.N,C5*
X104140000Y58737500D03*
X121750000Y62000000D03*
X104140000Y20637500D03*
X101600000Y8890000D03*
X128250000Y62000000D03*
X104457500Y39370000D03*
D24*
X108374000Y5639000D02*
X105123000Y8890000D01*
X108374000Y62789000D02*
X108191500Y62789000D01*
X108374000Y24689000D02*
X108191500Y24689000D01*
X129429000Y60757000D02*
X129429000Y60821000D01*
X104140000Y58737500D02*
X108191500Y62789000D01*
X108374000Y43739000D02*
X108374000Y43286500D01*
X104140000Y20637500D02*
X108191500Y24689000D01*
X101600000Y8890000D02*
X105123000Y8890000D01*
X104457500Y39370000D02*
X108374000Y43286500D01*
X128250000Y62000000D02*
X129429000Y60821000D01*
D23*
G04 #@! TO.N,C4*
X84772500Y23495000D03*
X85090000Y42227500D03*
X128250000Y59500000D03*
X82232500Y11430000D03*
X121750000Y59500000D03*
X85090000Y61277500D03*
D24*
X89324000Y8020000D02*
X85914000Y11430000D01*
X82232500Y11430000D02*
X85914000Y11430000D01*
X89324000Y46120000D02*
X88982500Y46120000D01*
X84772500Y23495000D02*
X88347500Y27070000D01*
X85090000Y61277500D02*
X88982500Y65170000D01*
X85090000Y42227500D02*
X88982500Y46120000D01*
X89324000Y65170000D02*
X88982500Y65170000D01*
X89324000Y27070000D02*
X88347500Y27070000D01*
D23*
G04 #@! TO.N,C1*
X27940000Y56515000D03*
X121750000Y57000000D03*
X27940000Y18415000D03*
X27940000Y37465000D03*
X128000000Y57000000D03*
X25082500Y6985000D03*
D24*
X27940000Y56515000D02*
X31832000Y60407000D01*
X32174000Y3257000D02*
X28446000Y6985000D01*
X32174000Y41357000D02*
X31832000Y41357000D01*
X25082500Y6985000D02*
X28446000Y6985000D01*
X27940000Y37465000D02*
X31832000Y41357000D01*
X27940000Y18415000D02*
X31832000Y22307000D01*
X32174000Y22307000D02*
X31832000Y22307000D01*
X32174000Y60407000D02*
X31832000Y60407000D01*
D23*
G04 #@! TO.N,N28*
X130500000Y11625000D03*
D24*
X125224000Y13487000D02*
X127086000Y11625000D01*
X130500000Y11625000D02*
X127086000Y11625000D01*
D23*
G04 #@! TO.N,C6*
X121750000Y64500000D03*
G04 #@! TO.N,N45*
X78105000Y34925000D03*
D24*
X76174000Y29270000D02*
X76174000Y32994000D01*
X78105000Y34925000D02*
X76174000Y32994000D01*
D26*
G04 #@! TO.N,N/C*
X94774000Y60404000D03*
D23*
G04 #@! TO.N,N35*
X21907500Y68580000D03*
D24*
X19024000Y62607000D02*
X19024000Y65696500D01*
X21907500Y68580000D02*
X19024000Y65696500D01*
D25*
G04 #@! TO.N,N12*
X122309000Y38260000D02*
X122309000Y40725000D01*
D23*
G04 #@! TO.N,N43*
X33972500Y11747500D03*
D24*
X33972500Y11747500D02*
X31713500Y11747500D01*
X29974000Y13487000D02*
X31713500Y11747500D01*
D25*
G04 #@! TO.N,N10*
X130429000Y58217000D02*
X132469000Y58217000D01*
D23*
G04 #@! TO.N,N59*
X53022500Y16510000D03*
D24*
X53022500Y16510000D02*
X50764000Y16510000D01*
X49024000Y18250000D02*
X50764000Y16510000D01*
D23*
G04 #@! TO.N,N71*
X58102500Y17462500D03*
D24*
X57124000Y12601000D02*
X57124000Y16484000D01*
X58102500Y17462500D02*
X57124000Y16484000D01*
D23*
G04 #@! TO.N,N52*
X39370000Y72390000D03*
D24*
X38074000Y67370000D02*
X38074000Y71094000D01*
X39370000Y72390000D02*
X38074000Y71094000D01*
D25*
G04 #@! TO.N,N97*
X132469000Y48057000D02*
X130429000Y48057000D01*
D23*
G04 #@! TO.N,GND*
X121285000Y71120000D03*
X121285000Y68580000D03*
D25*
X121285000Y68580000D02*
X120472000Y68580000D01*
X120269000Y68377000D02*
X120472000Y68580000D01*
D23*
G04 #@! TO.N,N24*
X78422500Y73025000D03*
D24*
X78422500Y73025000D02*
X76174000Y70776500D01*
X76174000Y67370000D02*
X76174000Y70776500D01*
D23*
G04 #@! TO.N,N32*
X34290000Y49530000D03*
D24*
X34290000Y49530000D02*
X32031000Y49530000D01*
X29974000Y51587000D02*
X32031000Y49530000D01*
G04 #@! TO.N,C0*
X129429000Y48057000D02*
X128250000Y49236000D01*
X128250000Y49236000D02*
X128250000Y49250000D01*
D25*
G04 #@! TO.N,N19*
X130429000Y53137000D02*
X132469000Y53137000D01*
G04 #@! TO.N,N101*
X117229000Y68377000D02*
X119269000Y68377000D01*
D23*
G04 #@! TO.N,N70*
X39052500Y33337500D03*
D24*
X39052500Y33337500D02*
X38074000Y32359000D01*
X38074000Y29270000D02*
X38074000Y32359000D01*
D26*
G04 #@! TO.N,N/C*
X114141000Y19765000D03*
D23*
G04 #@! TO.N,N34*
X3492500Y11430000D03*
D24*
X1249000Y5507000D02*
X1249000Y9186500D01*
X3492500Y11430000D02*
X1249000Y9186500D01*
D23*
G04 #@! TO.N,N39*
X72072500Y75882500D03*
D24*
X68074000Y77781000D02*
X69972500Y75882500D01*
X72072500Y75882500D02*
X69972500Y75882500D01*
D23*
G04 #@! TO.N,N40*
X91440000Y35242500D03*
D24*
X91440000Y35242500D02*
X89181500Y35242500D01*
X87124000Y37300000D02*
X89181500Y35242500D01*
D23*
G04 #@! TO.N,VCC*
X121250000Y67000000D03*
X128250000Y67000000D03*
X124750000Y35750000D03*
D25*
X128250000Y67000000D02*
X129250000Y67000000D01*
X129429000Y65837000D02*
X129429000Y66821000D01*
D24*
X124750000Y35750000D02*
X124750000Y37161000D01*
D25*
X129250000Y67000000D02*
X129429000Y66821000D01*
D24*
X124849000Y37260000D02*
X124750000Y37161000D01*
D25*
G04 #@! TO.N,N7*
X132469000Y68377000D02*
X130429000Y68377000D01*
D23*
G04 #@! TO.N,N26*
X15557500Y11747500D03*
D24*
X15557500Y11747500D02*
X12663500Y11747500D01*
X10924000Y13487000D02*
X12663500Y11747500D01*
D23*
G04 #@! TO.N,R0*
X104140000Y71362500D03*
X13652500Y72390000D03*
X70485000Y79692500D03*
X128250000Y50500000D03*
X89852500Y77470000D03*
X33020000Y73342500D03*
X51752500Y77152500D03*
X121750000Y50500000D03*
D24*
X120269000Y50597000D02*
X120269000Y51293500D01*
X24471000Y72390000D02*
X26205500Y70655500D01*
X120269000Y50597000D02*
X120366000Y50500000D01*
X45274000Y75400000D02*
X47026500Y77152500D01*
X83374000Y75400000D02*
X83355750Y75418250D01*
X7174000Y70637000D02*
X8927000Y72390000D01*
X99878000Y75565000D02*
X95885000Y75565000D01*
X59372500Y75565000D02*
X57785000Y77152500D01*
X13652500Y72390000D02*
X24471000Y72390000D01*
X121750000Y50500000D02*
X120366000Y50500000D01*
X72707500Y79692500D02*
X74930000Y77470000D01*
X13652500Y72390000D02*
X8927000Y72390000D01*
X51752500Y77152500D02*
X47026500Y77152500D01*
X89852500Y77470000D02*
X85407500Y77470000D01*
X83355750Y75418250D02*
X85407500Y77470000D01*
X64324000Y77781000D02*
X62108000Y75565000D01*
X33020000Y73342500D02*
X28892500Y73342500D01*
X104140000Y71362500D02*
X104575000Y71362500D01*
X116312500Y51750000D02*
X115625000Y52437500D01*
X116312500Y51750000D02*
X119812500Y51750000D01*
X102424000Y73019000D02*
X104140000Y71362500D01*
X51752500Y77152500D02*
X57785000Y77152500D01*
X95885000Y75565000D02*
X93980000Y77470000D01*
X111437500Y66937500D02*
X115625000Y62750000D01*
X104575000Y71362500D02*
X109000000Y66937500D01*
X26224000Y70637000D02*
X26205500Y70655500D01*
X70485000Y79692500D02*
X66235500Y79692500D01*
X81304000Y77470000D02*
X83355750Y75418250D01*
X111437500Y66937500D02*
X109000000Y66937500D01*
X59372500Y75565000D02*
X62108000Y75565000D01*
X33020000Y73342500D02*
X43216500Y73342500D01*
X89852500Y77470000D02*
X93980000Y77470000D01*
X45274000Y75400000D02*
X43216500Y73342500D01*
X102424000Y73019000D02*
X99878000Y75565000D01*
X70485000Y79692500D02*
X72707500Y79692500D01*
X81304000Y77470000D02*
X74930000Y77470000D01*
X120269000Y51293500D02*
X119812500Y51750000D01*
X64324000Y77781000D02*
X66235500Y79692500D01*
X115625000Y52437500D02*
X115625000Y62750000D01*
X28892500Y73342500D02*
X26205500Y70655500D01*
D23*
G04 #@! TO.N,N29*
X77787500Y15875000D03*
D24*
X77787500Y15875000D02*
X76174000Y14261500D01*
X76174000Y10220000D02*
X76174000Y14261500D01*
D23*
G04 #@! TO.N,N42*
X110172500Y33020000D03*
D24*
X106174000Y34919000D02*
X108073000Y33020000D01*
X110172500Y33020000D02*
X108073000Y33020000D01*
D25*
G04 #@! TO.N,N95*
X132469000Y63297000D02*
X130429000Y63297000D01*
G04 --- BOARD END --- *
G04 #@! TF.MD5,80b0d56332ca5ead029f6f6bd6ef5523*
M02*
