G04 --- HEADER BEGIN --- *
G04 #@! TF.GenerationSoftware,LibrePCB,LibrePCB,2.1.2-unstable*
G04 #@! TF.CreationDate,2026-09-09T17:25:34*
G04 #@! TF.ProjectId,kbdkid4,063e517a-3ded-4943-b2aa-4f8854622f53,v1*
G04 #@! TF.Part,Single*
G04 #@! TF.SameCoordinates*
G04 #@! TF.FileFunction,Copper,L1,Top*
G04 #@! TF.FilePolarity,Positive*
%FSLAX66Y66*%
%MOMM*%
G01*
G75*
G04 --- HEADER END --- *
G04 --- APERTURE LIST BEGIN --- *
G04 #@! TA.AperFunction,SMDPad,CuDef*
%ADD10R,3.6X2.6*%
%ADD11R,1.5X0.95*%
G04 #@! TA.AperFunction,ComponentPad*
%ADD12O,1.587X2.19*%
%ADD13R,1.587X2.19*%
%ADD14O,2.19X1.587*%
G04 #@! TA.AperFunction,TestPad*
%ADD15R,0.8X1.0*%
G04 #@! TA.AperFunction,ComponentPad*
%AMROTATEDOBROUND16*1,1,1.2,0.043301,-0.025*1,1,1.2,-0.043301,0.025*20,1,1.2,0.043301,-0.025,-0.043301,0.025,0*%
%ADD16ROTATEDOBROUND16*%
%AMROTATEDRECT17*20,1,1.2,-0.65,0.0,0.65,0.0,150.0*%
%ADD17ROTATEDRECT17*%
G04 #@! TA.AperFunction,TestPad*
%ADD18R,1.0X0.8*%
G04 #@! TA.AperFunction,SMDPad,CuDef*
%ADD19R,1.6X2.2*%
%AMROUNDEDRECT20*20,1,0.7,-0.445,0.0,0.445,0.0,90.0*20,1,0.49,-0.55,0.0,0.55,0.0,90.0*1,1,0.21,-0.245,-0.445*1,1,0.21,-0.245,0.445*1,1,0.21,0.245,0.445*1,1,0.21,0.245,-0.445*%
%ADD20ROUNDEDRECT20*%
%ADD21R,0.7X1.5*%
%ADD22R,1.0X0.8*%
G04 #@! TA.AperFunction,Conductor*
%ADD23C,0.5*%
G04 #@! TA.AperFunction,ViaPad*
%ADD24C,0.7*%
G04 #@! TA.AperFunction,Conductor*
%ADD25C,0.3*%
G04 #@! TA.AperFunction,ComponentPad*
%ADD26C,3.7*%
G04 #@! TD*
G04 --- APERTURE LIST END --- *
G04 --- BOARD BEGIN --- *
D10*
G04 #@! TO.N,N32*
G04 #@! TO.C,S251*
G04 #@! TO.P,S251,1,1*
X37174000Y43557000D03*
G04 #@! TO.N,C1*
G04 #@! TO.P,S251,2,2*
X24024000Y41357000D03*
D11*
G04 #@! TO.N,N61*
G04 #@! TO.C,D132*
G04 #@! TO.P,D132,A,A*
X64324000Y39681000D03*
G04 #@! TO.N,R2*
G04 #@! TO.P,D132,C,C*
X68074000Y39681000D03*
D10*
G04 #@! TO.N,N53*
G04 #@! TO.C,S240*
G04 #@! TO.P,S240,1,1*
X56224000Y67370000D03*
G04 #@! TO.N,C2*
G04 #@! TO.P,S240,2,2*
X43074000Y65170000D03*
D12*
G04 #@! TO.N,N3*
G04 #@! TO.C,DS2*
G04 #@! TO.P,DS2,VCC,VCC*
X124849000Y40725000D03*
G04 #@! TO.N,N82*
G04 #@! TO.P,DS2,GND,GND*
X122309000Y40725000D03*
G04 #@! TO.N,N89*
G04 #@! TO.P,DS2,CS,CS*
X119769000Y40725000D03*
G04 #@! TO.N,N78*
G04 #@! TO.P,DS2,SCK,SCK*
X127389000Y40725000D03*
D13*
G04 #@! TO.N,N75*
G04 #@! TO.P,DS2,MOSI,MOSI*
X129929000Y40725000D03*
D14*
G04 #@! TO.N,N95*
G04 #@! TO.C,U1*
G04 #@! TO.P,U1,031,D21/P031*
X132469000Y63297000D03*
G04 #@! TO.N,N21*
G04 #@! TO.P,U1,115,D18/P115*
X132469000Y55677000D03*
G04 #@! TO.N,N17*
G04 #@! TO.P,U1,020,D3/P020*
X117229000Y60757000D03*
G04 #@! TO.N,N/C*
G04 #@! TO.P,U1,100,D6/P100*
X117229000Y53137000D03*
G04 #@! TO.N,N6*
G04 #@! TO.P,U1,104,D8/P104*
X117229000Y48057000D03*
G04 #@! TO.N,N2*
G04 #@! TO.P,U1,VBAT,VBAT*
X132469000Y73457000D03*
G04 #@! TO.N,N92*
G04 #@! TO.P,U1,111,D14/P111*
X132469000Y50597000D03*
G04 #@! TO.N,N99*
G04 #@! TO.P,U1,006,D1/P006/TXD*
X117229000Y73457000D03*
G04 #@! TO.N,N/C*
G04 #@! TO.P,U1,008,D0/P008/RXD*
X117229000Y70917000D03*
G04 #@! TO.N,N7*
G04 #@! TO.P,U1,RESET,RESET*
X132469000Y68377000D03*
G04 #@! TO.N,N/C*
G04 #@! TO.P,U1,022,D4/P022*
X117229000Y58217000D03*
G04 #@! TO.N,N79*
G04 #@! TO.P,U1,011,D7/P011*
X117229000Y50597000D03*
G04 #@! TO.N,N97*
G04 #@! TO.P,U1,010,D16/P010*
X132469000Y48057000D03*
G04 #@! TO.N,N101*
G04 #@! TO.P,U1,GND_3,GND*
X117229000Y68377000D03*
G04 #@! TO.N,N/C*
G04 #@! TO.P,U1,024,D5/P024*
X117229000Y55677000D03*
G04 #@! TO.N,N83*
G04 #@! TO.P,U1,017,D2/P017*
X117229000Y63297000D03*
G04 #@! TO.N,N4*
G04 #@! TO.P,U1,029,D20/P029*
X132469000Y60757000D03*
G04 #@! TO.N,N10*
G04 #@! TO.P,U1,002,D19/P002*
X132469000Y58217000D03*
G04 #@! TO.N,N13*
G04 #@! TO.P,U1,106,D9/P106*
X117229000Y45517000D03*
G04 #@! TO.N,N15*
G04 #@! TO.P,U1,EXT_VCC,EXT_VCC*
X132469000Y65837000D03*
G04 #@! TO.N,N101*
G04 #@! TO.P,U1,GND_1,GND*
X132469000Y70917000D03*
G04 #@! TO.N,N77*
G04 #@! TO.P,U1,009,D10/P009*
X132469000Y45517000D03*
G04 #@! TO.N,N19*
G04 #@! TO.P,U1,113,D15/P113*
X132469000Y53137000D03*
G04 #@! TO.N,N101*
G04 #@! TO.P,U1,GND_2,GND*
X117229000Y65837000D03*
D11*
G04 #@! TO.N,N71*
G04 #@! TO.C,D133*
G04 #@! TO.P,D133,A,A*
X64324000Y20631000D03*
G04 #@! TO.N,R3*
G04 #@! TO.P,D133,C,C*
X68074000Y20631000D03*
D10*
G04 #@! TO.N,N68*
G04 #@! TO.C,S241*
G04 #@! TO.P,S241,1,1*
X56224000Y48320000D03*
G04 #@! TO.N,C2*
G04 #@! TO.P,S241,2,2*
X43074000Y46120000D03*
D11*
G04 #@! TO.N,N67*
G04 #@! TO.C,D113*
G04 #@! TO.P,D113,A,A*
X26224000Y13487000D03*
G04 #@! TO.N,R3*
G04 #@! TO.P,D113,C,C*
X29974000Y13487000D03*
D15*
G04 #@! TO.N,N1*
G04 #@! TO.C,JP40*
G04 #@! TO.P,JP40,1,1*
X119269000Y68377000D03*
G04 #@! TO.N,N11*
G04 #@! TO.P,JP40,2,2*
X120269000Y68377000D03*
D11*
G04 #@! TO.N,N57*
G04 #@! TO.C,D163*
G04 #@! TO.P,D163,A,A*
X121474000Y13487000D03*
G04 #@! TO.N,R3*
G04 #@! TO.P,D163,C,C*
X125224000Y13487000D03*
D15*
G04 #@! TO.N,N100*
G04 #@! TO.C,JP36*
G04 #@! TO.P,JP36,1,1*
X130429000Y60757000D03*
G04 #@! TO.N,SCK*
G04 #@! TO.P,JP36,2,2*
X129429000Y60757000D03*
D11*
G04 #@! TO.N,N30*
G04 #@! TO.C,D100*
G04 #@! TO.P,D100,A,A*
X7174000Y70637000D03*
G04 #@! TO.N,R0*
G04 #@! TO.P,D100,C,C*
X10924000Y70637000D03*
G04 #@! TO.N,N52*
G04 #@! TO.C,D120*
G04 #@! TO.P,D120,A,A*
X45274000Y75400000D03*
G04 #@! TO.N,R0*
G04 #@! TO.P,D120,C,C*
X49024000Y75400000D03*
D15*
G04 #@! TO.N,N96*
G04 #@! TO.C,JP25*
G04 #@! TO.P,JP25,1,1*
X130429000Y48057000D03*
G04 #@! TO.N,R1*
G04 #@! TO.P,JP25,2,2*
X129429000Y48057000D03*
D10*
G04 #@! TO.N,N40*
G04 #@! TO.C,S222*
G04 #@! TO.P,S222,1,1*
X94324000Y29270000D03*
G04 #@! TO.N,C4*
G04 #@! TO.P,S222,2,2*
X81174000Y27070000D03*
D11*
G04 #@! TO.N,N29*
G04 #@! TO.C,D143*
G04 #@! TO.P,D143,A,A*
X83374000Y18250000D03*
G04 #@! TO.N,R3*
G04 #@! TO.P,D143,C,C*
X87124000Y18250000D03*
G04 #@! TO.N,N45*
G04 #@! TO.C,D142*
G04 #@! TO.P,D142,A,A*
X83374000Y37300000D03*
G04 #@! TO.N,R2*
G04 #@! TO.P,D142,C,C*
X87124000Y37300000D03*
D15*
G04 #@! TO.N,N88*
G04 #@! TO.C,JP31*
G04 #@! TO.P,JP31,1,1*
X130429000Y45517000D03*
G04 #@! TO.N,R2*
G04 #@! TO.P,JP31,2,2*
X129429000Y45517000D03*
D11*
G04 #@! TO.N,N24*
G04 #@! TO.C,D140*
G04 #@! TO.P,D140,A,A*
X83374000Y75400000D03*
G04 #@! TO.N,R0*
G04 #@! TO.P,D140,C,C*
X87124000Y75400000D03*
G04 #@! TO.N,N34*
G04 #@! TO.C,D103*
G04 #@! TO.P,D103,A,A*
X7174000Y13487000D03*
G04 #@! TO.N,R3*
G04 #@! TO.P,D103,C,C*
X10924000Y13487000D03*
D15*
G04 #@! TO.N,N81*
G04 #@! TO.C,JP44*
G04 #@! TO.P,JP44,1,1*
X119269000Y73457000D03*
G04 #@! TO.N,N74*
G04 #@! TO.P,JP44,2,2*
X120269000Y73457000D03*
D16*
G04 #@! TO.N,N104*
G04 #@! TO.C,J1*
G04 #@! TO.P,J1,2,2*
X123905762Y22831025D03*
D17*
G04 #@! TO.N,N105*
G04 #@! TO.P,J1,1,1*
X122905762Y21098975D03*
D15*
G04 #@! TO.N,N80*
G04 #@! TO.C,JP29*
G04 #@! TO.P,JP29,1,1*
X119269000Y58217000D03*
G04 #@! TO.N,C4*
G04 #@! TO.P,JP29,2,2*
X120269000Y58217000D03*
D10*
G04 #@! TO.N,N64*
G04 #@! TO.C,S211*
G04 #@! TO.P,S211,1,1*
X113374000Y45939000D03*
G04 #@! TO.N,C5*
G04 #@! TO.P,S211,2,2*
X100224000Y43739000D03*
G04 #@! TO.N,N26*
G04 #@! TO.C,S263*
G04 #@! TO.P,S263,1,1*
X18124000Y5457000D03*
G04 #@! TO.N,C0*
G04 #@! TO.P,S263,2,2*
X4974000Y3257000D03*
D15*
G04 #@! TO.N,N14*
G04 #@! TO.C,JP50*
G04 #@! TO.P,JP50,1,1*
X127500000Y20000000D03*
G04 #@! TO.N,GND*
G04 #@! TO.P,JP50,2,2*
X128500000Y20000000D03*
D18*
G04 #@! TO.N,N89*
G04 #@! TO.C,JP41*
G04 #@! TO.P,JP41,1,1*
X119769000Y38260000D03*
G04 #@! TO.N,CS*
G04 #@! TO.P,JP41,2,2*
X119769000Y37260000D03*
D11*
G04 #@! TO.N,N25*
G04 #@! TO.C,D121*
G04 #@! TO.P,D121,A,A*
X45274000Y56350000D03*
G04 #@! TO.N,R1*
G04 #@! TO.P,D121,C,C*
X49024000Y56350000D03*
D15*
G04 #@! TO.N,N103*
G04 #@! TO.C,JP46*
G04 #@! TO.P,JP46,1,1*
X130429000Y63297000D03*
G04 #@! TO.N,MOSI*
G04 #@! TO.P,JP46,2,2*
X129429000Y63297000D03*
D11*
G04 #@! TO.N,N44*
G04 #@! TO.C,D111*
G04 #@! TO.P,D111,A,A*
X26224000Y51587000D03*
G04 #@! TO.N,R1*
G04 #@! TO.P,D111,C,C*
X29974000Y51587000D03*
D19*
G04 #@! TO.N,N43*
G04 #@! TO.C,S253*
G04 #@! TO.P,S253,1,1*
X35899000Y5507000D03*
G04 #@! TO.N,C1*
G04 #@! TO.P,S253,2,2*
X25299000Y3307000D03*
D15*
G04 #@! TO.N,N16*
G04 #@! TO.C,JP26*
G04 #@! TO.P,JP26,1,1*
X119269000Y63297000D03*
G04 #@! TO.N,C6*
G04 #@! TO.P,JP26,2,2*
X120269000Y63297000D03*
D10*
G04 #@! TO.N,N41*
G04 #@! TO.C,S221*
G04 #@! TO.P,S221,1,1*
X94324000Y48320000D03*
G04 #@! TO.N,C4*
G04 #@! TO.P,S221,2,2*
X81174000Y46120000D03*
D15*
G04 #@! TO.N,N85*
G04 #@! TO.C,JP38*
G04 #@! TO.P,JP38,1,1*
X130429000Y65837000D03*
G04 #@! TO.N,GND*
G04 #@! TO.P,JP38,2,2*
X129429000Y65837000D03*
G04 #@! TO.N,N23*
G04 #@! TO.C,JP39*
G04 #@! TO.P,JP39,1,1*
X130429000Y50597000D03*
G04 #@! TO.N,R0*
G04 #@! TO.P,JP39,2,2*
X129429000Y50597000D03*
D10*
G04 #@! TO.N,N69*
G04 #@! TO.C,S233*
G04 #@! TO.P,S233,1,1*
X75274000Y12601000D03*
G04 #@! TO.N,C3*
G04 #@! TO.P,S233,2,2*
X62124000Y10401000D03*
D11*
G04 #@! TO.N,N36*
G04 #@! TO.C,D151*
G04 #@! TO.P,D151,A,A*
X102424000Y53969000D03*
G04 #@! TO.N,R1*
G04 #@! TO.P,D151,C,C*
X106174000Y53969000D03*
D18*
G04 #@! TO.N,N82*
G04 #@! TO.C,JP45*
G04 #@! TO.P,JP45,1,1*
X122309000Y38260000D03*
G04 #@! TO.N,GND*
G04 #@! TO.P,JP45,2,2*
X122309000Y37260000D03*
D15*
G04 #@! TO.N,N5*
G04 #@! TO.C,JP24*
G04 #@! TO.P,JP24,1,1*
X119269000Y50597000D03*
G04 #@! TO.N,C2*
G04 #@! TO.P,JP24,2,2*
X120269000Y50597000D03*
D20*
G04 #@! TO.N,N107*
G04 #@! TO.C,S3*
G04 #@! TO.P,S3,2,2*
X127225000Y28250000D03*
G04 #@! TO.N,GND*
G04 #@! TO.P,S3,1,1*
X122775000Y31750000D03*
X127225000Y31750000D03*
G04 #@! TO.N,N107*
G04 #@! TO.P,S3,2,2*
X122775000Y28250000D03*
D11*
G04 #@! TO.N,N60*
G04 #@! TO.C,D153*
G04 #@! TO.P,D153,A,A*
X102424000Y15869000D03*
G04 #@! TO.N,R3*
G04 #@! TO.P,D153,C,C*
X106174000Y15869000D03*
D14*
G04 #@! TO.N,N16*
G04 #@! TO.C,U2*
G04 #@! TO.P,U2,031,D21/P031*
X117229000Y63297000D03*
G04 #@! TO.N,N9*
G04 #@! TO.P,U2,115,D18/P115*
X117229000Y55677000D03*
G04 #@! TO.N,N100*
G04 #@! TO.P,U2,020,D3/P020*
X132469000Y60757000D03*
G04 #@! TO.N,N/C*
G04 #@! TO.P,U2,100,D6/P100*
X132469000Y53137000D03*
G04 #@! TO.N,N96*
G04 #@! TO.P,U2,104,D8/P104*
X132469000Y48057000D03*
G04 #@! TO.N,N81*
G04 #@! TO.P,U2,VBAT,VBAT*
X117229000Y73457000D03*
G04 #@! TO.N,N5*
G04 #@! TO.P,U2,111,D14/P111*
X117229000Y50597000D03*
G04 #@! TO.N,N93*
G04 #@! TO.P,U2,006,D1/P006/TXD*
X132469000Y73457000D03*
G04 #@! TO.N,N/C*
G04 #@! TO.P,U2,008,D0/P008/RXD*
X132469000Y70917000D03*
G04 #@! TO.N,N1*
G04 #@! TO.P,U2,RESET,RESET*
X117229000Y68377000D03*
G04 #@! TO.N,N/C*
G04 #@! TO.P,U2,022,D4/P022*
X132469000Y58217000D03*
G04 #@! TO.N,N23*
G04 #@! TO.P,U2,011,D7/P011*
X132469000Y50597000D03*
G04 #@! TO.N,N87*
G04 #@! TO.P,U2,010,D16/P010*
X117229000Y48057000D03*
G04 #@! TO.N,N85*
G04 #@! TO.P,U2,GND_3,GND*
X132469000Y68377000D03*
G04 #@! TO.N,N/C*
G04 #@! TO.P,U2,024,D5/P024*
X132469000Y55677000D03*
G04 #@! TO.N,N103*
G04 #@! TO.P,U2,017,D2/P017*
X132469000Y63297000D03*
G04 #@! TO.N,N90*
G04 #@! TO.P,U2,029,D20/P029*
X117229000Y60757000D03*
G04 #@! TO.N,N80*
G04 #@! TO.P,U2,002,D19/P002*
X117229000Y58217000D03*
G04 #@! TO.N,N88*
G04 #@! TO.P,U2,106,D9/P106*
X132469000Y45517000D03*
G04 #@! TO.N,N94*
G04 #@! TO.P,U2,EXT_VCC,EXT_VCC*
X117229000Y65837000D03*
G04 #@! TO.N,N85*
G04 #@! TO.P,U2,GND_1,GND*
X117229000Y70917000D03*
G04 #@! TO.N,N8*
G04 #@! TO.P,U2,009,D10/P009*
X117229000Y45517000D03*
G04 #@! TO.N,N98*
G04 #@! TO.P,U2,113,D15/P113*
X117229000Y53137000D03*
G04 #@! TO.N,N85*
G04 #@! TO.P,U2,GND_2,GND*
X132469000Y65837000D03*
D10*
G04 #@! TO.N,N31*
G04 #@! TO.C,S242*
G04 #@! TO.P,S242,1,1*
X56224000Y29270000D03*
G04 #@! TO.N,C2*
G04 #@! TO.P,S242,2,2*
X43074000Y27070000D03*
D11*
G04 #@! TO.N,N73*
G04 #@! TO.C,D112*
G04 #@! TO.P,D112,A,A*
X26224000Y32537000D03*
G04 #@! TO.N,R2*
G04 #@! TO.P,D112,C,C*
X29974000Y32537000D03*
D15*
G04 #@! TO.N,N9*
G04 #@! TO.C,JP32*
G04 #@! TO.P,JP32,1,1*
X119269000Y55677000D03*
G04 #@! TO.N,C1*
G04 #@! TO.P,JP32,2,2*
X120269000Y55677000D03*
G04 #@! TO.N,N90*
G04 #@! TO.C,JP34*
G04 #@! TO.P,JP34,1,1*
X119269000Y60757000D03*
G04 #@! TO.N,C5*
G04 #@! TO.P,JP34,2,2*
X120269000Y60757000D03*
D11*
G04 #@! TO.N,N70*
G04 #@! TO.C,D122*
G04 #@! TO.P,D122,A,A*
X45274000Y37300000D03*
G04 #@! TO.N,R2*
G04 #@! TO.P,D122,C,C*
X49024000Y37300000D03*
G04 #@! TO.N,N35*
G04 #@! TO.C,D110*
G04 #@! TO.P,D110,A,A*
X26224000Y70637000D03*
G04 #@! TO.N,R0*
G04 #@! TO.P,D110,C,C*
X29974000Y70637000D03*
D10*
G04 #@! TO.N,N50*
G04 #@! TO.C,S231*
G04 #@! TO.P,S231,1,1*
X75274000Y50701000D03*
G04 #@! TO.N,C3*
G04 #@! TO.P,S231,2,2*
X62124000Y48501000D03*
D15*
G04 #@! TO.N,N87*
G04 #@! TO.C,JP33*
G04 #@! TO.P,JP33,1,1*
X119269000Y48057000D03*
G04 #@! TO.N,C0*
G04 #@! TO.P,JP33,2,2*
X120269000Y48057000D03*
G04 #@! TO.N,N94*
G04 #@! TO.C,JP42*
G04 #@! TO.P,JP42,1,1*
X119269000Y65837000D03*
G04 #@! TO.N,VCC*
G04 #@! TO.P,JP42,2,2*
X120269000Y65837000D03*
D10*
G04 #@! TO.N,N56*
G04 #@! TO.C,S250*
G04 #@! TO.P,S250,1,1*
X37174000Y62607000D03*
G04 #@! TO.N,C1*
G04 #@! TO.P,S250,2,2*
X24024000Y60407000D03*
G04 #@! TO.N,N28*
G04 #@! TO.C,S203*
G04 #@! TO.P,S203,1,1*
X132424000Y5457000D03*
G04 #@! TO.N,C6*
G04 #@! TO.P,S203,2,2*
X119274000Y3257000D03*
D11*
G04 #@! TO.N,N66*
G04 #@! TO.C,D101*
G04 #@! TO.P,D101,A,A*
X7174000Y51587000D03*
G04 #@! TO.N,R1*
G04 #@! TO.P,D101,C,C*
X10924000Y51587000D03*
D15*
G04 #@! TO.N,N91*
G04 #@! TO.C,JP49*
G04 #@! TO.P,JP49,1,1*
X127500000Y22000000D03*
G04 #@! TO.N,N84*
G04 #@! TO.P,JP49,2,2*
X128500000Y22000000D03*
D11*
G04 #@! TO.N,N54*
G04 #@! TO.C,D123*
G04 #@! TO.P,D123,A,A*
X45274000Y18250000D03*
G04 #@! TO.N,R3*
G04 #@! TO.P,D123,C,C*
X49024000Y18250000D03*
D10*
G04 #@! TO.N,N72*
G04 #@! TO.C,S223*
G04 #@! TO.P,S223,1,1*
X94324000Y10220000D03*
G04 #@! TO.N,C4*
G04 #@! TO.P,S223,2,2*
X81174000Y8020000D03*
D12*
G04 #@! TO.N,N18*
G04 #@! TO.C,DS1*
G04 #@! TO.P,DS1,VCC,VCC*
X124849000Y40725000D03*
G04 #@! TO.N,N106*
G04 #@! TO.P,DS1,GND,GND*
X127389000Y40725000D03*
G04 #@! TO.N,N76*
G04 #@! TO.P,DS1,CS,CS*
X129929000Y40725000D03*
G04 #@! TO.N,N12*
G04 #@! TO.P,DS1,SCK,SCK*
X122309000Y40725000D03*
D13*
G04 #@! TO.N,N86*
G04 #@! TO.P,DS1,MOSI,MOSI*
X119769000Y40725000D03*
D11*
G04 #@! TO.N,N51*
G04 #@! TO.C,D150*
G04 #@! TO.P,D150,A,A*
X102424000Y73019000D03*
G04 #@! TO.N,R0*
G04 #@! TO.P,D150,C,C*
X106174000Y73019000D03*
D10*
G04 #@! TO.N,N42*
G04 #@! TO.C,S212*
G04 #@! TO.P,S212,1,1*
X113374000Y26889000D03*
G04 #@! TO.N,C5*
G04 #@! TO.P,S212,2,2*
X100224000Y24689000D03*
G04 #@! TO.N,N39*
G04 #@! TO.C,S230*
G04 #@! TO.P,S230,1,1*
X75274000Y69751000D03*
G04 #@! TO.N,C3*
G04 #@! TO.P,S230,2,2*
X62124000Y67551000D03*
D11*
G04 #@! TO.N,N33*
G04 #@! TO.C,D130*
G04 #@! TO.P,D130,A,A*
X64324000Y77781000D03*
G04 #@! TO.N,R0*
G04 #@! TO.P,D130,C,C*
X68074000Y77781000D03*
D15*
G04 #@! TO.N,N98*
G04 #@! TO.C,JP43*
G04 #@! TO.P,JP43,1,1*
X119269000Y53137000D03*
G04 #@! TO.N,C3*
G04 #@! TO.P,JP43,2,2*
X120269000Y53137000D03*
D10*
G04 #@! TO.N,N62*
G04 #@! TO.C,S252*
G04 #@! TO.P,S252,1,1*
X37174000Y24507000D03*
G04 #@! TO.N,C1*
G04 #@! TO.P,S252,2,2*
X24024000Y22307000D03*
D18*
G04 #@! TO.N,N78*
G04 #@! TO.C,JP28*
G04 #@! TO.P,JP28,1,1*
X127389000Y38260000D03*
G04 #@! TO.N,SCK*
G04 #@! TO.P,JP28,2,2*
X127389000Y37260000D03*
D11*
G04 #@! TO.N,N65*
G04 #@! TO.C,D141*
G04 #@! TO.P,D141,A,A*
X83374000Y56350000D03*
G04 #@! TO.N,R1*
G04 #@! TO.P,D141,C,C*
X87124000Y56350000D03*
D10*
G04 #@! TO.N,N48*
G04 #@! TO.C,S220*
G04 #@! TO.P,S220,1,1*
X94324000Y67370000D03*
G04 #@! TO.N,C4*
G04 #@! TO.P,S220,2,2*
X81174000Y65170000D03*
G04 #@! TO.N,N46*
G04 #@! TO.C,S232*
G04 #@! TO.P,S232,1,1*
X75274000Y31651000D03*
G04 #@! TO.N,C3*
G04 #@! TO.P,S232,2,2*
X62124000Y29451000D03*
G04 #@! TO.N,N37*
G04 #@! TO.C,S261*
G04 #@! TO.P,S261,1,1*
X18124000Y43557000D03*
G04 #@! TO.N,C0*
G04 #@! TO.P,S261,2,2*
X4974000Y41357000D03*
D21*
G04 #@! TO.N,N/C*
G04 #@! TO.C,S2*
G04 #@! TO.P,S2,1,B*
X106549000Y74628000D03*
G04 #@! TO.N,N84*
G04 #@! TO.P,S2,2,COM*
X103549000Y74628000D03*
D22*
G04 #@! TO.N,N/C*
G04 #@! TO.P,S2,CASE_3*
X100649000Y77478000D03*
G04 #@! TO.P,S2,CASE_2*
X107949000Y77478000D03*
G04 #@! TO.P,S2,CASE_1*
X107949000Y75278000D03*
D21*
G04 #@! TO.N,N74*
G04 #@! TO.P,S2,3,A*
X102049000Y74628000D03*
D22*
G04 #@! TO.N,N/C*
G04 #@! TO.P,S2,CASE_4*
X100649000Y75278000D03*
D15*
G04 #@! TO.N,N85*
G04 #@! TO.C,JP53*
G04 #@! TO.P,JP53,1,1*
X119269000Y70917000D03*
G04 #@! TO.N,GND*
G04 #@! TO.P,JP53,2,2*
X120269000Y70917000D03*
D18*
G04 #@! TO.N,N75*
G04 #@! TO.C,JP27*
G04 #@! TO.P,JP27,1,1*
X129929000Y38260000D03*
G04 #@! TO.N,MOSI*
G04 #@! TO.P,JP27,2,2*
X129929000Y37260000D03*
D10*
G04 #@! TO.N,N63*
G04 #@! TO.C,S210*
G04 #@! TO.P,S210,1,1*
X113374000Y64989000D03*
G04 #@! TO.N,C5*
G04 #@! TO.P,S210,2,2*
X100224000Y62789000D03*
D16*
G04 #@! TO.N,N14*
G04 #@! TO.C,J2*
G04 #@! TO.P,J2,2,2*
X122905762Y21098975D03*
D17*
G04 #@! TO.N,N91*
G04 #@! TO.P,J2,1,1*
X123905762Y22831025D03*
D11*
G04 #@! TO.N,N47*
G04 #@! TO.C,D152*
G04 #@! TO.P,D152,A,A*
X102424000Y34919000D03*
G04 #@! TO.N,R2*
G04 #@! TO.P,D152,C,C*
X106174000Y34919000D03*
G04 #@! TO.N,N49*
G04 #@! TO.C,D102*
G04 #@! TO.P,D102,A,A*
X7174000Y32537000D03*
G04 #@! TO.N,R2*
G04 #@! TO.P,D102,C,C*
X10924000Y32537000D03*
D10*
G04 #@! TO.N,N59*
G04 #@! TO.C,S243*
G04 #@! TO.P,S243,1,1*
X56224000Y10220000D03*
G04 #@! TO.N,C2*
G04 #@! TO.P,S243,2,2*
X43074000Y8020000D03*
G04 #@! TO.N,N58*
G04 #@! TO.C,S262*
G04 #@! TO.P,S262,1,1*
X18124000Y24507000D03*
G04 #@! TO.N,C0*
G04 #@! TO.P,S262,2,2*
X4974000Y22307000D03*
D18*
G04 #@! TO.N,N3*
G04 #@! TO.C,JP35*
G04 #@! TO.P,JP35,1,1*
X124849000Y38260000D03*
G04 #@! TO.N,VCC*
G04 #@! TO.P,JP35,2,2*
X124849000Y37260000D03*
D10*
G04 #@! TO.N,N38*
G04 #@! TO.C,S260*
G04 #@! TO.P,S260,1,1*
X18124000Y62607000D03*
G04 #@! TO.N,C0*
G04 #@! TO.P,S260,2,2*
X4974000Y60407000D03*
D15*
G04 #@! TO.N,N85*
G04 #@! TO.C,JP54*
G04 #@! TO.P,JP54,1,1*
X130429000Y68377000D03*
G04 #@! TO.N,GND*
G04 #@! TO.P,JP54,2,2*
X129429000Y68377000D03*
D10*
G04 #@! TO.N,N27*
G04 #@! TO.C,S213*
G04 #@! TO.P,S213,1,1*
X113374000Y7839000D03*
G04 #@! TO.N,C5*
G04 #@! TO.P,S213,2,2*
X100224000Y5639000D03*
D11*
G04 #@! TO.N,N55*
G04 #@! TO.C,D131*
G04 #@! TO.P,D131,A,A*
X64324000Y58731000D03*
G04 #@! TO.N,R1*
G04 #@! TO.P,D131,C,C*
X68074000Y58731000D03*
D15*
G04 #@! TO.N,N93*
G04 #@! TO.C,JP30*
G04 #@! TO.P,JP30,1,1*
X130429000Y73457000D03*
G04 #@! TO.N,CS*
G04 #@! TO.P,JP30,2,2*
X129429000Y73457000D03*
G04 #@! TO.N,N8*
G04 #@! TO.C,JP37*
G04 #@! TO.P,JP37,1,1*
X119269000Y45517000D03*
G04 #@! TO.N,R3*
G04 #@! TO.P,JP37,2,2*
X120269000Y45517000D03*
D23*
G04 #@! TD.C*
G04 #@! TD.P*
G04 #@! TO.N,N89*
X119769000Y40725000D02*
X119769000Y38260000D01*
D24*
G04 #@! TO.N,N64*
X110172500Y52070000D03*
D25*
X110172500Y52070000D02*
X113374000Y48868500D01*
X113374000Y45939000D02*
X113374000Y48868500D01*
D23*
G04 #@! TO.N,N14*
X127500000Y20000000D02*
X122905762Y21098975D01*
D24*
G04 #@! TO.N,N33*
X57785000Y74612500D03*
D25*
X59690000Y75565000D02*
X58737500Y74612500D01*
X57785000Y74612500D02*
X58737500Y74612500D01*
X59690000Y75565000D02*
X62108000Y75565000D01*
X64324000Y77781000D02*
X62108000Y75565000D01*
D24*
G04 #@! TO.N,N36*
X97790000Y52070000D03*
D25*
X97790000Y52070000D02*
X100525000Y52070000D01*
X102424000Y53969000D02*
X100525000Y52070000D01*
D24*
G04 #@! TO.N,CS*
X127687500Y73375000D03*
X119437500Y35562500D03*
X125187500Y73375000D03*
D25*
X119437500Y35562500D02*
X119437500Y36928500D01*
X128750000Y72750000D02*
X128312500Y72750000D01*
X127687500Y73375000D02*
X128312500Y72750000D01*
X129429000Y73457000D02*
X129429000Y73429000D01*
X128750000Y72750000D02*
X129429000Y73429000D01*
X119769000Y37260000D02*
X119437500Y36928500D01*
D24*
G04 #@! TO.N,N68*
X53022500Y54292500D03*
D25*
X56224000Y48320000D02*
X56224000Y51091000D01*
X53022500Y54292500D02*
X56224000Y51091000D01*
D23*
G04 #@! TO.N,N84*
X126750000Y74750000D02*
X126750000Y44750000D01*
X133000000Y26500000D02*
X133000000Y42750000D01*
X132000000Y43750000D02*
X127750000Y43750000D01*
X105125000Y77375000D02*
X104250000Y76500000D01*
X128500000Y22000000D02*
X133000000Y26500000D01*
X104250000Y75329000D02*
X104250000Y76500000D01*
X125000000Y76500000D02*
X107062500Y76500000D01*
X105125000Y77375000D02*
X106187500Y77375000D01*
X132000000Y43750000D02*
X133000000Y42750000D01*
X106187500Y77375000D02*
X107062500Y76500000D01*
X126750000Y44750000D02*
X127750000Y43750000D01*
X103549000Y74628000D02*
X104250000Y75329000D01*
X126750000Y74750000D02*
X125000000Y76500000D01*
D24*
G04 #@! TO.N,N47*
X97790000Y33020000D03*
D25*
X97790000Y33020000D02*
X100525000Y33020000D01*
X102424000Y34919000D02*
X100525000Y33020000D01*
D23*
G04 #@! TO.N,N1*
X119269000Y68377000D02*
X117229000Y68377000D01*
D24*
G04 #@! TO.N,N53*
X53340000Y73342500D03*
D25*
X56224000Y67370000D02*
X56224000Y70458500D01*
X53340000Y73342500D02*
X56224000Y70458500D01*
D26*
G04 #@! TO.N,N/C*
X76041000Y43260000D03*
D24*
G04 #@! TO.N,GND*
X128270000Y68580000D03*
D23*
X129429000Y68377000D02*
X129226000Y68580000D01*
X128270000Y68580000D02*
X129226000Y68580000D01*
D24*
G04 #@! TO.N,N46*
X72072500Y37782500D03*
D25*
X75274000Y31651000D02*
X75274000Y34581000D01*
X72072500Y37782500D02*
X75274000Y34581000D01*
D23*
G04 #@! TO.N,N100*
X130429000Y60757000D02*
X132469000Y60757000D01*
D24*
G04 #@! TO.N,N30*
X3492500Y68580000D03*
D25*
X3492500Y68580000D02*
X5117000Y68580000D01*
X7174000Y70637000D02*
X5117000Y68580000D01*
D24*
G04 #@! TO.N,N73*
X21907500Y30480000D03*
D25*
X21907500Y30480000D02*
X24167000Y30480000D01*
X26224000Y32537000D02*
X24167000Y30480000D01*
D24*
G04 #@! TO.N,N67*
X22225000Y11430000D03*
D25*
X26224000Y13487000D02*
X24167000Y11430000D01*
X22225000Y11430000D02*
X24167000Y11430000D01*
D24*
G04 #@! TO.N,N72*
X91440000Y16510000D03*
D25*
X94324000Y10220000D02*
X94324000Y13626000D01*
X91440000Y16510000D02*
X94324000Y13626000D01*
D24*
G04 #@! TO.N,R2*
X13335000Y34607500D03*
X33655000Y34607500D03*
X51752500Y39370000D03*
X70485000Y41592500D03*
X121750000Y45500000D03*
X105410000Y36102500D03*
X89535000Y39052500D03*
X128250000Y45500000D03*
D25*
X129429000Y45517000D02*
X129412000Y45500000D01*
X33655000Y34607500D02*
X31584500Y32537000D01*
X51752500Y39370000D02*
X49682500Y37300000D01*
X13335000Y34607500D02*
X11264500Y32537000D01*
X49024000Y37300000D02*
X49682500Y37300000D01*
X29974000Y32537000D02*
X31584500Y32537000D01*
X106174000Y34919000D02*
X106174000Y35113500D01*
X70485000Y41592500D02*
X68573500Y39681000D01*
X68074000Y39681000D02*
X68573500Y39681000D01*
X87124000Y37300000D02*
X87782500Y37300000D01*
X89535000Y39052500D02*
X87782500Y37300000D01*
X10924000Y32537000D02*
X11264500Y32537000D01*
X105410000Y36102500D02*
X106174000Y35113500D01*
X128250000Y45500000D02*
X129412000Y45500000D01*
D24*
G04 #@! TO.N,N63*
X110172500Y71120000D03*
D25*
X113374000Y64989000D02*
X113374000Y67918500D01*
X110172500Y71120000D02*
X113374000Y67918500D01*
D23*
G04 #@! TO.N,N98*
X117229000Y53137000D02*
X119269000Y53137000D01*
D24*
G04 #@! TO.N,N66*
X3492500Y49530000D03*
D25*
X3492500Y49530000D02*
X5117000Y49530000D01*
X7174000Y51587000D02*
X5117000Y49530000D01*
D24*
G04 #@! TO.N,N48*
X91122500Y73342500D03*
D25*
X94324000Y67370000D02*
X94324000Y70141000D01*
X91122500Y73342500D02*
X94324000Y70141000D01*
D24*
G04 #@! TO.N,R1*
X128250000Y48000000D03*
X33337500Y54292500D03*
X70167500Y60642500D03*
X52070000Y58102500D03*
X13335000Y53975000D03*
X105092500Y56197500D03*
X89535000Y57785000D03*
X121750000Y48000000D03*
D25*
X106174000Y53969000D02*
X106174000Y51623500D01*
X29974000Y51587000D02*
X30632000Y51587000D01*
X89535000Y57785000D02*
X88100000Y56350000D01*
X68074000Y58731000D02*
X68256000Y58731000D01*
X70167500Y60642500D02*
X68256000Y58731000D01*
X106174000Y53969000D02*
X106174000Y55116000D01*
X87124000Y56350000D02*
X88100000Y56350000D01*
X129429000Y48057000D02*
X129372000Y48000000D01*
X128250000Y48000000D02*
X129372000Y48000000D01*
X13335000Y53975000D02*
X10947000Y51587000D01*
X106174000Y51623500D02*
X106997500Y50800000D01*
X52070000Y58102500D02*
X50317500Y56350000D01*
X10924000Y51587000D02*
X10947000Y51587000D01*
X105092500Y56197500D02*
X106174000Y55116000D01*
X49024000Y56350000D02*
X50317500Y56350000D01*
X33337500Y54292500D02*
X30632000Y51587000D01*
X106997500Y50800000D02*
X106997500Y40640000D01*
D24*
G04 #@! TO.N,N49*
X3492500Y30797500D03*
D25*
X7174000Y32537000D02*
X5434500Y30797500D01*
X3492500Y30797500D02*
X5434500Y30797500D01*
D24*
G04 #@! TO.N,SCK*
X128437500Y35875000D03*
X123562500Y44562500D03*
X124000000Y60812500D03*
X124812500Y43125000D03*
X127750000Y60812500D03*
D25*
X128437500Y35875000D02*
X128437500Y36211500D01*
X127750000Y60812500D02*
X127805500Y60757000D01*
X127389000Y37260000D02*
X128437500Y36211500D01*
X129429000Y60757000D02*
X127805500Y60757000D01*
D23*
G04 #@! TO.N,N85*
X132469000Y68377000D02*
X130429000Y68377000D01*
D26*
G04 #@! TO.N,N/C*
X18574000Y18732000D03*
D23*
G04 #@! TO.N,N78*
X127389000Y40725000D02*
X127389000Y38260000D01*
G04 #@! TO.N,N81*
X119269000Y73457000D02*
X117229000Y73457000D01*
D24*
G04 #@! TO.N,N61*
X58102500Y36512500D03*
D25*
X64324000Y39681000D02*
X62108000Y37465000D01*
X60325000Y37465000D02*
X62108000Y37465000D01*
X59372500Y36512500D02*
X60325000Y37465000D01*
X58102500Y36512500D02*
X59372500Y36512500D01*
D24*
G04 #@! TO.N,GND*
X128270000Y71120000D03*
X125000000Y30000000D03*
D25*
X125000000Y30000000D02*
X126750000Y31750000D01*
X125000000Y30000000D02*
X123250000Y31750000D01*
X122775000Y31750000D02*
X123250000Y31750000D01*
X127225000Y31750000D02*
X126750000Y31750000D01*
D24*
G04 #@! TO.N,N56*
X34290000Y68897500D03*
D25*
X37174000Y62607000D02*
X37174000Y66013500D01*
X34290000Y68897500D02*
X37174000Y66013500D01*
D24*
G04 #@! TO.N,C2*
X46990000Y23177500D03*
X44132500Y11430000D03*
X46990000Y61277500D03*
X46990000Y42227500D03*
X121750000Y51750000D03*
X128250000Y51750000D03*
D25*
X44520000Y47566000D02*
X44520000Y52947000D01*
X46990000Y61277500D02*
X43097500Y65170000D01*
X46990000Y36337000D02*
X44520000Y33867000D01*
X43074000Y46120000D02*
X43315000Y45902500D01*
X46990000Y42227500D02*
X46990000Y36337000D01*
X121750000Y51750000D02*
X121422000Y51750000D01*
X44132500Y11430000D02*
X44132500Y9078500D01*
X46990000Y42227500D02*
X43315000Y45902500D01*
X46990000Y23177500D02*
X46990000Y17416000D01*
X44520000Y28516000D02*
X44520000Y33867000D01*
X43074000Y27070000D02*
X43097500Y27070000D01*
X46990000Y17416000D02*
X44132500Y14558500D01*
X44132500Y11430000D02*
X44132500Y14558500D01*
X46990000Y23177500D02*
X43097500Y27070000D01*
X43074000Y46120000D02*
X44520000Y47566000D01*
X43074000Y27070000D02*
X44520000Y28516000D01*
X120269000Y50597000D02*
X121422000Y51750000D01*
X46990000Y61277500D02*
X46990000Y55417000D01*
X43074000Y65170000D02*
X43097500Y65170000D01*
X46990000Y55417000D02*
X44520000Y52947000D01*
X43074000Y8020000D02*
X44132500Y9078500D01*
D23*
G04 #@! TO.N,N5*
X119269000Y50597000D02*
X117229000Y50597000D01*
G04 #@! TO.N,N9*
X117229000Y55677000D02*
X119269000Y55677000D01*
D26*
G04 #@! TO.N,N/C*
X18574000Y56832000D03*
D24*
G04 #@! TO.N,C6*
X123190000Y6350000D03*
X128250000Y64500000D03*
X127000000Y13937500D03*
X130000000Y62062500D03*
D25*
X123190000Y6350000D02*
X125412500Y6350000D01*
X119274000Y3704000D02*
X121920000Y6350000D01*
X119274000Y3257000D02*
X119274000Y3704000D01*
X123190000Y6350000D02*
X121920000Y6350000D01*
X127000000Y7937500D02*
X125412500Y6350000D01*
X127000000Y13937500D02*
X127000000Y7937500D01*
D24*
G04 #@! TO.N,N54*
X39052500Y14922500D03*
D25*
X43216500Y16192500D02*
X40640000Y16192500D01*
X39370000Y14922500D02*
X40640000Y16192500D01*
X45274000Y18250000D02*
X43216500Y16192500D01*
X39052500Y14922500D02*
X39370000Y14922500D01*
D24*
G04 #@! TO.N,N62*
X33972500Y30480000D03*
D25*
X37174000Y24507000D02*
X37174000Y27278500D01*
X33972500Y30480000D02*
X37174000Y27278500D01*
D24*
G04 #@! TO.N,GND*
X121285000Y66040000D03*
X123000000Y36000000D03*
D23*
X123000000Y36000000D02*
X123000000Y36569000D01*
X122309000Y37260000D02*
X123000000Y36569000D01*
D24*
G04 #@! TO.N,N51*
X97790000Y71120000D03*
D25*
X97790000Y71120000D02*
X100525000Y71120000D01*
X102424000Y73019000D02*
X100525000Y71120000D01*
D23*
G04 #@! TO.N,N87*
X117229000Y48057000D02*
X119269000Y48057000D01*
D24*
G04 #@! TO.N,N27*
X110172500Y13970000D03*
D25*
X110172500Y13970000D02*
X113374000Y10768500D01*
X113374000Y7839000D02*
X113374000Y10768500D01*
D24*
G04 #@! TO.N,N37*
X15240000Y49530000D03*
D25*
X18124000Y43557000D02*
X18124000Y46646000D01*
X15240000Y49530000D02*
X18124000Y46646000D01*
D24*
G04 #@! TO.N,GND*
X131000000Y21000000D03*
D23*
X128500000Y20000000D02*
X130000000Y20000000D01*
X131000000Y21000000D02*
X130000000Y20000000D01*
G04 #@! TO.N,N3*
X124849000Y40725000D02*
X124849000Y38260000D01*
D24*
G04 #@! TO.N,C0*
X8890000Y56515000D03*
X6042000Y6678000D03*
X128250000Y49250000D03*
X121750000Y49250000D03*
X8890000Y18415000D03*
X8890000Y37465000D03*
D25*
X4974000Y3257000D02*
X6042000Y4325000D01*
X4974000Y41357000D02*
X4998000Y41357000D01*
X121750000Y49250000D02*
X121462000Y49250000D01*
X8890000Y18415000D02*
X8890000Y12706000D01*
X8890000Y37465000D02*
X4998000Y41357000D01*
X6360000Y42743000D02*
X6360000Y48495000D01*
X6042000Y6678000D02*
X6042000Y9858000D01*
X4974000Y22307000D02*
X5007500Y22297500D01*
X6042000Y6678000D02*
X6042000Y4325000D01*
X8890000Y12706000D02*
X6042000Y9858000D01*
X4974000Y60407000D02*
X4998000Y60407000D01*
X8890000Y56515000D02*
X4998000Y60407000D01*
X8890000Y31627000D02*
X6360000Y29097000D01*
X6360000Y48495000D02*
X8890000Y51025000D01*
X8890000Y18415000D02*
X5007500Y22297500D01*
X120269000Y48057000D02*
X121462000Y49250000D01*
X8890000Y56515000D02*
X8890000Y51025000D01*
X4974000Y41357000D02*
X6360000Y42743000D01*
X8890000Y37465000D02*
X8890000Y31627000D01*
X6360000Y29097000D02*
X6360000Y23693000D01*
X4974000Y22307000D02*
X6360000Y23693000D01*
D23*
G04 #@! TO.N,N75*
X129929000Y40725000D02*
X129929000Y38260000D01*
D24*
G04 #@! TO.N,N31*
X53022500Y35560000D03*
D25*
X56224000Y29270000D02*
X56224000Y32358500D01*
X53022500Y35560000D02*
X56224000Y32358500D01*
D24*
G04 #@! TO.N,MOSI*
X127937500Y63250000D03*
X124750000Y63250000D03*
X129937500Y35875000D03*
D25*
X129929000Y37260000D02*
X129929000Y35883500D01*
X129429000Y63297000D02*
X127984500Y63297000D01*
X129937500Y35875000D02*
X129929000Y35883500D01*
X127937500Y63250000D02*
X127984500Y63297000D01*
D24*
G04 #@! TO.N,N11*
X119062500Y30812500D03*
X123125000Y66000000D03*
X122312500Y69437500D03*
D25*
X120269000Y68377000D02*
X120269000Y68956500D01*
X119062500Y30812500D02*
X118000000Y31875000D01*
X123312500Y45500000D02*
X123312500Y56125000D01*
X119000000Y43250000D02*
X118000000Y42250000D01*
X123187500Y56250000D02*
X123187500Y65937500D01*
X123312500Y45500000D02*
X121062500Y43250000D01*
X120269000Y68956500D02*
X120750000Y69437500D01*
X123125000Y66000000D02*
X123187500Y65937500D01*
X119000000Y43250000D02*
X121062500Y43250000D01*
X123187500Y56250000D02*
X123312500Y56125000D01*
X118000000Y31875000D02*
X118000000Y42250000D01*
X122312500Y69437500D02*
X120750000Y69437500D01*
D23*
G04 #@! TO.N,N23*
X130429000Y50597000D02*
X132469000Y50597000D01*
D24*
G04 #@! TO.N,N55*
X57785000Y55245000D03*
D25*
X64324000Y58731000D02*
X62108000Y56515000D01*
X62108000Y56515000D02*
X59372500Y56515000D01*
X57785000Y55245000D02*
X58102500Y55245000D01*
X58102500Y55245000D02*
X59372500Y56515000D01*
D24*
G04 #@! TO.N,N102*
X124750000Y74500000D03*
X128000000Y74500000D03*
D23*
G04 #@! TO.N,N96*
X130429000Y48057000D02*
X132469000Y48057000D01*
D24*
G04 #@! TO.N,N65*
X78422500Y53975000D03*
D25*
X78422500Y53975000D02*
X80999000Y53975000D01*
X83374000Y56350000D02*
X80999000Y53975000D01*
D23*
G04 #@! TO.N,N88*
X130429000Y45517000D02*
X132469000Y45517000D01*
D24*
G04 #@! TO.N,GND*
X126657000Y35841000D03*
G04 #@! TO.N,N57*
X116522500Y11430000D03*
D25*
X121474000Y13487000D02*
X119417000Y11430000D01*
X116522500Y11430000D02*
X119417000Y11430000D01*
D24*
G04 #@! TO.N,N25*
X39687500Y53340000D03*
D25*
X39687500Y53340000D02*
X40322500Y53340000D01*
X45274000Y56350000D02*
X43216500Y54292500D01*
X40322500Y53340000D02*
X41275000Y54292500D01*
X41275000Y54292500D02*
X43216500Y54292500D01*
D24*
G04 #@! TO.N,N44*
X22225000Y49530000D03*
D25*
X26224000Y51587000D02*
X24167000Y49530000D01*
X22225000Y49530000D02*
X24167000Y49530000D01*
D24*
G04 #@! TO.N,N41*
X91122500Y54292500D03*
D25*
X94324000Y48320000D02*
X94324000Y51091000D01*
X91122500Y54292500D02*
X94324000Y51091000D01*
D23*
G04 #@! TO.N,N85*
X130429000Y65837000D02*
X132469000Y65837000D01*
D24*
G04 #@! TO.N,GND*
X128270000Y66040000D03*
D23*
X128270000Y66040000D02*
X129226000Y66040000D01*
X129429000Y65837000D02*
X129226000Y66040000D01*
D24*
G04 #@! TO.N,R3*
X51752500Y20320000D03*
X121750000Y46750000D03*
X89535000Y20002500D03*
X33020000Y15240000D03*
X123190000Y15240000D03*
X108585000Y17462500D03*
X70485000Y22225000D03*
X128250000Y46750000D03*
X13335000Y15240000D03*
D25*
X68074000Y20631000D02*
X68891000Y20631000D01*
X87124000Y18250000D02*
X87782500Y18250000D01*
X70485000Y22225000D02*
X68891000Y20631000D01*
X121750000Y46750000D02*
X120286000Y45500000D01*
X106174000Y15869000D02*
X106991500Y15869000D01*
X29974000Y13487000D02*
X31267000Y13487000D01*
X125224000Y13487000D02*
X123471000Y15240000D01*
X49024000Y18250000D02*
X49682500Y18250000D01*
X123190000Y15240000D02*
X123471000Y15240000D01*
X120269000Y45517000D02*
X120286000Y45500000D01*
X51752500Y20320000D02*
X49682500Y18250000D01*
X10924000Y13487000D02*
X11582000Y13487000D01*
X108585000Y17462500D02*
X106991500Y15869000D01*
X33020000Y15240000D02*
X31267000Y13487000D01*
X89535000Y20002500D02*
X87782500Y18250000D01*
X13335000Y15240000D02*
X11582000Y13487000D01*
D24*
G04 #@! TO.N,N74*
X102500000Y70500000D03*
X100500000Y73250000D03*
D23*
X120269000Y74231000D02*
X119750000Y74750000D01*
X108250000Y73000000D02*
X110000000Y74750000D01*
X110000000Y74750000D02*
X119750000Y74750000D01*
X108250000Y72000000D02*
X106250000Y70000000D01*
X102500000Y70500000D02*
X103000000Y70000000D01*
X103000000Y70000000D02*
X106250000Y70000000D01*
X108250000Y73000000D02*
X108250000Y72000000D01*
X120269000Y73457000D02*
X120269000Y74231000D01*
X102049000Y74628000D02*
X101878000Y74628000D01*
X100500000Y73250000D02*
X101878000Y74628000D01*
D24*
G04 #@! TO.N,N50*
X72072500Y56832500D03*
D25*
X75274000Y50701000D02*
X75274000Y53631000D01*
X72072500Y56832500D02*
X75274000Y53631000D01*
D24*
G04 #@! TO.N,N60*
X97155000Y13970000D03*
D25*
X102424000Y15869000D02*
X100525000Y13970000D01*
X97155000Y13970000D02*
X100525000Y13970000D01*
D24*
G04 #@! TO.N,N69*
X72072500Y18732500D03*
D25*
X72072500Y18732500D02*
X75274000Y15531000D01*
X75274000Y12601000D02*
X75274000Y15531000D01*
D24*
G04 #@! TO.N,N107*
X120937500Y20750000D03*
D25*
X120937500Y20750000D02*
X120937500Y26412500D01*
X127225000Y28250000D02*
X122775000Y28250000D01*
X122775000Y28250000D02*
X120937500Y26412500D01*
D24*
G04 #@! TO.N,N38*
X14922500Y68580000D03*
D25*
X14922500Y68580000D02*
X18124000Y65378500D01*
X18124000Y62607000D02*
X18124000Y65378500D01*
D24*
G04 #@! TO.N,N58*
X15240000Y30797500D03*
D25*
X18124000Y24507000D02*
X18124000Y27913500D01*
X15240000Y30797500D02*
X18124000Y27913500D01*
D23*
G04 #@! TO.N,N80*
X119269000Y58217000D02*
X117229000Y58217000D01*
D24*
G04 #@! TO.N,C3*
X121750000Y54500000D03*
X128000000Y54500000D03*
X66040000Y44450000D03*
X66040000Y25400000D03*
X66040000Y63500000D03*
X63182500Y13970000D03*
D25*
X62124000Y48501000D02*
X62124000Y48366000D01*
X63441000Y55173000D02*
X63441000Y49818000D01*
X66040000Y38692000D02*
X63282000Y35934000D01*
X66040000Y25400000D02*
X62124000Y29316000D01*
X63282000Y35934000D02*
X63282000Y30609000D01*
X63441000Y55173000D02*
X66040000Y57772000D01*
X63182500Y16595500D02*
X66040000Y19453000D01*
X63182500Y13970000D02*
X63182500Y16595500D01*
X66040000Y44450000D02*
X66040000Y38692000D01*
X121750000Y54500000D02*
X121632000Y54500000D01*
X62124000Y10401000D02*
X63182500Y11459500D01*
X120269000Y53137000D02*
X121632000Y54500000D01*
X62124000Y29451000D02*
X63282000Y30609000D01*
X62124000Y29451000D02*
X62124000Y29316000D01*
X66040000Y63500000D02*
X66040000Y57772000D01*
X62124000Y67551000D02*
X62124000Y67416000D01*
X66040000Y63500000D02*
X62124000Y67416000D01*
X66040000Y44450000D02*
X62124000Y48366000D01*
X62124000Y48501000D02*
X63441000Y49818000D01*
X66040000Y25400000D02*
X66040000Y19453000D01*
X63182500Y13970000D02*
X63182500Y11459500D01*
D24*
G04 #@! TO.N,C5*
X104140000Y58737500D03*
X121750000Y62000000D03*
X104140000Y20637500D03*
X101600000Y8890000D03*
X128250000Y62000000D03*
X104457500Y39370000D03*
D25*
X100224000Y43739000D02*
X100224000Y43603500D01*
X100224000Y62789000D02*
X100224000Y62653500D01*
X120269000Y60757000D02*
X120507000Y60757000D01*
X100224000Y43739000D02*
X101601000Y45116000D01*
X101600000Y8890000D02*
X101600000Y12401000D01*
X100224000Y24689000D02*
X100224000Y24553500D01*
X121750000Y62000000D02*
X120507000Y60757000D01*
X101601000Y50562000D02*
X104140000Y53101000D01*
X101601000Y45116000D02*
X101601000Y50562000D01*
X104140000Y20637500D02*
X104140000Y14941000D01*
X101600000Y12401000D02*
X104140000Y14941000D01*
X104140000Y58737500D02*
X104140000Y53101000D01*
X100224000Y24689000D02*
X101601000Y26066000D01*
X101600000Y8890000D02*
X101600000Y7015000D01*
X100224000Y5639000D02*
X101600000Y7015000D01*
X104457500Y39370000D02*
X104457500Y34179500D01*
X104457500Y39370000D02*
X100224000Y43603500D01*
X101601000Y26066000D02*
X101601000Y31323000D01*
X101601000Y31323000D02*
X104457500Y34179500D01*
X104140000Y20637500D02*
X100224000Y24553500D01*
X104140000Y58737500D02*
X100224000Y62653500D01*
D24*
G04 #@! TO.N,C4*
X84772500Y23495000D03*
X85090000Y42227500D03*
X128250000Y59500000D03*
X82232500Y11430000D03*
X121750000Y59500000D03*
X85090000Y61277500D03*
D25*
X85090000Y42227500D02*
X81197500Y46120000D01*
X82232500Y11430000D02*
X82232500Y9078500D01*
X120269000Y58217000D02*
X121552000Y59500000D01*
X81174000Y46120000D02*
X81197500Y46120000D01*
X82232500Y14339500D02*
X84772500Y16879500D01*
X82232500Y11430000D02*
X82232500Y14339500D01*
X85090000Y42227500D02*
X85090000Y36595000D01*
X85090000Y61277500D02*
X81197500Y65170000D01*
X121750000Y59500000D02*
X121552000Y59500000D01*
X81174000Y46120000D02*
X82521000Y47467000D01*
X81174000Y27070000D02*
X81197500Y27070000D01*
X82680000Y34185000D02*
X85090000Y36595000D01*
X81174000Y65170000D02*
X81197500Y65170000D01*
X82521000Y47467000D02*
X82521000Y52788000D01*
X81174000Y27070000D02*
X82680000Y28576000D01*
X85090000Y61277500D02*
X85090000Y55357000D01*
X84772500Y23495000D02*
X81197500Y27070000D01*
X84772500Y23495000D02*
X84772500Y16879500D01*
X82680000Y28576000D02*
X82680000Y34185000D01*
X81174000Y8020000D02*
X82232500Y9078500D01*
X82521000Y52788000D02*
X85090000Y55357000D01*
D23*
G04 #@! TO.N,N103*
X130429000Y63297000D02*
X132469000Y63297000D01*
D24*
G04 #@! TO.N,C1*
X27940000Y56515000D03*
X121750000Y57000000D03*
X27940000Y18415000D03*
X27940000Y37465000D03*
X128000000Y57000000D03*
X25082500Y6985000D03*
D25*
X27940000Y37465000D02*
X24048000Y41357000D01*
X24024000Y22307000D02*
X25440000Y23723000D01*
X121750000Y57000000D02*
X121592000Y57000000D01*
X24024000Y41357000D02*
X25440000Y42773000D01*
X25082500Y6985000D02*
X25082500Y3523500D01*
X27940000Y12676000D02*
X25082500Y9818500D01*
X25440000Y23723000D02*
X25440000Y29415000D01*
X27940000Y56515000D02*
X24048000Y60407000D01*
X25440000Y48336000D02*
X27940000Y50836000D01*
X24024000Y41357000D02*
X24048000Y41357000D01*
X25440000Y48336000D02*
X25440000Y42773000D01*
X27940000Y18415000D02*
X24048000Y22307000D01*
X120269000Y55677000D02*
X121592000Y57000000D01*
X27940000Y56515000D02*
X27940000Y50836000D01*
X25299000Y3307000D02*
X25082500Y3523500D01*
X27940000Y18415000D02*
X27940000Y12676000D01*
X27940000Y37465000D02*
X27940000Y31915000D01*
X25082500Y6985000D02*
X25082500Y9818500D01*
X25440000Y29415000D02*
X27940000Y31915000D01*
X24024000Y60407000D02*
X24048000Y60407000D01*
X24024000Y22307000D02*
X24048000Y22307000D01*
D23*
G04 #@! TO.N,N91*
X127500000Y22000000D02*
X123905762Y22831025D01*
G04 #@! TO.N,N93*
X132469000Y73457000D02*
X130429000Y73457000D01*
D24*
G04 #@! TO.N,N28*
X130500000Y11625000D03*
D25*
X132424000Y5457000D02*
X132424000Y9701000D01*
X130500000Y11625000D02*
X132424000Y9701000D01*
D24*
G04 #@! TO.N,C6*
X121750000Y64500000D03*
D25*
X121750000Y64500000D02*
X121472000Y64500000D01*
X120269000Y63297000D02*
X121472000Y64500000D01*
D24*
G04 #@! TO.N,N45*
X78105000Y34925000D03*
D25*
X78105000Y34925000D02*
X80999000Y34925000D01*
X83374000Y37300000D02*
X80999000Y34925000D01*
D26*
G04 #@! TO.N,N/C*
X94774000Y60404000D03*
D24*
G04 #@! TO.N,N35*
X21907500Y68580000D03*
D25*
X26224000Y70637000D02*
X24167000Y68580000D01*
X21907500Y68580000D02*
X24167000Y68580000D01*
D23*
G04 #@! TO.N,N85*
X117229000Y70917000D02*
X119269000Y70917000D01*
D24*
G04 #@! TO.N,N43*
X33972500Y11747500D03*
D25*
X33972500Y11747500D02*
X35899000Y9821000D01*
X35899000Y5507000D02*
X35899000Y9821000D01*
D24*
G04 #@! TO.N,N59*
X53022500Y16510000D03*
D25*
X56224000Y10220000D02*
X56224000Y13308500D01*
X53022500Y16510000D02*
X56224000Y13308500D01*
D24*
G04 #@! TO.N,N71*
X58102500Y17462500D03*
D25*
X58102500Y17462500D02*
X59055000Y17462500D01*
X62425500Y18732500D02*
X60325000Y18732500D01*
X64324000Y20631000D02*
X62425500Y18732500D01*
X59055000Y17462500D02*
X60325000Y18732500D01*
D24*
G04 #@! TO.N,N52*
X39370000Y72390000D03*
D25*
X43216500Y73342500D02*
X40640000Y73342500D01*
X45274000Y75400000D02*
X43216500Y73342500D01*
X39370000Y72390000D02*
X39687500Y72390000D01*
X39687500Y72390000D02*
X40640000Y73342500D01*
D24*
G04 #@! TO.N,GND*
X121285000Y71120000D03*
D23*
X121285000Y71120000D02*
X120472000Y71120000D01*
X120269000Y70917000D02*
X120472000Y71120000D01*
D24*
X121285000Y68580000D03*
G04 #@! TO.N,N24*
X78422500Y73025000D03*
D25*
X78422500Y73025000D02*
X80999000Y73025000D01*
X83374000Y75400000D02*
X80999000Y73025000D01*
D24*
G04 #@! TO.N,N32*
X34290000Y49530000D03*
D25*
X37174000Y43557000D02*
X37174000Y46646000D01*
X34290000Y49530000D02*
X37174000Y46646000D01*
D24*
G04 #@! TO.N,N70*
X39052500Y33337500D03*
D25*
X45274000Y37300000D02*
X43216500Y35242500D01*
X43216500Y35242500D02*
X40957500Y35242500D01*
X39052500Y33337500D02*
X40957500Y35242500D01*
D26*
G04 #@! TO.N,N/C*
X114141000Y19765000D03*
D24*
G04 #@! TO.N,N34*
X3492500Y11430000D03*
D25*
X3492500Y11430000D02*
X5117000Y11430000D01*
X7174000Y13487000D02*
X5117000Y11430000D01*
D24*
G04 #@! TO.N,N39*
X72072500Y75882500D03*
D25*
X75274000Y69751000D02*
X75274000Y72681000D01*
X72072500Y75882500D02*
X75274000Y72681000D01*
D23*
G04 #@! TO.N,N90*
X117229000Y60757000D02*
X119269000Y60757000D01*
D24*
G04 #@! TO.N,N40*
X91440000Y35242500D03*
D25*
X91440000Y35242500D02*
X94324000Y32358500D01*
X94324000Y29270000D02*
X94324000Y32358500D01*
D23*
G04 #@! TO.N,N82*
X122309000Y40725000D02*
X122309000Y38260000D01*
D24*
G04 #@! TO.N,VCC*
X121250000Y67000000D03*
X128250000Y67000000D03*
X124750000Y35750000D03*
D23*
X121250000Y67000000D02*
X120500000Y67000000D01*
X126125000Y42625000D02*
X126125000Y37500000D01*
D25*
X124849000Y37260000D02*
X124750000Y35750000D01*
D23*
X126125000Y42625000D02*
X125250000Y43500000D01*
X120269000Y66769000D02*
X120269000Y66019000D01*
X120500000Y67000000D02*
X120269000Y66769000D01*
X121250000Y67000000D02*
X124250000Y67000000D01*
X126125000Y37500000D02*
X125885000Y37260000D01*
X125250000Y66000000D02*
X124250000Y67000000D01*
X124849000Y37260000D02*
X125885000Y37260000D01*
D25*
X120269000Y65837000D02*
X120269000Y66019000D01*
D23*
X125250000Y43500000D02*
X125250000Y66000000D01*
G04 #@! TO.N,N94*
X117229000Y65837000D02*
X119269000Y65837000D01*
G04 #@! TO.N,N8*
X117229000Y45517000D02*
X119269000Y45517000D01*
D24*
G04 #@! TO.N,N26*
X15557500Y11747500D03*
D25*
X18124000Y5457000D02*
X18124000Y9181000D01*
X15557500Y11747500D02*
X18124000Y9181000D01*
D24*
G04 #@! TO.N,R0*
X104140000Y71362500D03*
X13652500Y72390000D03*
X70485000Y79692500D03*
X128250000Y50500000D03*
X89852500Y77470000D03*
X33020000Y73342500D03*
X51752500Y77152500D03*
X121750000Y50500000D03*
D25*
X68074000Y77781000D02*
X68573500Y77781000D01*
X129429000Y50597000D02*
X129332000Y50500000D01*
X70485000Y79692500D02*
X68573500Y77781000D01*
X89852500Y77470000D02*
X87782500Y75400000D01*
X87124000Y75400000D02*
X87782500Y75400000D01*
X13652500Y72390000D02*
X11899500Y70637000D01*
X29974000Y70637000D02*
X30314500Y70637000D01*
X104140000Y71362500D02*
X105080500Y71862500D01*
X106174000Y73019000D02*
X105080500Y71862500D01*
X49024000Y75400000D02*
X50000000Y75400000D01*
X51752500Y77152500D02*
X50000000Y75400000D01*
X128250000Y50500000D02*
X129332000Y50500000D01*
X10924000Y70637000D02*
X11899500Y70637000D01*
X33020000Y73342500D02*
X30314500Y70637000D01*
D23*
G04 #@! TO.N,N16*
X119269000Y63297000D02*
X117229000Y63297000D01*
D24*
G04 #@! TO.N,N29*
X77787500Y15875000D03*
D25*
X83374000Y18250000D02*
X80999000Y15875000D01*
X77787500Y15875000D02*
X80999000Y15875000D01*
D24*
G04 #@! TO.N,N42*
X110172500Y33020000D03*
D25*
X113374000Y26889000D02*
X113374000Y29818500D01*
X110172500Y33020000D02*
X113374000Y29818500D01*
G04 --- BOARD END --- *
G04 #@! TF.MD5,2101f73d091d6a05bfb5219f9f110238*
M02*
