ISO-10303-21;
HEADER;
/* JST_PH_S2B-PH-K_1x02_P2.00mm_Horizontal.step 3D STEP model for use in ECAD systems
 * Copyright (C) 2017, Rene Poeschl
 * 
 * This work is licensed under the [Creative Commons CC-BY-SA 4.0 License](https://creativecommons.org/licenses/by-sa/4.0/legalcode), 
 * with the following exception:
 * To the extent that the creation of electronic designs that use 'Licensed Material' can be considered to be 'Adapted Material', 
 * then the copyright holder waives article 3 of the license with respect to these designs and any generated files which use data provided 
 * as part of the 'Licensed Material'.
 * You are free to use the library data in your own projects without the obligation to share your project files under this or any other license agreement.
 * However, if you wish to redistribute these libraries, or parts thereof (including in modified form) as a collection then the exception above does not apply. 
 * Please refer to https://github.com/KiCad/kicad-packages3D/blob/master/LICENSE.md for further clarification of the exception.
 * Disclaimer of Warranties and Limitation of Liability.
 * These libraries are provided in the hope that they will be useful, but are provided without warranty of any kind, express or implied.
 * *USE 3D CAD DATA AT YOUR OWN RISK*
 * *DO NOT RELY UPON ANY INFORMATION FOUND HERE WITHOUT INDEPENDENT VERIFICATION.*
 * 
 * 
 * 
 * 
 * 
 * 
 * 
 * 
 * 
 * 
 * 
 * 
 * 
 * 
 * 
 * 
 * 
 * 
 * 
 * 
 * 
 * 
 * 
 * 
 * 
 * 
 * 
 * 
 * 
 * 
 * 
 * 
 * 
 * 
 * 
 * 
 * 
 * 
 * 
 * 
 * 
 * 
 * 
 * 
 * 
 * 
 */
FILE_DESCRIPTION(
/* description */ ('model of JST_PH_S2B-PH-K_1x02_P2.00mm_Horizontal'),
/* implementation_level */ '2;1');
FILE_NAME(
/* name */ 'JST_PH_S2B-PH-K_1x02_P2.00mm_Horizontal.step',
/* time_stamp */ '2017-12-06T01:11:40',
/* author */ ('Rene Poeschl','poeschlr@gmail.com'),
/* organization */ (''),
/* preprocessor_version */ '',
/* originating_system */ '',
/* authorisation */ '');
FILE_SCHEMA(('AUTOMOTIVE_DESIGN { 1 0 10303 214 1 1 1 1 }'));
ENDSEC;
DATA;
#1=APPLICATION_PROTOCOL_DEFINITION('international standard','automotive_design',2000,#2);
#2=APPLICATION_CONTEXT('core data for automotive mechanical design processes');
#3=SHAPE_DEFINITION_REPRESENTATION(#4,#10);
#4=PRODUCT_DEFINITION_SHAPE('','',#5);
#5=PRODUCT_DEFINITION('design','',#6,#9);
#6=PRODUCT_DEFINITION_FORMATION('','',#7);
#7=PRODUCT('JST_S2B_PH_K','JST_S2B_PH_K','',(#8));
#8=PRODUCT_CONTEXT('',#2,'mechanical');
#9=PRODUCT_DEFINITION_CONTEXT('part definition',#2,'design');
#10=ADVANCED_BREP_SHAPE_REPRESENTATION('',(#11,#15),#2254);
#11=AXIS2_PLACEMENT_3D('',#12,#13,#14);
#12=CARTESIAN_POINT('',(0.,0.,0.));
#13=DIRECTION('',(0.,0.,1.));
#14=DIRECTION('',(1.,0.,0.));
#15=MANIFOLD_SOLID_BREP('',#16);
#16=CLOSED_SHELL('',(#17,#48,#112,#177,#211,#221,#234,#248,#263,#299,#384,#402,#410,#462,#469,#502,#537,#549,#598,#611,#632,#701,#776,#807,#824,#833,#843,#853,#869,#886,#894,#916,#944,#954,#984,#998,#1022,#1032,#1043,#1051,#1076,#1094,#1105,#1115,#1129,#1143,#1152,#1159,#1165,#1175,#1183,#1193,#1201,#1208,#1216,#1237,#1252,#1268,#1277,#1298,#1313,#1329,#1338,#1372,#1406,#1415,#1422,#1450,#1470,#1491,#1504,#1526,#1543,#1560,#1572,#1640,#1652,#1707,#1715,#1775,#1787,#1842,#1850,#1859,#1868,#1877,#1887,#1898,#1926,#1962,#1983,#1994,#2004,#2009,#2038,#2047,#2057,#2067,#2090,#2120,#2140,#2150,#2160,#2165,#2188,#2202,#2214,#2223,#2235,#2247));
#17=ADVANCED_FACE('',(#18),#45,.T.);
#18=FACE_BOUND('',#19,.T.);
#19=EDGE_LOOP('',(#20,#29,#36,#42));
#20=ORIENTED_EDGE('',*,*,#21,.F.);
#21=EDGE_CURVE('',#22,#24,#26,.T.);
#22=VERTEX_POINT('',#23);
#23=CARTESIAN_POINT('',(3.95,-4.65,2.5));
#24=VERTEX_POINT('',#25);
#25=CARTESIAN_POINT('',(3.95,-6.25,2.5));
#26=LINE('',#23,#27);
#27=VECTOR('',#28,1.);
#28=DIRECTION('',(-1.224646799147E-16,-1.,1.110223024625E-16));
#29=ORIENTED_EDGE('',*,*,#30,.T.);
#30=EDGE_CURVE('',#22,#31,#33,.T.);
#31=VERTEX_POINT('',#32);
#32=CARTESIAN_POINT('',(3.45,-4.65,2.5));
#33=LINE('',#23,#34);
#34=VECTOR('',#35,1.);
#35=DIRECTION('',(-1.,1.224646799147E-16,0.));
#36=ORIENTED_EDGE('',*,*,#37,.T.);
#37=EDGE_CURVE('',#31,#38,#40,.T.);
#38=VERTEX_POINT('',#39);
#39=CARTESIAN_POINT('',(3.45,-6.25,2.5));
#40=LINE('',#41,#27);
#41=CARTESIAN_POINT('',(3.45,-5.45,2.5));
#42=ORIENTED_EDGE('',*,*,#43,.F.);
#43=EDGE_CURVE('',#24,#38,#44,.T.);
#44=LINE('',#25,#34);
#45=PLANE('',#46);
#46=AXIS2_PLACEMENT_3D('',#23,#47,#28);
#47=DIRECTION('',(1.359631073447E-32,1.110223024625E-16,1.));
#48=ADVANCED_FACE('',(#49),#107,.T.);
#49=FACE_BOUND('',#50,.T.);
#50=EDGE_LOOP('',(#51,#58,#65,#72,#79,#85,#90,#94,#101,#106));
#51=ORIENTED_EDGE('',*,*,#52,.F.);
#52=EDGE_CURVE('',#53,#24,#55,.T.);
#53=VERTEX_POINT('',#54);
#54=CARTESIAN_POINT('',(3.95,-6.25,0.));
#55=LINE('',#56,#57);
#56=CARTESIAN_POINT('',(3.95,-6.25,0.3));
#57=VECTOR('',#47,1.);
#58=ORIENTED_EDGE('',*,*,#59,.F.);
#59=EDGE_CURVE('',#60,#53,#62,.T.);
#60=VERTEX_POINT('',#61);
#61=CARTESIAN_POINT('',(3.95,1.35,0.));
#62=LINE('',#61,#63);
#63=VECTOR('',#64,1.);
#64=DIRECTION('',(-1.224646799147E-16,-1.,0.));
#65=ORIENTED_EDGE('',*,*,#66,.F.);
#66=EDGE_CURVE('',#67,#60,#69,.T.);
#67=VERTEX_POINT('',#68);
#68=CARTESIAN_POINT('',(3.95,1.35,3.2));
#69=LINE('',#68,#70);
#70=VECTOR('',#71,1.);
#71=DIRECTION('',(0.,0.,-1.));
#72=ORIENTED_EDGE('',*,*,#73,.F.);
#73=EDGE_CURVE('',#74,#67,#76,.T.);
#74=VERTEX_POINT('',#75);
#75=CARTESIAN_POINT('',(3.95,-0.25,4.1));
#76=LINE('',#75,#77);
#77=VECTOR('',#78,1.);
#78=DIRECTION('',(1.067372191755E-16,0.871575537125,-0.490261239633));
#79=ORIENTED_EDGE('',*,*,#80,.T.);
#80=EDGE_CURVE('',#74,#81,#83,.T.);
#81=VERTEX_POINT('',#82);
#82=CARTESIAN_POINT('',(3.95,-0.25,4.8));
#83=LINE('',#84,#57);
#84=CARTESIAN_POINT('',(3.95,-0.25,0.3));
#85=ORIENTED_EDGE('',*,*,#86,.T.);
#86=EDGE_CURVE('',#81,#87,#89,.T.);
#87=VERTEX_POINT('',#88);
#88=CARTESIAN_POINT('',(3.95,-6.25,4.8));
#89=LINE('',#82,#27);
#90=ORIENTED_EDGE('',*,*,#91,.F.);
#91=EDGE_CURVE('',#92,#87,#55,.T.);
#92=VERTEX_POINT('',#93);
#93=CARTESIAN_POINT('',(3.95,-6.25,3.3));
#94=ORIENTED_EDGE('',*,*,#95,.T.);
#95=EDGE_CURVE('',#92,#96,#98,.T.);
#96=VERTEX_POINT('',#97);
#97=CARTESIAN_POINT('',(3.95,-4.65,3.3));
#98=LINE('',#93,#99);
#99=VECTOR('',#100,1.);
#100=DIRECTION('',(1.224646799147E-16,1.,-1.110223024625E-16));
#101=ORIENTED_EDGE('',*,*,#102,.T.);
#102=EDGE_CURVE('',#96,#22,#103,.T.);
#103=CIRCLE('',#104,0.4);
#104=AXIS2_PLACEMENT_3D('',#105,#35,#47);
#105=CARTESIAN_POINT('',(3.95,-4.65,2.9));
#106=ORIENTED_EDGE('',*,*,#21,.T.);
#107=PLANE('',#108);
#108=AXIS2_PLACEMENT_3D('',#109,#110,#111);
#109=CARTESIAN_POINT('',(3.95,-2.909897467985,2.368621550033));
#110=DIRECTION('',(1.,-1.224646799147E-16,-3.096025220137E-32));
#111=DIRECTION('',(-3.096025220137E-32,3.79153737592E-48,-1.));
#112=ADVANCED_FACE('',(#113),#172,.T.);
#113=FACE_BOUND('',#114,.T.);
#114=EDGE_LOOP('',(#115,#125,#131,#134,#135,#136,#141,#146,#154,#158,#164,#169));
#115=ORIENTED_EDGE('',*,*,#116,.T.);
#116=EDGE_CURVE('',#117,#119,#121,.T.);
#117=VERTEX_POINT('',#118);
#118=CARTESIAN_POINT('',(-0.95,-6.25,0.3));
#119=VERTEX_POINT('',#120);
#120=CARTESIAN_POINT('',(2.95,-6.25,0.3));
#121=LINE('',#122,#123);
#122=CARTESIAN_POINT('',(-1.95,-6.25,0.3));
#123=VECTOR('',#124,1.);
#124=DIRECTION('',(1.,-1.224646799147E-16,0.));
#125=ORIENTED_EDGE('',*,*,#126,.F.);
#126=EDGE_CURVE('',#127,#119,#129,.T.);
#127=VERTEX_POINT('',#128);
#128=CARTESIAN_POINT('',(2.95,-6.25,0.));
#129=LINE('',#128,#130);
#130=VECTOR('',#13,1.);
#131=ORIENTED_EDGE('',*,*,#132,.F.);
#132=EDGE_CURVE('',#53,#127,#133,.T.);
#133=LINE('',#54,#34);
#134=ORIENTED_EDGE('',*,*,#52,.T.);
#135=ORIENTED_EDGE('',*,*,#43,.T.);
#136=ORIENTED_EDGE('',*,*,#137,.F.);
#137=EDGE_CURVE('',#138,#38,#140,.T.);
#138=VERTEX_POINT('',#139);
#139=CARTESIAN_POINT('',(3.45,-6.25,0.8));
#140=LINE('',#139,#57);
#141=ORIENTED_EDGE('',*,*,#142,.F.);
#142=EDGE_CURVE('',#143,#138,#145,.T.);
#143=VERTEX_POINT('',#144);
#144=CARTESIAN_POINT('',(-1.45,-6.25,0.8));
#145=LINE('',#144,#123);
#146=ORIENTED_EDGE('',*,*,#147,.F.);
#147=EDGE_CURVE('',#148,#143,#150,.T.);
#148=VERTEX_POINT('',#149);
#149=CARTESIAN_POINT('',(-1.45,-6.25,2.5));
#150=LINE('',#151,#152);
#151=CARTESIAN_POINT('',(-1.45,-6.25,4.2));
#152=VECTOR('',#153,1.);
#153=DIRECTION('',(-1.359631073447E-32,-1.110223024625E-16,-1.));
#154=ORIENTED_EDGE('',*,*,#155,.T.);
#155=EDGE_CURVE('',#148,#156,#44,.T.);
#156=VERTEX_POINT('',#157);
#157=CARTESIAN_POINT('',(-1.95,-6.25,2.5));
#158=ORIENTED_EDGE('',*,*,#159,.T.);
#159=EDGE_CURVE('',#156,#160,#162,.T.);
#160=VERTEX_POINT('',#161);
#161=CARTESIAN_POINT('',(-1.95,-6.25,0.));
#162=LINE('',#163,#152);
#163=CARTESIAN_POINT('',(-1.95,-6.25,4.8));
#164=ORIENTED_EDGE('',*,*,#165,.F.);
#165=EDGE_CURVE('',#166,#160,#168,.T.);
#166=VERTEX_POINT('',#167);
#167=CARTESIAN_POINT('',(-0.95,-6.25,0.));
#168=LINE('',#167,#34);
#169=ORIENTED_EDGE('',*,*,#170,.T.);
#170=EDGE_CURVE('',#166,#117,#171,.T.);
#171=LINE('',#167,#130);
#172=PLANE('',#173);
#173=AXIS2_PLACEMENT_3D('',#174,#175,#176);
#174=CARTESIAN_POINT('',(1.,-6.25,0.939423076923));
#175=DIRECTION('',(-1.224646799147E-16,-1.,-4.111705995194E-31));
#176=DIRECTION('',(-5.03538758605E-47,-4.111705995194E-31,1.));
#177=ADVANCED_FACE('',(#178),#209,.F.);
#178=FACE_BOUND('',#179,.F.);
#179=EDGE_LOOP('',(#136,#180,#185,#190,#195,#199,#204,#36));
#180=ORIENTED_EDGE('',*,*,#181,.T.);
#181=EDGE_CURVE('',#138,#182,#184,.T.);
#182=VERTEX_POINT('',#183);
#183=CARTESIAN_POINT('',(3.45,-2.05,0.8));
#184=LINE('',#139,#99);
#185=ORIENTED_EDGE('',*,*,#186,.T.);
#186=EDGE_CURVE('',#182,#187,#189,.T.);
#187=VERTEX_POINT('',#188);
#188=CARTESIAN_POINT('',(3.45,-2.05,4.2));
#189=LINE('',#183,#57);
#190=ORIENTED_EDGE('',*,*,#191,.F.);
#191=EDGE_CURVE('',#192,#187,#194,.T.);
#192=VERTEX_POINT('',#193);
#193=CARTESIAN_POINT('',(3.45,-6.25,4.2));
#194=LINE('',#193,#99);
#195=ORIENTED_EDGE('',*,*,#196,.F.);
#196=EDGE_CURVE('',#197,#192,#140,.T.);
#197=VERTEX_POINT('',#198);
#198=CARTESIAN_POINT('',(3.45,-6.25,3.3));
#199=ORIENTED_EDGE('',*,*,#200,.T.);
#200=EDGE_CURVE('',#197,#201,#203,.T.);
#201=VERTEX_POINT('',#202);
#202=CARTESIAN_POINT('',(3.45,-4.65,3.3));
#203=LINE('',#198,#99);
#204=ORIENTED_EDGE('',*,*,#205,.F.);
#205=EDGE_CURVE('',#31,#201,#206,.T.);
#206=CIRCLE('',#207,0.4);
#207=AXIS2_PLACEMENT_3D('',#208,#124,#47);
#208=CARTESIAN_POINT('',(3.45,-4.65,2.9));
#209=PLANE('',#210);
#210=AXIS2_PLACEMENT_3D('',#139,#124,#47);
#211=ADVANCED_FACE('',(#212),#219,.F.);
#212=FACE_BOUND('',#213,.T.);
#213=EDGE_LOOP('',(#214,#215,#204,#218));
#214=ORIENTED_EDGE('',*,*,#102,.F.);
#215=ORIENTED_EDGE('',*,*,#216,.T.);
#216=EDGE_CURVE('',#96,#201,#217,.T.);
#217=LINE('',#97,#34);
#218=ORIENTED_EDGE('',*,*,#30,.F.);
#219=CYLINDRICAL_SURFACE('',#220,0.4);
#220=AXIS2_PLACEMENT_3D('',#105,#124,#47);
#221=ADVANCED_FACE('',(#222),#232,.F.);
#222=FACE_BOUND('',#223,.F.);
#223=EDGE_LOOP('',(#224,#229,#131,#58));
#224=ORIENTED_EDGE('',*,*,#225,.T.);
#225=EDGE_CURVE('',#60,#226,#228,.T.);
#226=VERTEX_POINT('',#227);
#227=CARTESIAN_POINT('',(2.95,1.35,0.));
#228=LINE('',#61,#34);
#229=ORIENTED_EDGE('',*,*,#230,.T.);
#230=EDGE_CURVE('',#226,#127,#231,.T.);
#231=LINE('',#227,#63);
#232=PLANE('',#233);
#233=AXIS2_PLACEMENT_3D('',#61,#13,#64);
#234=ADVANCED_FACE('',(#235),#246,.F.);
#235=FACE_BOUND('',#236,.F.);
#236=EDGE_LOOP('',(#237,#242,#245,#65));
#237=ORIENTED_EDGE('',*,*,#238,.T.);
#238=EDGE_CURVE('',#67,#239,#241,.T.);
#239=VERTEX_POINT('',#240);
#240=CARTESIAN_POINT('',(2.95,1.35,3.2));
#241=LINE('',#68,#34);
#242=ORIENTED_EDGE('',*,*,#243,.T.);
#243=EDGE_CURVE('',#239,#226,#244,.T.);
#244=LINE('',#240,#70);
#245=ORIENTED_EDGE('',*,*,#225,.F.);
#246=PLANE('',#247);
#247=AXIS2_PLACEMENT_3D('',#68,#64,#71);
#248=ADVANCED_FACE('',(#249),#260,.F.);
#249=FACE_BOUND('',#250,.F.);
#250=EDGE_LOOP('',(#251,#256,#259,#72));
#251=ORIENTED_EDGE('',*,*,#252,.T.);
#252=EDGE_CURVE('',#74,#253,#255,.T.);
#253=VERTEX_POINT('',#254);
#254=CARTESIAN_POINT('',(2.95,-0.25,4.1));
#255=LINE('',#75,#34);
#256=ORIENTED_EDGE('',*,*,#257,.T.);
#257=EDGE_CURVE('',#253,#239,#258,.T.);
#258=LINE('',#254,#77);
#259=ORIENTED_EDGE('',*,*,#238,.F.);
#260=PLANE('',#261);
#261=AXIS2_PLACEMENT_3D('',#75,#262,#78);
#262=DIRECTION('',(-6.00396857862E-17,-0.490261239633,-0.871575537125));
#263=ADVANCED_FACE('',(#264),#296,.F.);
#264=FACE_BOUND('',#265,.F.);
#265=EDGE_LOOP('',(#266,#273,#279,#282,#79,#283,#288,#293));
#266=ORIENTED_EDGE('',*,*,#267,.F.);
#267=EDGE_CURVE('',#268,#270,#272,.T.);
#268=VERTEX_POINT('',#269);
#269=CARTESIAN_POINT('',(2.75,-0.25,0.3));
#270=VERTEX_POINT('',#271);
#271=CARTESIAN_POINT('',(2.75,-0.25,4.2));
#272=LINE('',#269,#57);
#273=ORIENTED_EDGE('',*,*,#274,.T.);
#274=EDGE_CURVE('',#268,#275,#277,.T.);
#275=VERTEX_POINT('',#276);
#276=CARTESIAN_POINT('',(2.95,-0.25,0.3));
#277=LINE('',#278,#123);
#278=CARTESIAN_POINT('',(-1.95,-0.25,0.3));
#279=ORIENTED_EDGE('',*,*,#280,.T.);
#280=EDGE_CURVE('',#275,#253,#281,.T.);
#281=LINE('',#276,#130);
#282=ORIENTED_EDGE('',*,*,#252,.F.);
#283=ORIENTED_EDGE('',*,*,#284,.T.);
#284=EDGE_CURVE('',#81,#285,#287,.T.);
#285=VERTEX_POINT('',#286);
#286=CARTESIAN_POINT('',(3.4,-0.25,4.8));
#287=LINE('',#82,#34);
#288=ORIENTED_EDGE('',*,*,#289,.T.);
#289=EDGE_CURVE('',#285,#290,#292,.T.);
#290=VERTEX_POINT('',#291);
#291=CARTESIAN_POINT('',(3.4,-0.25,4.2));
#292=LINE('',#286,#152);
#293=ORIENTED_EDGE('',*,*,#294,.T.);
#294=EDGE_CURVE('',#290,#270,#295,.T.);
#295=LINE('',#291,#34);
#296=PLANE('',#297);
#297=AXIS2_PLACEMENT_3D('',#298,#28,#35);
#298=CARTESIAN_POINT('',(1.,-0.25,2.55));
#299=ADVANCED_FACE('',(#300),#382,.F.);
#300=FACE_BOUND('',#301,.F.);
#301=EDGE_LOOP('',(#302,#85,#303,#308,#313,#318,#323,#327,#332,#337,#343,#348,#353,#357,#362,#368,#374,#379));
#302=ORIENTED_EDGE('',*,*,#284,.F.);
#303=ORIENTED_EDGE('',*,*,#304,.T.);
#304=EDGE_CURVE('',#87,#305,#307,.T.);
#305=VERTEX_POINT('',#306);
#306=CARTESIAN_POINT('',(1.45,-6.25,4.8));
#307=LINE('',#88,#34);
#308=ORIENTED_EDGE('',*,*,#309,.T.);
#309=EDGE_CURVE('',#305,#310,#312,.T.);
#310=VERTEX_POINT('',#311);
#311=CARTESIAN_POINT('',(1.45,-2.35,4.8));
#312=LINE('',#306,#99);
#313=ORIENTED_EDGE('',*,*,#314,.T.);
#314=EDGE_CURVE('',#310,#315,#317,.T.);
#315=VERTEX_POINT('',#316);
#316=CARTESIAN_POINT('',(0.55,-2.35,4.8));
#317=LINE('',#311,#34);
#318=ORIENTED_EDGE('',*,*,#319,.T.);
#319=EDGE_CURVE('',#315,#320,#322,.T.);
#320=VERTEX_POINT('',#321);
#321=CARTESIAN_POINT('',(0.55,-6.25,4.8));
#322=LINE('',#316,#27);
#323=ORIENTED_EDGE('',*,*,#324,.T.);
#324=EDGE_CURVE('',#320,#325,#307,.T.);
#325=VERTEX_POINT('',#326);
#326=CARTESIAN_POINT('',(-0.45,-6.25,4.8));
#327=ORIENTED_EDGE('',*,*,#328,.F.);
#328=EDGE_CURVE('',#329,#325,#331,.T.);
#329=VERTEX_POINT('',#330);
#330=CARTESIAN_POINT('',(-0.45,-4.45,4.8));
#331=LINE('',#330,#27);
#332=ORIENTED_EDGE('',*,*,#333,.F.);
#333=EDGE_CURVE('',#334,#329,#336,.T.);
#334=VERTEX_POINT('',#335);
#335=CARTESIAN_POINT('',(-0.4,-4.45,4.8));
#336=LINE('',#335,#34);
#337=ORIENTED_EDGE('',*,*,#338,.F.);
#338=EDGE_CURVE('',#339,#334,#341,.T.);
#339=VERTEX_POINT('',#340);
#340=CARTESIAN_POINT('',(-0.4,-0.45,4.8));
#341=LINE('',#342,#27);
#342=CARTESIAN_POINT('',(-0.4,-0.25,4.8));
#343=ORIENTED_EDGE('',*,*,#344,.F.);
#344=EDGE_CURVE('',#345,#339,#347,.T.);
#345=VERTEX_POINT('',#346);
#346=CARTESIAN_POINT('',(0.75,-0.45,4.8));
#347=LINE('',#346,#34);
#348=ORIENTED_EDGE('',*,*,#349,.F.);
#349=EDGE_CURVE('',#350,#345,#352,.T.);
#350=VERTEX_POINT('',#351);
#351=CARTESIAN_POINT('',(0.75,-0.25,4.8));
#352=LINE('',#351,#27);
#353=ORIENTED_EDGE('',*,*,#354,.F.);
#354=EDGE_CURVE('',#355,#350,#287,.T.);
#355=VERTEX_POINT('',#356);
#356=CARTESIAN_POINT('',(1.25,-0.25,4.8));
#357=ORIENTED_EDGE('',*,*,#358,.T.);
#358=EDGE_CURVE('',#355,#359,#361,.T.);
#359=VERTEX_POINT('',#360);
#360=CARTESIAN_POINT('',(1.25,-0.45,4.8));
#361=LINE('',#356,#27);
#362=ORIENTED_EDGE('',*,*,#363,.F.);
#363=EDGE_CURVE('',#364,#359,#366,.T.);
#364=VERTEX_POINT('',#365);
#365=CARTESIAN_POINT('',(2.4,-0.45,4.8));
#366=LINE('',#367,#34);
#367=CARTESIAN_POINT('',(2.75,-0.45,4.8));
#368=ORIENTED_EDGE('',*,*,#369,.T.);
#369=EDGE_CURVE('',#364,#370,#372,.T.);
#370=VERTEX_POINT('',#371);
#371=CARTESIAN_POINT('',(2.4,-4.45,4.8));
#372=LINE('',#373,#27);
#373=CARTESIAN_POINT('',(2.4,-0.25,4.8));
#374=ORIENTED_EDGE('',*,*,#375,.T.);
#375=EDGE_CURVE('',#370,#376,#378,.T.);
#376=VERTEX_POINT('',#377);
#377=CARTESIAN_POINT('',(3.4,-4.45,4.8));
#378=LINE('',#371,#123);
#379=ORIENTED_EDGE('',*,*,#380,.T.);
#380=EDGE_CURVE('',#376,#285,#381,.T.);
#381=LINE('',#377,#99);
#382=PLANE('',#383);
#383=AXIS2_PLACEMENT_3D('',#82,#153,#35);
#384=ADVANCED_FACE('',(#385),#399,.T.);
#385=FACE_BOUND('',#386,.T.);
#386=EDGE_LOOP('',(#387,#390,#303,#391,#396,#195));
#387=ORIENTED_EDGE('',*,*,#388,.F.);
#388=EDGE_CURVE('',#92,#197,#389,.T.);
#389=LINE('',#93,#34);
#390=ORIENTED_EDGE('',*,*,#91,.T.);
#391=ORIENTED_EDGE('',*,*,#392,.T.);
#392=EDGE_CURVE('',#305,#393,#395,.T.);
#393=VERTEX_POINT('',#394);
#394=CARTESIAN_POINT('',(1.45,-6.25,4.2));
#395=LINE('',#306,#152);
#396=ORIENTED_EDGE('',*,*,#397,.F.);
#397=EDGE_CURVE('',#192,#393,#398,.T.);
#398=LINE('',#193,#34);
#399=PLANE('',#400);
#400=AXIS2_PLACEMENT_3D('',#401,#28,#35);
#401=CARTESIAN_POINT('',(1.,-6.25,2.55));
#402=ADVANCED_FACE('',(#403),#408,.T.);
#403=FACE_BOUND('',#404,.T.);
#404=EDGE_LOOP('',(#405,#406,#199,#407));
#405=ORIENTED_EDGE('',*,*,#95,.F.);
#406=ORIENTED_EDGE('',*,*,#388,.T.);
#407=ORIENTED_EDGE('',*,*,#216,.F.);
#408=PLANE('',#409);
#409=AXIS2_PLACEMENT_3D('',#93,#153,#100);
#410=ADVANCED_FACE('',(#411),#460,.F.);
#411=FACE_BOUND('',#412,.F.);
#412=EDGE_LOOP('',(#413,#419,#115,#424,#427,#428,#433,#438,#443,#447,#452,#457));
#413=ORIENTED_EDGE('',*,*,#414,.F.);
#414=EDGE_CURVE('',#415,#417,#277,.T.);
#415=VERTEX_POINT('',#416);
#416=CARTESIAN_POINT('',(-0.95,-0.25,0.3));
#417=VERTEX_POINT('',#418);
#418=CARTESIAN_POINT('',(-0.75,-0.25,0.3));
#419=ORIENTED_EDGE('',*,*,#420,.F.);
#420=EDGE_CURVE('',#117,#415,#421,.T.);
#421=LINE('',#118,#422);
#422=VECTOR('',#423,1.);
#423=DIRECTION('',(1.224646799147E-16,1.,0.));
#424=ORIENTED_EDGE('',*,*,#425,.T.);
#425=EDGE_CURVE('',#119,#275,#426,.T.);
#426=LINE('',#120,#422);
#427=ORIENTED_EDGE('',*,*,#274,.F.);
#428=ORIENTED_EDGE('',*,*,#429,.F.);
#429=EDGE_CURVE('',#430,#268,#432,.T.);
#430=VERTEX_POINT('',#431);
#431=CARTESIAN_POINT('',(2.75,-0.45,0.3));
#432=LINE('',#431,#99);
#433=ORIENTED_EDGE('',*,*,#434,.T.);
#434=EDGE_CURVE('',#430,#435,#437,.T.);
#435=VERTEX_POINT('',#436);
#436=CARTESIAN_POINT('',(1.25,-0.45,0.3));
#437=LINE('',#431,#34);
#438=ORIENTED_EDGE('',*,*,#439,.T.);
#439=EDGE_CURVE('',#435,#440,#442,.T.);
#440=VERTEX_POINT('',#441);
#441=CARTESIAN_POINT('',(1.25,-0.25,0.3));
#442=LINE('',#436,#99);
#443=ORIENTED_EDGE('',*,*,#444,.F.);
#444=EDGE_CURVE('',#445,#440,#277,.T.);
#445=VERTEX_POINT('',#446);
#446=CARTESIAN_POINT('',(0.75,-0.25,0.3));
#447=ORIENTED_EDGE('',*,*,#448,.F.);
#448=EDGE_CURVE('',#449,#445,#451,.T.);
#449=VERTEX_POINT('',#450);
#450=CARTESIAN_POINT('',(0.75,-0.45,0.3));
#451=LINE('',#450,#99);
#452=ORIENTED_EDGE('',*,*,#453,.T.);
#453=EDGE_CURVE('',#449,#454,#456,.T.);
#454=VERTEX_POINT('',#455);
#455=CARTESIAN_POINT('',(-0.75,-0.45,0.3));
#456=LINE('',#450,#34);
#457=ORIENTED_EDGE('',*,*,#458,.T.);
#458=EDGE_CURVE('',#454,#417,#459,.T.);
#459=LINE('',#455,#99);
#460=PLANE('',#461);
#461=AXIS2_PLACEMENT_3D('',#278,#47,#124);
#462=ADVANCED_FACE('',(#463),#466,.T.);
#463=FACE_BOUND('',#464,.T.);
#464=EDGE_LOOP('',(#279,#256,#242,#229,#465,#424));
#465=ORIENTED_EDGE('',*,*,#126,.T.);
#466=PLANE('',#467);
#467=AXIS2_PLACEMENT_3D('',#468,#35,#13);
#468=CARTESIAN_POINT('',(2.95,-1.566489992801,0.968760807125));
#469=ADVANCED_FACE('',(#470),#500,.F.);
#470=FACE_BOUND('',#471,.F.);
#471=EDGE_LOOP('',(#141,#472,#477,#482,#487,#492,#497,#499));
#472=ORIENTED_EDGE('',*,*,#473,.T.);
#473=EDGE_CURVE('',#143,#474,#476,.T.);
#474=VERTEX_POINT('',#475);
#475=CARTESIAN_POINT('',(-1.45,-2.05,0.8));
#476=LINE('',#144,#99);
#477=ORIENTED_EDGE('',*,*,#478,.T.);
#478=EDGE_CURVE('',#474,#479,#481,.T.);
#479=VERTEX_POINT('',#480);
#480=CARTESIAN_POINT('',(0.8,-2.05,0.8));
#481=LINE('',#475,#123);
#482=ORIENTED_EDGE('',*,*,#483,.T.);
#483=EDGE_CURVE('',#479,#484,#486,.T.);
#484=VERTEX_POINT('',#485);
#485=CARTESIAN_POINT('',(0.8,-3.95,0.8));
#486=LINE('',#480,#27);
#487=ORIENTED_EDGE('',*,*,#488,.T.);
#488=EDGE_CURVE('',#484,#489,#491,.T.);
#489=VERTEX_POINT('',#490);
#490=CARTESIAN_POINT('',(1.2,-3.95,0.8));
#491=LINE('',#485,#123);
#492=ORIENTED_EDGE('',*,*,#493,.F.);
#493=EDGE_CURVE('',#494,#489,#496,.T.);
#494=VERTEX_POINT('',#495);
#495=CARTESIAN_POINT('',(1.2,-2.05,0.8));
#496=LINE('',#495,#27);
#497=ORIENTED_EDGE('',*,*,#498,.T.);
#498=EDGE_CURVE('',#494,#182,#481,.T.);
#499=ORIENTED_EDGE('',*,*,#181,.F.);
#500=PLANE('',#501);
#501=AXIS2_PLACEMENT_3D('',#144,#153,#124);
#502=ADVANCED_FACE('',(#503),#535,.F.);
#503=FACE_BOUND('',#504,.F.);
#504=EDGE_LOOP('',(#505,#510,#515,#518,#146,#519,#525,#532));
#505=ORIENTED_EDGE('',*,*,#506,.F.);
#506=EDGE_CURVE('',#507,#508,#150,.T.);
#507=VERTEX_POINT('',#151);
#508=VERTEX_POINT('',#509);
#509=CARTESIAN_POINT('',(-1.45,-6.25,3.3));
#510=ORIENTED_EDGE('',*,*,#511,.T.);
#511=EDGE_CURVE('',#507,#512,#514,.T.);
#512=VERTEX_POINT('',#513);
#513=CARTESIAN_POINT('',(-1.45,-2.05,4.2));
#514=LINE('',#151,#99);
#515=ORIENTED_EDGE('',*,*,#516,.T.);
#516=EDGE_CURVE('',#512,#474,#517,.T.);
#517=LINE('',#513,#152);
#518=ORIENTED_EDGE('',*,*,#473,.F.);
#519=ORIENTED_EDGE('',*,*,#520,.T.);
#520=EDGE_CURVE('',#148,#521,#523,.T.);
#521=VERTEX_POINT('',#522);
#522=CARTESIAN_POINT('',(-1.45,-4.65,2.5));
#523=LINE('',#524,#99);
#524=CARTESIAN_POINT('',(-1.45,-5.45,2.5));
#525=ORIENTED_EDGE('',*,*,#526,.T.);
#526=EDGE_CURVE('',#521,#527,#529,.T.);
#527=VERTEX_POINT('',#528);
#528=CARTESIAN_POINT('',(-1.45,-4.65,3.3));
#529=CIRCLE('',#530,0.4);
#530=AXIS2_PLACEMENT_3D('',#531,#124,#47);
#531=CARTESIAN_POINT('',(-1.45,-4.65,2.9));
#532=ORIENTED_EDGE('',*,*,#533,.T.);
#533=EDGE_CURVE('',#527,#508,#534,.T.);
#534=LINE('',#509,#27);
#535=PLANE('',#536);
#536=AXIS2_PLACEMENT_3D('',#151,#35,#153);
#537=ADVANCED_FACE('',(#538),#45,.T.);
#538=FACE_BOUND('',#539,.T.);
#539=EDGE_LOOP('',(#519,#540,#544,#548));
#540=ORIENTED_EDGE('',*,*,#541,.T.);
#541=EDGE_CURVE('',#521,#542,#33,.T.);
#542=VERTEX_POINT('',#543);
#543=CARTESIAN_POINT('',(-1.95,-4.65,2.5));
#544=ORIENTED_EDGE('',*,*,#545,.T.);
#545=EDGE_CURVE('',#542,#156,#546,.T.);
#546=LINE('',#547,#27);
#547=CARTESIAN_POINT('',(-1.95,-2.45,2.5));
#548=ORIENTED_EDGE('',*,*,#155,.F.);
#549=ADVANCED_FACE('',(#550),#593,.T.);
#550=FACE_BOUND('',#551,.T.);
#551=EDGE_LOOP('',(#552,#559,#564,#569,#572,#573,#574,#581,#587,#590));
#552=ORIENTED_EDGE('',*,*,#553,.T.);
#553=EDGE_CURVE('',#554,#556,#558,.T.);
#554=VERTEX_POINT('',#555);
#555=CARTESIAN_POINT('',(-1.95,-0.25,4.8));
#556=VERTEX_POINT('',#557);
#557=CARTESIAN_POINT('',(-1.95,-0.25,4.1));
#558=LINE('',#555,#152);
#559=ORIENTED_EDGE('',*,*,#560,.T.);
#560=EDGE_CURVE('',#556,#561,#563,.T.);
#561=VERTEX_POINT('',#562);
#562=CARTESIAN_POINT('',(-1.95,1.35,3.2));
#563=LINE('',#557,#77);
#564=ORIENTED_EDGE('',*,*,#565,.T.);
#565=EDGE_CURVE('',#561,#566,#568,.T.);
#566=VERTEX_POINT('',#567);
#567=CARTESIAN_POINT('',(-1.95,1.35,0.));
#568=LINE('',#562,#70);
#569=ORIENTED_EDGE('',*,*,#570,.T.);
#570=EDGE_CURVE('',#566,#160,#571,.T.);
#571=LINE('',#567,#63);
#572=ORIENTED_EDGE('',*,*,#159,.F.);
#573=ORIENTED_EDGE('',*,*,#545,.F.);
#574=ORIENTED_EDGE('',*,*,#575,.T.);
#575=EDGE_CURVE('',#542,#576,#578,.T.);
#576=VERTEX_POINT('',#577);
#577=CARTESIAN_POINT('',(-1.95,-4.65,3.3));
#578=CIRCLE('',#579,0.4);
#579=AXIS2_PLACEMENT_3D('',#580,#124,#47);
#580=CARTESIAN_POINT('',(-1.95,-4.65,2.9));
#581=ORIENTED_EDGE('',*,*,#582,.F.);
#582=EDGE_CURVE('',#583,#576,#585,.T.);
#583=VERTEX_POINT('',#584);
#584=CARTESIAN_POINT('',(-1.95,-6.25,3.3));
#585=LINE('',#586,#99);
#586=CARTESIAN_POINT('',(-1.95,-3.25,3.3));
#587=ORIENTED_EDGE('',*,*,#588,.F.);
#588=EDGE_CURVE('',#589,#583,#162,.T.);
#589=VERTEX_POINT('',#163);
#590=ORIENTED_EDGE('',*,*,#591,.F.);
#591=EDGE_CURVE('',#554,#589,#592,.T.);
#592=LINE('',#555,#27);
#593=PLANE('',#594);
#594=AXIS2_PLACEMENT_3D('',#595,#596,#597);
#595=CARTESIAN_POINT('',(-1.95,-2.909897467985,2.368621550033));
#596=DIRECTION('',(-1.,1.224646799147E-16,-3.525915016947E-32));
#597=DIRECTION('',(-3.525915016947E-32,4.31800053957E-48,1.));
#598=ADVANCED_FACE('',(#599),#609,.F.);
#599=FACE_BOUND('',#600,.F.);
#600=EDGE_LOOP('',(#601,#569,#164,#606));
#601=ORIENTED_EDGE('',*,*,#602,.T.);
#602=EDGE_CURVE('',#603,#566,#605,.T.);
#603=VERTEX_POINT('',#604);
#604=CARTESIAN_POINT('',(-0.95,1.35,0.));
#605=LINE('',#604,#34);
#606=ORIENTED_EDGE('',*,*,#607,.F.);
#607=EDGE_CURVE('',#603,#166,#608,.T.);
#608=LINE('',#604,#63);
#609=PLANE('',#610);
#610=AXIS2_PLACEMENT_3D('',#604,#13,#64);
#611=ADVANCED_FACE('',(#612),#629,.F.);
#612=FACE_BOUND('',#613,.F.);
#613=EDGE_LOOP('',(#614,#619,#624,#627,#169,#628));
#614=ORIENTED_EDGE('',*,*,#615,.T.);
#615=EDGE_CURVE('',#415,#616,#618,.T.);
#616=VERTEX_POINT('',#617);
#617=CARTESIAN_POINT('',(-0.95,-0.25,4.1));
#618=LINE('',#416,#130);
#619=ORIENTED_EDGE('',*,*,#620,.T.);
#620=EDGE_CURVE('',#616,#621,#623,.T.);
#621=VERTEX_POINT('',#622);
#622=CARTESIAN_POINT('',(-0.95,1.35,3.2));
#623=LINE('',#617,#77);
#624=ORIENTED_EDGE('',*,*,#625,.T.);
#625=EDGE_CURVE('',#621,#603,#626,.T.);
#626=LINE('',#622,#70);
#627=ORIENTED_EDGE('',*,*,#607,.T.);
#628=ORIENTED_EDGE('',*,*,#420,.T.);
#629=PLANE('',#630);
#630=AXIS2_PLACEMENT_3D('',#631,#35,#13);
#631=CARTESIAN_POINT('',(-0.95,-1.566489992801,0.968760807125));
#632=ADVANCED_FACE('',(#633),#699,.F.);
#633=FACE_BOUND('',#634,.F.);
#634=EDGE_LOOP('',(#396,#635,#636,#641,#646,#651,#657,#661,#667,#672,#677,#679,#680,#684,#690,#696));
#635=ORIENTED_EDGE('',*,*,#191,.T.);
#636=ORIENTED_EDGE('',*,*,#637,.T.);
#637=EDGE_CURVE('',#187,#638,#640,.T.);
#638=VERTEX_POINT('',#639);
#639=CARTESIAN_POINT('',(3.4,-2.05,4.2));
#640=LINE('',#188,#34);
#641=ORIENTED_EDGE('',*,*,#642,.F.);
#642=EDGE_CURVE('',#643,#638,#645,.T.);
#643=VERTEX_POINT('',#644);
#644=CARTESIAN_POINT('',(3.4,-4.45,4.2));
#645=LINE('',#644,#99);
#646=ORIENTED_EDGE('',*,*,#647,.F.);
#647=EDGE_CURVE('',#648,#643,#650,.T.);
#648=VERTEX_POINT('',#649);
#649=CARTESIAN_POINT('',(2.4,-4.45,4.2));
#650=LINE('',#649,#123);
#651=ORIENTED_EDGE('',*,*,#652,.F.);
#652=EDGE_CURVE('',#653,#648,#655,.T.);
#653=VERTEX_POINT('',#654);
#654=CARTESIAN_POINT('',(2.4,-2.05,4.2));
#655=LINE('',#656,#27);
#656=CARTESIAN_POINT('',(2.4,-0.25,4.2));
#657=ORIENTED_EDGE('',*,*,#658,.T.);
#658=EDGE_CURVE('',#653,#659,#640,.T.);
#659=VERTEX_POINT('',#660);
#660=CARTESIAN_POINT('',(-0.4,-2.05,4.2));
#661=ORIENTED_EDGE('',*,*,#662,.T.);
#662=EDGE_CURVE('',#659,#663,#665,.T.);
#663=VERTEX_POINT('',#664);
#664=CARTESIAN_POINT('',(-0.4,-4.45,4.2));
#665=LINE('',#666,#27);
#666=CARTESIAN_POINT('',(-0.4,-0.25,4.2));
#667=ORIENTED_EDGE('',*,*,#668,.T.);
#668=EDGE_CURVE('',#663,#669,#671,.T.);
#669=VERTEX_POINT('',#670);
#670=CARTESIAN_POINT('',(-1.4,-4.45,4.2));
#671=LINE('',#664,#34);
#672=ORIENTED_EDGE('',*,*,#673,.T.);
#673=EDGE_CURVE('',#669,#674,#676,.T.);
#674=VERTEX_POINT('',#675);
#675=CARTESIAN_POINT('',(-1.4,-2.05,4.2));
#676=LINE('',#670,#99);
#677=ORIENTED_EDGE('',*,*,#678,.T.);
#678=EDGE_CURVE('',#674,#512,#640,.T.);
#679=ORIENTED_EDGE('',*,*,#511,.F.);
#680=ORIENTED_EDGE('',*,*,#681,.F.);
#681=EDGE_CURVE('',#682,#507,#398,.T.);
#682=VERTEX_POINT('',#683);
#683=CARTESIAN_POINT('',(0.55,-6.25,4.2));
#684=ORIENTED_EDGE('',*,*,#685,.F.);
#685=EDGE_CURVE('',#686,#682,#688,.T.);
#686=VERTEX_POINT('',#687);
#687=CARTESIAN_POINT('',(0.55,-2.35,4.2));
#688=LINE('',#689,#27);
#689=CARTESIAN_POINT('',(0.55,-4.3,4.2));
#690=ORIENTED_EDGE('',*,*,#691,.F.);
#691=EDGE_CURVE('',#692,#686,#694,.T.);
#692=VERTEX_POINT('',#693);
#693=CARTESIAN_POINT('',(1.45,-2.35,4.2));
#694=LINE('',#695,#34);
#695=CARTESIAN_POINT('',(2.45,-2.35,4.2));
#696=ORIENTED_EDGE('',*,*,#697,.F.);
#697=EDGE_CURVE('',#393,#692,#698,.T.);
#698=LINE('',#394,#99);
#699=PLANE('',#700);
#700=AXIS2_PLACEMENT_3D('',#193,#47,#35);
#701=ADVANCED_FACE('',(#702,#721,#747),#773,.T.);
#702=FACE_BOUND('',#703,.T.);
#703=EDGE_LOOP('',(#185,#636,#704,#657,#706,#677,#515,#477,#708,#713,#718,#497));
#704=ORIENTED_EDGE('',*,*,#705,.T.);
#705=EDGE_CURVE('',#638,#653,#640,.T.);
#706=ORIENTED_EDGE('',*,*,#707,.T.);
#707=EDGE_CURVE('',#659,#674,#640,.T.);
#708=ORIENTED_EDGE('',*,*,#709,.F.);
#709=EDGE_CURVE('',#710,#479,#712,.T.);
#710=VERTEX_POINT('',#711);
#711=CARTESIAN_POINT('',(0.8,-2.05,1.1));
#712=LINE('',#711,#152);
#713=ORIENTED_EDGE('',*,*,#714,.F.);
#714=EDGE_CURVE('',#715,#710,#717,.T.);
#715=VERTEX_POINT('',#716);
#716=CARTESIAN_POINT('',(1.2,-2.05,1.1));
#717=LINE('',#716,#34);
#718=ORIENTED_EDGE('',*,*,#719,.F.);
#719=EDGE_CURVE('',#494,#715,#720,.T.);
#720=LINE('',#495,#57);
#721=FACE_BOUND('',#722,.T.);
#722=EDGE_LOOP('',(#723,#731,#737,#743));
#723=ORIENTED_EDGE('',*,*,#724,.T.);
#724=EDGE_CURVE('',#725,#727,#729,.T.);
#725=VERTEX_POINT('',#726);
#726=CARTESIAN_POINT('',(0.25,-2.05,3.35));
#727=VERTEX_POINT('',#728);
#728=CARTESIAN_POINT('',(0.25,-2.05,2.85));
#729=LINE('',#730,#152);
#730=CARTESIAN_POINT('',(0.25,-2.05,1.901106711288));
#731=ORIENTED_EDGE('',*,*,#732,.T.);
#732=EDGE_CURVE('',#727,#733,#735,.T.);
#733=VERTEX_POINT('',#734);
#734=CARTESIAN_POINT('',(-0.25,-2.05,2.85));
#735=LINE('',#736,#34);
#736=CARTESIAN_POINT('',(0.625,-2.05,2.85));
#737=ORIENTED_EDGE('',*,*,#738,.F.);
#738=EDGE_CURVE('',#739,#733,#741,.T.);
#739=VERTEX_POINT('',#740);
#740=CARTESIAN_POINT('',(-0.25,-2.05,3.35));
#741=LINE('',#742,#152);
#742=CARTESIAN_POINT('',(-0.25,-2.05,1.901106711288));
#743=ORIENTED_EDGE('',*,*,#744,.T.);
#744=EDGE_CURVE('',#739,#725,#745,.T.);
#745=LINE('',#746,#123);
#746=CARTESIAN_POINT('',(0.625,-2.05,3.35));
#747=FACE_BOUND('',#748,.T.);
#748=EDGE_LOOP('',(#749,#757,#763,#769));
#749=ORIENTED_EDGE('',*,*,#750,.T.);
#750=EDGE_CURVE('',#751,#753,#755,.T.);
#751=VERTEX_POINT('',#752);
#752=CARTESIAN_POINT('',(2.25,-2.05,3.35));
#753=VERTEX_POINT('',#754);
#754=CARTESIAN_POINT('',(2.25,-2.05,2.85));
#755=LINE('',#756,#152);
#756=CARTESIAN_POINT('',(2.25,-2.05,1.901106711288));
#757=ORIENTED_EDGE('',*,*,#758,.T.);
#758=EDGE_CURVE('',#753,#759,#761,.T.);
#759=VERTEX_POINT('',#760);
#760=CARTESIAN_POINT('',(1.75,-2.05,2.85));
#761=LINE('',#762,#34);
#762=CARTESIAN_POINT('',(1.625,-2.05,2.85));
#763=ORIENTED_EDGE('',*,*,#764,.F.);
#764=EDGE_CURVE('',#765,#759,#767,.T.);
#765=VERTEX_POINT('',#766);
#766=CARTESIAN_POINT('',(1.75,-2.05,3.35));
#767=LINE('',#768,#152);
#768=CARTESIAN_POINT('',(1.75,-2.05,1.901106711288));
#769=ORIENTED_EDGE('',*,*,#770,.T.);
#770=EDGE_CURVE('',#765,#751,#771,.T.);
#771=LINE('',#772,#123);
#772=CARTESIAN_POINT('',(1.625,-2.05,3.35));
#773=PLANE('',#774);
#774=AXIS2_PLACEMENT_3D('',#775,#28,#35);
#775=CARTESIAN_POINT('',(1.,-2.05,2.5));
#776=ADVANCED_FACE('',(#777),#804,.F.);
#777=FACE_BOUND('',#778,.F.);
#778=EDGE_LOOP('',(#779,#780,#786,#793,#798,#803));
#779=ORIENTED_EDGE('',*,*,#267,.T.);
#780=ORIENTED_EDGE('',*,*,#781,.T.);
#781=EDGE_CURVE('',#270,#782,#784,.T.);
#782=VERTEX_POINT('',#783);
#783=CARTESIAN_POINT('',(2.75,-0.4,4.2));
#784=LINE('',#785,#27);
#785=CARTESIAN_POINT('',(2.75,-1.335399017773,4.2));
#786=ORIENTED_EDGE('',*,*,#787,.T.);
#787=EDGE_CURVE('',#782,#788,#790,.T.);
#788=VERTEX_POINT('',#789);
#789=CARTESIAN_POINT('',(2.75,-0.35,3.6));
#790=LINE('',#367,#791);
#791=VECTOR('',#792,1.);
#792=DIRECTION('',(1.017013810865E-17,8.304547985374E-02,-0.996545758245));
#793=ORIENTED_EDGE('',*,*,#794,.T.);
#794=EDGE_CURVE('',#788,#795,#797,.T.);
#795=VERTEX_POINT('',#796);
#796=CARTESIAN_POINT('',(2.75,-0.35,2.6));
#797=LINE('',#789,#152);
#798=ORIENTED_EDGE('',*,*,#799,.T.);
#799=EDGE_CURVE('',#795,#430,#800,.T.);
#800=LINE('',#796,#801);
#801=VECTOR('',#802,1.);
#802=DIRECTION('',(-5.319525767383E-18,-4.343722427631E-02,-0.999056158355));
#803=ORIENTED_EDGE('',*,*,#429,.T.);
#804=PLANE('',#805);
#805=AXIS2_PLACEMENT_3D('',#806,#124,#100);
#806=CARTESIAN_POINT('',(2.75,-0.320798035545,2.550475523299));
#807=ADVANCED_FACE('',(#808),#821,.T.);
#808=FACE_BOUND('',#809,.T.);
#809=EDGE_LOOP('',(#810,#811,#293,#780,#813,#819));
#810=ORIENTED_EDGE('',*,*,#705,.F.);
#811=ORIENTED_EDGE('',*,*,#812,.T.);
#812=EDGE_CURVE('',#638,#290,#645,.T.);
#813=ORIENTED_EDGE('',*,*,#814,.T.);
#814=EDGE_CURVE('',#782,#815,#817,.T.);
#815=VERTEX_POINT('',#816);
#816=CARTESIAN_POINT('',(2.4,-0.4,4.2));
#817=LINE('',#818,#34);
#818=CARTESIAN_POINT('',(2.825,-0.4,4.2));
#819=ORIENTED_EDGE('',*,*,#820,.T.);
#820=EDGE_CURVE('',#815,#653,#655,.T.);
#821=PLANE('',#822);
#822=AXIS2_PLACEMENT_3D('',#823,#47,#100);
#823=CARTESIAN_POINT('',(2.9,-2.35,4.2));
#824=ADVANCED_FACE('',(#825),#831,.F.);
#825=FACE_BOUND('',#826,.T.);
#826=EDGE_LOOP('',(#379,#288,#827,#641,#828));
#827=ORIENTED_EDGE('',*,*,#812,.F.);
#828=ORIENTED_EDGE('',*,*,#829,.F.);
#829=EDGE_CURVE('',#376,#643,#830,.T.);
#830=LINE('',#377,#152);
#831=PLANE('',#832);
#832=AXIS2_PLACEMENT_3D('',#377,#124,#100);
#833=ADVANCED_FACE('',(#834),#841,.F.);
#834=FACE_BOUND('',#835,.F.);
#835=EDGE_LOOP('',(#836,#837,#840,#828));
#836=ORIENTED_EDGE('',*,*,#375,.F.);
#837=ORIENTED_EDGE('',*,*,#838,.T.);
#838=EDGE_CURVE('',#370,#648,#839,.T.);
#839=LINE('',#371,#152);
#840=ORIENTED_EDGE('',*,*,#647,.T.);
#841=PLANE('',#842);
#842=AXIS2_PLACEMENT_3D('',#371,#28,#124);
#843=ADVANCED_FACE('',(#844),#851,.F.);
#844=FACE_BOUND('',#845,.T.);
#845=EDGE_LOOP('',(#368,#837,#651,#846,#847));
#846=ORIENTED_EDGE('',*,*,#820,.F.);
#847=ORIENTED_EDGE('',*,*,#848,.F.);
#848=EDGE_CURVE('',#364,#815,#849,.T.);
#849=LINE('',#850,#791);
#850=CARTESIAN_POINT('',(2.4,-0.449310344828,4.791724137931));
#851=PLANE('',#852);
#852=AXIS2_PLACEMENT_3D('',#373,#35,#28);
#853=ADVANCED_FACE('',(#854),#866,.F.);
#854=FACE_BOUND('',#855,.F.);
#855=EDGE_LOOP('',(#847,#856,#857,#862,#865,#813));
#856=ORIENTED_EDGE('',*,*,#363,.T.);
#857=ORIENTED_EDGE('',*,*,#858,.T.);
#858=EDGE_CURVE('',#359,#859,#861,.T.);
#859=VERTEX_POINT('',#860);
#860=CARTESIAN_POINT('',(1.25,-0.35,3.6));
#861=LINE('',#360,#791);
#862=ORIENTED_EDGE('',*,*,#863,.F.);
#863=EDGE_CURVE('',#788,#859,#864,.T.);
#864=LINE('',#789,#34);
#865=ORIENTED_EDGE('',*,*,#787,.F.);
#866=PLANE('',#867);
#867=AXIS2_PLACEMENT_3D('',#367,#868,#792);
#868=DIRECTION('',(-1.220416573038E-16,-0.996545758245,-8.304547985374E-02));
#869=ADVANCED_FACE('',(#870),#883,.T.);
#870=FACE_BOUND('',#871,.T.);
#871=EDGE_LOOP('',(#357,#857,#872,#877,#438,#880));
#872=ORIENTED_EDGE('',*,*,#873,.T.);
#873=EDGE_CURVE('',#859,#874,#876,.T.);
#874=VERTEX_POINT('',#875);
#875=CARTESIAN_POINT('',(1.25,-0.35,2.6));
#876=LINE('',#860,#152);
#877=ORIENTED_EDGE('',*,*,#878,.T.);
#878=EDGE_CURVE('',#874,#435,#879,.T.);
#879=LINE('',#875,#801);
#880=ORIENTED_EDGE('',*,*,#881,.T.);
#881=EDGE_CURVE('',#440,#355,#882,.T.);
#882=LINE('',#441,#57);
#883=PLANE('',#884);
#884=AXIS2_PLACEMENT_3D('',#885,#124,#100);
#885=CARTESIAN_POINT('',(1.25,-0.320798035545,2.550475523299));
#886=ADVANCED_FACE('',(#887),#296,.F.);
#887=FACE_BOUND('',#888,.F.);
#888=EDGE_LOOP('',(#889,#880,#890,#891));
#889=ORIENTED_EDGE('',*,*,#444,.T.);
#890=ORIENTED_EDGE('',*,*,#354,.T.);
#891=ORIENTED_EDGE('',*,*,#892,.F.);
#892=EDGE_CURVE('',#445,#350,#893,.T.);
#893=LINE('',#446,#57);
#894=ADVANCED_FACE('',(#895),#913,.F.);
#895=FACE_BOUND('',#896,.F.);
#896=EDGE_LOOP('',(#897,#898,#903,#908,#911,#912));
#897=ORIENTED_EDGE('',*,*,#349,.T.);
#898=ORIENTED_EDGE('',*,*,#899,.T.);
#899=EDGE_CURVE('',#345,#900,#902,.T.);
#900=VERTEX_POINT('',#901);
#901=CARTESIAN_POINT('',(0.75,-0.35,3.6));
#902=LINE('',#346,#791);
#903=ORIENTED_EDGE('',*,*,#904,.T.);
#904=EDGE_CURVE('',#900,#905,#907,.T.);
#905=VERTEX_POINT('',#906);
#906=CARTESIAN_POINT('',(0.75,-0.35,2.6));
#907=LINE('',#901,#152);
#908=ORIENTED_EDGE('',*,*,#909,.T.);
#909=EDGE_CURVE('',#905,#449,#910,.T.);
#910=LINE('',#906,#801);
#911=ORIENTED_EDGE('',*,*,#448,.T.);
#912=ORIENTED_EDGE('',*,*,#892,.T.);
#913=PLANE('',#914);
#914=AXIS2_PLACEMENT_3D('',#915,#124,#100);
#915=CARTESIAN_POINT('',(0.75,-0.320798035545,2.550475523299));
#916=ADVANCED_FACE('',(#917),#942,.F.);
#917=FACE_BOUND('',#918,.F.);
#918=EDGE_LOOP('',(#919,#920,#921,#927,#933,#939));
#919=ORIENTED_EDGE('',*,*,#899,.F.);
#920=ORIENTED_EDGE('',*,*,#344,.T.);
#921=ORIENTED_EDGE('',*,*,#922,.T.);
#922=EDGE_CURVE('',#339,#923,#925,.T.);
#923=VERTEX_POINT('',#924);
#924=CARTESIAN_POINT('',(-0.4,-0.4,4.2));
#925=LINE('',#926,#791);
#926=CARTESIAN_POINT('',(-0.4,-0.449310344828,4.791724137931));
#927=ORIENTED_EDGE('',*,*,#928,.F.);
#928=EDGE_CURVE('',#929,#923,#931,.T.);
#929=VERTEX_POINT('',#930);
#930=CARTESIAN_POINT('',(-0.75,-0.4,4.2));
#931=LINE('',#932,#123);
#932=CARTESIAN_POINT('',(-7.5E-02,-0.4,4.2));
#933=ORIENTED_EDGE('',*,*,#934,.T.);
#934=EDGE_CURVE('',#929,#935,#937,.T.);
#935=VERTEX_POINT('',#936);
#936=CARTESIAN_POINT('',(-0.75,-0.35,3.6));
#937=LINE('',#938,#791);
#938=CARTESIAN_POINT('',(-0.75,-0.45,4.8));
#939=ORIENTED_EDGE('',*,*,#940,.F.);
#940=EDGE_CURVE('',#900,#935,#941,.T.);
#941=LINE('',#901,#34);
#942=PLANE('',#943);
#943=AXIS2_PLACEMENT_3D('',#346,#868,#792);
#944=ADVANCED_FACE('',(#945),#952,.T.);
#945=FACE_BOUND('',#946,.T.);
#946=EDGE_LOOP('',(#337,#921,#947,#661,#949));
#947=ORIENTED_EDGE('',*,*,#948,.T.);
#948=EDGE_CURVE('',#923,#659,#665,.T.);
#949=ORIENTED_EDGE('',*,*,#950,.F.);
#950=EDGE_CURVE('',#334,#663,#951,.T.);
#951=LINE('',#335,#152);
#952=PLANE('',#953);
#953=AXIS2_PLACEMENT_3D('',#342,#35,#28);
#954=ADVANCED_FACE('',(#955),#980,.T.);
#955=FACE_BOUND('',#956,.T.);
#956=EDGE_LOOP('',(#332,#957,#667,#958,#963,#967,#972,#977));
#957=ORIENTED_EDGE('',*,*,#950,.T.);
#958=ORIENTED_EDGE('',*,*,#959,.F.);
#959=EDGE_CURVE('',#960,#669,#962,.T.);
#960=VERTEX_POINT('',#961);
#961=CARTESIAN_POINT('',(-1.4,-4.45,4.8));
#962=LINE('',#961,#152);
#963=ORIENTED_EDGE('',*,*,#964,.F.);
#964=EDGE_CURVE('',#965,#960,#336,.T.);
#965=VERTEX_POINT('',#966);
#966=CARTESIAN_POINT('',(-0.95,-4.45,4.8));
#967=ORIENTED_EDGE('',*,*,#968,.F.);
#968=EDGE_CURVE('',#969,#965,#971,.T.);
#969=VERTEX_POINT('',#970);
#970=CARTESIAN_POINT('',(-0.95,-4.45,4.85));
#971=LINE('',#970,#152);
#972=ORIENTED_EDGE('',*,*,#973,.F.);
#973=EDGE_CURVE('',#974,#969,#976,.T.);
#974=VERTEX_POINT('',#975);
#975=CARTESIAN_POINT('',(-0.45,-4.45,4.85));
#976=LINE('',#975,#34);
#977=ORIENTED_EDGE('',*,*,#978,.F.);
#978=EDGE_CURVE('',#329,#974,#979,.T.);
#979=LINE('',#330,#57);
#980=PLANE('',#981);
#981=AXIS2_PLACEMENT_3D('',#982,#100,#983);
#982=CARTESIAN_POINT('',(-0.893939393939,-4.45,4.517424242424));
#983=DIRECTION('',(1.,-1.224646799147E-16,-2.875835704206E-46));
#984=ADVANCED_FACE('',(#985),#996,.F.);
#985=FACE_BOUND('',#986,.F.);
#986=EDGE_LOOP('',(#987,#988,#993,#977));
#987=ORIENTED_EDGE('',*,*,#328,.T.);
#988=ORIENTED_EDGE('',*,*,#989,.T.);
#989=EDGE_CURVE('',#325,#990,#992,.T.);
#990=VERTEX_POINT('',#991);
#991=CARTESIAN_POINT('',(-0.45,-6.25,4.85));
#992=LINE('',#326,#57);
#993=ORIENTED_EDGE('',*,*,#994,.F.);
#994=EDGE_CURVE('',#974,#990,#995,.T.);
#995=LINE('',#975,#27);
#996=PLANE('',#997);
#997=AXIS2_PLACEMENT_3D('',#330,#35,#47);
#998=ADVANCED_FACE('',(#999),#1019,.T.);
#999=FACE_BOUND('',#1000,.T.);
#1000=EDGE_LOOP('',(#1001,#323,#988,#1004,#1009,#1014,#1016,#1017,#505,#680));
#1001=ORIENTED_EDGE('',*,*,#1002,.F.);
#1002=EDGE_CURVE('',#320,#682,#1003,.T.);
#1003=LINE('',#321,#152);
#1004=ORIENTED_EDGE('',*,*,#1005,.T.);
#1005=EDGE_CURVE('',#990,#1006,#1008,.T.);
#1006=VERTEX_POINT('',#1007);
#1007=CARTESIAN_POINT('',(-0.95,-6.25,4.85));
#1008=LINE('',#991,#34);
#1009=ORIENTED_EDGE('',*,*,#1010,.T.);
#1010=EDGE_CURVE('',#1006,#1011,#1013,.T.);
#1011=VERTEX_POINT('',#1012);
#1012=CARTESIAN_POINT('',(-0.95,-6.25,4.8));
#1013=LINE('',#1007,#152);
#1014=ORIENTED_EDGE('',*,*,#1015,.T.);
#1015=EDGE_CURVE('',#1011,#589,#307,.T.);
#1016=ORIENTED_EDGE('',*,*,#588,.T.);
#1017=ORIENTED_EDGE('',*,*,#1018,.F.);
#1018=EDGE_CURVE('',#508,#583,#389,.T.);
#1019=PLANE('',#1020);
#1020=AXIS2_PLACEMENT_3D('',#1021,#28,#35);
#1021=CARTESIAN_POINT('',(-0.922222222222,-6.25,4.28487654321));
#1022=ADVANCED_FACE('',(#1023),#1030,.F.);
#1023=FACE_BOUND('',#1024,.F.);
#1024=EDGE_LOOP('',(#1025,#1026,#1029,#1001));
#1025=ORIENTED_EDGE('',*,*,#319,.F.);
#1026=ORIENTED_EDGE('',*,*,#1027,.T.);
#1027=EDGE_CURVE('',#315,#686,#1028,.T.);
#1028=LINE('',#316,#152);
#1029=ORIENTED_EDGE('',*,*,#685,.T.);
#1030=PLANE('',#1031);
#1031=AXIS2_PLACEMENT_3D('',#316,#35,#28);
#1032=ADVANCED_FACE('',(#1033),#1041,.F.);
#1033=FACE_BOUND('',#1034,.F.);
#1034=EDGE_LOOP('',(#1035,#1036,#1039,#1040));
#1035=ORIENTED_EDGE('',*,*,#314,.F.);
#1036=ORIENTED_EDGE('',*,*,#1037,.T.);
#1037=EDGE_CURVE('',#310,#692,#1038,.T.);
#1038=LINE('',#311,#152);
#1039=ORIENTED_EDGE('',*,*,#691,.T.);
#1040=ORIENTED_EDGE('',*,*,#1027,.F.);
#1041=PLANE('',#1042);
#1042=AXIS2_PLACEMENT_3D('',#311,#100,#35);
#1043=ADVANCED_FACE('',(#1044),#1049,.F.);
#1044=FACE_BOUND('',#1045,.F.);
#1045=EDGE_LOOP('',(#1046,#391,#1047,#1048));
#1046=ORIENTED_EDGE('',*,*,#309,.F.);
#1047=ORIENTED_EDGE('',*,*,#697,.T.);
#1048=ORIENTED_EDGE('',*,*,#1037,.F.);
#1049=PLANE('',#1050);
#1050=AXIS2_PLACEMENT_3D('',#306,#124,#100);
#1051=ADVANCED_FACE('',(#1052),#296,.F.);
#1052=FACE_BOUND('',#1053,.F.);
#1053=EDGE_LOOP('',(#1054,#552,#1058,#1061,#1062,#1063,#1068,#1073));
#1054=ORIENTED_EDGE('',*,*,#1055,.T.);
#1055=EDGE_CURVE('',#1056,#554,#287,.T.);
#1056=VERTEX_POINT('',#1057);
#1057=CARTESIAN_POINT('',(-1.4,-0.25,4.8));
#1058=ORIENTED_EDGE('',*,*,#1059,.F.);
#1059=EDGE_CURVE('',#616,#556,#1060,.T.);
#1060=LINE('',#617,#34);
#1061=ORIENTED_EDGE('',*,*,#615,.F.);
#1062=ORIENTED_EDGE('',*,*,#414,.T.);
#1063=ORIENTED_EDGE('',*,*,#1064,.T.);
#1064=EDGE_CURVE('',#417,#1065,#1067,.T.);
#1065=VERTEX_POINT('',#1066);
#1066=CARTESIAN_POINT('',(-0.75,-0.25,4.2));
#1067=LINE('',#418,#57);
#1068=ORIENTED_EDGE('',*,*,#1069,.F.);
#1069=EDGE_CURVE('',#1070,#1065,#1072,.T.);
#1070=VERTEX_POINT('',#1071);
#1071=CARTESIAN_POINT('',(-1.4,-0.25,4.2));
#1072=LINE('',#1071,#123);
#1073=ORIENTED_EDGE('',*,*,#1074,.F.);
#1074=EDGE_CURVE('',#1056,#1070,#1075,.T.);
#1075=LINE('',#1057,#152);
#1076=ADVANCED_FACE('',(#1077),#1091,.T.);
#1077=FACE_BOUND('',#1078,.T.);
#1078=EDGE_LOOP('',(#1063,#1079,#933,#1083,#1088,#457));
#1079=ORIENTED_EDGE('',*,*,#1080,.F.);
#1080=EDGE_CURVE('',#929,#1065,#1081,.T.);
#1081=LINE('',#1082,#99);
#1082=CARTESIAN_POINT('',(-0.75,-1.335399017773,4.2));
#1083=ORIENTED_EDGE('',*,*,#1084,.T.);
#1084=EDGE_CURVE('',#935,#1085,#1087,.T.);
#1085=VERTEX_POINT('',#1086);
#1086=CARTESIAN_POINT('',(-0.75,-0.35,2.6));
#1087=LINE('',#936,#152);
#1088=ORIENTED_EDGE('',*,*,#1089,.T.);
#1089=EDGE_CURVE('',#1085,#454,#1090,.T.);
#1090=LINE('',#1086,#801);
#1091=PLANE('',#1092);
#1092=AXIS2_PLACEMENT_3D('',#1093,#124,#100);
#1093=CARTESIAN_POINT('',(-0.75,-0.320798035545,2.550475523299));
#1094=ADVANCED_FACE('',(#1095),#1102,.F.);
#1095=FACE_BOUND('',#1096,.F.);
#1096=EDGE_LOOP('',(#1097,#1088,#1100,#1101));
#1097=ORIENTED_EDGE('',*,*,#1098,.T.);
#1098=EDGE_CURVE('',#905,#1085,#1099,.T.);
#1099=LINE('',#906,#34);
#1100=ORIENTED_EDGE('',*,*,#453,.F.);
#1101=ORIENTED_EDGE('',*,*,#909,.F.);
#1102=PLANE('',#1103);
#1103=AXIS2_PLACEMENT_3D('',#906,#1104,#802);
#1104=DIRECTION('',(-1.223490926498E-16,-0.999056158355,4.343722427631E-02));
#1105=ADVANCED_FACE('',(#1106),#1113,.F.);
#1106=FACE_BOUND('',#1107,.F.);
#1107=EDGE_LOOP('',(#1108,#877,#1111,#1112));
#1108=ORIENTED_EDGE('',*,*,#1109,.T.);
#1109=EDGE_CURVE('',#795,#874,#1110,.T.);
#1110=LINE('',#796,#34);
#1111=ORIENTED_EDGE('',*,*,#434,.F.);
#1112=ORIENTED_EDGE('',*,*,#799,.F.);
#1113=PLANE('',#1114);
#1114=AXIS2_PLACEMENT_3D('',#796,#1104,#802);
#1115=ADVANCED_FACE('',(#1116),#1127,.F.);
#1116=FACE_BOUND('',#1117,.F.);
#1117=EDGE_LOOP('',(#1118,#1119,#1124,#718));
#1118=ORIENTED_EDGE('',*,*,#493,.T.);
#1119=ORIENTED_EDGE('',*,*,#1120,.T.);
#1120=EDGE_CURVE('',#489,#1121,#1123,.T.);
#1121=VERTEX_POINT('',#1122);
#1122=CARTESIAN_POINT('',(1.2,-3.95,1.1));
#1123=LINE('',#490,#57);
#1124=ORIENTED_EDGE('',*,*,#1125,.F.);
#1125=EDGE_CURVE('',#715,#1121,#1126,.T.);
#1126=LINE('',#716,#27);
#1127=PLANE('',#1128);
#1128=AXIS2_PLACEMENT_3D('',#495,#35,#47);
#1129=ADVANCED_FACE('',(#1130),#1140,.T.);
#1130=FACE_BOUND('',#1131,.T.);
#1131=EDGE_LOOP('',(#1132,#1137,#487,#1119));
#1132=ORIENTED_EDGE('',*,*,#1133,.T.);
#1133=EDGE_CURVE('',#1121,#1134,#1136,.T.);
#1134=VERTEX_POINT('',#1135);
#1135=CARTESIAN_POINT('',(0.8,-3.95,1.1));
#1136=LINE('',#1122,#34);
#1137=ORIENTED_EDGE('',*,*,#1138,.T.);
#1138=EDGE_CURVE('',#1134,#484,#1139,.T.);
#1139=LINE('',#1135,#152);
#1140=PLANE('',#1141);
#1141=AXIS2_PLACEMENT_3D('',#1142,#28,#35);
#1142=CARTESIAN_POINT('',(1.,-3.95,0.95));
#1143=ADVANCED_FACE('',(#1144),#1150,.F.);
#1144=FACE_BOUND('',#1145,.F.);
#1145=EDGE_LOOP('',(#1146,#1137,#1149,#708));
#1146=ORIENTED_EDGE('',*,*,#1147,.T.);
#1147=EDGE_CURVE('',#710,#1134,#1148,.T.);
#1148=LINE('',#711,#27);
#1149=ORIENTED_EDGE('',*,*,#483,.F.);
#1150=PLANE('',#1151);
#1151=AXIS2_PLACEMENT_3D('',#711,#124,#153);
#1152=ADVANCED_FACE('',(#1153),#408,.T.);
#1153=FACE_BOUND('',#1154,.T.);
#1154=EDGE_LOOP('',(#532,#1155,#1156,#1157));
#1155=ORIENTED_EDGE('',*,*,#1018,.T.);
#1156=ORIENTED_EDGE('',*,*,#582,.T.);
#1157=ORIENTED_EDGE('',*,*,#1158,.F.);
#1158=EDGE_CURVE('',#527,#576,#217,.T.);
#1159=ADVANCED_FACE('',(#1160),#219,.F.);
#1160=FACE_BOUND('',#1161,.T.);
#1161=EDGE_LOOP('',(#525,#1162,#1163,#1164));
#1162=ORIENTED_EDGE('',*,*,#1158,.T.);
#1163=ORIENTED_EDGE('',*,*,#575,.F.);
#1164=ORIENTED_EDGE('',*,*,#541,.F.);
#1165=ADVANCED_FACE('',(#1166),#1173,.F.);
#1166=FACE_BOUND('',#1167,.F.);
#1167=EDGE_LOOP('',(#1168,#559,#1169,#1172));
#1168=ORIENTED_EDGE('',*,*,#1059,.T.);
#1169=ORIENTED_EDGE('',*,*,#1170,.F.);
#1170=EDGE_CURVE('',#621,#561,#1171,.T.);
#1171=LINE('',#622,#34);
#1172=ORIENTED_EDGE('',*,*,#620,.F.);
#1173=PLANE('',#1174);
#1174=AXIS2_PLACEMENT_3D('',#617,#262,#78);
#1175=ADVANCED_FACE('',(#1176),#1181,.F.);
#1176=FACE_BOUND('',#1177,.F.);
#1177=EDGE_LOOP('',(#1178,#564,#1179,#1180));
#1178=ORIENTED_EDGE('',*,*,#1170,.T.);
#1179=ORIENTED_EDGE('',*,*,#602,.F.);
#1180=ORIENTED_EDGE('',*,*,#625,.F.);
#1181=PLANE('',#1182);
#1182=AXIS2_PLACEMENT_3D('',#622,#64,#71);
#1183=ADVANCED_FACE('',(#1184),#382,.F.);
#1184=FACE_BOUND('',#1185,.F.);
#1185=EDGE_LOOP('',(#1186,#1187,#963,#1190,#1014,#590));
#1186=ORIENTED_EDGE('',*,*,#1055,.F.);
#1187=ORIENTED_EDGE('',*,*,#1188,.F.);
#1188=EDGE_CURVE('',#960,#1056,#1189,.T.);
#1189=LINE('',#961,#99);
#1190=ORIENTED_EDGE('',*,*,#1191,.T.);
#1191=EDGE_CURVE('',#965,#1011,#1192,.T.);
#1192=LINE('',#966,#27);
#1193=ADVANCED_FACE('',(#1194),#1199,.T.);
#1194=FACE_BOUND('',#1195,.T.);
#1195=EDGE_LOOP('',(#1187,#1196,#672,#1197,#1073));
#1196=ORIENTED_EDGE('',*,*,#959,.T.);
#1197=ORIENTED_EDGE('',*,*,#1198,.T.);
#1198=EDGE_CURVE('',#674,#1070,#676,.T.);
#1199=PLANE('',#1200);
#1200=AXIS2_PLACEMENT_3D('',#961,#124,#100);
#1201=ADVANCED_FACE('',(#1202),#1206,.F.);
#1202=FACE_BOUND('',#1203,.F.);
#1203=EDGE_LOOP('',(#1204,#1132,#1205,#713));
#1204=ORIENTED_EDGE('',*,*,#1125,.T.);
#1205=ORIENTED_EDGE('',*,*,#1147,.F.);
#1206=PLANE('',#1207);
#1207=AXIS2_PLACEMENT_3D('',#716,#153,#35);
#1208=ADVANCED_FACE('',(#1209),#1213,.F.);
#1209=FACE_BOUND('',#1210,.F.);
#1210=EDGE_LOOP('',(#706,#1197,#1211,#1079,#1212,#947));
#1211=ORIENTED_EDGE('',*,*,#1069,.T.);
#1212=ORIENTED_EDGE('',*,*,#928,.T.);
#1213=PLANE('',#1214);
#1214=AXIS2_PLACEMENT_3D('',#1215,#153,#28);
#1215=CARTESIAN_POINT('',(-0.9,-2.35,4.2));
#1216=ADVANCED_FACE('',(#1217),#1234,.F.);
#1217=FACE_BOUND('',#1218,.F.);
#1218=EDGE_LOOP('',(#1219,#1226,#723,#1230));
#1219=ORIENTED_EDGE('',*,*,#1220,.T.);
#1220=EDGE_CURVE('',#1221,#1223,#1225,.T.);
#1221=VERTEX_POINT('',#1222);
#1222=CARTESIAN_POINT('',(0.25,-5.55,2.85));
#1223=VERTEX_POINT('',#1224);
#1224=CARTESIAN_POINT('',(0.25,-5.55,3.35));
#1225=LINE('',#1222,#130);
#1226=ORIENTED_EDGE('',*,*,#1227,.T.);
#1227=EDGE_CURVE('',#1223,#725,#1228,.T.);
#1228=LINE('',#1229,#422);
#1229=CARTESIAN_POINT('',(0.25,-5.75,3.35));
#1230=ORIENTED_EDGE('',*,*,#1231,.T.);
#1231=EDGE_CURVE('',#727,#1221,#1232,.T.);
#1232=LINE('',#1233,#63);
#1233=CARTESIAN_POINT('',(0.25,-0.25,2.85));
#1234=PLANE('',#1235);
#1235=AXIS2_PLACEMENT_3D('',#1236,#35,#13);
#1236=CARTESIAN_POINT('',(0.25,-1.421959173294,1.302213422577));
#1237=ADVANCED_FACE('',(#1238),#1250,.F.);
#1238=FACE_BOUND('',#1239,.F.);
#1239=EDGE_LOOP('',(#1240,#1241,#1246,#743));
#1240=ORIENTED_EDGE('',*,*,#1227,.F.);
#1241=ORIENTED_EDGE('',*,*,#1242,.T.);
#1242=EDGE_CURVE('',#1223,#1243,#1245,.T.);
#1243=VERTEX_POINT('',#1244);
#1244=CARTESIAN_POINT('',(-0.25,-5.55,3.35));
#1245=LINE('',#1224,#34);
#1246=ORIENTED_EDGE('',*,*,#1247,.T.);
#1247=EDGE_CURVE('',#1243,#739,#1248,.T.);
#1248=LINE('',#1249,#422);
#1249=CARTESIAN_POINT('',(-0.25,-5.75,3.35));
#1250=PLANE('',#1251);
#1251=AXIS2_PLACEMENT_3D('',#1229,#71,#423);
#1252=ADVANCED_FACE('',(#1253),#1265,.T.);
#1253=FACE_BOUND('',#1254,.T.);
#1254=EDGE_LOOP('',(#1255,#1246,#1260,#1261));
#1255=ORIENTED_EDGE('',*,*,#1256,.T.);
#1256=EDGE_CURVE('',#1257,#1243,#1259,.T.);
#1257=VERTEX_POINT('',#1258);
#1258=CARTESIAN_POINT('',(-0.25,-5.55,2.85));
#1259=LINE('',#1258,#130);
#1260=ORIENTED_EDGE('',*,*,#738,.T.);
#1261=ORIENTED_EDGE('',*,*,#1262,.T.);
#1262=EDGE_CURVE('',#733,#1257,#1263,.T.);
#1263=LINE('',#1264,#63);
#1264=CARTESIAN_POINT('',(-0.25,-0.25,2.85));
#1265=PLANE('',#1266);
#1266=AXIS2_PLACEMENT_3D('',#1267,#35,#13);
#1267=CARTESIAN_POINT('',(-0.25,-1.421959173294,1.302213422577));
#1268=ADVANCED_FACE('',(#1269),#1275,.F.);
#1269=FACE_BOUND('',#1270,.F.);
#1270=EDGE_LOOP('',(#1271,#731,#1261,#1272));
#1271=ORIENTED_EDGE('',*,*,#1231,.F.);
#1272=ORIENTED_EDGE('',*,*,#1273,.F.);
#1273=EDGE_CURVE('',#1221,#1257,#1274,.T.);
#1274=LINE('',#1222,#34);
#1275=PLANE('',#1276);
#1276=AXIS2_PLACEMENT_3D('',#1233,#13,#64);
#1277=ADVANCED_FACE('',(#1278),#1295,.F.);
#1278=FACE_BOUND('',#1279,.F.);
#1279=EDGE_LOOP('',(#1280,#1287,#749,#1291));
#1280=ORIENTED_EDGE('',*,*,#1281,.T.);
#1281=EDGE_CURVE('',#1282,#1284,#1286,.T.);
#1282=VERTEX_POINT('',#1283);
#1283=CARTESIAN_POINT('',(2.25,-5.55,2.85));
#1284=VERTEX_POINT('',#1285);
#1285=CARTESIAN_POINT('',(2.25,-5.55,3.35));
#1286=LINE('',#1283,#130);
#1287=ORIENTED_EDGE('',*,*,#1288,.T.);
#1288=EDGE_CURVE('',#1284,#751,#1289,.T.);
#1289=LINE('',#1290,#422);
#1290=CARTESIAN_POINT('',(2.25,-5.75,3.35));
#1291=ORIENTED_EDGE('',*,*,#1292,.T.);
#1292=EDGE_CURVE('',#753,#1282,#1293,.T.);
#1293=LINE('',#1294,#63);
#1294=CARTESIAN_POINT('',(2.25,-0.25,2.85));
#1295=PLANE('',#1296);
#1296=AXIS2_PLACEMENT_3D('',#1297,#35,#13);
#1297=CARTESIAN_POINT('',(2.25,-1.421959173294,1.302213422577));
#1298=ADVANCED_FACE('',(#1299),#1311,.F.);
#1299=FACE_BOUND('',#1300,.F.);
#1300=EDGE_LOOP('',(#1301,#1302,#1307,#769));
#1301=ORIENTED_EDGE('',*,*,#1288,.F.);
#1302=ORIENTED_EDGE('',*,*,#1303,.T.);
#1303=EDGE_CURVE('',#1284,#1304,#1306,.T.);
#1304=VERTEX_POINT('',#1305);
#1305=CARTESIAN_POINT('',(1.75,-5.55,3.35));
#1306=LINE('',#1285,#34);
#1307=ORIENTED_EDGE('',*,*,#1308,.T.);
#1308=EDGE_CURVE('',#1304,#765,#1309,.T.);
#1309=LINE('',#1310,#422);
#1310=CARTESIAN_POINT('',(1.75,-5.75,3.35));
#1311=PLANE('',#1312);
#1312=AXIS2_PLACEMENT_3D('',#1290,#71,#423);
#1313=ADVANCED_FACE('',(#1314),#1326,.T.);
#1314=FACE_BOUND('',#1315,.T.);
#1315=EDGE_LOOP('',(#1316,#1307,#1321,#1322));
#1316=ORIENTED_EDGE('',*,*,#1317,.T.);
#1317=EDGE_CURVE('',#1318,#1304,#1320,.T.);
#1318=VERTEX_POINT('',#1319);
#1319=CARTESIAN_POINT('',(1.75,-5.55,2.85));
#1320=LINE('',#1319,#130);
#1321=ORIENTED_EDGE('',*,*,#764,.T.);
#1322=ORIENTED_EDGE('',*,*,#1323,.T.);
#1323=EDGE_CURVE('',#759,#1318,#1324,.T.);
#1324=LINE('',#1325,#63);
#1325=CARTESIAN_POINT('',(1.75,-0.25,2.85));
#1326=PLANE('',#1327);
#1327=AXIS2_PLACEMENT_3D('',#1328,#35,#13);
#1328=CARTESIAN_POINT('',(1.75,-1.421959173294,1.302213422577));
#1329=ADVANCED_FACE('',(#1330),#1336,.F.);
#1330=FACE_BOUND('',#1331,.F.);
#1331=EDGE_LOOP('',(#1332,#757,#1322,#1333));
#1332=ORIENTED_EDGE('',*,*,#1292,.F.);
#1333=ORIENTED_EDGE('',*,*,#1334,.F.);
#1334=EDGE_CURVE('',#1282,#1318,#1335,.T.);
#1335=LINE('',#1283,#34);
#1336=PLANE('',#1337);
#1337=AXIS2_PLACEMENT_3D('',#1294,#13,#64);
#1338=ADVANCED_FACE('',(#1339,#1344),#1370,.F.);
#1339=FACE_BOUND('',#1340,.F.);
#1340=EDGE_LOOP('',(#1341,#872,#1342,#1343));
#1341=ORIENTED_EDGE('',*,*,#863,.T.);
#1342=ORIENTED_EDGE('',*,*,#1109,.F.);
#1343=ORIENTED_EDGE('',*,*,#794,.F.);
#1344=FACE_BOUND('',#1345,.F.);
#1345=EDGE_LOOP('',(#1346,#1354,#1360,#1366));
#1346=ORIENTED_EDGE('',*,*,#1347,.T.);
#1347=EDGE_CURVE('',#1348,#1350,#1352,.T.);
#1348=VERTEX_POINT('',#1349);
#1349=CARTESIAN_POINT('',(2.25,-0.35,3.35));
#1350=VERTEX_POINT('',#1351);
#1351=CARTESIAN_POINT('',(2.25,-0.35,2.85));
#1352=LINE('',#1353,#152);
#1353=CARTESIAN_POINT('',(2.25,-0.35,2.451106711288));
#1354=ORIENTED_EDGE('',*,*,#1355,.T.);
#1355=EDGE_CURVE('',#1350,#1356,#1358,.T.);
#1356=VERTEX_POINT('',#1357);
#1357=CARTESIAN_POINT('',(1.75,-0.35,2.85));
#1358=LINE('',#1359,#34);
#1359=CARTESIAN_POINT('',(2.5,-0.35,2.85));
#1360=ORIENTED_EDGE('',*,*,#1361,.F.);
#1361=EDGE_CURVE('',#1362,#1356,#1364,.T.);
#1362=VERTEX_POINT('',#1363);
#1363=CARTESIAN_POINT('',(1.75,-0.35,3.35));
#1364=LINE('',#1365,#152);
#1365=CARTESIAN_POINT('',(1.75,-0.35,2.451106711288));
#1366=ORIENTED_EDGE('',*,*,#1367,.T.);
#1367=EDGE_CURVE('',#1362,#1348,#1368,.T.);
#1368=LINE('',#1369,#123);
#1369=CARTESIAN_POINT('',(2.5,-0.35,3.35));
#1370=PLANE('',#1371);
#1371=AXIS2_PLACEMENT_3D('',#789,#28,#153);
#1372=ADVANCED_FACE('',(#1373,#1378),#1404,.F.);
#1373=FACE_BOUND('',#1374,.F.);
#1374=EDGE_LOOP('',(#1375,#1083,#1376,#1377));
#1375=ORIENTED_EDGE('',*,*,#940,.T.);
#1376=ORIENTED_EDGE('',*,*,#1098,.F.);
#1377=ORIENTED_EDGE('',*,*,#904,.F.);
#1378=FACE_BOUND('',#1379,.F.);
#1379=EDGE_LOOP('',(#1380,#1388,#1394,#1400));
#1380=ORIENTED_EDGE('',*,*,#1381,.T.);
#1381=EDGE_CURVE('',#1382,#1384,#1386,.T.);
#1382=VERTEX_POINT('',#1383);
#1383=CARTESIAN_POINT('',(0.25,-0.35,3.35));
#1384=VERTEX_POINT('',#1385);
#1385=CARTESIAN_POINT('',(0.25,-0.35,2.85));
#1386=LINE('',#1387,#152);
#1387=CARTESIAN_POINT('',(0.25,-0.35,2.451106711288));
#1388=ORIENTED_EDGE('',*,*,#1389,.T.);
#1389=EDGE_CURVE('',#1384,#1390,#1392,.T.);
#1390=VERTEX_POINT('',#1391);
#1391=CARTESIAN_POINT('',(-0.25,-0.35,2.85));
#1392=LINE('',#1393,#34);
#1393=CARTESIAN_POINT('',(0.5,-0.35,2.85));
#1394=ORIENTED_EDGE('',*,*,#1395,.F.);
#1395=EDGE_CURVE('',#1396,#1390,#1398,.T.);
#1396=VERTEX_POINT('',#1397);
#1397=CARTESIAN_POINT('',(-0.25,-0.35,3.35));
#1398=LINE('',#1399,#152);
#1399=CARTESIAN_POINT('',(-0.25,-0.35,2.451106711288));
#1400=ORIENTED_EDGE('',*,*,#1401,.T.);
#1401=EDGE_CURVE('',#1396,#1382,#1402,.T.);
#1402=LINE('',#1403,#123);
#1403=CARTESIAN_POINT('',(0.5,-0.35,3.35));
#1404=PLANE('',#1405);
#1405=AXIS2_PLACEMENT_3D('',#901,#28,#153);
#1406=ADVANCED_FACE('',(#1407),#1413,.F.);
#1407=FACE_BOUND('',#1408,.F.);
#1408=EDGE_LOOP('',(#1409,#1009,#1412,#967));
#1409=ORIENTED_EDGE('',*,*,#1410,.T.);
#1410=EDGE_CURVE('',#969,#1006,#1411,.T.);
#1411=LINE('',#970,#27);
#1412=ORIENTED_EDGE('',*,*,#1191,.F.);
#1413=PLANE('',#1414);
#1414=AXIS2_PLACEMENT_3D('',#970,#124,#153);
#1415=ADVANCED_FACE('',(#1416),#1420,.F.);
#1416=FACE_BOUND('',#1417,.F.);
#1417=EDGE_LOOP('',(#1418,#1004,#1419,#972));
#1418=ORIENTED_EDGE('',*,*,#994,.T.);
#1419=ORIENTED_EDGE('',*,*,#1410,.F.);
#1420=PLANE('',#1421);
#1421=AXIS2_PLACEMENT_3D('',#975,#153,#35);
#1422=ADVANCED_FACE('',(#1423),#1445,.T.);
#1423=FACE_BOUND('',#1424,.T.);
#1424=EDGE_LOOP('',(#1425,#1219,#1433,#1441));
#1425=ORIENTED_EDGE('',*,*,#1426,.F.);
#1426=EDGE_CURVE('',#1221,#1427,#1429,.T.);
#1427=VERTEX_POINT('',#1428);
#1428=CARTESIAN_POINT('',(5.E-02,-5.75,3.05));
#1429=LINE('',#1430,#1431);
#1430=CARTESIAN_POINT('',(0.183333333333,-5.616666666667,2.916666666667));
#1431=VECTOR('',#1432,1.);
#1432=DIRECTION('',(-0.57735026919,-0.57735026919,0.57735026919));
#1433=ORIENTED_EDGE('',*,*,#1434,.F.);
#1434=EDGE_CURVE('',#1435,#1223,#1437,.T.);
#1435=VERTEX_POINT('',#1436);
#1436=CARTESIAN_POINT('',(5.E-02,-5.75,3.15));
#1437=LINE('',#1438,#1439);
#1438=CARTESIAN_POINT('',(1.E-01,-5.7,3.2));
#1439=VECTOR('',#1440,1.);
#1440=DIRECTION('',(0.57735026919,0.57735026919,0.57735026919));
#1441=ORIENTED_EDGE('',*,*,#1442,.F.);
#1442=EDGE_CURVE('',#1427,#1435,#1443,.T.);
#1443=LINE('',#1444,#130);
#1444=CARTESIAN_POINT('',(5.E-02,-5.75,2.85));
#1445=PLANE('',#1446);
#1446=AXIS2_PLACEMENT_3D('',#1447,#1448,#1449);
#1447=CARTESIAN_POINT('',(0.15,-5.65,2.85));
#1448=DIRECTION('',(0.707106781187,-0.707106781187,-1.735417226645E-18));
#1449=DIRECTION('',(1.227125289148E-18,-1.227125289148E-18,1.));
#1450=ADVANCED_FACE('',(#1451),#1466,.T.);
#1451=FACE_BOUND('',#1452,.F.);
#1452=EDGE_LOOP('',(#1433,#1453,#1459,#1465));
#1453=ORIENTED_EDGE('',*,*,#1454,.T.);
#1454=EDGE_CURVE('',#1435,#1455,#1457,.T.);
#1455=VERTEX_POINT('',#1456);
#1456=CARTESIAN_POINT('',(-5.E-02,-5.75,3.15));
#1457=LINE('',#1458,#34);
#1458=CARTESIAN_POINT('',(0.25,-5.75,3.15));
#1459=ORIENTED_EDGE('',*,*,#1460,.F.);
#1460=EDGE_CURVE('',#1243,#1455,#1461,.T.);
#1461=LINE('',#1462,#1463);
#1462=CARTESIAN_POINT('',(-1.666666666667E-02,-5.783333333333,3.116666666667));
#1463=VECTOR('',#1464,1.);
#1464=DIRECTION('',(0.57735026919,-0.57735026919,-0.57735026919));
#1465=ORIENTED_EDGE('',*,*,#1242,.F.);
#1466=PLANE('',#1467);
#1467=AXIS2_PLACEMENT_3D('',#1468,#1469,#124);
#1468=CARTESIAN_POINT('',(0.25,-5.65,3.25));
#1469=DIRECTION('',(-8.659560562355E-17,-0.707106781187,0.707106781187));
#1470=ADVANCED_FACE('',(#1471),#1486,.F.);
#1471=FACE_BOUND('',#1472,.F.);
#1472=EDGE_LOOP('',(#1473,#1255,#1481,#1482));
#1473=ORIENTED_EDGE('',*,*,#1474,.F.);
#1474=EDGE_CURVE('',#1257,#1475,#1477,.T.);
#1475=VERTEX_POINT('',#1476);
#1476=CARTESIAN_POINT('',(-5.E-02,-5.75,3.05));
#1477=LINE('',#1478,#1479);
#1478=CARTESIAN_POINT('',(-0.1,-5.7,3.));
#1479=VECTOR('',#1480,1.);
#1480=DIRECTION('',(0.57735026919,-0.57735026919,0.57735026919));
#1481=ORIENTED_EDGE('',*,*,#1460,.T.);
#1482=ORIENTED_EDGE('',*,*,#1483,.F.);
#1483=EDGE_CURVE('',#1475,#1455,#1484,.T.);
#1484=LINE('',#1485,#130);
#1485=CARTESIAN_POINT('',(-5.E-02,-5.75,2.85));
#1486=PLANE('',#1487);
#1487=AXIS2_PLACEMENT_3D('',#1488,#1489,#1490);
#1488=CARTESIAN_POINT('',(-0.15,-5.65,2.85));
#1489=DIRECTION('',(0.707106781187,0.707106781187,1.735417226645E-18));
#1490=DIRECTION('',(-1.227125289148E-18,-1.227125289148E-18,1.));
#1491=ADVANCED_FACE('',(#1492),#1500,.T.);
#1492=FACE_BOUND('',#1493,.F.);
#1493=EDGE_LOOP('',(#1425,#1494,#1495,#1496));
#1494=ORIENTED_EDGE('',*,*,#1273,.T.);
#1495=ORIENTED_EDGE('',*,*,#1474,.T.);
#1496=ORIENTED_EDGE('',*,*,#1497,.F.);
#1497=EDGE_CURVE('',#1427,#1475,#1498,.T.);
#1498=LINE('',#1499,#34);
#1499=CARTESIAN_POINT('',(0.25,-5.75,3.05));
#1500=PLANE('',#1501);
#1501=AXIS2_PLACEMENT_3D('',#1502,#1503,#124);
#1502=CARTESIAN_POINT('',(0.25,-5.65,2.95));
#1503=DIRECTION('',(-8.659560562355E-17,-0.707106781187,-0.707106781187));
#1504=ADVANCED_FACE('',(#1505),#1523,.T.);
#1505=FACE_BOUND('',#1506,.T.);
#1506=EDGE_LOOP('',(#1507,#1280,#1513,#1519));
#1507=ORIENTED_EDGE('',*,*,#1508,.F.);
#1508=EDGE_CURVE('',#1282,#1509,#1511,.T.);
#1509=VERTEX_POINT('',#1510);
#1510=CARTESIAN_POINT('',(2.05,-5.75,3.05));
#1511=LINE('',#1512,#1431);
#1512=CARTESIAN_POINT('',(2.183333333333,-5.616666666667,2.916666666667));
#1513=ORIENTED_EDGE('',*,*,#1514,.F.);
#1514=EDGE_CURVE('',#1515,#1284,#1517,.T.);
#1515=VERTEX_POINT('',#1516);
#1516=CARTESIAN_POINT('',(2.05,-5.75,3.15));
#1517=LINE('',#1518,#1439);
#1518=CARTESIAN_POINT('',(2.1,-5.7,3.2));
#1519=ORIENTED_EDGE('',*,*,#1520,.F.);
#1520=EDGE_CURVE('',#1509,#1515,#1521,.T.);
#1521=LINE('',#1522,#130);
#1522=CARTESIAN_POINT('',(2.05,-5.75,2.85));
#1523=PLANE('',#1524);
#1524=AXIS2_PLACEMENT_3D('',#1525,#1448,#1449);
#1525=CARTESIAN_POINT('',(2.15,-5.65,2.85));
#1526=ADVANCED_FACE('',(#1527),#1540,.T.);
#1527=FACE_BOUND('',#1528,.F.);
#1528=EDGE_LOOP('',(#1513,#1529,#1535,#1539));
#1529=ORIENTED_EDGE('',*,*,#1530,.T.);
#1530=EDGE_CURVE('',#1515,#1531,#1533,.T.);
#1531=VERTEX_POINT('',#1532);
#1532=CARTESIAN_POINT('',(1.95,-5.75,3.15));
#1533=LINE('',#1534,#34);
#1534=CARTESIAN_POINT('',(2.25,-5.75,3.15));
#1535=ORIENTED_EDGE('',*,*,#1536,.F.);
#1536=EDGE_CURVE('',#1304,#1531,#1537,.T.);
#1537=LINE('',#1538,#1463);
#1538=CARTESIAN_POINT('',(1.983333333333,-5.783333333333,3.116666666667));
#1539=ORIENTED_EDGE('',*,*,#1303,.F.);
#1540=PLANE('',#1541);
#1541=AXIS2_PLACEMENT_3D('',#1542,#1469,#124);
#1542=CARTESIAN_POINT('',(2.25,-5.65,3.25));
#1543=ADVANCED_FACE('',(#1544),#1557,.F.);
#1544=FACE_BOUND('',#1545,.F.);
#1545=EDGE_LOOP('',(#1546,#1316,#1552,#1553));
#1546=ORIENTED_EDGE('',*,*,#1547,.F.);
#1547=EDGE_CURVE('',#1318,#1548,#1550,.T.);
#1548=VERTEX_POINT('',#1549);
#1549=CARTESIAN_POINT('',(1.95,-5.75,3.05));
#1550=LINE('',#1551,#1479);
#1551=CARTESIAN_POINT('',(1.9,-5.7,3.));
#1552=ORIENTED_EDGE('',*,*,#1536,.T.);
#1553=ORIENTED_EDGE('',*,*,#1554,.F.);
#1554=EDGE_CURVE('',#1548,#1531,#1555,.T.);
#1555=LINE('',#1556,#130);
#1556=CARTESIAN_POINT('',(1.95,-5.75,2.85));
#1557=PLANE('',#1558);
#1558=AXIS2_PLACEMENT_3D('',#1559,#1489,#1490);
#1559=CARTESIAN_POINT('',(1.85,-5.65,2.85));
#1560=ADVANCED_FACE('',(#1561),#1569,.T.);
#1561=FACE_BOUND('',#1562,.F.);
#1562=EDGE_LOOP('',(#1507,#1563,#1564,#1565));
#1563=ORIENTED_EDGE('',*,*,#1334,.T.);
#1564=ORIENTED_EDGE('',*,*,#1547,.T.);
#1565=ORIENTED_EDGE('',*,*,#1566,.F.);
#1566=EDGE_CURVE('',#1509,#1548,#1567,.T.);
#1567=LINE('',#1568,#34);
#1568=CARTESIAN_POINT('',(2.25,-5.75,3.05));
#1569=PLANE('',#1570);
#1570=AXIS2_PLACEMENT_3D('',#1571,#1503,#124);
#1571=CARTESIAN_POINT('',(2.25,-5.65,2.95));
#1572=ADVANCED_FACE('',(#1573),#1295,.F.);
#1573=FACE_BOUND('',#1574,.F.);
#1574=EDGE_LOOP('',(#1575,#1576,#1580,#1587,#1593,#1600,#1607,#1613,#1621,#1628,#1633,#1638));
#1575=ORIENTED_EDGE('',*,*,#1347,.F.);
#1576=ORIENTED_EDGE('',*,*,#1577,.T.);
#1577=EDGE_CURVE('',#1348,#1578,#1289,.T.);
#1578=VERTEX_POINT('',#1579);
#1579=CARTESIAN_POINT('',(2.25,-0.3,3.35));
#1580=ORIENTED_EDGE('',*,*,#1581,.T.);
#1581=EDGE_CURVE('',#1578,#1582,#1584,.T.);
#1582=VERTEX_POINT('',#1583);
#1583=CARTESIAN_POINT('',(2.25,0.25,2.8));
#1584=CIRCLE('',#1585,0.55);
#1585=AXIS2_PLACEMENT_3D('',#1586,#35,#13);
#1586=CARTESIAN_POINT('',(2.25,-0.3,2.8));
#1587=ORIENTED_EDGE('',*,*,#1588,.T.);
#1588=EDGE_CURVE('',#1582,#1589,#1591,.T.);
#1589=VERTEX_POINT('',#1590);
#1590=CARTESIAN_POINT('',(2.25,0.25,-0.9));
#1591=LINE('',#1592,#70);
#1592=CARTESIAN_POINT('',(2.25,0.25,3.35));
#1593=ORIENTED_EDGE('',*,*,#1594,.T.);
#1594=EDGE_CURVE('',#1589,#1595,#1597,.T.);
#1595=VERTEX_POINT('',#1596);
#1596=CARTESIAN_POINT('',(2.25,-5.E-02,-1.5));
#1597=LINE('',#1590,#1598);
#1598=VECTOR('',#1599,1.);
#1599=DIRECTION('',(-5.476786982642E-17,-0.4472135955,-0.894427191));
#1600=ORIENTED_EDGE('',*,*,#1601,.T.);
#1601=EDGE_CURVE('',#1595,#1602,#1604,.T.);
#1602=VERTEX_POINT('',#1603);
#1603=CARTESIAN_POINT('',(2.25,0.218421052632,-3.2));
#1604=LINE('',#1596,#1605);
#1605=VECTOR('',#1606,1.);
#1606=DIRECTION('',(1.909990663905E-17,0.155962573473,-0.987762965329));
#1607=ORIENTED_EDGE('',*,*,#1608,.T.);
#1608=EDGE_CURVE('',#1602,#1609,#1611,.T.);
#1609=VERTEX_POINT('',#1610);
#1610=CARTESIAN_POINT('',(2.25,-0.281578947368,-3.2));
#1611=LINE('',#1612,#63);
#1612=CARTESIAN_POINT('',(2.25,0.25,-3.2));
#1613=ORIENTED_EDGE('',*,*,#1614,.T.);
#1614=EDGE_CURVE('',#1609,#1615,#1617,.T.);
#1615=VERTEX_POINT('',#1616);
#1616=CARTESIAN_POINT('',(2.25,-0.55,-1.5));
#1617=LINE('',#1618,#1619);
#1618=CARTESIAN_POINT('',(2.25,-0.25,-3.4));
#1619=VECTOR('',#1620,1.);
#1620=DIRECTION('',(-1.909990663905E-17,-0.155962573473,0.987762965329));
#1621=ORIENTED_EDGE('',*,*,#1622,.T.);
#1622=EDGE_CURVE('',#1615,#1623,#1625,.T.);
#1623=VERTEX_POINT('',#1624);
#1624=CARTESIAN_POINT('',(2.25,-0.25,-0.9));
#1625=LINE('',#1616,#1626);
#1626=VECTOR('',#1627,1.);
#1627=DIRECTION('',(5.476786982642E-17,0.4472135955,0.894427191));
#1628=ORIENTED_EDGE('',*,*,#1629,.T.);
#1629=EDGE_CURVE('',#1623,#1630,#1632,.T.);
#1630=VERTEX_POINT('',#1631);
#1631=CARTESIAN_POINT('',(2.25,-0.25,2.8));
#1632=LINE('',#1624,#130);
#1633=ORIENTED_EDGE('',*,*,#1634,.F.);
#1634=EDGE_CURVE('',#1635,#1630,#1637,.T.);
#1635=VERTEX_POINT('',#1636);
#1636=CARTESIAN_POINT('',(2.25,-0.3,2.85));
#1637=CIRCLE('',#1585,5.E-02);
#1638=ORIENTED_EDGE('',*,*,#1639,.T.);
#1639=EDGE_CURVE('',#1635,#1350,#1293,.T.);
#1640=ADVANCED_FACE('',(#1641),#1311,.F.);
#1641=FACE_BOUND('',#1642,.F.);
#1642=EDGE_LOOP('',(#1643,#1644,#1645,#1649));
#1643=ORIENTED_EDGE('',*,*,#1577,.F.);
#1644=ORIENTED_EDGE('',*,*,#1367,.F.);
#1645=ORIENTED_EDGE('',*,*,#1646,.T.);
#1646=EDGE_CURVE('',#1362,#1647,#1309,.T.);
#1647=VERTEX_POINT('',#1648);
#1648=CARTESIAN_POINT('',(1.75,-0.3,3.35));
#1649=ORIENTED_EDGE('',*,*,#1650,.F.);
#1650=EDGE_CURVE('',#1578,#1647,#1651,.T.);
#1651=LINE('',#1579,#34);
#1652=ADVANCED_FACE('',(#1653),#1326,.T.);
#1653=FACE_BOUND('',#1654,.T.);
#1654=EDGE_LOOP('',(#1360,#1645,#1655,#1662,#1668,#1673,#1678,#1684,#1690,#1695,#1700,#1705));
#1655=ORIENTED_EDGE('',*,*,#1656,.T.);
#1656=EDGE_CURVE('',#1647,#1657,#1659,.T.);
#1657=VERTEX_POINT('',#1658);
#1658=CARTESIAN_POINT('',(1.75,0.25,2.8));
#1659=CIRCLE('',#1660,0.55);
#1660=AXIS2_PLACEMENT_3D('',#1661,#35,#13);
#1661=CARTESIAN_POINT('',(1.75,-0.3,2.8));
#1662=ORIENTED_EDGE('',*,*,#1663,.T.);
#1663=EDGE_CURVE('',#1657,#1664,#1666,.T.);
#1664=VERTEX_POINT('',#1665);
#1665=CARTESIAN_POINT('',(1.75,0.25,-0.9));
#1666=LINE('',#1667,#70);
#1667=CARTESIAN_POINT('',(1.75,0.25,3.35));
#1668=ORIENTED_EDGE('',*,*,#1669,.T.);
#1669=EDGE_CURVE('',#1664,#1670,#1672,.T.);
#1670=VERTEX_POINT('',#1671);
#1671=CARTESIAN_POINT('',(1.75,-5.E-02,-1.5));
#1672=LINE('',#1665,#1598);
#1673=ORIENTED_EDGE('',*,*,#1674,.T.);
#1674=EDGE_CURVE('',#1670,#1675,#1677,.T.);
#1675=VERTEX_POINT('',#1676);
#1676=CARTESIAN_POINT('',(1.75,0.218421052632,-3.2));
#1677=LINE('',#1671,#1605);
#1678=ORIENTED_EDGE('',*,*,#1679,.T.);
#1679=EDGE_CURVE('',#1675,#1680,#1682,.T.);
#1680=VERTEX_POINT('',#1681);
#1681=CARTESIAN_POINT('',(1.75,-0.281578947368,-3.2));
#1682=LINE('',#1683,#63);
#1683=CARTESIAN_POINT('',(1.75,0.25,-3.2));
#1684=ORIENTED_EDGE('',*,*,#1685,.T.);
#1685=EDGE_CURVE('',#1680,#1686,#1688,.T.);
#1686=VERTEX_POINT('',#1687);
#1687=CARTESIAN_POINT('',(1.75,-0.55,-1.5));
#1688=LINE('',#1689,#1619);
#1689=CARTESIAN_POINT('',(1.75,-0.25,-3.4));
#1690=ORIENTED_EDGE('',*,*,#1691,.T.);
#1691=EDGE_CURVE('',#1686,#1692,#1694,.T.);
#1692=VERTEX_POINT('',#1693);
#1693=CARTESIAN_POINT('',(1.75,-0.25,-0.9));
#1694=LINE('',#1687,#1626);
#1695=ORIENTED_EDGE('',*,*,#1696,.T.);
#1696=EDGE_CURVE('',#1692,#1697,#1699,.T.);
#1697=VERTEX_POINT('',#1698);
#1698=CARTESIAN_POINT('',(1.75,-0.25,2.8));
#1699=LINE('',#1693,#130);
#1700=ORIENTED_EDGE('',*,*,#1701,.F.);
#1701=EDGE_CURVE('',#1702,#1697,#1704,.T.);
#1702=VERTEX_POINT('',#1703);
#1703=CARTESIAN_POINT('',(1.75,-0.3,2.85));
#1704=CIRCLE('',#1660,5.E-02);
#1705=ORIENTED_EDGE('',*,*,#1706,.T.);
#1706=EDGE_CURVE('',#1702,#1356,#1324,.T.);
#1707=ADVANCED_FACE('',(#1708),#1336,.F.);
#1708=FACE_BOUND('',#1709,.F.);
#1709=EDGE_LOOP('',(#1710,#1711,#1705,#1714));
#1710=ORIENTED_EDGE('',*,*,#1639,.F.);
#1711=ORIENTED_EDGE('',*,*,#1712,.T.);
#1712=EDGE_CURVE('',#1635,#1702,#1713,.T.);
#1713=LINE('',#1636,#34);
#1714=ORIENTED_EDGE('',*,*,#1355,.F.);
#1715=ADVANCED_FACE('',(#1716),#1234,.F.);
#1716=FACE_BOUND('',#1717,.F.);
#1717=EDGE_LOOP('',(#1718,#1719,#1723,#1730,#1736,#1741,#1746,#1752,#1758,#1763,#1768,#1773));
#1718=ORIENTED_EDGE('',*,*,#1381,.F.);
#1719=ORIENTED_EDGE('',*,*,#1720,.T.);
#1720=EDGE_CURVE('',#1382,#1721,#1228,.T.);
#1721=VERTEX_POINT('',#1722);
#1722=CARTESIAN_POINT('',(0.25,-0.3,3.35));
#1723=ORIENTED_EDGE('',*,*,#1724,.T.);
#1724=EDGE_CURVE('',#1721,#1725,#1727,.T.);
#1725=VERTEX_POINT('',#1726);
#1726=CARTESIAN_POINT('',(0.25,0.25,2.8));
#1727=CIRCLE('',#1728,0.55);
#1728=AXIS2_PLACEMENT_3D('',#1729,#35,#13);
#1729=CARTESIAN_POINT('',(0.25,-0.3,2.8));
#1730=ORIENTED_EDGE('',*,*,#1731,.T.);
#1731=EDGE_CURVE('',#1725,#1732,#1734,.T.);
#1732=VERTEX_POINT('',#1733);
#1733=CARTESIAN_POINT('',(0.25,0.25,-0.9));
#1734=LINE('',#1735,#70);
#1735=CARTESIAN_POINT('',(0.25,0.25,3.35));
#1736=ORIENTED_EDGE('',*,*,#1737,.T.);
#1737=EDGE_CURVE('',#1732,#1738,#1740,.T.);
#1738=VERTEX_POINT('',#1739);
#1739=CARTESIAN_POINT('',(0.25,-5.E-02,-1.5));
#1740=LINE('',#1733,#1598);
#1741=ORIENTED_EDGE('',*,*,#1742,.T.);
#1742=EDGE_CURVE('',#1738,#1743,#1745,.T.);
#1743=VERTEX_POINT('',#1744);
#1744=CARTESIAN_POINT('',(0.25,0.218421052632,-3.2));
#1745=LINE('',#1739,#1605);
#1746=ORIENTED_EDGE('',*,*,#1747,.T.);
#1747=EDGE_CURVE('',#1743,#1748,#1750,.T.);
#1748=VERTEX_POINT('',#1749);
#1749=CARTESIAN_POINT('',(0.25,-0.281578947368,-3.2));
#1750=LINE('',#1751,#63);
#1751=CARTESIAN_POINT('',(0.25,0.25,-3.2));
#1752=ORIENTED_EDGE('',*,*,#1753,.T.);
#1753=EDGE_CURVE('',#1748,#1754,#1756,.T.);
#1754=VERTEX_POINT('',#1755);
#1755=CARTESIAN_POINT('',(0.25,-0.55,-1.5));
#1756=LINE('',#1757,#1619);
#1757=CARTESIAN_POINT('',(0.25,-0.25,-3.4));
#1758=ORIENTED_EDGE('',*,*,#1759,.T.);
#1759=EDGE_CURVE('',#1754,#1760,#1762,.T.);
#1760=VERTEX_POINT('',#1761);
#1761=CARTESIAN_POINT('',(0.25,-0.25,-0.9));
#1762=LINE('',#1755,#1626);
#1763=ORIENTED_EDGE('',*,*,#1764,.T.);
#1764=EDGE_CURVE('',#1760,#1765,#1767,.T.);
#1765=VERTEX_POINT('',#1766);
#1766=CARTESIAN_POINT('',(0.25,-0.25,2.8));
#1767=LINE('',#1761,#130);
#1768=ORIENTED_EDGE('',*,*,#1769,.F.);
#1769=EDGE_CURVE('',#1770,#1765,#1772,.T.);
#1770=VERTEX_POINT('',#1771);
#1771=CARTESIAN_POINT('',(0.25,-0.3,2.85));
#1772=CIRCLE('',#1728,5.E-02);
#1773=ORIENTED_EDGE('',*,*,#1774,.T.);
#1774=EDGE_CURVE('',#1770,#1384,#1232,.T.);
#1775=ADVANCED_FACE('',(#1776),#1250,.F.);
#1776=FACE_BOUND('',#1777,.F.);
#1777=EDGE_LOOP('',(#1778,#1779,#1780,#1784));
#1778=ORIENTED_EDGE('',*,*,#1720,.F.);
#1779=ORIENTED_EDGE('',*,*,#1401,.F.);
#1780=ORIENTED_EDGE('',*,*,#1781,.T.);
#1781=EDGE_CURVE('',#1396,#1782,#1248,.T.);
#1782=VERTEX_POINT('',#1783);
#1783=CARTESIAN_POINT('',(-0.25,-0.3,3.35));
#1784=ORIENTED_EDGE('',*,*,#1785,.F.);
#1785=EDGE_CURVE('',#1721,#1782,#1786,.T.);
#1786=LINE('',#1722,#34);
#1787=ADVANCED_FACE('',(#1788),#1265,.T.);
#1788=FACE_BOUND('',#1789,.T.);
#1789=EDGE_LOOP('',(#1394,#1780,#1790,#1797,#1803,#1808,#1813,#1819,#1825,#1830,#1835,#1840));
#1790=ORIENTED_EDGE('',*,*,#1791,.T.);
#1791=EDGE_CURVE('',#1782,#1792,#1794,.T.);
#1792=VERTEX_POINT('',#1793);
#1793=CARTESIAN_POINT('',(-0.25,0.25,2.8));
#1794=CIRCLE('',#1795,0.55);
#1795=AXIS2_PLACEMENT_3D('',#1796,#35,#13);
#1796=CARTESIAN_POINT('',(-0.25,-0.3,2.8));
#1797=ORIENTED_EDGE('',*,*,#1798,.T.);
#1798=EDGE_CURVE('',#1792,#1799,#1801,.T.);
#1799=VERTEX_POINT('',#1800);
#1800=CARTESIAN_POINT('',(-0.25,0.25,-0.9));
#1801=LINE('',#1802,#70);
#1802=CARTESIAN_POINT('',(-0.25,0.25,3.35));
#1803=ORIENTED_EDGE('',*,*,#1804,.T.);
#1804=EDGE_CURVE('',#1799,#1805,#1807,.T.);
#1805=VERTEX_POINT('',#1806);
#1806=CARTESIAN_POINT('',(-0.25,-5.E-02,-1.5));
#1807=LINE('',#1800,#1598);
#1808=ORIENTED_EDGE('',*,*,#1809,.T.);
#1809=EDGE_CURVE('',#1805,#1810,#1812,.T.);
#1810=VERTEX_POINT('',#1811);
#1811=CARTESIAN_POINT('',(-0.25,0.218421052632,-3.2));
#1812=LINE('',#1806,#1605);
#1813=ORIENTED_EDGE('',*,*,#1814,.T.);
#1814=EDGE_CURVE('',#1810,#1815,#1817,.T.);
#1815=VERTEX_POINT('',#1816);
#1816=CARTESIAN_POINT('',(-0.25,-0.281578947368,-3.2));
#1817=LINE('',#1818,#63);
#1818=CARTESIAN_POINT('',(-0.25,0.25,-3.2));
#1819=ORIENTED_EDGE('',*,*,#1820,.T.);
#1820=EDGE_CURVE('',#1815,#1821,#1823,.T.);
#1821=VERTEX_POINT('',#1822);
#1822=CARTESIAN_POINT('',(-0.25,-0.55,-1.5));
#1823=LINE('',#1824,#1619);
#1824=CARTESIAN_POINT('',(-0.25,-0.25,-3.4));
#1825=ORIENTED_EDGE('',*,*,#1826,.T.);
#1826=EDGE_CURVE('',#1821,#1827,#1829,.T.);
#1827=VERTEX_POINT('',#1828);
#1828=CARTESIAN_POINT('',(-0.25,-0.25,-0.9));
#1829=LINE('',#1822,#1626);
#1830=ORIENTED_EDGE('',*,*,#1831,.T.);
#1831=EDGE_CURVE('',#1827,#1832,#1834,.T.);
#1832=VERTEX_POINT('',#1833);
#1833=CARTESIAN_POINT('',(-0.25,-0.25,2.8));
#1834=LINE('',#1828,#130);
#1835=ORIENTED_EDGE('',*,*,#1836,.F.);
#1836=EDGE_CURVE('',#1837,#1832,#1839,.T.);
#1837=VERTEX_POINT('',#1838);
#1838=CARTESIAN_POINT('',(-0.25,-0.3,2.85));
#1839=CIRCLE('',#1795,5.E-02);
#1840=ORIENTED_EDGE('',*,*,#1841,.T.);
#1841=EDGE_CURVE('',#1837,#1390,#1263,.T.);
#1842=ADVANCED_FACE('',(#1843),#1275,.F.);
#1843=FACE_BOUND('',#1844,.F.);
#1844=EDGE_LOOP('',(#1845,#1846,#1840,#1849));
#1845=ORIENTED_EDGE('',*,*,#1774,.F.);
#1846=ORIENTED_EDGE('',*,*,#1847,.T.);
#1847=EDGE_CURVE('',#1770,#1837,#1848,.T.);
#1848=LINE('',#1771,#34);
#1849=ORIENTED_EDGE('',*,*,#1389,.F.);
#1850=ADVANCED_FACE('',(#1851),#1856,.F.);
#1851=FACE_BOUND('',#1852,.F.);
#1852=EDGE_LOOP('',(#1853,#1854,#1855,#1441));
#1853=ORIENTED_EDGE('',*,*,#1497,.T.);
#1854=ORIENTED_EDGE('',*,*,#1483,.T.);
#1855=ORIENTED_EDGE('',*,*,#1454,.F.);
#1856=PLANE('',#1857);
#1857=AXIS2_PLACEMENT_3D('',#1858,#423,#13);
#1858=CARTESIAN_POINT('',(0.25,-5.75,2.85));
#1859=ADVANCED_FACE('',(#1860),#1865,.F.);
#1860=FACE_BOUND('',#1861,.F.);
#1861=EDGE_LOOP('',(#1862,#1863,#1864,#1519));
#1862=ORIENTED_EDGE('',*,*,#1566,.T.);
#1863=ORIENTED_EDGE('',*,*,#1554,.T.);
#1864=ORIENTED_EDGE('',*,*,#1530,.F.);
#1865=PLANE('',#1866);
#1866=AXIS2_PLACEMENT_3D('',#1867,#423,#13);
#1867=CARTESIAN_POINT('',(2.25,-5.75,2.85));
#1868=ADVANCED_FACE('',(#1869),#1876,.F.);
#1869=FACE_BOUND('',#1870,.F.);
#1870=EDGE_LOOP('',(#1871,#1872,#1700,#1875));
#1871=ORIENTED_EDGE('',*,*,#1634,.T.);
#1872=ORIENTED_EDGE('',*,*,#1873,.T.);
#1873=EDGE_CURVE('',#1630,#1697,#1874,.T.);
#1874=LINE('',#1631,#34);
#1875=ORIENTED_EDGE('',*,*,#1712,.F.);
#1876=CYLINDRICAL_SURFACE('',#1585,5.E-02);
#1877=ADVANCED_FACE('',(#1878),#1885,.F.);
#1878=FACE_BOUND('',#1879,.F.);
#1879=EDGE_LOOP('',(#1880,#1881,#1695,#1884));
#1880=ORIENTED_EDGE('',*,*,#1629,.F.);
#1881=ORIENTED_EDGE('',*,*,#1882,.T.);
#1882=EDGE_CURVE('',#1623,#1692,#1883,.T.);
#1883=LINE('',#1624,#34);
#1884=ORIENTED_EDGE('',*,*,#1873,.F.);
#1885=PLANE('',#1886);
#1886=AXIS2_PLACEMENT_3D('',#1624,#423,#13);
#1887=ADVANCED_FACE('',(#1888),#1895,.F.);
#1888=FACE_BOUND('',#1889,.F.);
#1889=EDGE_LOOP('',(#1890,#1690,#1893,#1894));
#1890=ORIENTED_EDGE('',*,*,#1891,.T.);
#1891=EDGE_CURVE('',#1615,#1686,#1892,.T.);
#1892=LINE('',#1616,#34);
#1893=ORIENTED_EDGE('',*,*,#1882,.F.);
#1894=ORIENTED_EDGE('',*,*,#1622,.F.);
#1895=PLANE('',#1896);
#1896=AXIS2_PLACEMENT_3D('',#1616,#1897,#1627);
#1897=DIRECTION('',(1.095357396528E-16,0.894427191,-0.4472135955));
#1898=ADVANCED_FACE('',(#1899),#1923,.F.);
#1899=FACE_BOUND('',#1900,.F.);
#1900=EDGE_LOOP('',(#1901,#1902,#1910,#1916,#1684,#1922));
#1901=ORIENTED_EDGE('',*,*,#1614,.F.);
#1902=ORIENTED_EDGE('',*,*,#1903,.F.);
#1903=EDGE_CURVE('',#1904,#1609,#1906,.T.);
#1904=VERTEX_POINT('',#1905);
#1905=CARTESIAN_POINT('',(2.247552593066,-0.281192514695,-3.202447406934));
#1906=LINE('',#1907,#1908);
#1907=CARTESIAN_POINT('',(2.1292749658,-0.262517099863,-3.3207250342));
#1908=VECTOR('',#1909,1.);
#1909=DIRECTION('',(0.702740385383,-0.110959008218,0.702740385383));
#1910=ORIENTED_EDGE('',*,*,#1911,.T.);
#1911=EDGE_CURVE('',#1904,#1912,#1914,.T.);
#1912=VERTEX_POINT('',#1913);
#1913=CARTESIAN_POINT('',(1.752447406934,-0.281192514695,-3.202447406934));
#1914=LINE('',#1915,#34);
#1915=CARTESIAN_POINT('',(2.25,-0.281192514695,-3.202447406934));
#1916=ORIENTED_EDGE('',*,*,#1917,.T.);
#1917=EDGE_CURVE('',#1912,#1680,#1918,.T.);
#1918=LINE('',#1919,#1920);
#1919=CARTESIAN_POINT('',(1.994186046512,-0.243023255814,-3.444186046512));
#1920=VECTOR('',#1921,1.);
#1921=DIRECTION('',(-0.702740385383,-0.110959008218,0.702740385383));
#1922=ORIENTED_EDGE('',*,*,#1891,.F.);
#1923=PLANE('',#1924);
#1924=AXIS2_PLACEMENT_3D('',#1618,#1925,#1620);
#1925=DIRECTION('',(1.209660753807E-16,0.987762965329,0.155962573473));
#1926=ADVANCED_FACE('',(#1927),#1957,.T.);
#1927=FACE_BOUND('',#1928,.F.);
#1928=EDGE_LOOP('',(#1929,#1937,#1938,#1939,#1945,#1953));
#1929=ORIENTED_EDGE('',*,*,#1930,.T.);
#1930=EDGE_CURVE('',#1931,#1904,#1933,.T.);
#1931=VERTEX_POINT('',#1932);
#1932=CARTESIAN_POINT('',(2.05,-5.E-02,-3.4));
#1933=LINE('',#1934,#1935);
#1934=CARTESIAN_POINT('',(2.09198936903,-9.913946036316E-02,-3.35801063097));
#1935=VECTOR('',#1936,1.);
#1936=DIRECTION('',(0.544770019249,-0.63753529491,0.544770019249));
#1937=ORIENTED_EDGE('',*,*,#1903,.T.);
#1938=ORIENTED_EDGE('',*,*,#1608,.F.);
#1939=ORIENTED_EDGE('',*,*,#1940,.F.);
#1940=EDGE_CURVE('',#1941,#1602,#1943,.T.);
#1941=VERTEX_POINT('',#1942);
#1942=CARTESIAN_POINT('',(2.247552593066,0.218807485305,-3.202447406934));
#1943=LINE('',#1944,#1908);
#1944=CARTESIAN_POINT('',(2.629616963064,0.158481532148,-2.820383036936));
#1945=ORIENTED_EDGE('',*,*,#1946,.F.);
#1946=EDGE_CURVE('',#1947,#1941,#1949,.T.);
#1947=VERTEX_POINT('',#1948);
#1948=CARTESIAN_POINT('',(2.05,5.E-02,-3.4));
#1949=LINE('',#1950,#1951);
#1950=CARTESIAN_POINT('',(2.185852405654,0.166085051658,-3.264147594346));
#1951=VECTOR('',#1952,1.);
#1952=DIRECTION('',(0.605209817607,0.517148096144,0.605209817607));
#1953=ORIENTED_EDGE('',*,*,#1954,.T.);
#1954=EDGE_CURVE('',#1947,#1931,#1955,.T.);
#1955=LINE('',#1956,#63);
#1956=CARTESIAN_POINT('',(2.05,0.25,-3.4));
#1957=PLANE('',#1958);
#1958=AXIS2_PLACEMENT_3D('',#1959,#1960,#1961);
#1959=CARTESIAN_POINT('',(2.15,0.25,-3.3));
#1960=DIRECTION('',(0.707106781187,-8.48601883969E-17,-0.707106781187));
#1961=DIRECTION('',(1.212375546256E-16,1.,1.227125289148E-18));
#1962=ADVANCED_FACE('',(#1963),#1980,.F.);
#1963=FACE_BOUND('',#1964,.F.);
#1964=EDGE_LOOP('',(#1965,#1966,#1673,#1969,#1975,#1979));
#1965=ORIENTED_EDGE('',*,*,#1601,.F.);
#1966=ORIENTED_EDGE('',*,*,#1967,.T.);
#1967=EDGE_CURVE('',#1595,#1670,#1968,.T.);
#1968=LINE('',#1596,#34);
#1969=ORIENTED_EDGE('',*,*,#1970,.F.);
#1970=EDGE_CURVE('',#1971,#1675,#1973,.T.);
#1971=VERTEX_POINT('',#1972);
#1972=CARTESIAN_POINT('',(1.752447406934,0.218807485305,-3.202447406934));
#1973=LINE('',#1974,#1920);
#1974=CARTESIAN_POINT('',(1.493844049248,0.177975376197,-2.943844049248));
#1975=ORIENTED_EDGE('',*,*,#1976,.F.);
#1976=EDGE_CURVE('',#1941,#1971,#1977,.T.);
#1977=LINE('',#1978,#34);
#1978=CARTESIAN_POINT('',(2.25,0.218807485305,-3.202447406934));
#1979=ORIENTED_EDGE('',*,*,#1940,.T.);
#1980=PLANE('',#1981);
#1981=AXIS2_PLACEMENT_3D('',#1596,#1982,#1606);
#1982=DIRECTION('',(-1.209660753807E-16,-0.987762965329,-0.155962573473));
#1983=ADVANCED_FACE('',(#1984),#1991,.F.);
#1984=FACE_BOUND('',#1985,.F.);
#1985=EDGE_LOOP('',(#1986,#1668,#1989,#1990));
#1986=ORIENTED_EDGE('',*,*,#1987,.T.);
#1987=EDGE_CURVE('',#1589,#1664,#1988,.T.);
#1988=LINE('',#1590,#34);
#1989=ORIENTED_EDGE('',*,*,#1967,.F.);
#1990=ORIENTED_EDGE('',*,*,#1594,.F.);
#1991=PLANE('',#1992);
#1992=AXIS2_PLACEMENT_3D('',#1590,#1993,#1599);
#1993=DIRECTION('',(-1.095357396528E-16,-0.894427191,0.4472135955));
#1994=ADVANCED_FACE('',(#1995),#2002,.F.);
#1995=FACE_BOUND('',#1996,.F.);
#1996=EDGE_LOOP('',(#1997,#1998,#1662,#2001));
#1997=ORIENTED_EDGE('',*,*,#1588,.F.);
#1998=ORIENTED_EDGE('',*,*,#1999,.T.);
#1999=EDGE_CURVE('',#1582,#1657,#2000,.T.);
#2000=LINE('',#1583,#34);
#2001=ORIENTED_EDGE('',*,*,#1987,.F.);
#2002=PLANE('',#2003);
#2003=AXIS2_PLACEMENT_3D('',#1592,#64,#71);
#2004=ADVANCED_FACE('',(#2005),#2008,.T.);
#2005=FACE_BOUND('',#2006,.T.);
#2006=EDGE_LOOP('',(#1580,#1998,#2007,#1649));
#2007=ORIENTED_EDGE('',*,*,#1656,.F.);
#2008=CYLINDRICAL_SURFACE('',#1585,0.55);
#2009=ADVANCED_FACE('',(#2010),#2033,.F.);
#2010=FACE_BOUND('',#2011,.T.);
#2011=EDGE_LOOP('',(#2012,#1916,#2020,#1969,#2021,#2029));
#2012=ORIENTED_EDGE('',*,*,#2013,.T.);
#2013=EDGE_CURVE('',#2014,#1912,#2016,.T.);
#2014=VERTEX_POINT('',#2015);
#2015=CARTESIAN_POINT('',(1.95,-5.E-02,-3.4));
#2016=LINE('',#2017,#2018);
#2017=CARTESIAN_POINT('',(1.982204224438,-1.231193164325E-02,-3.432204224438));
#2018=VECTOR('',#2019,1.);
#2019=DIRECTION('',(-0.544770019249,-0.63753529491,0.544770019249));
#2020=ORIENTED_EDGE('',*,*,#1679,.F.);
#2021=ORIENTED_EDGE('',*,*,#2022,.F.);
#2022=EDGE_CURVE('',#2023,#1971,#2025,.T.);
#2023=VERTEX_POINT('',#2024);
#2024=CARTESIAN_POINT('',(1.95,5.E-02,-3.4));
#2025=LINE('',#2026,#2027);
#2026=CARTESIAN_POINT('',(1.905717325178,8.783927542193E-02,-3.355717325178));
#2027=VECTOR('',#2028,1.);
#2028=DIRECTION('',(-0.605209817607,0.517148096144,0.605209817607));
#2029=ORIENTED_EDGE('',*,*,#2030,.T.);
#2030=EDGE_CURVE('',#2023,#2014,#2031,.T.);
#2031=LINE('',#2032,#63);
#2032=CARTESIAN_POINT('',(1.95,0.25,-3.4));
#2033=PLANE('',#2034);
#2034=AXIS2_PLACEMENT_3D('',#2035,#2036,#2037);
#2035=CARTESIAN_POINT('',(1.85,0.25,-3.3));
#2036=DIRECTION('',(0.707106781187,-8.833102285019E-17,0.707106781187));
#2037=DIRECTION('',(1.236918052039E-16,1.,1.227125289148E-18));
#2038=ADVANCED_FACE('',(#2039),#2046,.F.);
#2039=FACE_BOUND('',#2040,.F.);
#2040=EDGE_LOOP('',(#2041,#2042,#1835,#2045));
#2041=ORIENTED_EDGE('',*,*,#1769,.T.);
#2042=ORIENTED_EDGE('',*,*,#2043,.T.);
#2043=EDGE_CURVE('',#1765,#1832,#2044,.T.);
#2044=LINE('',#1766,#34);
#2045=ORIENTED_EDGE('',*,*,#1847,.F.);
#2046=CYLINDRICAL_SURFACE('',#1728,5.E-02);
#2047=ADVANCED_FACE('',(#2048),#2055,.F.);
#2048=FACE_BOUND('',#2049,.F.);
#2049=EDGE_LOOP('',(#2050,#2051,#1830,#2054));
#2050=ORIENTED_EDGE('',*,*,#1764,.F.);
#2051=ORIENTED_EDGE('',*,*,#2052,.T.);
#2052=EDGE_CURVE('',#1760,#1827,#2053,.T.);
#2053=LINE('',#1761,#34);
#2054=ORIENTED_EDGE('',*,*,#2043,.F.);
#2055=PLANE('',#2056);
#2056=AXIS2_PLACEMENT_3D('',#1761,#423,#13);
#2057=ADVANCED_FACE('',(#2058),#2065,.F.);
#2058=FACE_BOUND('',#2059,.F.);
#2059=EDGE_LOOP('',(#2060,#1825,#2063,#2064));
#2060=ORIENTED_EDGE('',*,*,#2061,.T.);
#2061=EDGE_CURVE('',#1754,#1821,#2062,.T.);
#2062=LINE('',#1755,#34);
#2063=ORIENTED_EDGE('',*,*,#2052,.F.);
#2064=ORIENTED_EDGE('',*,*,#1759,.F.);
#2065=PLANE('',#2066);
#2066=AXIS2_PLACEMENT_3D('',#1755,#1897,#1627);
#2067=ADVANCED_FACE('',(#2068),#2088,.F.);
#2068=FACE_BOUND('',#2069,.F.);
#2069=EDGE_LOOP('',(#2070,#2071,#2077,#2083,#1819,#2087));
#2070=ORIENTED_EDGE('',*,*,#1753,.F.);
#2071=ORIENTED_EDGE('',*,*,#2072,.F.);
#2072=EDGE_CURVE('',#2073,#1748,#2075,.T.);
#2073=VERTEX_POINT('',#2074);
#2074=CARTESIAN_POINT('',(0.247552593066,-0.281192514695,-3.202447406934));
#2075=LINE('',#2076,#1908);
#2076=CARTESIAN_POINT('',(0.1292749658,-0.262517099863,-3.3207250342));
#2077=ORIENTED_EDGE('',*,*,#2078,.T.);
#2078=EDGE_CURVE('',#2073,#2079,#2081,.T.);
#2079=VERTEX_POINT('',#2080);
#2080=CARTESIAN_POINT('',(-0.247552593066,-0.281192514695,-3.202447406934));
#2081=LINE('',#2082,#34);
#2082=CARTESIAN_POINT('',(0.25,-0.281192514695,-3.202447406934));
#2083=ORIENTED_EDGE('',*,*,#2084,.T.);
#2084=EDGE_CURVE('',#2079,#1815,#2085,.T.);
#2085=LINE('',#2086,#1920);
#2086=CARTESIAN_POINT('',(-5.813953488372E-03,-0.243023255814,-3.444186046512));
#2087=ORIENTED_EDGE('',*,*,#2061,.F.);
#2088=PLANE('',#2089);
#2089=AXIS2_PLACEMENT_3D('',#1757,#1925,#1620);
#2090=ADVANCED_FACE('',(#2091),#2117,.T.);
#2091=FACE_BOUND('',#2092,.F.);
#2092=EDGE_LOOP('',(#2093,#2099,#2100,#2101,#2107,#2113));
#2093=ORIENTED_EDGE('',*,*,#2094,.T.);
#2094=EDGE_CURVE('',#2095,#2073,#2097,.T.);
#2095=VERTEX_POINT('',#2096);
#2096=CARTESIAN_POINT('',(5.E-02,-5.E-02,-3.4));
#2097=LINE('',#2098,#1935);
#2098=CARTESIAN_POINT('',(9.198936903048E-02,-9.913946036316E-02,-3.35801063097));
#2099=ORIENTED_EDGE('',*,*,#2072,.T.);
#2100=ORIENTED_EDGE('',*,*,#1747,.F.);
#2101=ORIENTED_EDGE('',*,*,#2102,.F.);
#2102=EDGE_CURVE('',#2103,#1743,#2105,.T.);
#2103=VERTEX_POINT('',#2104);
#2104=CARTESIAN_POINT('',(0.247552593066,0.218807485305,-3.202447406934));
#2105=LINE('',#2106,#1908);
#2106=CARTESIAN_POINT('',(0.629616963064,0.158481532148,-2.820383036936));
#2107=ORIENTED_EDGE('',*,*,#2108,.F.);
#2108=EDGE_CURVE('',#2109,#2103,#2111,.T.);
#2109=VERTEX_POINT('',#2110);
#2110=CARTESIAN_POINT('',(5.E-02,5.E-02,-3.4));
#2111=LINE('',#2112,#1951);
#2112=CARTESIAN_POINT('',(0.185852405654,0.166085051658,-3.264147594346));
#2113=ORIENTED_EDGE('',*,*,#2114,.T.);
#2114=EDGE_CURVE('',#2109,#2095,#2115,.T.);
#2115=LINE('',#2116,#63);
#2116=CARTESIAN_POINT('',(5.E-02,0.25,-3.4));
#2117=PLANE('',#2118);
#2118=AXIS2_PLACEMENT_3D('',#2119,#1960,#1961);
#2119=CARTESIAN_POINT('',(0.15,0.25,-3.3));
#2120=ADVANCED_FACE('',(#2121),#2138,.F.);
#2121=FACE_BOUND('',#2122,.F.);
#2122=EDGE_LOOP('',(#2123,#2124,#1808,#2127,#2133,#2137));
#2123=ORIENTED_EDGE('',*,*,#1742,.F.);
#2124=ORIENTED_EDGE('',*,*,#2125,.T.);
#2125=EDGE_CURVE('',#1738,#1805,#2126,.T.);
#2126=LINE('',#1739,#34);
#2127=ORIENTED_EDGE('',*,*,#2128,.F.);
#2128=EDGE_CURVE('',#2129,#1810,#2131,.T.);
#2129=VERTEX_POINT('',#2130);
#2130=CARTESIAN_POINT('',(-0.247552593066,0.218807485305,-3.202447406934));
#2131=LINE('',#2132,#1920);
#2132=CARTESIAN_POINT('',(-0.506155950752,0.177975376197,-2.943844049248));
#2133=ORIENTED_EDGE('',*,*,#2134,.F.);
#2134=EDGE_CURVE('',#2103,#2129,#2135,.T.);
#2135=LINE('',#2136,#34);
#2136=CARTESIAN_POINT('',(0.25,0.218807485305,-3.202447406934));
#2137=ORIENTED_EDGE('',*,*,#2102,.T.);
#2138=PLANE('',#2139);
#2139=AXIS2_PLACEMENT_3D('',#1739,#1982,#1606);
#2140=ADVANCED_FACE('',(#2141),#2148,.F.);
#2141=FACE_BOUND('',#2142,.F.);
#2142=EDGE_LOOP('',(#2143,#1803,#2146,#2147));
#2143=ORIENTED_EDGE('',*,*,#2144,.T.);
#2144=EDGE_CURVE('',#1732,#1799,#2145,.T.);
#2145=LINE('',#1733,#34);
#2146=ORIENTED_EDGE('',*,*,#2125,.F.);
#2147=ORIENTED_EDGE('',*,*,#1737,.F.);
#2148=PLANE('',#2149);
#2149=AXIS2_PLACEMENT_3D('',#1733,#1993,#1599);
#2150=ADVANCED_FACE('',(#2151),#2158,.F.);
#2151=FACE_BOUND('',#2152,.F.);
#2152=EDGE_LOOP('',(#2153,#2154,#1797,#2157));
#2153=ORIENTED_EDGE('',*,*,#1731,.F.);
#2154=ORIENTED_EDGE('',*,*,#2155,.T.);
#2155=EDGE_CURVE('',#1725,#1792,#2156,.T.);
#2156=LINE('',#1726,#34);
#2157=ORIENTED_EDGE('',*,*,#2144,.F.);
#2158=PLANE('',#2159);
#2159=AXIS2_PLACEMENT_3D('',#1735,#64,#71);
#2160=ADVANCED_FACE('',(#2161),#2164,.T.);
#2161=FACE_BOUND('',#2162,.T.);
#2162=EDGE_LOOP('',(#1723,#2154,#2163,#1784));
#2163=ORIENTED_EDGE('',*,*,#1791,.F.);
#2164=CYLINDRICAL_SURFACE('',#1728,0.55);
#2165=ADVANCED_FACE('',(#2166),#2185,.F.);
#2166=FACE_BOUND('',#2167,.T.);
#2167=EDGE_LOOP('',(#2168,#2083,#2174,#2127,#2175,#2181));
#2168=ORIENTED_EDGE('',*,*,#2169,.T.);
#2169=EDGE_CURVE('',#2170,#2079,#2172,.T.);
#2170=VERTEX_POINT('',#2171);
#2171=CARTESIAN_POINT('',(-5.E-02,-5.E-02,-3.4));
#2172=LINE('',#2173,#2018);
#2173=CARTESIAN_POINT('',(-1.77957755624E-02,-1.231193164325E-02,-3.432204224438));
#2174=ORIENTED_EDGE('',*,*,#1814,.F.);
#2175=ORIENTED_EDGE('',*,*,#2176,.F.);
#2176=EDGE_CURVE('',#2177,#2129,#2179,.T.);
#2177=VERTEX_POINT('',#2178);
#2178=CARTESIAN_POINT('',(-5.E-02,5.E-02,-3.4));
#2179=LINE('',#2180,#2027);
#2180=CARTESIAN_POINT('',(-9.428267482221E-02,8.783927542193E-02,-3.355717325178));
#2181=ORIENTED_EDGE('',*,*,#2182,.T.);
#2182=EDGE_CURVE('',#2177,#2170,#2183,.T.);
#2183=LINE('',#2184,#63);
#2184=CARTESIAN_POINT('',(-5.E-02,0.25,-3.4));
#2185=PLANE('',#2186);
#2186=AXIS2_PLACEMENT_3D('',#2187,#2036,#2037);
#2187=CARTESIAN_POINT('',(-0.15,0.25,-3.3));
#2188=ADVANCED_FACE('',(#2189),#2197,.T.);
#2189=FACE_BOUND('',#2190,.F.);
#2190=EDGE_LOOP('',(#2191,#2192,#2012,#2196));
#2191=ORIENTED_EDGE('',*,*,#1930,.F.);
#2192=ORIENTED_EDGE('',*,*,#2193,.T.);
#2193=EDGE_CURVE('',#1931,#2014,#2194,.T.);
#2194=LINE('',#2195,#34);
#2195=CARTESIAN_POINT('',(2.25,-5.E-02,-3.4));
#2196=ORIENTED_EDGE('',*,*,#1911,.F.);
#2197=PLANE('',#2198);
#2198=AXIS2_PLACEMENT_3D('',#2199,#2200,#2201);
#2199=CARTESIAN_POINT('',(2.25,-0.165596257347,-3.301223703467));
#2200=DIRECTION('',(-8.302774088376E-17,-0.64962967394,-0.760250805153));
#2201=DIRECTION('',(1.,-1.247195775152E-16,-2.638869166624E-18));
#2202=ADVANCED_FACE('',(#2203),#2211,.F.);
#2203=FACE_BOUND('',#2204,.F.);
#2204=EDGE_LOOP('',(#2205,#2206,#2207,#2029));
#2205=ORIENTED_EDGE('',*,*,#2193,.F.);
#2206=ORIENTED_EDGE('',*,*,#1954,.F.);
#2207=ORIENTED_EDGE('',*,*,#2208,.T.);
#2208=EDGE_CURVE('',#1947,#2023,#2209,.T.);
#2209=LINE('',#2210,#34);
#2210=CARTESIAN_POINT('',(2.25,5.E-02,-3.4));
#2211=PLANE('',#2212);
#2212=AXIS2_PLACEMENT_3D('',#2213,#13,#64);
#2213=CARTESIAN_POINT('',(2.25,0.25,-3.4));
#2214=ADVANCED_FACE('',(#2215),#2218,.T.);
#2215=FACE_BOUND('',#2216,.T.);
#2216=EDGE_LOOP('',(#1945,#2207,#2217,#1975));
#2217=ORIENTED_EDGE('',*,*,#2022,.T.);
#2218=PLANE('',#2219);
#2219=AXIS2_PLACEMENT_3D('',#2220,#2221,#2222);
#2220=CARTESIAN_POINT('',(2.25,0.134403742653,-3.301223703467));
#2221=DIRECTION('',(9.136856246228E-17,0.760250805153,-0.64962967394));
#2222=DIRECTION('',(-1.,1.211454098155E-16,1.127308249583E-18));
#2223=ADVANCED_FACE('',(#2224),#2232,.T.);
#2224=FACE_BOUND('',#2225,.F.);
#2225=EDGE_LOOP('',(#2226,#2227,#2168,#2231));
#2226=ORIENTED_EDGE('',*,*,#2094,.F.);
#2227=ORIENTED_EDGE('',*,*,#2228,.T.);
#2228=EDGE_CURVE('',#2095,#2170,#2229,.T.);
#2229=LINE('',#2230,#34);
#2230=CARTESIAN_POINT('',(0.25,-5.E-02,-3.4));
#2231=ORIENTED_EDGE('',*,*,#2078,.F.);
#2232=PLANE('',#2233);
#2233=AXIS2_PLACEMENT_3D('',#2234,#2200,#2201);
#2234=CARTESIAN_POINT('',(0.25,-0.165596257347,-3.301223703467));
#2235=ADVANCED_FACE('',(#2236),#2244,.F.);
#2236=FACE_BOUND('',#2237,.F.);
#2237=EDGE_LOOP('',(#2238,#2239,#2240,#2181));
#2238=ORIENTED_EDGE('',*,*,#2228,.F.);
#2239=ORIENTED_EDGE('',*,*,#2114,.F.);
#2240=ORIENTED_EDGE('',*,*,#2241,.T.);
#2241=EDGE_CURVE('',#2109,#2177,#2242,.T.);
#2242=LINE('',#2243,#34);
#2243=CARTESIAN_POINT('',(0.25,5.E-02,-3.4));
#2244=PLANE('',#2245);
#2245=AXIS2_PLACEMENT_3D('',#2246,#13,#64);
#2246=CARTESIAN_POINT('',(0.25,0.25,-3.4));
#2247=ADVANCED_FACE('',(#2248),#2251,.T.);
#2248=FACE_BOUND('',#2249,.T.);
#2249=EDGE_LOOP('',(#2107,#2240,#2250,#2133));
#2250=ORIENTED_EDGE('',*,*,#2176,.T.);
#2251=PLANE('',#2252);
#2252=AXIS2_PLACEMENT_3D('',#2253,#2221,#2222);
#2253=CARTESIAN_POINT('',(0.25,0.134403742653,-3.301223703467));
#2254=( GEOMETRIC_REPRESENTATION_CONTEXT(3)GLOBAL_UNCERTAINTY_ASSIGNED_CONTEXT((#2258))GLOBAL_UNIT_ASSIGNED_CONTEXT((#2255,#2256,#2257)) REPRESENTATION_CONTEXT('Context #1','3D Context with UNIT and UNCERTAINTY') );
#2255=( LENGTH_UNIT() NAMED_UNIT(*) SI_UNIT(.MILLI.,.METRE.) );
#2256=( NAMED_UNIT(*) PLANE_ANGLE_UNIT() SI_UNIT($,.RADIAN.) );
#2257=( NAMED_UNIT(*) SI_UNIT($,.STERADIAN.) SOLID_ANGLE_UNIT() );
#2258=UNCERTAINTY_MEASURE_WITH_UNIT(LENGTH_MEASURE(1.E-05),#2255,'distance_accuracy_value','confusion accuracy');
#2259=PRODUCT_RELATED_PRODUCT_CATEGORY('part',$,(#7));
#2260=MECHANICAL_DESIGN_GEOMETRIC_PRESENTATION_REPRESENTATION('',(#2261,#2269,#2270,#2271,#2272,#2273,#2274,#2275,#2276,#2277,#2278,#2279,#2280,#2281,#2282,#2283,#2284,#2285,#2286,#2287,#2288,#2289,#2290,#2291,#2292,#2293,#2294,#2295,#2296,#2297,#2298,#2299,#2300,#2301,#2302,#2303,#2304,#2305,#2306,#2307,#2308,#2309,#2310,#2311,#2312,#2313,#2314,#2315,#2316,#2317,#2318,#2319,#2320,#2321,#2322,#2330,#2331,#2332,#2333,#2334,#2335,#2336,#2337,#2338,#2339,#2340,#2341,#2342,#2343,#2344,#2345,#2346,#2347,#2348,#2349,#2350,#2351,#2352,#2353,#2354,#2355,#2356,#2357,#2358,#2359,#2360,#2361,#2362,#2363,#2364,#2365,#2366,#2367,#2368,#2369,#2370,#2371,#2372,#2373,#2374,#2375,#2376,#2377,#2378,#2379,#2380,#2381,#2382,#2383,#2384),#2254);
#2261=STYLED_ITEM('color',(#2262),#17);
#2262=PRESENTATION_STYLE_ASSIGNMENT((#2263));
#2263=SURFACE_STYLE_USAGE(.BOTH.,#2264);
#2264=SURFACE_SIDE_STYLE('',(#2265));
#2265=SURFACE_STYLE_FILL_AREA(#2266);
#2266=FILL_AREA_STYLE('',(#2267));
#2267=FILL_AREA_STYLE_COLOUR('',#2268);
#2268=COLOUR_RGB('',0.89411765337,0.890196084976,0.811764717102);
#2269=STYLED_ITEM('color',(#2262),#48);
#2270=STYLED_ITEM('color',(#2262),#112);
#2271=STYLED_ITEM('color',(#2262),#177);
#2272=STYLED_ITEM('color',(#2262),#211);
#2273=STYLED_ITEM('color',(#2262),#221);
#2274=STYLED_ITEM('color',(#2262),#234);
#2275=STYLED_ITEM('color',(#2262),#248);
#2276=STYLED_ITEM('color',(#2262),#263);
#2277=STYLED_ITEM('color',(#2262),#299);
#2278=STYLED_ITEM('color',(#2262),#384);
#2279=STYLED_ITEM('color',(#2262),#402);
#2280=STYLED_ITEM('color',(#2262),#410);
#2281=STYLED_ITEM('color',(#2262),#462);
#2282=STYLED_ITEM('color',(#2262),#469);
#2283=STYLED_ITEM('color',(#2262),#502);
#2284=STYLED_ITEM('color',(#2262),#537);
#2285=STYLED_ITEM('color',(#2262),#549);
#2286=STYLED_ITEM('color',(#2262),#598);
#2287=STYLED_ITEM('color',(#2262),#611);
#2288=STYLED_ITEM('color',(#2262),#632);
#2289=STYLED_ITEM('color',(#2262),#701);
#2290=STYLED_ITEM('color',(#2262),#776);
#2291=STYLED_ITEM('color',(#2262),#807);
#2292=STYLED_ITEM('color',(#2262),#824);
#2293=STYLED_ITEM('color',(#2262),#833);
#2294=STYLED_ITEM('color',(#2262),#843);
#2295=STYLED_ITEM('color',(#2262),#853);
#2296=STYLED_ITEM('color',(#2262),#869);
#2297=STYLED_ITEM('color',(#2262),#886);
#2298=STYLED_ITEM('color',(#2262),#894);
#2299=STYLED_ITEM('color',(#2262),#916);
#2300=STYLED_ITEM('color',(#2262),#944);
#2301=STYLED_ITEM('color',(#2262),#954);
#2302=STYLED_ITEM('color',(#2262),#984);
#2303=STYLED_ITEM('color',(#2262),#998);
#2304=STYLED_ITEM('color',(#2262),#1022);
#2305=STYLED_ITEM('color',(#2262),#1032);
#2306=STYLED_ITEM('color',(#2262),#1043);
#2307=STYLED_ITEM('color',(#2262),#1051);
#2308=STYLED_ITEM('color',(#2262),#1076);
#2309=STYLED_ITEM('color',(#2262),#1094);
#2310=STYLED_ITEM('color',(#2262),#1105);
#2311=STYLED_ITEM('color',(#2262),#1115);
#2312=STYLED_ITEM('color',(#2262),#1129);
#2313=STYLED_ITEM('color',(#2262),#1143);
#2314=STYLED_ITEM('color',(#2262),#1152);
#2315=STYLED_ITEM('color',(#2262),#1159);
#2316=STYLED_ITEM('color',(#2262),#1165);
#2317=STYLED_ITEM('color',(#2262),#1175);
#2318=STYLED_ITEM('color',(#2262),#1183);
#2319=STYLED_ITEM('color',(#2262),#1193);
#2320=STYLED_ITEM('color',(#2262),#1201);
#2321=STYLED_ITEM('color',(#2262),#1208);
#2322=STYLED_ITEM('color',(#2323),#1216);
#2323=PRESENTATION_STYLE_ASSIGNMENT((#2324));
#2324=SURFACE_STYLE_USAGE(.BOTH.,#2325);
#2325=SURFACE_SIDE_STYLE('',(#2326));
#2326=SURFACE_STYLE_FILL_AREA(#2327);
#2327=FILL_AREA_STYLE('',(#2328));
#2328=FILL_AREA_STYLE_COLOUR('',#2329);
#2329=COLOUR_RGB('',0.823529422283,0.819607853889,0.780392169952);
#2330=STYLED_ITEM('color',(#2323),#1237);
#2331=STYLED_ITEM('color',(#2323),#1252);
#2332=STYLED_ITEM('color',(#2323),#1268);
#2333=STYLED_ITEM('color',(#2323),#1277);
#2334=STYLED_ITEM('color',(#2323),#1298);
#2335=STYLED_ITEM('color',(#2323),#1313);
#2336=STYLED_ITEM('color',(#2323),#1329);
#2337=STYLED_ITEM('color',(#2262),#1338);
#2338=STYLED_ITEM('color',(#2262),#1372);
#2339=STYLED_ITEM('color',(#2262),#1406);
#2340=STYLED_ITEM('color',(#2262),#1415);
#2341=STYLED_ITEM('color',(#2323),#1422);
#2342=STYLED_ITEM('color',(#2323),#1450);
#2343=STYLED_ITEM('color',(#2323),#1470);
#2344=STYLED_ITEM('color',(#2323),#1491);
#2345=STYLED_ITEM('color',(#2323),#1504);
#2346=STYLED_ITEM('color',(#2323),#1526);
#2347=STYLED_ITEM('color',(#2323),#1543);
#2348=STYLED_ITEM('color',(#2323),#1560);
#2349=STYLED_ITEM('color',(#2323),#1572);
#2350=STYLED_ITEM('color',(#2323),#1640);
#2351=STYLED_ITEM('color',(#2323),#1652);
#2352=STYLED_ITEM('color',(#2323),#1707);
#2353=STYLED_ITEM('color',(#2323),#1715);
#2354=STYLED_ITEM('color',(#2323),#1775);
#2355=STYLED_ITEM('color',(#2323),#1787);
#2356=STYLED_ITEM('color',(#2323),#1842);
#2357=STYLED_ITEM('color',(#2323),#1850);
#2358=STYLED_ITEM('color',(#2323),#1859);
#2359=STYLED_ITEM('color',(#2323),#1868);
#2360=STYLED_ITEM('color',(#2323),#1877);
#2361=STYLED_ITEM('color',(#2323),#1887);
#2362=STYLED_ITEM('color',(#2323),#1898);
#2363=STYLED_ITEM('color',(#2323),#1926);
#2364=STYLED_ITEM('color',(#2323),#1962);
#2365=STYLED_ITEM('color',(#2323),#1983);
#2366=STYLED_ITEM('color',(#2323),#1994);
#2367=STYLED_ITEM('color',(#2323),#2004);
#2368=STYLED_ITEM('color',(#2323),#2009);
#2369=STYLED_ITEM('color',(#2323),#2038);
#2370=STYLED_ITEM('color',(#2323),#2047);
#2371=STYLED_ITEM('color',(#2323),#2057);
#2372=STYLED_ITEM('color',(#2323),#2067);
#2373=STYLED_ITEM('color',(#2323),#2090);
#2374=STYLED_ITEM('color',(#2323),#2120);
#2375=STYLED_ITEM('color',(#2323),#2140);
#2376=STYLED_ITEM('color',(#2323),#2150);
#2377=STYLED_ITEM('color',(#2323),#2160);
#2378=STYLED_ITEM('color',(#2323),#2165);
#2379=STYLED_ITEM('color',(#2323),#2188);
#2380=STYLED_ITEM('color',(#2323),#2202);
#2381=STYLED_ITEM('color',(#2323),#2214);
#2382=STYLED_ITEM('color',(#2323),#2223);
#2383=STYLED_ITEM('color',(#2323),#2235);
#2384=STYLED_ITEM('color',(#2323),#2247);
ENDSEC;
END-ISO-10303-21;
